<?xml version="1.0" encoding="UTF-8"?>
<svg width="512" height="512" version="1.1" viewBox="0 0 135.47 135.47" xmlns="http://www.w3.org/2000/svg" xmlns:xlink="http://www.w3.org/1999/xlink"><defs><linearGradient id="a"><stop offset="0"/><stop stop-color="#8c82c6" offset="1"/></linearGradient><linearGradient id="f" x1="-15.368" x2="40.195" y1="45.647" y2="45.647" gradientTransform="matrix(1.9321 0 0 1.9321 46.473 -44.962)" gradientUnits="userSpaceOnUse" xlink:href="#a"/><linearGradient id="e" x1="56.293" x2="111.63" y1="107.41" y2="107.41" gradientTransform="matrix(1.9428 0 0 1.9273 -89.907 -106.48)" gradientUnits="userSpaceOnUse" xlink:href="#a"/><linearGradient id="d" x1="21.593" x2="129.55" y1="35.344" y2="35.344" gradientTransform="translate(-.30638 .31482)" gradientUnits="userSpaceOnUse" xlink:href="#a"/></defs><g transform="matrix(1.0593 0 0 1.0593 -5.8488 -8.8298)"><g stroke-width=".99989"><rect x="13.944" y="16.632" width="112.47" height="112.47" fill="none" style="paint-order:normal"/><rect x="19.46" y="73.025" width="107.95" height="56.093" fill="url(#e)" fill-rule="evenodd" style="paint-order:normal"/><path d="m54.783 82.234 37.128 19.913-37.507 17.615z" fill="#fff" fill-rule="evenodd"/></g><g transform="rotate(-15 104 68.952)"><g transform="matrix(1.0056 0 0 1.0006 4.413 -7.6023)" stroke-width=".9969"><rect x="16.78" y="27.897" width="107.35" height="30.673" fill="url(#f)"/><g fill="#fff"><path transform="scale(.26459)" d="m170.16 105.44h-45.256l-61.486 61.486v45.254z"/><path transform="scale(.26459)" d="m287.97 105.44h-45.256l-115.92 115.92h45.254z"/><path transform="scale(.26459)" d="m405.78 105.44h-45.256l-115.92 115.92h45.256z"/><path transform="scale(.26459)" d="m469.15 159.88v-45.256l-106.74 106.74h45.254z"/></g></g><rect x="24.461" y="23.488" width="101.6" height="24.342" fill="none" stroke="url(#d)" stroke-width="6.3502"/></g></g></svg>
