<?xml version="1.0" encoding="UTF-8"?>
<svg version="1.1" viewBox="0 0 512 512" xmlns="http://www.w3.org/2000/svg" xmlns:xlink="http://www.w3.org/1999/xlink"><defs><linearGradient id="linearGradient11887" x1="257" x2="256.85" y1="-96.577" y2="-70.053" gradientTransform="matrix(2.0389 0 0 3.2039 -462.45 341.06)" gradientUnits="userSpaceOnUse"><stop stop-color="#08044d" offset="0"/><stop stop-color="#4d4cd2" offset="1"/></linearGradient></defs><g transform="matrix(3.7795 0 0 3.7795 24 24)"><rect x="2.046" y="2.046" width="118.67" height="118.67" fill="url(#linearGradient11887)" stroke="#000" stroke-linejoin="round" stroke-width="4.092" style="paint-order:fill markers stroke"/><g fill="#fff"><path d="m68.013 48.063a6.615 6.4068 0 0 1-6.615 6.4068 6.615 6.4068 0 0 1-6.615-6.4068 6.615 6.4068 0 0 1 6.615-6.4068 6.615 6.4068 0 0 1 6.615 6.4068z" stop-color="#000000" stroke-width="1.4605" style="paint-order:markers fill stroke"/><path d="m16.715 54.873a2.851 2.7613 0 0 1-2.851 2.7613 2.851 2.7613 0 0 1-2.851-2.7613 2.851 2.7613 0 0 1 2.851-2.7613 2.851 2.7613 0 0 1 2.851 2.7613z" stop-color="#000000" stroke-width="1.4605" style="paint-order:markers fill stroke"/><g><g transform="matrix(.14862 .11193 -.11183 .1485 79.444 44.431)" stroke-width="5.4519"><path d="m16.065 1.1c2.573-0.0062 3.1214 8.6976 4.4079 9.8157s10.157-0.9442 10.586 1.2299-6.9029 5.7268-7.6381 7.4661 3.4427 9.1014 1.9111 10.406c-1.5316 1.3045-7.3676-5.0569-9.2667-5.0569s-7.6128 5.9887-9.1443 4.8706c-1.5316-1.1181 2.2787-8.7128 1.7886-10.328s-8.1047-5.2458-7.638-7.3578 8.9928-0.0496 10.402-1.1056c1.409-1.0561 2.4476-9.8779 4.5918-9.94" fill="#fff" fill-rule="evenodd" stroke-width="4.4121"/></g><g transform="matrix(.34797 .26206 -.26184 .34768 91.171 5.9717)" stroke-width="2.3285"><path d="m16.065 1.1c2.573-0.0062 3.1214 8.6976 4.4079 9.8157s10.157-0.9442 10.586 1.2299-6.9029 5.7268-7.6381 7.4661 3.4427 9.1014 1.9111 10.406c-1.5316 1.3045-7.3676-5.0569-9.2667-5.0569s-7.6128 5.9887-9.1443 4.8706c-1.5316-1.1181 2.2787-8.7128 1.7886-10.328s-8.1047-5.2458-7.638-7.3578 8.9928-0.0496 10.402-1.1056c1.409-1.0561 2.4476-9.8779 4.5918-9.94" fill="#fff" fill-rule="evenodd" stroke-width="1.8844"/></g><g transform="matrix(.23139 .17426 -.17411 .23119 63.995 4.1506)" stroke-width="3.5017"><path d="m16.065 1.1c2.573-0.0062 3.1214 8.6976 4.4079 9.8157s10.157-0.9442 10.586 1.2299-6.9029 5.7268-7.6381 7.4661 3.4427 9.1014 1.9111 10.406c-1.5316 1.3045-7.3676-5.0569-9.2667-5.0569s-7.6128 5.9887-9.1443 4.8706c-1.5316-1.1181 2.2787-8.7128 1.7886-10.328s-8.1047-5.2458-7.638-7.3578 8.9928-0.0496 10.402-1.1056c1.409-1.0561 2.4476-9.8779 4.5918-9.94" fill="#fff" fill-rule="evenodd" stroke-width="2.8339"/></g><g transform="matrix(.42844 .10373 -.10364 .42809 12.041 6.4605)" stroke-width="2.301"><path d="m16.065 1.1c2.573-0.0062 3.1214 8.6976 4.4079 9.8157s10.157-0.9442 10.586 1.2299-6.9029 5.7268-7.6381 7.4661 3.4427 9.1014 1.9111 10.406c-1.5316 1.3045-7.3676-5.0569-9.2667-5.0569s-7.6128 5.9887-9.1443 4.8706c-1.5316-1.1181 2.2787-8.7128 1.7886-10.328s-8.1047-5.2458-7.638-7.3578 8.9928-0.0496 10.402-1.1056c1.409-1.0561 2.4476-9.8779 4.5918-9.94" fill="#fff" fill-rule="evenodd" stroke-width="1.8621"/></g><g transform="matrix(.63153 0 0 .631 35.19 6.1041)" stroke-width="1.6062"><path d="m16.065 1.1c2.573-0.0062 3.1214 8.6976 4.4079 9.8157s10.157-0.9442 10.586 1.2299-6.9029 5.7268-7.6381 7.4661 3.4427 9.1014 1.9111 10.406c-1.5316 1.3045-7.3676-5.0569-9.2667-5.0569s-7.6128 5.9887-9.1443 4.8706c-1.5316-1.1181 2.2787-8.7128 1.7886-10.328s-8.1047-5.2458-7.638-7.3578 8.9928-0.0496 10.402-1.1056c1.409-1.0561 2.4476-9.8779 4.5918-9.94" fill="#fff" fill-rule="evenodd" stroke-width="1.2998"/></g></g><g stroke-width="1.4605"><path d="m115.36 14.673a5.81 5.6272 0 0 1-5.81 5.6272 5.81 5.6272 0 0 1-5.81-5.6272 5.81 5.6272 0 0 1 5.81-5.6272 5.81 5.6272 0 0 1 5.81 5.6272z" stop-color="#000000" style="paint-order:markers fill stroke"/><path d="m19.637 34.889a6.0994 5.9075 0 0 1-6.0994 5.9075 6.0994 5.9075 0 0 1-6.0994-5.9075 6.0994 5.9075 0 0 1 6.0994-5.9075 6.0994 5.9075 0 0 1 6.0994 5.9075z" stop-color="#000000" style="paint-order:markers fill stroke"/><path d="m114.36 63.515a6.0994 5.9075 0 0 1-6.0994 5.9075 6.0994 5.9075 0 0 1-6.0994-5.9075 6.0994 5.9075 0 0 1 6.0994-5.9075 6.0994 5.9075 0 0 1 6.0994 5.9075z" stop-color="#000000" style="paint-order:markers fill stroke"/><path d="m69.148 31.745a3.8516 3.7304 0 0 1-3.8516 3.7304 3.8516 3.7304 0 0 1-3.8516-3.7304 3.8516 3.7304 0 0 1 3.8516-3.7304 3.8516 3.7304 0 0 1 3.8516 3.7304z" stop-color="#000000" style="paint-order:markers fill stroke"/><path d="m44.504 39.067a8.9684 8.6862 0 0 1-8.9684 8.6862 8.9684 8.6862 0 0 1-8.9684-8.6862 8.9684 8.6862 0 0 1 8.9684-8.6862 8.9684 8.6862 0 0 1 8.9684 8.6862z" stop-color="#000000" style="paint-order:markers fill stroke"/><path d="m102.88 49.742a4.9144 4.7598 0 0 1-4.9144 4.7598 4.9144 4.7598 0 0 1-4.9144-4.7598 4.9144 4.7598 0 0 1 4.9144-4.7598 4.9144 4.7598 0 0 1 4.9144 4.7598z" stop-color="#000000" style="paint-order:markers fill stroke"/><path d="m39.285 56.255a2.5827 2.5014 0 0 1-2.5827 2.5014 2.5827 2.5014 0 0 1-2.5827-2.5014 2.5827 2.5014 0 0 1 2.5827-2.5014 2.5827 2.5014 0 0 1 2.5827 2.5014z" stop-color="#000000" style="paint-order:markers fill stroke"/><path d="m94.171 62.913a2.5827 2.5014 0 0 1-2.5827 2.5014 2.5827 2.5014 0 0 1-2.5827-2.5014 2.5827 2.5014 0 0 1 2.5827-2.5014 2.5827 2.5014 0 0 1 2.5827 2.5014z" stop-color="#000000" style="paint-order:markers fill stroke"/><path d="m108.26 31.371a4.4591 4.3188 0 0 1-4.4591 4.3188 4.4591 4.3188 0 0 1-4.4591-4.3188 4.4591 4.3188 0 0 1 4.4591-4.3188 4.4591 4.3188 0 0 1 4.4591 4.3188z" stop-color="#000000" style="paint-order:markers fill stroke"/><path d="m86.178 32.052a3.8275 3.707 0 0 1-3.8275 3.707 3.8275 3.707 0 0 1-3.8275-3.707 3.8275 3.707 0 0 1 3.8275-3.707 3.8275 3.707 0 0 1 3.8275 3.707z" stop-color="#000000" style="paint-order:markers fill stroke"/><path d="m24.335 69.627a4.2467 4.1131 0 0 1-4.2467 4.1131 4.2467 4.1131 0 0 1-4.2468-4.1131 4.2467 4.1131 0 0 1 4.2468-4.1131 4.2467 4.1131 0 0 1 4.2467 4.1131z" stop-color="#000000" style="paint-order:markers fill stroke"/><path d="m26.465 58.548a1.1678 1.131 0 0 1-1.1678 1.131 1.1678 1.131 0 0 1-1.1678-1.131 1.1678 1.131 0 0 1 1.1678-1.131 1.1678 1.131 0 0 1 1.1678 1.131z" stop-color="#000000" style="paint-order:markers fill stroke"/><path d="m75.024 15.177a1.1678 1.131 0 0 1-1.1678 1.131 1.1678 1.131 0 0 1-1.1678-1.131 1.1678 1.131 0 0 1 1.1678-1.131 1.1678 1.131 0 0 1 1.1678 1.131z" stop-color="#000000" style="paint-order:markers fill stroke"/><path d="m114.6 46.044a1.1678 1.131 0 0 1-1.1678 1.131 1.1678 1.131 0 0 1-1.1678-1.131 1.1678 1.131 0 0 1 1.1678-1.131 1.1678 1.131 0 0 1 1.1678 1.131z" stop-color="#000000" style="paint-order:markers fill stroke"/></g></g><g transform="matrix(2.3802 0 0 2.3802 1.0124 26.999)" stroke-width=".11116"><path d="m34.864 20.053v13.588c0 1.4606-1.1213 2.7597-3.1574 3.6581-1.7852 0.7875-3.862 1.2212-6.3926 1.2212s-4.5074-0.4337-6.2926-1.2213c-2.0361-0.8983-3.1574-2.1974-3.1574-3.658v-13.588c0.5256 0.4666 1.3062 0.9255 2.4499 1.3288 1.8984 0.6694 4.4022 1.0381 7.0501 1.0381s5.1517-0.3687 7.0501-1.0381c1.1437-0.4033 1.9243-0.8622 2.4499-1.3288zm-9.5-6.0765c-5.2467 0-9.5 1.4998-9.5 3.35s4.2533 3.35 9.5 3.35 9.5-1.4998 9.5-3.35-4.2533-3.35-9.5-3.35z" fill="#eeac55" stroke-width=".0032806"/></g></g></svg>
