<?xml version="1.0" encoding="UTF-8"?>
<svg width="512" height="512" version="1.1" viewBox="0 0 135.47 135.47" xmlns="http://www.w3.org/2000/svg"><defs><marker id="f" overflow="visible" orient="auto"><path transform="scale(-.2)" d="m5.77 0-8.65 5v-10l8.65 5z" fill="#0f0" fill-rule="evenodd" stroke="#0f0" stroke-width="1pt"/></marker><linearGradient id="d" x1="257" x2="256.85" y1="-96.577" y2="-70.053" gradientTransform="matrix(2.0389 0 0 3.2039 -456.1 347.41)" gradientUnits="userSpaceOnUse"><stop stop-color="#08044d" offset="0"/><stop stop-color="#4d4cd2" offset="1"/></linearGradient><marker id="e" overflow="visible" orient="auto"><path transform="scale(-.2)" d="m5.77 0-8.65 5v-10z" fill="#0f0" fill-rule="evenodd" stroke="#0f0" stroke-width="1pt"/></marker><filter id="c" x="-1.3754e-5" y="-4.3715e-5" width="1" height="1.0001" color-interpolation-filters="sRGB"><feGaussianBlur stdDeviation="0.00035054762"/></filter><radialGradient id="b" cx="90.772" cy="-77.436" r="30.585" gradientTransform="matrix(1 0 0 .31463 0 -53.072)" gradientUnits="userSpaceOnUse"><stop stop-color="#f9f9ff" offset="0"/><stop stop-color="#dcdcff" stop-opacity=".27059" offset="1"/></radialGradient></defs><rect x="8.3962" y="8.3962" width="118.67" height="118.67" fill="url(#d)" stroke="#000" stroke-linejoin="round" stroke-width="4.0923" style="paint-order:fill markers stroke"/><ellipse transform="matrix(.49058 .93712 -.94489 .53868 -16.773 .93714)" cx="90.772" cy="-77.436" rx="30.584" ry="9.6227" fill="url(#b)" filter="url(#c)" opacity=".998" style="paint-order:markers stroke fill"/><path d="m27.607 111.58s8.089-0.2548 14.573-14.789c6.4845-14.535 6.5593-65.127 23.999-64.164 16.846 0.93013 17.227 42.702 25.991 64.388 4.3661 10.803 13.308 14.305 13.308 14.305" fill="none" stroke="#f95" stroke-linecap="round" stroke-width="6.7813"/><g fill="#fff"><rect x="43.71" y="74.567" width="44.005" height="4.4852" fill-rule="evenodd"/><ellipse cx="46.626" cy="77.655" rx="4.8789" ry="4.8786" style="paint-order:markers stroke fill"/><ellipse cx="86.46" cy="77.655" rx="4.8789" ry="4.8786" style="paint-order:markers stroke fill"/></g><g transform="matrix(1.0001 0 0 .99999 -.0094953 .00044947)" fill="none" stroke="#0f0" stroke-linecap="round" stroke-width="5.6016"><path d="m21.329 22.381-0.01513 91.753 91.764 0.0113" marker-start="url(#f)"/><path d="m113.08 114.15-91.753 0.0151-0.0113-91.764" marker-start="url(#e)"/></g></svg>
