<?xml version="1.0" encoding="UTF-8" standalone="no"?>
<!DOCTYPE svg PUBLIC "-//W3C//DTD SVG 1.1//EN" "http://www.w3.org/Graphics/SVG/1.1/DTD/svg11.dtd">
<svg width="100%" height="100%" viewBox="0 0 573 575" version="1.1" xmlns="http://www.w3.org/2000/svg" xmlns:xlink="http://www.w3.org/1999/xlink" xml:space="preserve" xmlns:serif="http://www.serif.com/" style="fill-rule:evenodd;clip-rule:evenodd;stroke-linecap:round;stroke-miterlimit:1.5;">
    <rect x="5.634" y="5.634" width="561" height="563" style="fill:#0f1117;stroke:#13a4d5;stroke-width:6.25px;"/>
    <path d="M228.801,102.229L172.623,102.229L172.623,374.654L218.027,374.654L218.027,158.407L343.466,374.654L399.644,374.654L399.644,102.229L354.625,102.229L354.625,318.476L228.801,102.229Z" style="fill:#fbd876;fill-rule:nonzero;"/>
    <g transform="matrix(1.47595,0,0,1.47595,-368.075,29.804)">
        <g transform="matrix(56.461,0,0,56.461,364.959,299.5)">
            <path d="M0.204,-0.705L0.095,-0.705L0.095,-0L0.178,-0L0.178,-0.603L0.544,-0L0.653,-0L0.653,-0.705L0.569,-0.705L0.569,-0.102L0.204,-0.705Z" style="fill:#c24552;fill-rule:nonzero;"/>
        </g>
        <g transform="matrix(40.3752,0,0,40.3752,412.217,299.5)">
            <path d="M0.436,0.025C0.654,0.025 0.811,-0.132 0.811,-0.351C0.811,-0.57 0.654,-0.728 0.436,-0.728C0.217,-0.728 0.061,-0.57 0.061,-0.351C0.061,-0.132 0.217,0.025 0.436,0.025ZM0.436,-0.674C0.62,-0.674 0.752,-0.539 0.752,-0.351C0.752,-0.164 0.62,-0.029 0.436,-0.029C0.252,-0.029 0.12,-0.165 0.12,-0.351C0.12,-0.539 0.252,-0.674 0.436,-0.674Z" style="fill:#04dae4;fill-rule:nonzero;"/>
        </g>
        <g transform="matrix(40.3752,0,0,40.3752,451.058,299.5)">
            <rect x="0.093" y="-0.703" width="0.059" height="0.703" style="fill:#04dae4;fill-rule:nonzero;"/>
        </g>
        <g transform="matrix(40.3752,0,0,40.3752,464.584,299.5)">
            <path d="M0.627,-0.2C0.627,-0.345 0.492,-0.366 0.362,-0.384C0.245,-0.399 0.139,-0.414 0.139,-0.519C0.139,-0.609 0.22,-0.673 0.34,-0.674C0.467,-0.674 0.559,-0.598 0.559,-0.493L0.616,-0.494C0.616,-0.629 0.499,-0.728 0.341,-0.728C0.185,-0.728 0.08,-0.637 0.08,-0.514C0.08,-0.366 0.215,-0.344 0.346,-0.327C0.462,-0.312 0.568,-0.298 0.568,-0.194C0.568,-0.096 0.484,-0.029 0.357,-0.029C0.222,-0.029 0.127,-0.11 0.127,-0.225L0.068,-0.225C0.068,-0.08 0.189,0.025 0.355,0.025C0.518,0.025 0.627,-0.068 0.627,-0.2Z" style="fill:#04dae4;fill-rule:nonzero;"/>
        </g>
        <g transform="matrix(40.3752,0,0,40.3752,496.319,299.5)">
            <path d="M0.151,-0.339L0.529,-0.339L0.529,-0.391L0.151,-0.391L0.151,-0.649L0.569,-0.649L0.569,-0.703L0.093,-0.703L0.093,-0L0.579,-0L0.579,-0.054L0.151,-0.054L0.151,-0.339Z" style="fill:#04dae4;fill-rule:nonzero;"/>
        </g>
        <g transform="matrix(56.461,0,0,56.461,268.16,350.315)">
            <path d="M0.039,-0L0.138,-0L0.346,-0.321L0.559,-0L0.659,-0L0.409,-0.372L0.649,-0.705L0.548,-0.705L0.346,-0.421L0.149,-0.705L0.048,-0.705L0.283,-0.372L0.039,-0Z" style="fill:#c24552;fill-rule:nonzero;"/>
        </g>
        <g transform="matrix(56.461,0,0,56.461,312.595,350.315)">
            <path d="M0.257,-0L0.34,-0L0.34,-0.631L0.576,-0.631L0.576,-0.705L0.021,-0.705L0.021,-0.631L0.257,-0.631L0.257,-0Z" style="fill:#c24552;fill-rule:nonzero;"/>
        </g>
        <g transform="matrix(40.3752,0,0,40.3752,351.384,350.315)">
            <path d="M0.151,-0.339L0.529,-0.339L0.529,-0.391L0.151,-0.391L0.151,-0.649L0.569,-0.649L0.569,-0.703L0.093,-0.703L0.093,-0L0.579,-0L0.579,-0.054L0.151,-0.054L0.151,-0.339Z" style="fill:#05dae4;fill-rule:nonzero;"/>
        </g>
        <g transform="matrix(40.3752,0,0,40.3752,380.656,350.315)">
            <path d="M0.391,-0.649C0.505,-0.649 0.584,-0.586 0.584,-0.486C0.584,-0.391 0.505,-0.326 0.391,-0.326L0.152,-0.326L0.152,-0.649L0.391,-0.649ZM0.152,-0.272L0.401,-0.273L0.573,-0L0.643,-0L0.462,-0.281C0.57,-0.301 0.643,-0.382 0.643,-0.486C0.643,-0.614 0.541,-0.703 0.394,-0.703L0.093,-0.703L0.093,-0L0.152,-0L0.152,-0.272Z" style="fill:#05dae4;fill-rule:nonzero;"/>
        </g>
        <g transform="matrix(40.3752,0,0,40.3752,412.875,350.315)">
            <path d="M0.152,-0.626L0.435,-0L0.486,-0L0.769,-0.627L0.769,-0L0.828,-0L0.828,-0.703L0.742,-0.703L0.46,-0.078L0.178,-0.703L0.093,-0.703L0.093,-0L0.152,-0L0.152,-0.626Z" style="fill:#05dae4;fill-rule:nonzero;"/>
        </g>
        <g transform="matrix(40.3752,0,0,40.3752,453.694,350.315)">
            <rect x="0.093" y="-0.703" width="0.059" height="0.703" style="fill:#05dae4;fill-rule:nonzero;"/>
        </g>
        <g transform="matrix(40.3752,0,0,40.3752,467.22,350.315)">
            <path d="M0.171,-0.703L0.093,-0.703L0.093,-0L0.152,-0L0.152,-0.629L0.551,-0L0.629,-0L0.629,-0.703L0.57,-0.703L0.57,-0.073L0.171,-0.703Z" style="fill:#05dae4;fill-rule:nonzero;"/>
        </g>
        <g transform="matrix(40.3752,0,0,40.3752,500.005,350.315)">
            <path d="M0.337,-0.649L0.511,-0.2L0.163,-0.2L0.337,-0.649ZM0.146,-0.151L0.527,-0.151L0.586,-0L0.648,-0L0.378,-0.703L0.295,-0.703L0.025,-0L0.088,-0L0.146,-0.151Z" style="fill:#05dae4;fill-rule:nonzero;"/>
        </g>
        <g transform="matrix(40.3752,0,0,40.3752,527.464,350.315)">
            <path d="M0.263,-0L0.322,-0L0.322,-0.649L0.564,-0.649L0.564,-0.703L0.021,-0.703L0.021,-0.649L0.263,-0.649L0.263,-0Z" style="fill:#05dae4;fill-rule:nonzero;"/>
        </g>
        <g transform="matrix(40.3752,0,0,40.3752,551.329,350.315)">
            <path d="M0.436,0.025C0.654,0.025 0.811,-0.132 0.811,-0.351C0.811,-0.57 0.654,-0.728 0.436,-0.728C0.217,-0.728 0.061,-0.57 0.061,-0.351C0.061,-0.132 0.217,0.025 0.436,0.025ZM0.436,-0.674C0.62,-0.674 0.752,-0.539 0.752,-0.351C0.752,-0.164 0.62,-0.029 0.436,-0.029C0.252,-0.029 0.12,-0.165 0.12,-0.351C0.12,-0.539 0.252,-0.674 0.436,-0.674Z" style="fill:#05dae4;fill-rule:nonzero;"/>
        </g>
        <g transform="matrix(40.3752,0,0,40.3752,590.17,350.315)">
            <path d="M0.391,-0.649C0.505,-0.649 0.584,-0.586 0.584,-0.486C0.584,-0.391 0.505,-0.326 0.391,-0.326L0.152,-0.326L0.152,-0.649L0.391,-0.649ZM0.152,-0.272L0.401,-0.273L0.573,-0L0.643,-0L0.462,-0.281C0.57,-0.301 0.643,-0.382 0.643,-0.486C0.643,-0.614 0.541,-0.703 0.394,-0.703L0.093,-0.703L0.093,-0L0.152,-0L0.152,-0.272Z" style="fill:#05dae4;fill-rule:nonzero;"/>
        </g>
    </g>
    <g>
        <path d="M428.197,42.594L433.53,56.661L422.83,56.661L428.197,42.594ZM422.164,58.828L434.197,58.828L435.964,63.628L438.93,63.628L430.164,40.128L426.164,40.128L417.397,63.628L420.364,63.628L422.164,58.828Z" style="fill:url(#_Linear1);fill-rule:nonzero;"/>
        <path d="M462.73,56.794C462.73,51.728 458.03,51.028 453.73,50.428C450.03,49.928 446.897,49.428 446.897,46.294C446.897,43.661 449.297,41.761 452.964,41.761C456.797,41.761 459.564,44.061 459.564,47.261L462.264,47.261C462.23,42.628 458.33,39.294 452.964,39.294C447.664,39.294 444.097,42.361 444.097,46.528C444.097,51.761 448.597,52.461 452.964,53.061C456.597,53.528 459.93,53.994 459.93,57.128C459.93,59.961 457.564,61.994 453.697,61.994C449.464,61.994 446.497,59.494 446.497,56.028L443.73,56.028C443.764,60.928 447.897,64.461 453.664,64.461C459.197,64.461 462.73,61.261 462.73,56.794Z" style="fill:url(#_Linear2);fill-rule:nonzero;"/>
        <path d="M475.197,63.628L477.964,63.628L477.964,42.594L485.83,42.594L485.83,40.128L467.33,40.128L467.33,42.594L475.197,42.594L475.197,63.628Z" style="fill:url(#_Linear3);fill-rule:nonzero;"/>
        <path d="M501.53,42.594C504.997,42.594 507.464,44.461 507.464,47.528C507.464,50.328 504.997,52.294 501.53,52.294L494.13,52.294L494.13,42.594L501.53,42.594ZM494.13,54.761L501.63,54.761L507.197,63.628L510.43,63.628L504.43,54.361C507.83,53.628 510.23,50.794 510.23,47.528C510.23,43.194 506.697,40.128 501.73,40.128L491.364,40.128L491.364,63.628L494.13,63.628L494.13,54.761Z" style="fill:url(#_Linear4);fill-rule:nonzero;"/>
        <path d="M527.864,64.461C535.264,64.461 540.53,59.261 540.53,51.894C540.53,44.528 535.264,39.294 527.864,39.294C520.464,39.294 515.23,44.528 515.23,51.894C515.23,59.261 520.464,64.461 527.864,64.461ZM527.864,41.761C533.63,41.761 537.73,45.994 537.73,51.894C537.73,57.761 533.63,61.994 527.864,61.994C522.13,61.961 517.997,57.761 517.997,51.894C517.997,45.994 522.13,41.761 527.864,41.761Z" style="fill:url(#_Linear5);fill-rule:nonzero;"/>
        <path d="M41.904,42.594C45.37,42.594 47.837,44.461 47.837,47.528C47.837,50.328 45.37,52.294 41.904,52.294L34.504,52.294L34.504,42.594L41.904,42.594ZM34.504,54.761L42.004,54.761L47.57,63.628L50.804,63.628L44.804,54.361C48.204,53.628 50.604,50.794 50.604,47.528C50.604,43.194 47.07,40.128 42.104,40.128L31.737,40.128L31.737,63.628L34.504,63.628L34.504,54.761Z" style="fill:url(#_Linear6);fill-rule:nonzero;"/>
        <path d="M67.804,61.994C62.337,61.994 58.404,57.761 58.37,51.894C58.37,45.994 62.304,41.761 67.804,41.761C71.804,41.761 75.304,44.528 76.17,48.194L78.904,47.861C77.77,42.928 73.104,39.294 67.804,39.294C60.737,39.294 55.604,44.594 55.604,51.894C55.604,59.194 60.737,64.461 67.804,64.461C73.104,64.461 77.737,60.994 78.904,56.294L76.204,55.794C75.27,59.361 71.77,61.994 67.804,61.994Z" style="fill:url(#_Linear7);fill-rule:nonzero;"/>
    </g>
    <defs>
        <linearGradient id="_Linear1" x1="0" y1="0" x2="1" y2="0" gradientUnits="userSpaceOnUse" gradientTransform="matrix(-123.133,-0.0166671,0.0166671,-123.133,540.53,51.8944)"><stop offset="0" style="stop-color:#fcae6e;stop-opacity:1"/><stop offset="1" style="stop-color:#fec671;stop-opacity:1"/></linearGradient>
        <linearGradient id="_Linear2" x1="0" y1="0" x2="1" y2="0" gradientUnits="userSpaceOnUse" gradientTransform="matrix(-123.133,-0.0166671,0.0166671,-123.133,540.53,51.8944)"><stop offset="0" style="stop-color:#fcae6e;stop-opacity:1"/><stop offset="1" style="stop-color:#fec671;stop-opacity:1"/></linearGradient>
        <linearGradient id="_Linear3" x1="0" y1="0" x2="1" y2="0" gradientUnits="userSpaceOnUse" gradientTransform="matrix(-123.133,-0.0166671,0.0166671,-123.133,540.53,51.8944)"><stop offset="0" style="stop-color:#fcae6e;stop-opacity:1"/><stop offset="1" style="stop-color:#fec671;stop-opacity:1"/></linearGradient>
        <linearGradient id="_Linear4" x1="0" y1="0" x2="1" y2="0" gradientUnits="userSpaceOnUse" gradientTransform="matrix(-123.133,-0.0166671,0.0166671,-123.133,540.53,51.8944)"><stop offset="0" style="stop-color:#fcae6e;stop-opacity:1"/><stop offset="1" style="stop-color:#fec671;stop-opacity:1"/></linearGradient>
        <linearGradient id="_Linear5" x1="0" y1="0" x2="1" y2="0" gradientUnits="userSpaceOnUse" gradientTransform="matrix(-123.133,-0.0166671,0.0166671,-123.133,540.53,51.8944)"><stop offset="0" style="stop-color:#fcae6e;stop-opacity:1"/><stop offset="1" style="stop-color:#fec671;stop-opacity:1"/></linearGradient>
        <linearGradient id="_Linear6" x1="0" y1="0" x2="1" y2="0" gradientUnits="userSpaceOnUse" gradientTransform="matrix(47.1667,-0.5,0.5,47.1667,31.7369,51.8777)"><stop offset="0" style="stop-color:#16c4e6;stop-opacity:1"/><stop offset="1" style="stop-color:#0c84c5;stop-opacity:1"/></linearGradient>
        <linearGradient id="_Linear7" x1="0" y1="0" x2="1" y2="0" gradientUnits="userSpaceOnUse" gradientTransform="matrix(47.1667,-0.5,0.5,47.1667,31.7369,51.8777)"><stop offset="0" style="stop-color:#16c4e6;stop-opacity:1"/><stop offset="1" style="stop-color:#0c84c5;stop-opacity:1"/></linearGradient>
    </defs>
</svg>
