<?xml version="1.0" encoding="UTF-8"?>
<svg version="1.1" viewBox="0 0 512 512" xmlns="http://www.w3.org/2000/svg"><defs><linearGradient id="d" x1="61.559" x2="449.36" y1="63.729" y2="449.9" gradientTransform="matrix(1.1154 0 0 1.1154 -29.235 -30.444)" gradientUnits="userSpaceOnUse"><stop stop-color="#a2444a" offset="0"/><stop stop-color="#eebfb3" offset="1"/></linearGradient><radialGradient id="e" cx="92.367" cy="115.25" r="154.71" gradientTransform="matrix(1.2557 1.175 -1.1881 1.2696 107.46 -150.36)" gradientUnits="userSpaceOnUse"><stop stop-color="#e7e7ed" offset="0"/><stop stop-color="#533952" offset="1"/></radialGradient><radialGradient id="f" cx="368.77" cy="369.09" r="87.957" gradientTransform="matrix(1.1283 1.0442 -1.0372 1.1206 339.53 -426.2)" gradientUnits="userSpaceOnUse"><stop stop-color="#e7e7ed" offset="0"/><stop stop-color="#1f161e" offset="1"/></radialGradient></defs><path d="m24.001 24.001h464v464h-464z" fill="url(#d)"/><g fill="none"><path d="m24.001 24.001h464v464h-464z"/><path d="m24.001 24.001h464v464h-464z"/><path d="m24.001 24.001h464v464h-464z"/></g><path d="m415.81 301.49a108.98 108.98 0 0 0-108.98 108.98 108.98 108.98 0 0 0 32.53 77.536h148.64v-159.04a108.98 108.98 0 0 0-72.184-27.47z" fill="url(#f)"/><path d="m46.127 24.001h-22.126v18.218a188.75 188.75 0 0 1 0.22656-0.24275 188.75 188.75 0 0 1 14.175-12.45 188.75 188.75 0 0 1 7.7254-5.5245z" fill="none"/><path d="m46.127 24.001a188.75 188.75 0 0 0-7.7254 5.5244 188.75 188.75 0 0 0-14.175 12.45 188.75 188.75 0 0 0-0.22656 0.24275v270.07a188.75 188.75 0 0 0 10.135 9.4407 188.75 188.75 0 0 0 15.02 11.419 188.75 188.75 0 0 0 16.084 9.8615 188.75 188.75 0 0 0 16.988 8.2048 188.75 188.75 0 0 0 17.724 6.4711 188.75 188.75 0 0 0 18.278 4.6668 188.75 188.75 0 0 0 18.655 2.8199 188.75 188.75 0 0 0 18.843 0.94266 188.75 188.75 0 0 0 13.351-0.47336 188.75 188.75 0 0 0 18.73-2.2737 188.75 188.75 0 0 0 18.408-4.1307 188.75 188.75 0 0 0 17.904-5.9492 188.75 188.75 0 0 0 17.221-7.7071 188.75 188.75 0 0 0 16.365-9.388 188.75 188.75 0 0 0 15.347-10.974 188.75 188.75 0 0 0 14.175-12.45 188.75 188.75 0 0 0 12.859-13.806 188.75 188.75 0 0 0 11.417-15.018 188.75 188.75 0 0 0 9.8615-16.086 188.75 188.75 0 0 0 8.2068-16.988 188.75 188.75 0 0 0 6.4692-17.722 188.75 188.75 0 0 0 4.6688-18.28 188.75 188.75 0 0 0 2.8179-18.653 188.75 188.75 0 0 0 0.94468-18.843 188.75 188.75 0 0 0-0.47335-13.353 188.75 188.75 0 0 0-2.2737-18.73 188.75 188.75 0 0 0-4.1327-18.408 188.75 188.75 0 0 0-5.9492-17.904 188.75 188.75 0 0 0-7.7051-17.221 188.75 188.75 0 0 0-9.3882-16.365 188.75 188.75 0 0 0-10.974-15.347 188.75 188.75 0 0 0-12.452-14.173 188.75 188.75 0 0 0-13.804-12.861 188.75 188.75 0 0 0-11.856-9.0119h-219.34z" fill="url(#e)"/><path d="m36.429 36.43h439.14v439.14h-439.14z" fill="none" stroke="#00f" stroke-linecap="square" stroke-opacity=".992" stroke-width="24"/><path d="m440.4 256.13q0 35.141-25.687 60.09-25.381 24.681-64.523 24.681-28.44 0-51.986-14.218-23.241-14.218-43.117-45.336-18.349 27.899-41.895 43.189-23.241 15.023-50.151 15.023-40.059 0-65.746-23.07-25.686-23.339-25.686-61.432 0-35.946 25.686-59.822 25.687-24.142 65.747-24.142 55.348 0 92.655 58.748 37.92-57.675 94.492-57.675 40.67 0 65.439 23.607 24.77 23.339 24.77 60.359zm-274.91 50.164q20.183 0 36.695-12.072 16.82-12.339 33.332-39.166-15.289-26.021-32.108-38.36-16.513-12.609-38.531-12.609-23.241 0-38.531 14.218-15.289 13.949-15.289 37.287 0 22.267 14.678 36.484 14.984 14.218 39.753 14.218zm181.03-101.13q-20.183 0-37.002 12.34-16.513 12.339-33.331 38.63 15.595 26.021 32.414 38.629 16.82 12.609 38.531 12.609 23.241 0 38.531-14.218 15.289-14.485 15.289-37.019 0-22.803-15.595-36.752-15.29-14.218-38.836-14.218z" fill="#0f0"/></svg>
