<?xml version="1.0" encoding="UTF-8"?>
<svg width="512" height="512" version="1.1" viewBox="0 0 135.47 135.47" xmlns="http://www.w3.org/2000/svg"><g transform="translate(0 3.125e-5)"><path d="M83.993 108.7H51.47c0 11.354-14.429 15.76-14.429 18.088 0 2.3281 3.7969 2.3281 30.691 2.3281 26.889 0 30.691 0 30.691-2.3281s-14.429-6.7342-14.429-18.088z" fill="#185bbe" fill-rule="evenodd"/><path d="M121.94 6.35H13.54c-3.9503 0-7.1816 3.3512-7.1816 7.4481v85.144c0 4.0969 3.2313 7.4481 7.1816 7.4481h108.4c3.9503 0 7.1816-3.3512 7.1816-7.4481v-85.144c-.004-4.0969-3.2357-7.4481-7.1816-7.4481zm-54.204 95.489c-3.6303 0-6.5766-3.0556-6.5766-6.8206s2.9463-6.8206 6.5766-6.8206 6.5766 3.0556 6.5766 6.8206-2.9463 6.8206-6.5766 6.8206zm52.612-18.188H15.128V15.445h105.22z" fill="#185bbe"/><ellipse cx="67.731" cy="95.018" rx="6.5766" ry="6.8206" fill="#fff" fill-rule="evenodd"/><path d="M15.119 15.443h105.22v68.201H15.119z" fill="#fff"/><g transform="matrix(1 0 0 .99992 -.002172 .00048936)" fill-rule="evenodd"><circle cx="67.733" cy="71.291" r="6.2739"/><path d="m67.72 24.195c-26.041 0-47.182 21.088-47.182 47.059h94.366c0-25.973-21.143-47.059-47.182-47.059zm0 8.7197c21.248 0 38.44 17.147 38.44 38.34h-76.88c0-21.192 17.192-38.34 38.44-38.34z" fill="red" style="inline-size:0"/><path d="M98.475 40.863c0-.18092-.04625-.32335-.13854-.41574-1.1048-1.1125-8.23 4.1843-14.012 8.8267-6.8134 5.47-13.638 11.529-15.752 13.623-2.8178 2.7985-4.346 4.6501-4.346 6.4285 0 1.0586.54276 2.0941 1.7014 3.2681 1.6244 1.636 2.7292 2.1287 3.9495 1.7515 1.278-.39263 2.6869-1.7322 4.858-3.8879 3.7224-3.6877 23.739-25.726 23.739-29.594z"/></g></g><g stroke-miterlimit="1"><path d="M50.945 127.21H9.209c-.52378 0-.94854-.42473-.94854-.94847v-48.372h43.633v48.372c0 .52374-.42476.94847-.94854.94847z" fill="#fff" stroke="#000" stroke-width="3.8205"/><path d="M53.803 78.835H6.35v-4.932c0-1.4667 1.2393-2.6557 2.7681-2.6557h41.917c1.5288 0 2.7681 1.189 2.7681 2.6557z"/><g stroke-linecap="round"><path transform="matrix(1 0 0 .99992 -1.5221 3.1981)" d="M17.62 86.823h5.6283M17.62 100.207h5.6283M17.62 113.591h5.6283" fill="#333" stroke="#fb9811" stroke-width="4.6852"/><path transform="matrix(1 0 0 .99992 -1.5221 3.1981)" d="M29.998 86.739h15.579M29.998 100.29h15.579m-15.579 13.551h15.579" fill="none" stroke="#4d4d4d" stroke-width="4.6853"/></g></g></svg>
