<?xml version="1.0" encoding="UTF-8" standalone="no"?>
<!DOCTYPE svg PUBLIC "-//W3C//DTD SVG 1.1//EN" "http://www.w3.org/Graphics/SVG/1.1/DTD/svg11.dtd">
<svg width="100%" height="100%" viewBox="0 0 573 575" version="1.1" xmlns="http://www.w3.org/2000/svg" xmlns:xlink="http://www.w3.org/1999/xlink" xml:space="preserve" xmlns:serif="http://www.serif.com/" style="fill-rule:evenodd;clip-rule:evenodd;stroke-linecap:round;stroke-miterlimit:1.5;">
    <rect x="5.634" y="5.634" width="561" height="563" style="fill:#0f1117;stroke:#13a4d5;stroke-width:6.25px;"/>
    <path d="M399.067,293.081C399.067,231.901 344.043,222.666 293.252,215.74C254.004,210.353 222.452,205.351 222.452,174.183C222.452,149.173 246.309,130.703 283.248,130.703C322.111,130.703 350.2,153.79 350.2,186.112L392.91,186.112C392.91,131.857 346.737,92.61 282.863,92.61C219.374,92.61 176.663,128.394 176.663,178.801C176.663,241.52 228.994,250.755 280.17,257.681C318.648,263.068 353.278,267.685 353.278,298.852C353.278,326.172 330.576,346.181 291.713,346.181C247.848,346.181 217.065,320.785 217.065,285.77L173.2,285.77C173.2,342.718 222.452,384.274 290.559,384.274C357.126,384.274 399.067,346.181 399.067,293.081Z" style="fill:#fbd876;fill-rule:nonzero;"/>
    <g transform="matrix(1.47595,0,0,1.47595,-368.075,29.804)">
        <g transform="matrix(56.461,0,0,56.461,379.45,299.5)">
            <path d="M0.635,-0.205C0.635,-0.357 0.494,-0.378 0.365,-0.396C0.254,-0.411 0.16,-0.426 0.16,-0.52C0.16,-0.599 0.232,-0.656 0.342,-0.656C0.457,-0.656 0.54,-0.587 0.54,-0.491L0.621,-0.491C0.62,-0.63 0.503,-0.73 0.342,-0.73C0.183,-0.73 0.076,-0.638 0.076,-0.513C0.076,-0.356 0.211,-0.335 0.342,-0.317C0.451,-0.303 0.551,-0.289 0.551,-0.195C0.551,-0.11 0.48,-0.049 0.364,-0.049C0.237,-0.049 0.148,-0.124 0.148,-0.228L0.065,-0.228C0.066,-0.081 0.19,0.025 0.363,0.025C0.529,0.025 0.635,-0.071 0.635,-0.205Z" style="fill:#c24552;fill-rule:nonzero;"/>
        </g>
        <g transform="matrix(40.3752,0,0,40.3752,424.168,299.5)">
            <path d="M0.263,-0L0.322,-0L0.322,-0.649L0.564,-0.649L0.564,-0.703L0.021,-0.703L0.021,-0.649L0.263,-0.649L0.263,-0Z" style="fill:#04dae4;fill-rule:nonzero;"/>
        </g>
        <g transform="matrix(40.3752,0,0,40.3752,448.033,299.5)">
            <path d="M0.337,-0.649L0.511,-0.2L0.163,-0.2L0.337,-0.649ZM0.146,-0.151L0.527,-0.151L0.586,-0L0.648,-0L0.378,-0.703L0.295,-0.703L0.025,-0L0.088,-0L0.146,-0.151Z" style="fill:#04dae4;fill-rule:nonzero;"/>
        </g>
        <g transform="matrix(40.3752,0,0,40.3752,478.88,299.5)">
            <path d="M0.391,-0.649C0.505,-0.649 0.584,-0.586 0.584,-0.486C0.584,-0.391 0.505,-0.326 0.391,-0.326L0.152,-0.326L0.152,-0.649L0.391,-0.649ZM0.152,-0.272L0.401,-0.273L0.573,-0L0.643,-0L0.462,-0.281C0.57,-0.301 0.643,-0.382 0.643,-0.486C0.643,-0.614 0.541,-0.703 0.394,-0.703L0.093,-0.703L0.093,-0L0.152,-0L0.152,-0.272Z" style="fill:#04dae4;fill-rule:nonzero;"/>
        </g>
        <g transform="matrix(56.461,0,0,56.461,268.16,350.315)">
            <path d="M0.039,-0L0.138,-0L0.346,-0.321L0.559,-0L0.659,-0L0.409,-0.372L0.649,-0.705L0.548,-0.705L0.346,-0.421L0.149,-0.705L0.048,-0.705L0.283,-0.372L0.039,-0Z" style="fill:#c24552;fill-rule:nonzero;"/>
        </g>
        <g transform="matrix(56.461,0,0,56.461,312.595,350.315)">
            <path d="M0.257,-0L0.34,-0L0.34,-0.631L0.576,-0.631L0.576,-0.705L0.021,-0.705L0.021,-0.631L0.257,-0.631L0.257,-0Z" style="fill:#c24552;fill-rule:nonzero;"/>
        </g>
        <g transform="matrix(40.3752,0,0,40.3752,351.384,350.315)">
            <path d="M0.151,-0.339L0.529,-0.339L0.529,-0.391L0.151,-0.391L0.151,-0.649L0.569,-0.649L0.569,-0.703L0.093,-0.703L0.093,-0L0.579,-0L0.579,-0.054L0.151,-0.054L0.151,-0.339Z" style="fill:#05dae4;fill-rule:nonzero;"/>
        </g>
        <g transform="matrix(40.3752,0,0,40.3752,380.656,350.315)">
            <path d="M0.391,-0.649C0.505,-0.649 0.584,-0.586 0.584,-0.486C0.584,-0.391 0.505,-0.326 0.391,-0.326L0.152,-0.326L0.152,-0.649L0.391,-0.649ZM0.152,-0.272L0.401,-0.273L0.573,-0L0.643,-0L0.462,-0.281C0.57,-0.301 0.643,-0.382 0.643,-0.486C0.643,-0.614 0.541,-0.703 0.394,-0.703L0.093,-0.703L0.093,-0L0.152,-0L0.152,-0.272Z" style="fill:#05dae4;fill-rule:nonzero;"/>
        </g>
        <g transform="matrix(40.3752,0,0,40.3752,412.875,350.315)">
            <path d="M0.152,-0.626L0.435,-0L0.486,-0L0.769,-0.627L0.769,-0L0.828,-0L0.828,-0.703L0.742,-0.703L0.46,-0.078L0.178,-0.703L0.093,-0.703L0.093,-0L0.152,-0L0.152,-0.626Z" style="fill:#05dae4;fill-rule:nonzero;"/>
        </g>
        <g transform="matrix(40.3752,0,0,40.3752,453.694,350.315)">
            <rect x="0.093" y="-0.703" width="0.059" height="0.703" style="fill:#05dae4;fill-rule:nonzero;"/>
        </g>
        <g transform="matrix(40.3752,0,0,40.3752,467.22,350.315)">
            <path d="M0.171,-0.703L0.093,-0.703L0.093,-0L0.152,-0L0.152,-0.629L0.551,-0L0.629,-0L0.629,-0.703L0.57,-0.703L0.57,-0.073L0.171,-0.703Z" style="fill:#05dae4;fill-rule:nonzero;"/>
        </g>
        <g transform="matrix(40.3752,0,0,40.3752,500.005,350.315)">
            <path d="M0.337,-0.649L0.511,-0.2L0.163,-0.2L0.337,-0.649ZM0.146,-0.151L0.527,-0.151L0.586,-0L0.648,-0L0.378,-0.703L0.295,-0.703L0.025,-0L0.088,-0L0.146,-0.151Z" style="fill:#05dae4;fill-rule:nonzero;"/>
        </g>
        <g transform="matrix(40.3752,0,0,40.3752,527.464,350.315)">
            <path d="M0.263,-0L0.322,-0L0.322,-0.649L0.564,-0.649L0.564,-0.703L0.021,-0.703L0.021,-0.649L0.263,-0.649L0.263,-0Z" style="fill:#05dae4;fill-rule:nonzero;"/>
        </g>
        <g transform="matrix(40.3752,0,0,40.3752,551.329,350.315)">
            <path d="M0.436,0.025C0.654,0.025 0.811,-0.132 0.811,-0.351C0.811,-0.57 0.654,-0.728 0.436,-0.728C0.217,-0.728 0.061,-0.57 0.061,-0.351C0.061,-0.132 0.217,0.025 0.436,0.025ZM0.436,-0.674C0.62,-0.674 0.752,-0.539 0.752,-0.351C0.752,-0.164 0.62,-0.029 0.436,-0.029C0.252,-0.029 0.12,-0.165 0.12,-0.351C0.12,-0.539 0.252,-0.674 0.436,-0.674Z" style="fill:#05dae4;fill-rule:nonzero;"/>
        </g>
        <g transform="matrix(40.3752,0,0,40.3752,590.17,350.315)">
            <path d="M0.391,-0.649C0.505,-0.649 0.584,-0.586 0.584,-0.486C0.584,-0.391 0.505,-0.326 0.391,-0.326L0.152,-0.326L0.152,-0.649L0.391,-0.649ZM0.152,-0.272L0.401,-0.273L0.573,-0L0.643,-0L0.462,-0.281C0.57,-0.301 0.643,-0.382 0.643,-0.486C0.643,-0.614 0.541,-0.703 0.394,-0.703L0.093,-0.703L0.093,-0L0.152,-0L0.152,-0.272Z" style="fill:#05dae4;fill-rule:nonzero;"/>
        </g>
    </g>
    <g>
        <path d="M428.197,42.094L433.53,56.161L422.83,56.161L428.197,42.094ZM422.164,58.328L434.197,58.328L435.964,63.128L438.93,63.128L430.164,39.628L426.164,39.628L417.397,63.128L420.364,63.128L422.164,58.328Z" style="fill:url(#_Linear1);fill-rule:nonzero;"/>
        <path d="M462.73,56.294C462.73,51.228 458.03,50.528 453.73,49.928C450.03,49.428 446.897,48.928 446.897,45.794C446.897,43.161 449.297,41.261 452.964,41.261C456.797,41.261 459.564,43.561 459.564,46.761L462.264,46.761C462.23,42.128 458.33,38.794 452.964,38.794C447.664,38.794 444.097,41.861 444.097,46.028C444.097,51.261 448.597,51.961 452.964,52.561C456.597,53.028 459.93,53.494 459.93,56.628C459.93,59.461 457.564,61.494 453.697,61.494C449.464,61.494 446.497,58.994 446.497,55.528L443.73,55.528C443.764,60.428 447.897,63.961 453.664,63.961C459.197,63.961 462.73,60.761 462.73,56.294Z" style="fill:url(#_Linear2);fill-rule:nonzero;"/>
        <path d="M475.197,63.128L477.964,63.128L477.964,42.094L485.83,42.094L485.83,39.628L467.33,39.628L467.33,42.094L475.197,42.094L475.197,63.128Z" style="fill:url(#_Linear3);fill-rule:nonzero;"/>
        <path d="M501.53,42.094C504.997,42.094 507.464,43.961 507.464,47.028C507.464,49.828 504.997,51.794 501.53,51.794L494.13,51.794L494.13,42.094L501.53,42.094ZM494.13,54.261L501.63,54.261L507.197,63.128L510.43,63.128L504.43,53.861C507.83,53.128 510.23,50.294 510.23,47.028C510.23,42.694 506.697,39.628 501.73,39.628L491.364,39.628L491.364,63.128L494.13,63.128L494.13,54.261Z" style="fill:url(#_Linear4);fill-rule:nonzero;"/>
        <path d="M527.864,63.961C535.264,63.961 540.53,58.761 540.53,51.394C540.53,44.028 535.264,38.794 527.864,38.794C520.464,38.794 515.23,44.028 515.23,51.394C515.23,58.761 520.464,63.961 527.864,63.961ZM527.864,41.261C533.63,41.261 537.73,45.494 537.73,51.394C537.73,57.261 533.63,61.494 527.864,61.494C522.13,61.461 517.997,57.261 517.997,51.394C517.997,45.494 522.13,41.261 527.864,41.261Z" style="fill:url(#_Linear5);fill-rule:nonzero;"/>
        <path d="M41.904,42.094C45.37,42.094 47.837,43.961 47.837,47.028C47.837,49.828 45.37,51.794 41.904,51.794L34.504,51.794L34.504,42.094L41.904,42.094ZM34.504,54.261L42.004,54.261L47.57,63.128L50.804,63.128L44.804,53.861C48.204,53.128 50.604,50.294 50.604,47.028C50.604,42.694 47.07,39.628 42.104,39.628L31.737,39.628L31.737,63.128L34.504,63.128L34.504,54.261Z" style="fill:url(#_Linear6);fill-rule:nonzero;"/>
        <path d="M67.804,61.494C62.337,61.494 58.404,57.261 58.37,51.394C58.37,45.494 62.304,41.261 67.804,41.261C71.804,41.261 75.304,44.028 76.17,47.694L78.904,47.361C77.77,42.428 73.104,38.794 67.804,38.794C60.737,38.794 55.604,44.094 55.604,51.394C55.604,58.694 60.737,63.961 67.804,63.961C73.104,63.961 77.737,60.494 78.904,55.794L76.204,55.294C75.27,58.861 71.77,61.494 67.804,61.494Z" style="fill:url(#_Linear7);fill-rule:nonzero;"/>
    </g>
    <defs>
        <linearGradient id="_Linear1" x1="0" y1="0" x2="1" y2="0" gradientUnits="userSpaceOnUse" gradientTransform="matrix(-123.133,-0.0166671,0.0166671,-123.133,540.53,51.3944)"><stop offset="0" style="stop-color:#fcae6e;stop-opacity:1"/><stop offset="1" style="stop-color:#fec671;stop-opacity:1"/></linearGradient>
        <linearGradient id="_Linear2" x1="0" y1="0" x2="1" y2="0" gradientUnits="userSpaceOnUse" gradientTransform="matrix(-123.133,-0.0166671,0.0166671,-123.133,540.53,51.3944)"><stop offset="0" style="stop-color:#fcae6e;stop-opacity:1"/><stop offset="1" style="stop-color:#fec671;stop-opacity:1"/></linearGradient>
        <linearGradient id="_Linear3" x1="0" y1="0" x2="1" y2="0" gradientUnits="userSpaceOnUse" gradientTransform="matrix(-123.133,-0.0166671,0.0166671,-123.133,540.53,51.3944)"><stop offset="0" style="stop-color:#fcae6e;stop-opacity:1"/><stop offset="1" style="stop-color:#fec671;stop-opacity:1"/></linearGradient>
        <linearGradient id="_Linear4" x1="0" y1="0" x2="1" y2="0" gradientUnits="userSpaceOnUse" gradientTransform="matrix(-123.133,-0.0166671,0.0166671,-123.133,540.53,51.3944)"><stop offset="0" style="stop-color:#fcae6e;stop-opacity:1"/><stop offset="1" style="stop-color:#fec671;stop-opacity:1"/></linearGradient>
        <linearGradient id="_Linear5" x1="0" y1="0" x2="1" y2="0" gradientUnits="userSpaceOnUse" gradientTransform="matrix(-123.133,-0.0166671,0.0166671,-123.133,540.53,51.3944)"><stop offset="0" style="stop-color:#fcae6e;stop-opacity:1"/><stop offset="1" style="stop-color:#fec671;stop-opacity:1"/></linearGradient>
        <linearGradient id="_Linear6" x1="0" y1="0" x2="1" y2="0" gradientUnits="userSpaceOnUse" gradientTransform="matrix(47.1667,-0.5,0.5,47.1667,31.7369,51.3777)"><stop offset="0" style="stop-color:#16c4e6;stop-opacity:1"/><stop offset="1" style="stop-color:#0c84c5;stop-opacity:1"/></linearGradient>
        <linearGradient id="_Linear7" x1="0" y1="0" x2="1" y2="0" gradientUnits="userSpaceOnUse" gradientTransform="matrix(47.1667,-0.5,0.5,47.1667,31.7369,51.3777)"><stop offset="0" style="stop-color:#16c4e6;stop-opacity:1"/><stop offset="1" style="stop-color:#0c84c5;stop-opacity:1"/></linearGradient>
    </defs>
</svg>
