<?xml version="1.0" encoding="UTF-8"?>
<svg width="512" height="512" version="1.1" viewBox="0 0 135.47 135.47" xmlns="http://www.w3.org/2000/svg"><defs><linearGradient id="a" x1="25.123" x2="148.04" y1="178.73" y2="301.41" gradientTransform="translate(-18.788 -172.38)" gradientUnits="userSpaceOnUse"><stop offset="0"/><stop stop-color="#b2b0d3" offset="1"/></linearGradient><linearGradient id="b" x1="56.499" x2="100.81" y1="74.624" y2="30.426" gradientTransform="matrix(.79516 0 0 .81475 -25.475 19.263)" gradientUnits="userSpaceOnUse"><stop stop-color="#0000d7" offset="0"/><stop stop-color="#000035" offset="1"/></linearGradient><linearGradient id="c" x1="129.31" x2="75.406" y1="128.51" y2="8.4384" gradientTransform="translate(0 .26458)" gradientUnits="userSpaceOnUse"><stop stop-color="#fff" offset="0"/><stop stop-color="#0f0" offset="1"/></linearGradient><linearGradient id="e" x1="104.44" x2="128.73" y1="40.248" y2="98.19" gradientUnits="userSpaceOnUse"><stop stop-color="#0f0" offset="0"/><stop stop-color="#fff" offset="1"/></linearGradient><filter id="d" x="-1.9286e-6" y="-8.7098e-7" width="1" height="1" color-interpolation-filters="sRGB"><feGaussianBlur stdDeviation=".00004427"/></filter></defs><path d="M6.3352 6.35h122.77v122.77H6.3352z" fill="url(#a)"/><path d="M55.033 98.69H76.2v30.427H55.033z" fill="#ffcf2e" paint-order="fill markers stroke"/><path d="M12.7 93.398h21.167v35.719H12.7z" fill="red" paint-order="fill markers stroke"/><path d="M33.867 109.15h21.167v19.968H33.867z" fill="#00c800" paint-order="fill markers stroke"/><path d="M76.2 78.572h21.167v50.544H76.2z" fill="#00f" paint-order="fill markers stroke"/><path d="m28.439 28.575h43.209v44.392" fill="none" stroke="#fff" stroke-linecap="round" stroke-width="6.35"/><path transform="translate(.66902 .96945)" d="M57.109 84.451H16.393c-.65574 0-1.1878-.54516-1.1878-1.217V41.518c0-.67186.53208-1.217 1.1878-1.217h40.714c.65572 0 1.1878.54516 1.1878 1.217v41.715c.0016.67378-.53021 1.2189-1.1859 1.2189z" fill="url(#b)" stroke="#fff" stroke-miterlimit="1" stroke-width="6.35"/><path d="M19.05002 75.51145l10.955-12.548c.35272-.43854 1.0765-.43666 1.4274.002l4.1261 5.1213-4.9785 5.9269.63196.82062 12.737-15.23c.35272-.43478 1.06-.43478 1.4127 0l10.255 12.661c.11391.14116.17636.31056.17636.4856v9.4991h-36.742z" fill="#d4aa00"/><path d="M28.33102 46.53545c1.3024-.0033 1.58 4.4672 2.2312 5.0414.65122.57427 5.1414-.48495 5.3584.63169.21706 1.1166-3.4942 2.9413-3.8663 3.8346-.37215.89332 1.7427 4.6745.96738 5.3445-.77528.67001-3.7294-2.5973-4.6907-2.5973s-3.8535 3.0758-4.6288 2.5016c-.77528-.57427 1.1535-4.475.90538-5.3044-.24808-.82947-4.1025-2.6943-3.8663-3.779.23624-1.0847 4.5521-.0255 5.2654-.56785.71322-.54242 1.239-5.0734 2.3243-5.1053" fill="#fff" fill-rule="evenodd"/><path d="m41.137 15.875h43.209v44.392" fill="none" stroke="#fff" stroke-linecap="round" stroke-width="6.35"/><g><path transform="matrix(1 0 0 1.0064 8e-7 -.67783)" d="M120.98 6.9835c-.40466.0053-.80458.08792-1.1782.2434l-17.125 7.1282c-1.6189.67402-2.3849 2.5327-1.711 4.1517l4.162 9.9984c-3.6087 2.7304-6.8588 5.9709-9.6464 9.6785l-10.012-4.1264c-1.6212-.66812-3.4771.10436-4.1455 1.7255l-7.0688 17.15c-.66778 1.6211.10464 3.4766 1.7255 4.145l10.012 4.1269c-.63443 4.595-.61235 9.1845.02429 13.665l-9.9984 4.162c-1.6189.67402-2.3849 2.5327-1.711 4.1517l7.1288 17.125c.67402 1.6186 2.5324 2.3846 4.1512 1.711l9.9984-4.1615c2.7304 3.6085 5.9717 6.8574 9.679 9.6449l-4.1269 10.012c-.66812 1.6212.10436 3.4771 1.7255 4.1455l17.15 7.0688c1.6212.66813 3.4771-.10435 4.1455-1.7255l4.1274-10.014c.36934.051.44587.0661.81507.12362.002-2.9285.002-3.43.00079-6.3857-.69902-.0993-1.5129-.20739-2.2111-.34215-1.4826-.28613-2.9617.51141-3.5372 1.9074l-3.8561 9.3555-11.279-4.6488 3.8561-9.3555c.57545-1.3962.088-3.0045-1.1658-3.8463-4.6707-3.1357-8.5872-7.0953-11.635-11.6-.84617-1.2502-2.4556-1.7318-3.8494-1.1519l-9.3462 3.8902-4.6881-11.262 9.3457-3.8907c1.3939-.58026 2.1865-2.0619 1.8955-3.5435-1.0489-5.3369-1.0988-10.906-.03256-16.429.28605-1.4828-.51173-2.9618-1.9079-3.5373l-9.3555-3.8561 4.6493-11.279 9.355 3.8561c1.3962.57545 3.0045.08796 3.8463-1.1658 3.1356-4.6709 7.0955-8.5871 11.6-11.635 1.2504-.84623 1.7321-2.456 1.1519-3.8499l-3.8902-9.3462 11.262-4.6881 3.8902 9.3462c.58044 1.3937 2.062 2.186 3.5434 1.895.71574-.14067 1.6373-.29431 2.3607-.39868-.005-2.9613-.005-3.5952-.002-6.3983-.38184.08728-.58811.13478-.985.19118l-4.1648-10.007c-.49877-1.1978-1.6761-1.9716-2.9735-1.9544z" fill="url(#c)" filter="url(#d)"/><path transform="matrix(1 0 0 1.0064 8e-7 -.67783)" d="M129.1 37.649c-10.356 1.609-18.454 8.1154-22.73 18.49-6.5097 15.794 1.0536 33.963 16.848 40.473 1.1614.47871 2.3367.88214 3.5198 1.2121.59151.16498 1.185.31158 1.7796.44005.2973.06423.29376.08874.59155.14392l.0208-6.5363c-1.6538-.42472-1.668-.43136-3.4917-1.1308h-.00053c-12.621-5.202-18.598-19.561-13.396-32.182 1.7084-4.145 4.4074-7.5682 7.7086-10.115 1.6506-1.2734 3.4518-2.3278 5.3549-3.1438.95157-.40798 1.9286-.75636 2.9251-1.0427.24912-.07159.61997-.17966.87143-.24346z" fill="url(#e)" paint-order="markers fill stroke"/></g></svg>
