<?xml version="1.0" encoding="utf-8"?>
<!-- Generator: Adobe Illustrator 26.3.1, SVG Export Plug-In . SVG Version: 6.00 Build 0)  -->
<svg version="1.1"
	 id="svg5032" xmlns:sodipodi="http://sodipodi.sourceforge.net/DTD/sodipodi-0.dtd" xmlns:dc="http://purl.org/dc/elements/1.1/" xmlns:inkscape="http://www.inkscape.org/namespaces/inkscape" xmlns:svg="http://www.w3.org/2000/svg" xmlns:rdf="http://www.w3.org/1999/02/22-rdf-syntax-ns#" xmlns:cc="http://creativecommons.org/ns#" inkscape:version="0.48.1 r9760" sodipodi:docname="SACDlogo.svg"
	 xmlns="http://www.w3.org/2000/svg" xmlns:xlink="http://www.w3.org/1999/xlink" x="0px" y="0px" viewBox="0 0 500 336.3"
	 style="enable-background:new 0 0 500 336.3;" xml:space="preserve">
<style type="text/css">
	.st0{fill:#FFFFFF;}
</style>
<sodipodi:namedview  bordercolor="#ffffff" borderlayer="true" borderopacity="0.0" fit-margin-bottom="0" fit-margin-left="0" fit-margin-right="0" fit-margin-top="0" id="base" inkscape:current-layer="g4699" inkscape:cx="281.13571" inkscape:cy="163.39631" inkscape:document-units="px" inkscape:pageopacity="0.0" inkscape:pageshadow="0" inkscape:window-height="1033" inkscape:window-maximized="1" inkscape:window-width="1920" inkscape:window-x="-3" inkscape:window-y="-3" inkscape:zoom="1.15" pagecolor="#ffffff" showborder="true" showgrid="false">
	</sodipodi:namedview>
<g id="g4677" transform="matrix(14.75135,0,0,-14.75135,-3575.7872,1614.4533)">
</g>
<g id="g4695" transform="matrix(12.843235,0,0,-12.843235,544.02576,775.52698)">
	<path id="path4697" inkscape:connector-curvature="0" class="st0" d="M-25.7,39.6c-4,1-8,3.3-10,7c-0.1,0.2-1.1,1.8,0.9,1.9
		c2,0.1,5.8,0.1,7.6-0.1c1.4-0.2,3.7-0.6,3.7-2.8c0-2.1,0-0.8,0-1.2c0-0.4-0.2-0.6-0.5,0c-0.4,1-1.5,2.9-4.7,3.1
		c-2.6,0.2-2.3,0.1-2.9,0c-0.6-0.1-1.7-0.4-1-2.1c1.1-2.7,5-4.7,7.6-5.2c1.3-0.3,2.5-0.4,2.6,1.2c0.1,1.1,0.1,2.6,0.2,3.9
		c0.1,1,0.1,2.9,3.6,3.1c2.5,0.2,5.7,0.3,6.8,0.2c1.4-0.1,2.7-0.1,2-1.6c-2-3.8-6-6.3-9.3-7.2c-0.3-0.1-1.2-0.1-0.2,0.4
		c1.1,0.6,6.4,3.1,6.4,6.2c0,1-0.8,1.2-1.7,1.2c-1.1,0-1.5,0-2.3-0.1c-1.3-0.1-2.8-0.5-3.1-2.5c-0.3-2.4-0.1-1.6-0.5-3.4
		c-0.3-1.6-1.5-2-2.6-2.1C-24.2,39.3-25.3,39.5-25.7,39.6"/>
</g>
<g id="g4699" transform="matrix(12.724991,0,0,-12.724991,735.26364,593.57034)">
	<path id="path4701" inkscape:connector-curvature="0" class="st0" d="M-25.7,40.1c-2.1,3.7-7.1,6.5-12.6,6.5
		c-6.5,0-11.8-3.6-13.3-8.5c-0.2-0.6-0.2-1.4,0-1.7c0.3-0.4,1.1-0.4,1.6,0c0,0,0.6,0.4,2.1,1.7c1.4,1.2,3.8,2.8,5,2.8
		c1,0,1.6-0.5,1.6-1.5c0-1.8-2.1-2.3-3.6-2.6c-1-0.2-2.9-0.3-3.2-0.3c-0.6-0.1-0.8-0.6-0.1-0.6c0.5,0,3.6,0,4.9,0.1
		c1.6,0.1,4.3,0.2,4.3,3.3c0,2.7-2,3.4-2.7,3.4c-2,0-4.3-1.8-5.7-3.1c-1.1-1-1.4-0.5-0.9,0.6c0.7,1.8,4.3,5.7,9.9,5.7
		c2.8,0,6.1-1.2,7.8-2.9c2-2,2.8-3.2,2.8-4.6c0-1.2-1.1-1.3-1.8-1.3c-0.7,0-3.3,0.1-4.3,0.6c-1,0.5-1.3,1-1.3,1.8
		c0,0.9,0.6,1.6,1.7,1.6c1,0,3.1-1,3.5-1.4c0.4-0.4,0.4,0,0.1,0.4c-0.4,0.4-2.4,2.7-4.8,2.7c-2.4,0-2.9-2-2.9-3.2
		c0-1.4,0.6-3.5,4.3-3.5c3.3,0,5.2-0.1,6.5-0.1C-26.3,35.9-23.3,35.9-25.7,40.1"/>
</g>
<g id="g4703" transform="matrix(12.843235,0,0,-12.843235,330.53256,841.68248)">
	<path id="path4705" inkscape:connector-curvature="0" class="st0" d="M-25.7,39.6c0,0.1,0,0.2,0.1,0.3c0,0.1,0,0.2,0.1,0.3h0.2
		l0-0.2c0,0,0-0.1,0-0.1c0.1-0.1,0.1-0.1,0.3-0.2c0.1-0.1,0.3-0.1,0.5-0.1c0.3,0,0.5,0.1,0.6,0.1c0.1,0.1,0.2,0.2,0.2,0.4
		c0,0.1,0,0.1,0,0.2c0,0,0,0.1-0.1,0.1c0,0-0.1,0.1-0.2,0.1c-0.1,0-0.2,0.1-0.4,0.1c-0.3,0.1-0.5,0.1-0.6,0.2
		c-0.2,0.1-0.2,0.3-0.2,0.5c0,0.3,0.1,0.5,0.4,0.7c0.3,0.2,0.6,0.3,1,0.3c0.1,0,0.3,0,0.4,0c0.1,0,0.2-0.1,0.4-0.1
		c0-0.1,0-0.2-0.1-0.3c0-0.1,0-0.2-0.1-0.3h-0.2c0,0.1,0,0.1,0,0.1c0,0,0,0.1,0,0.2c0,0-0.1,0.1-0.1,0.1c-0.1,0-0.1,0.1-0.2,0.1
		c-0.1,0-0.2,0-0.3,0c-0.1,0-0.3,0-0.4-0.1c-0.1,0-0.2-0.1-0.2-0.2c-0.1-0.1-0.1-0.2-0.1-0.3c0-0.1,0-0.2,0.1-0.2
		c0,0,0.2-0.1,0.3-0.1c0.2,0,0.4-0.1,0.5-0.1c0.1,0,0.2-0.1,0.3-0.1c0.1,0,0.2-0.1,0.2-0.2c0.1-0.1,0.1-0.2,0.1-0.3
		c0-0.2-0.1-0.4-0.2-0.5c-0.1-0.2-0.3-0.3-0.5-0.4c-0.2-0.1-0.4-0.1-0.7-0.1c-0.2,0-0.3,0-0.5,0.1C-25.5,39.4-25.6,39.5-25.7,39.6"
		/>
</g>
<g id="g4707" transform="matrix(12.843235,0,0,-12.843235,410.03229,807.48107)">
	<path id="path4709" inkscape:connector-curvature="0" class="st0" d="M-25.7,39.6l0-0.1c-0.1,0-0.2,0-0.3,0c0,0,0,0,0,0
		c0,0,0-0.1,0-0.1c0-0.1-0.1-0.4-0.2-0.8c-0.1-0.4-0.1-0.7-0.2-0.9c-0.1-0.3-0.1-0.5-0.1-0.6c0,0,0-0.1,0-0.1c0,0,0,0,0.1,0
		c0,0,0.1,0,0.2,0l0.1,0l0-0.1c-0.2,0-0.4,0-0.4,0l-0.5,0l0,0c0,0.2,0.1,0.3,0.1,0.5c-0.2-0.2-0.4-0.4-0.6-0.5
		c-0.1-0.1-0.3-0.1-0.4-0.1c-0.1,0-0.2,0-0.3,0.1c-0.1,0-0.1,0.1-0.2,0.1c-0.1,0.1-0.1,0.1-0.1,0.2c-0.1,0.1-0.1,0.2-0.1,0.3
		c0,0,0,0.1,0,0.1c0,0.1,0,0.1,0,0.2c0,0.2,0.1,0.4,0.1,0.6c0,0.2,0.1,0.4,0.1,0.5c0,0.2,0.1,0.4,0.1,0.4c0,0,0,0.1,0,0.1
		c0,0,0,0,0,0.1c0,0,0,0,0,0c0,0-0.1,0-0.1,0c-0.1,0-0.2,0-0.2,0l0,0.1c0,0,0.1,0,0.2,0l0.5,0h0c0.1,0,0.1,0,0.2,0l0,0
		c-0.1-0.2-0.1-0.4-0.1-0.5c-0.1-0.3-0.1-0.6-0.2-1c0-0.2-0.1-0.4-0.1-0.4c0,0,0-0.1,0-0.1c0-0.1,0-0.2,0.1-0.3
		c0.1-0.1,0.2-0.1,0.3-0.1c0.1,0,0.2,0,0.3,0.1c0.1,0.1,0.2,0.1,0.3,0.2c0.1,0.1,0.1,0.1,0.1,0.2c0,0,0,0.2,0.1,0.4
		c0.1,0.3,0.1,0.5,0.1,0.6c0.1,0.4,0.1,0.7,0.1,0.7c0,0,0,0.1,0,0.1c0,0-0.1,0-0.3,0l0,0.1h0l0.6,0L-25.7,39.6"/>
</g>
<g id="g4711" transform="matrix(12.843235,0,0,-12.843235,413.89799,843.51907)">
	<path id="path4713" inkscape:connector-curvature="0" class="st0" d="M-25.7,39.6l0,0.1c0.2,0,0.3,0,0.3,0c0,0,0,0,0,0
		c0,0,0,0.1,0.1,0.3c0.1,0.5,0.2,0.9,0.2,1.3C-25,41.8-25,42-25,42.1c0,0,0,0,0,0.1c0,0,0,0-0.1,0c0,0-0.1,0-0.3,0l0,0.1
		c0.3,0,0.5,0,0.6,0c0.1,0,0.2,0,0.4,0c0.2,0,0.3,0,0.4,0c0.2,0,0.4,0,0.5-0.1c0.1-0.1,0.2-0.1,0.2-0.2c0.1-0.1,0.1-0.2,0.1-0.4
		c0-0.1,0-0.3-0.1-0.4c-0.1-0.1-0.1-0.2-0.2-0.3c-0.1-0.1-0.2-0.1-0.3-0.2c-0.1-0.1-0.3-0.1-0.4-0.1c-0.1,0-0.3,0-0.4,0.1l0,0.1
		c0.1,0,0.2-0.1,0.3-0.1c0.1,0,0.2,0,0.3,0.1c0.1,0.1,0.2,0.2,0.2,0.3c0.1,0.1,0.1,0.3,0.1,0.4c0,0.1,0,0.2-0.1,0.3
		c0,0.1-0.1,0.1-0.2,0.2c-0.1,0-0.2,0.1-0.3,0.1c-0.1,0-0.2,0-0.3,0c-0.1-0.2-0.1-0.6-0.2-1.2c-0.1-0.5-0.2-0.9-0.2-1
		c0,0,0-0.1,0-0.1c0,0,0-0.1,0-0.1c0,0,0.1,0,0.1,0c0,0,0.1,0,0.3,0l0-0.1l-0.7,0C-25.2,39.6-25.4,39.6-25.7,39.6"/>
</g>
<g id="g4715" transform="matrix(12.843235,0,0,-12.843235,451.1177,843.51907)">
	<path id="path4717" inkscape:connector-curvature="0" class="st0" d="M-25.7,39.6l0,0.1c0.1,0,0.2,0,0.2,0.1c0,0,0,0,0,0
		c0,0.1,0.1,0.2,0.1,0.5c0,0.1,0.1,0.4,0.2,0.9c0.1,0.5,0.1,0.8,0.1,0.8c0,0,0,0,0,0.1c0,0-0.1,0-0.1,0c0,0-0.1,0-0.3,0l0,0.1
		c0.4,0,0.6,0,0.6,0l0.7,0c0.1,0,0.3,0,0.5,0c0.1,0,0.2,0,0.2,0l0,0c0-0.1,0-0.2-0.1-0.5c0-0.1,0-0.1,0-0.2h-0.1l0,0.3
		c0,0,0,0.1,0,0.1c0,0,0,0,0,0c0,0-0.1,0-0.1,0c0,0-0.1,0-0.2,0c-0.1,0-0.1,0-0.2,0c-0.1,0-0.3,0-0.4,0l-0.1-0.7
		c0-0.1,0-0.2-0.1-0.3c0.3,0,0.5,0,0.5,0c0.1,0,0.2,0,0.4,0l0,0l0-0.2c0,0-0.2,0-0.4,0l-0.3,0c0,0-0.1,0-0.2,0
		c0-0.1-0.1-0.3-0.1-0.6l-0.1-0.4c0,0,0-0.1,0-0.1c0.1,0,0.3,0,0.5,0c0.1,0,0.2,0,0.3,0c0.2,0,0.2,0,0.3,0c0,0,0.1,0,0.1,0
		c0,0,0,0,0,0.1c0,0,0,0.1,0.1,0.4h0.1c0-0.1,0-0.2-0.1-0.3l-0.1-0.4l0,0c-0.1,0-0.1,0-0.2,0c-0.2,0-0.4,0-0.6,0c-0.4,0-0.5,0-0.6,0
		C-25.4,39.6-25.6,39.6-25.7,39.6"/>
</g>
<g id="g4719" transform="matrix(12.843235,0,0,-12.843235,487.81091,843.51907)">
	<path id="path4721" inkscape:connector-curvature="0" class="st0" d="M-25.7,39.6l0,0.1h0c0.1,0,0.2,0,0.2,0c0,0,0,0,0,0
		c0,0,0,0.1,0,0.1c0,0.1,0.1,0.3,0.1,0.8l0.1,0.7C-25,41.7-25,42-25,42.1c0,0,0,0,0,0.1c0,0,0,0-0.1,0c0,0-0.1,0-0.3,0l0,0.1l0.4,0
		c0.1,0,0.2,0,0.2,0c0,0,0.2,0,0.4,0c0.1,0,0.2,0,0.4,0c0.2,0,0.3,0,0.4-0.1c0.1,0,0.2-0.1,0.2-0.2s0.1-0.2,0.1-0.3
		c0-0.2-0.1-0.3-0.2-0.5c-0.1-0.1-0.3-0.2-0.6-0.3c0.1-0.1,0.2-0.4,0.5-0.8c0.1-0.3,0.2-0.4,0.3-0.4c0,0,0.1-0.1,0.1-0.1
		c0,0,0.1,0,0.2,0l0-0.1l-0.4,0l-0.2,0c0,0,0,0-0.1,0L-24,40c-0.2,0.3-0.3,0.5-0.3,0.6c0,0-0.1,0.1-0.1,0.1c0,0.1-0.1,0.1-0.2,0.3
		l0,0.1c0.1,0,0.1,0,0.1,0c0.1,0,0.3,0,0.4,0.1c0.1,0,0.2,0.1,0.3,0.2c0.1,0.1,0.1,0.2,0.1,0.4c0,0.1,0,0.2-0.1,0.3
		c-0.1,0.1-0.2,0.1-0.4,0.1c-0.1,0-0.2,0-0.3,0c0-0.1-0.1-0.5-0.2-1.1c-0.1-0.3-0.1-0.6-0.1-0.9c0-0.2,0-0.3,0-0.3c0,0,0,0,0-0.1
		c0,0,0,0,0-0.1c0,0,0,0,0.1,0c0,0,0.1,0,0.3,0l0-0.1l-0.7,0C-25.3,39.6-25.4,39.6-25.7,39.6"/>
</g>
<g id="g4723" transform="matrix(12.843235,0,0,-12.843235,544.75773,843.32653)">
	<path id="path4725" inkscape:connector-curvature="0" class="st0" d="M-25.7,39.6l0.4,0l0,0.1c-0.1,0-0.2,0-0.2,0c0,0-0.1,0-0.1,0
		c0,0,0,0,0,0c0,0,0,0.1,0.1,0.2c0.1,0.2,0.2,0.4,0.4,0.7h0.7c0,0,0.1,0,0.2,0c0.1-0.5,0.1-0.7,0.1-0.8c0,0,0,0,0-0.1c0,0,0,0-0.1,0
		c0,0-0.1,0-0.3,0v-0.1c0.4,0,0.6,0,0.6,0l0.6,0v0.1c-0.2,0-0.2,0-0.3,0c0,0,0,0,0,0c0,0,0,0.1,0,0.2c0,0.3-0.1,0.7-0.2,1.3
		c-0.1,0.4-0.1,0.7-0.1,1h-0.4c0,0-0.2-0.3-0.5-0.8l-0.8-1.4c-0.1-0.2-0.2-0.4-0.2-0.4c0,0,0,0,0,0c0,0-0.1,0-0.2,0v-0.1L-25.7,39.6
		z M-24.5,41.9l0.2-1c0,0-0.3,0-0.6,0c0,0-0.1,0-0.1,0L-24.5,41.9"/>
</g>
<g id="g4727" transform="matrix(12.843235,0,0,-12.843235,621.5345,807.48107)">
	<path id="path4729" inkscape:connector-curvature="0" class="st0" d="M-25.7,39.6l0-0.1c-0.1,0-0.2,0-0.3,0c0,0,0,0,0,0
		c0,0,0-0.1-0.1-0.1c0-0.1-0.1-0.4-0.2-0.8c-0.1-0.4-0.1-0.7-0.2-0.9c-0.1-0.3-0.1-0.5-0.1-0.6c0,0,0-0.1,0-0.1c0,0,0,0,0.1,0
		c0.1,0,0.1,0,0.2,0l0.1,0l0-0.1c-0.2,0-0.4,0-0.4,0l-0.5,0l0,0c0,0.2,0.1,0.3,0.1,0.5c-0.2-0.2-0.4-0.4-0.6-0.5
		c-0.1-0.1-0.3-0.1-0.4-0.1c-0.1,0-0.2,0-0.3,0.1c-0.1,0-0.1,0.1-0.2,0.1c-0.1,0.1-0.1,0.1-0.1,0.2c0,0.1-0.1,0.2-0.1,0.3
		c0,0,0,0.1,0,0.1c0,0.1,0,0.1,0,0.2c0,0.2,0.1,0.4,0.1,0.6c0,0.2,0.1,0.4,0.1,0.5c0,0.2,0.1,0.4,0.1,0.4c0,0,0,0.1,0,0.1
		c0,0,0,0,0,0.1c0,0,0,0,0,0c0,0-0.1,0-0.1,0c-0.1,0-0.2,0-0.2,0l0,0.1c0,0,0.1,0,0.2,0l0.5,0h0c0.1,0,0.1,0,0.2,0l0,0
		c-0.1-0.2-0.1-0.4-0.1-0.5c-0.1-0.3-0.1-0.6-0.2-1c0-0.2-0.1-0.4-0.1-0.4c0,0,0-0.1,0-0.1c0-0.1,0-0.2,0.1-0.3
		c0.1-0.1,0.2-0.1,0.3-0.1c0.1,0,0.2,0,0.3,0.1c0.1,0.1,0.2,0.1,0.3,0.2c0.1,0.1,0.1,0.1,0.1,0.2c0,0,0,0.2,0.1,0.4
		c0.1,0.3,0.1,0.5,0.1,0.6c0.1,0.4,0.1,0.7,0.1,0.7c0,0,0,0.1,0,0.1c0,0-0.2,0-0.3,0l0,0.1h0l0.6,0L-25.7,39.6"/>
</g>
<g id="g4731" transform="matrix(12.843235,0,0,-12.843235,631.17988,843.32653)">
	<path id="path4733" inkscape:connector-curvature="0" class="st0" d="M-25.7,39.6c0.1,0,0.1,0,0.2,0c0.1,0,0.2,0,0.4,0
		c0.2,0,0.3,0,0.4,0c0.2,0,0.4,0,0.6,0.1c0.2,0.1,0.4,0.2,0.5,0.4c0.2,0.2,0.3,0.3,0.3,0.6c0.1,0.2,0.1,0.4,0.1,0.6
		c0,0.2,0,0.4-0.1,0.6c-0.1,0.2-0.2,0.3-0.4,0.4c-0.2,0.1-0.4,0.1-0.6,0.1c-0.1,0-0.2,0-0.5,0c-0.2,0-0.4,0-0.5,0
		c-0.2,0-0.3,0-0.5,0l0-0.1c0,0,0.1,0,0.2,0c0.1,0,0.1,0,0.1,0c0,0,0,0,0,0c0,0,0,0,0-0.1c0-0.1,0-0.2-0.1-0.5
		c-0.1-0.5-0.2-0.9-0.2-1.3c-0.1-0.3-0.1-0.5-0.1-0.5c0,0,0,0,0,0c0,0-0.1,0-0.2-0.1l0-0.1L-25.7,39.6z M-25.1,41l0.2,1.1
		c0.1,0,0.2,0,0.4,0c0.1,0,0.3,0,0.4,0c0.1,0,0.2-0.1,0.3-0.2c0.1-0.1,0.1-0.2,0.2-0.3c0-0.1,0-0.2,0-0.3c0-0.2,0-0.3-0.1-0.5
		c0-0.2-0.1-0.4-0.2-0.5c-0.1-0.1-0.1-0.2-0.2-0.3c-0.1-0.1-0.1-0.1-0.2-0.1c-0.1,0-0.2-0.1-0.4-0.1c-0.1,0-0.1,0-0.2,0l-0.4,0
		C-25.3,40-25.2,40.4-25.1,41"/>
</g>
<g id="g4735" transform="matrix(12.843235,0,0,-12.843235,669.55533,843.51907)">
	<path id="path4737" inkscape:connector-curvature="0" class="st0" d="M-25.7,39.6l0,0.1c0.1,0,0.2,0,0.3,0c0,0,0,0,0,0
		c0,0,0,0,0,0.1c0,0,0,0.2,0.1,0.5l0.2,1C-25,41.8-25,42-25,42.1c0,0,0,0.1,0,0.1c0,0,0,0-0.1,0c0,0-0.1,0-0.2,0l0,0.1
		c0.2,0,0.4,0,0.6,0c0.1,0,0.3,0,0.7,0l0-0.1c-0.1,0-0.2,0-0.3,0c0,0,0,0,0,0c0,0,0,0,0-0.1c0-0.1-0.1-0.3-0.1-0.7
		c-0.1-0.5-0.1-0.9-0.2-1.1c0-0.3-0.1-0.4-0.1-0.5c0,0,0-0.1,0-0.1c0,0,0,0,0.1,0c0,0,0.1,0,0.3,0l0-0.1c-0.3,0-0.5,0-0.6,0
		C-25.1,39.6-25.4,39.6-25.7,39.6"/>
</g>
<g id="g4739" transform="matrix(12.843235,0,0,-12.843235,697.1941,835.96734)">
	<path id="path4741" inkscape:connector-curvature="0" class="st0" d="M-25.7,39.6c0-0.1,0.1-0.3,0.2-0.4c0.1-0.1,0.2-0.2,0.4-0.2
		c0.2-0.1,0.3-0.1,0.5-0.1c0.4,0,0.7,0.1,0.9,0.3c0.3,0.2,0.5,0.4,0.6,0.7c0.1,0.3,0.2,0.5,0.2,0.8c0,0.3-0.1,0.6-0.3,0.8
		c-0.2,0.2-0.5,0.3-0.9,0.3c-0.2,0-0.4,0-0.6-0.1c-0.2-0.1-0.3-0.2-0.4-0.2c-0.1-0.1-0.2-0.2-0.3-0.3c-0.1-0.2-0.2-0.3-0.2-0.5
		c-0.1-0.2-0.1-0.4-0.1-0.6C-25.8,39.9-25.8,39.7-25.7,39.6z M-25.2,40.4c0,0.2,0.1,0.4,0.1,0.5c0.1,0.2,0.1,0.3,0.2,0.4
		c0.1,0.1,0.2,0.2,0.3,0.2c0.1,0,0.2,0.1,0.4,0.1c0.1,0,0.2,0,0.3-0.1c0.1,0,0.2-0.1,0.2-0.2c0-0.1,0.1-0.2,0.1-0.3
		c0-0.1,0-0.2,0-0.3c0-0.2,0-0.4-0.1-0.6c0-0.2-0.1-0.4-0.2-0.6c-0.1-0.1-0.1-0.2-0.2-0.3c-0.1-0.1-0.1-0.1-0.2-0.2
		c-0.1,0-0.2-0.1-0.3-0.1c-0.1,0-0.2,0-0.3,0c-0.1,0-0.2,0.1-0.2,0.1c-0.1,0-0.1,0.1-0.1,0.1c0,0.1-0.1,0.1-0.1,0.2
		c0,0.1,0,0.2,0,0.3C-25.3,40-25.2,40.2-25.2,40.4"/>
</g>
<g id="g4743" transform="matrix(12.843235,0,0,-12.843235,783.73191,837.44422)">
	<path id="path4745" inkscape:connector-curvature="0" class="st0" d="M-25.7,39.6l0-0.2c-0.1-0.1-0.2-0.1-0.3-0.2
		c-0.1-0.1-0.2-0.1-0.3-0.1c-0.1,0-0.3-0.1-0.4-0.1c-0.2,0-0.4,0-0.5,0.1c-0.1,0.1-0.2,0.1-0.3,0.2c-0.1,0.1-0.1,0.2-0.2,0.3
		c-0.1,0.1-0.1,0.3-0.1,0.5c0,0.2,0,0.5,0.1,0.7c0.1,0.2,0.2,0.3,0.3,0.4c0.1,0.1,0.3,0.3,0.5,0.4c0.2,0.1,0.3,0.2,0.4,0.2
		c0.1,0,0.3,0.1,0.4,0.1c0.2,0,0.3,0,0.5-0.1c0.1,0,0.2-0.1,0.3-0.1c-0.1-0.3-0.1-0.5-0.1-0.7h-0.1l0,0.3c0,0,0,0.1,0,0.1
		c0,0,0,0-0.1,0.1c0,0-0.1,0-0.2,0.1c-0.1,0-0.2,0-0.4,0c-0.2,0-0.3,0-0.4-0.1c-0.1,0-0.2-0.1-0.3-0.2c-0.1-0.1-0.1-0.2-0.2-0.3
		c-0.1-0.1-0.1-0.3-0.1-0.4c0-0.2,0-0.3,0-0.6c0-0.2,0-0.3,0.1-0.4c0.1-0.1,0.1-0.2,0.3-0.3c0.1-0.1,0.3-0.1,0.4-0.1
		c0.1,0,0.2,0,0.3,0c0.1,0,0.2,0.1,0.3,0.1C-26,39.4-25.9,39.5-25.7,39.6L-25.7,39.6"/>
</g>
<g id="g4747" transform="matrix(12.843235,0,0,-12.843235,796.84475,843.32653)">
	<path id="path4749" inkscape:connector-curvature="0" class="st0" d="M-25.7,39.6c0.1,0,0.1,0,0.2,0c0.1,0,0.2,0,0.4,0
		c0.2,0,0.3,0,0.4,0c0.2,0,0.4,0,0.6,0.1c0.2,0.1,0.4,0.2,0.5,0.4c0.2,0.2,0.3,0.3,0.3,0.6c0.1,0.2,0.1,0.4,0.1,0.6
		c0,0.2,0,0.4-0.1,0.6c-0.1,0.2-0.2,0.3-0.4,0.4c-0.2,0.1-0.4,0.1-0.6,0.1c-0.1,0-0.2,0-0.5,0c-0.2,0-0.4,0-0.5,0
		c-0.2,0-0.3,0-0.4,0l0-0.1c0,0,0.1,0,0.2,0c0.1,0,0.1,0,0.1,0c0,0,0,0,0,0c0,0,0,0,0-0.1c0-0.1,0-0.2-0.1-0.5
		c-0.1-0.5-0.2-0.9-0.2-1.3c-0.1-0.3-0.1-0.5-0.1-0.5c0,0,0,0,0,0c0,0-0.1,0-0.2-0.1l0-0.1L-25.7,39.6z M-25.1,41l0.2,1.1
		c0.1,0,0.2,0,0.4,0c0.2,0,0.3,0,0.4,0c0.1,0,0.2-0.1,0.3-0.2c0.1-0.1,0.1-0.2,0.2-0.3c0-0.1,0-0.2,0-0.3c0-0.2,0-0.3-0.1-0.5
		c0-0.2-0.1-0.4-0.2-0.5c-0.1-0.1-0.1-0.2-0.2-0.3c-0.1-0.1-0.1-0.1-0.2-0.1c-0.1,0-0.2-0.1-0.4-0.1c-0.1,0-0.1,0-0.2,0l-0.4,0
		C-25.3,40-25.2,40.4-25.1,41"/>
</g>
</svg>
