<?xml version="1.0" encoding="utf-8"?>
<!-- Generator: Adobe Illustrator 22.1.0, SVG Export Plug-In . SVG Version: 6.00 Build 0)  -->
<svg version="1.1" id="Layer_1" xmlns="http://www.w3.org/2000/svg" xmlns:xlink="http://www.w3.org/1999/xlink" x="0px" y="0px"
	 viewBox="0 0 180.3 77.9" style="enable-background:new 0 0 180.3 77.9;" xml:space="preserve">
<style type="text/css">
	.st0{fill:url(#SVGID_1_);}
	.st1{fill:url(#SVGID_2_);}
	.st2{fill:url(#SVGID_3_);}
	.st3{fill:url(#SVGID_4_);}
	.st4{fill:url(#SVGID_5_);}
	.st5{fill:url(#SVGID_6_);}
	.st6{fill:url(#SVGID_7_);}
	.st7{fill:url(#SVGID_8_);}
	.st8{fill:url(#SVGID_9_);}
	.st9{fill:url(#SVGID_10_);}
	.st10{fill:url(#SVGID_11_);}
	.st11{fill:url(#SVGID_12_);}
	.st12{fill:#C0422E;}
</style>
<g>
	<g>
		<path d="M103.3,29.3l-5,0.6c0.8-2.5,0.2-4.3-1.3-4.2c-2.3,0.3-4.3,4.4-4.3,7.5c0,1.6,0.8,2.4,2,2.3c1.4-0.2,2.5-1.8,3-3.4l4.7-0.6
			c-1.3,4.7-4.8,7.4-9.1,7.9c-4.6,0.6-7-2.4-7-5.7c0-4.9,4.2-10.7,9.9-11.4c1.9-0.2,3.7,0.5,4.2,1.7l0.6-1.9l5-0.6L103.3,29.3z"/>
		<path d="M111.1,33.2c-0.2,0.5-0.3,1-0.3,1.3c0,0.2,0.1,0.3,0.2,0.3c0.5-0.1,0.7-0.3,1.2-1.7l1.9-0.2c-0.7,2.7-2.2,4.1-5.1,4.5
			c-2,0.3-3.2-0.7-3.2-2.3c0-0.6,0.1-0.9,0.2-1.4l3.4-9.8l-2.3,0.3l1-2.9l7.5-1L111.1,33.2z"/>
		<path d="M125.9,35.1c-2.2,0.3-2.9-1.2-2.9-2.4c-1.1,1.9-2.4,3.1-4,3.3c-1.9,0.2-3.1-0.7-3.1-3.4c0-3.6,3.1-8.4,6.1-8.7
			c1.6-0.2,2.5,0.4,2.6,1.7l0.6-1.9l5.1-0.7l-2.8,8.1c-0.3,0.8-0.5,1.6-0.1,1.6c0.4-0.1,0.7-0.3,1.2-1.8l1.9-0.2
			C129.9,33.3,128.4,34.8,125.9,35.1z M123.4,26.4c-0.9,0.1-2.5,4.5-2.5,5.8c0,0.5,0.3,0.6,0.6,0.6c0.4-0.1,0.8-0.6,1.3-2l1.3-3.8
			C124.1,26.5,123.7,26.3,123.4,26.4z"/>
		<path d="M141.6,26c-1,0.1-1.9-0.4-1.9-1.3c0-0.4,0.1-0.6,0.1-0.8c0.1-0.2-0.3-0.4-0.9-0.3c-0.8,0.1-1.1,0.4-1.1,1.2
			c0,1.3,4.3,1.4,4.3,4.3c0,2.5-2.2,4.2-6,4.7c-2.9,0.4-4.6-0.3-4.6-2c0-1,0.8-2,1.8-2.1c1.1-0.2,1.9,0.6,1.9,1.4
			c0,0.3,0,0.5-0.1,0.7c-0.1,0.4,0.5,0.4,0.9,0.3c0.5-0.1,1-0.4,1-1.2c0-1.4-4.1-1.4-4.1-4.3c0-2,1.9-4.4,5.6-4.9
			c2.7-0.3,4.6,0.5,4.6,2.2C143.2,25.1,142.5,25.9,141.6,26z"/>
		<path d="M154.5,24.4c-1,0.1-1.9-0.4-1.9-1.3c0-0.4,0.1-0.6,0.1-0.8c0.1-0.2-0.3-0.4-0.9-0.3c-0.8,0.1-1.1,0.4-1.1,1.2
			c0,1.3,4.3,1.4,4.3,4.3c0,2.5-2.2,4.2-6,4.7c-2.9,0.4-4.6-0.3-4.6-2c0-1.1,0.8-2,1.7-2.1c1.1-0.1,1.9,0.6,1.9,1.4
			c0,0.3,0,0.5-0.1,0.7c-0.2,0.4,0.4,0.4,0.9,0.4c0.5-0.1,1.1-0.4,1.1-1.2c0-1.4-4.1-1.4-4.1-4.3c0-2,1.9-4.4,5.6-4.9
			c2.7-0.3,4.6,0.5,4.6,2.2C156.1,23.4,155.4,24.3,154.5,24.4z"/>
		<path d="M161.9,30.5c-1.8,0.2-3-0.5-3-2.4c0-0.7,0.2-1.6,0.6-2.6l0.8-1.8c0.2-0.5,0.4-1,0.4-1.3c0-0.2-0.1-0.2-0.2-0.2
			c-0.5,0.1-0.8,0.3-1.4,1.7l-1.9,0.2l0.4-1c1.2-2.7,3-4.2,5.2-4.5c1.5-0.2,2.6,0.6,2.6,2.3c0,0.8-0.2,1.7-0.7,2.8l-1,2.3
			c-0.4,0.8-0.5,1.3-0.5,1.6c0,0.2,0.1,0.3,0.3,0.3c0.4-0.1,0.7-0.3,1.1-1.7l1.9-0.2C165.9,28.8,164.4,30.2,161.9,30.5z M164.9,17.6
			c-1.3,0.2-2.3-0.7-2.3-2c0-1.3,1-2.4,2.3-2.6c1.3-0.2,2.3,0.8,2.3,2C167.2,16.3,166.2,17.5,164.9,17.6z"/>
		<path d="M178.3,22.1c-1.1,0.1-1.8-0.5-1.8-1.2c0-0.8,0.4-0.9,0.4-1.3c0-0.4-0.3-0.6-0.7-0.5c-1.6,0.2-3.1,4.2-3.1,6.3
			c0,1.1,0.4,1.6,1.7,1.4c1.3-0.2,2.7-1.5,3-2.9l1.9-0.1c-0.4,2.5-2.6,4.8-6,5.2c-3.6,0.5-5.6-1.5-5.6-4c0-3.1,2.5-7.4,7.3-8
			c2.8-0.3,4.7,0.9,4.7,2.7C180.3,21,179.6,21.9,178.3,22.1z"/>
	</g>
	<g>
		<path d="M139.2,7.6c-5.7-1.1-9.4-2.4-13.9-6.8c-1.3-1.2-2.9-0.7-3.9,1.3c-0.6,1.4-2.3,2.5-4.1,2.7C107.5,6,64,15,59.2,15.4
			c-4.3,0.4-6.3-0.9-4.9-3.4c0.9-1.8,3.3-4.6,9.6-6c3.6-0.8,3.8-5,1.3-5.8c-2-0.6-5.8,0.2-8.8,2.1c-5.6,3.5-13.3,8.4-18.2,8.2
			C34.3,10.2,35.7,7,29.6,7C21.7,7,15.3,12.1,10,18C4.8,24,1,33.3,0.1,41.5c-0.9,8.2,2.2,13.7,11.1,10.7
			c10.2-3.5,10.4-8.4,16.1-10.2c5.7-1.8,7.5,0.2,15-1.4c7.5-1.6,5.4-5.6,2.5-6.1c-2.3-0.4-4.1-2.6,0.2-5.7
			c7.4-5.3,67.2-15.9,71.3-16.2s6.4,0.4,6,2.1c-1,3.9,4.6,0.4,7.1-0.8c1.7-0.8,2.4-1.5,3.7-1.1c1.3,0.4,0.4,2.8,2.4,3.5
			c1.4,0.5,3.8,0.2,5.6-2.4C142.8,11.3,142.7,8.3,139.2,7.6z"/>
	</g>
	
		<radialGradient id="SVGID_1_" cx="-449.6995" cy="-27.8322" r="20.4542" gradientTransform="matrix(1.0764 2.670000e-02 0.3653 -1.0921 504.088 32.56)" gradientUnits="userSpaceOnUse">
		<stop  offset="0.3258" style="stop-color:#FFFFFF"/>
		<stop  offset="1" style="stop-color:#9D9FA2"/>
	</radialGradient>
	<path class="st0" d="M20,45.2c-4.8,5.2-9.6,4.2-8.9,2.3c1.3-3.2,3,0,6.9-2.9c3.9-2.9,10.8-13.9,13.9-9.2c2,3,4.2,4,7.5,3.2
		c3.6-0.9,3.8,1.1,0,1.5c-3.8,0.4-7.4-1.2-10.6-1.2C25.8,38.7,22.7,42.3,20,45.2z"/>
	
		<radialGradient id="SVGID_2_" cx="-858.6509" cy="-639.8568" r="4.9896" gradientTransform="matrix(2.8234 -0.6141 -0.1659 -3.8513 2332.5464 -2975.0647)" gradientUnits="userSpaceOnUse">
		<stop  offset="0.3258" style="stop-color:#FFFFFF"/>
		<stop  offset="1" style="stop-color:#9D9FA2"/>
	</radialGradient>
	<path class="st1" d="M19.1,11.3c-2.7,2.1-3.3,3.8-3.1,4.7c0.2,0.9,2.8-0.4,4.7-2.3c1.9-1.9,3.5-4.1,2.4-4.3
		C21.8,9.3,20.7,10,19.1,11.3z"/>
	
		<radialGradient id="SVGID_3_" cx="-690.8702" cy="-390.8212" r="3.6797" gradientTransform="matrix(1.1971 0.4185 1.099 -2.6134 1313.074 -727.8556)" gradientUnits="userSpaceOnUse">
		<stop  offset="0.3258" style="stop-color:#FFFFFF"/>
		<stop  offset="1" style="stop-color:#9D9FA2"/>
	</radialGradient>
	<path class="st2" d="M60.4,1.3C58.7,2,57.9,3,57.7,3.7c-0.2,0.7,1.2,0.6,2.5-0.2c1.3-0.7,2.7-1.8,2.3-2.3
		C62.1,0.8,61.4,0.9,60.4,1.3z"/>
	
		<radialGradient id="SVGID_4_" cx="-687.4621" cy="-1143.0103" r="4.2096" gradientTransform="matrix(1.8196 -1.7355 -1.1641 -1.2731 -75.2963 -2598.4141)" gradientUnits="userSpaceOnUse">
		<stop  offset="0.3258" style="stop-color:#FFFFFF"/>
		<stop  offset="1" style="stop-color:#9D9FA2"/>
	</radialGradient>
	<path class="st3" d="M1.6,45.7c0.2,1.3,0.3,3.8,1.9,4.8c1.6,1,3.2-0.4,3.3-1.4c0.2-3.3-3.9-0.6-4.5-3.2c-0.4-1.4,1.1-3.8,0.2-3.4
		C1.6,42.7,1.4,44.3,1.6,45.7z"/>
	
		<radialGradient id="SVGID_5_" cx="82.0897" cy="-91.6597" r="16.6897" gradientTransform="matrix(0.8928 -0.1994 9.100000e-02 -0.7779 -50.5602 -38.4223)" gradientUnits="userSpaceOnUse">
		<stop  offset="0.3258" style="stop-color:#FFFFFF"/>
		<stop  offset="1" style="stop-color:#9D9FA2"/>
	</radialGradient>
	<path class="st4" d="M15.7,15c0.4,0.2,0.1,1-0.6,1.8c-0.7,0.8-1.6,1.3-2,1.1c-0.4-0.2-0.1-1,0.6-1.8C14.4,15.3,15.3,14.8,15.7,15z"
		/>
	
		<radialGradient id="SVGID_6_" cx="220.5795" cy="140.6272" r="8.4888" gradientTransform="matrix(0.8283 -0.1069 5.500000e-03 -0.6881 -126.9536 124.7349)" gradientUnits="userSpaceOnUse">
		<stop  offset="0.3258" style="stop-color:#FFFFFF"/>
		<stop  offset="1" style="stop-color:#9D9FA2"/>
	</radialGradient>
	<path class="st5" d="M57.9,2.8c0.2,0.1,0.1,0.6-0.3,1.1c-0.4,0.4-0.9,0.7-1.1,0.6c-0.2-0.1-0.1-0.6,0.3-1.1
		C57.2,2.9,57.7,2.7,57.9,2.8z"/>
	
		<radialGradient id="SVGID_7_" cx="-1747.2002" cy="585.5182" r="29.715" gradientTransform="matrix(4.000000e-02 0.7586 0.732 -0.353 -348.844 1583.0574)" gradientUnits="userSpaceOnUse">
		<stop  offset="0.3258" style="stop-color:#FFFFFF"/>
		<stop  offset="1" style="stop-color:#9D9FA2"/>
	</radialGradient>
	<path class="st6" d="M11.5,50.5c-0.2,0.5-1,0.7-1.7,0.4c-0.7-0.2-1-0.8-0.8-1.3c0.2-0.5,1-0.7,1.6-0.4
		C11.4,49.5,11.8,50.1,11.5,50.5z"/>
	
		<radialGradient id="SVGID_8_" cx="300.7997" cy="132.3103" r="6.9341" gradientTransform="matrix(0.8283 -0.1069 5.500000e-03 -0.6881 -126.9536 124.7349)" gradientUnits="userSpaceOnUse">
		<stop  offset="0.3258" style="stop-color:#FFFFFF"/>
		<stop  offset="1" style="stop-color:#9D9FA2"/>
	</radialGradient>
	<path class="st7" d="M123.8,1.3c0.4,0.2,0.2,0.9-0.4,1.6c-0.6,0.7-1.4,1.1-1.7,0.8c-0.4-0.2-0.2-0.9,0.4-1.6
		C122.7,1.5,123.5,1.1,123.8,1.3z"/>
	
		<radialGradient id="SVGID_9_" cx="377.9965" cy="42.5256" r="8.2464" gradientTransform="matrix(0.8358 -0.1594 -4.390000e-02 -0.6728 -188.7795 99.6911)" gradientUnits="userSpaceOnUse">
		<stop  offset="0.3258" style="stop-color:#FFFFFF"/>
		<stop  offset="1" style="stop-color:#9D9FA2"/>
	</radialGradient>
	<path class="st8" d="M125.3,10.8c0.3,0.1,0.2,0.6-0.2,1.1c-0.4,0.5-0.9,0.8-1.2,0.7s-0.2-0.6,0.2-1.1C124.5,11,125,10.7,125.3,10.8
		z"/>
	
		<radialGradient id="SVGID_10_" cx="-301.4901" cy="-55.3742" r="4.296" gradientTransform="matrix(1.2042 -0.1141 0.2781 -1.0878 518.3292 -83.1016)" gradientUnits="userSpaceOnUse">
		<stop  offset="0.3258" style="stop-color:#FFFFFF"/>
		<stop  offset="1" style="stop-color:#9D9FA2"/>
	</radialGradient>
	<path class="st9" d="M138.5,14.3c-1,0.6-2.1,0.3-2.2,1.1c-0.1,0.8,1.1,0.9,2.2,0.2c1.2-0.6,2.4-2.2,2-2.6
		C140.2,12.7,139.4,13.8,138.5,14.3z"/>
	
		<radialGradient id="SVGID_11_" cx="-405.418" cy="2.5559" r="24" gradientTransform="matrix(1.0764 2.670000e-02 0.3653 -1.0921 504.088 32.56)" gradientUnits="userSpaceOnUse">
		<stop  offset="0.3258" style="stop-color:#FFFFFF"/>
		<stop  offset="1" style="stop-color:#9D9FA2"/>
	</radialGradient>
	<path class="st10" d="M42,30.7c2-3.1,4.5-4.4,10.8-6.1c5.8-1.6,20.3-4.8,27.8-6.1c11.7-2,39.2-7,38.5-7c-4.3-0.2-35,5-42.2,6.8
		C70.5,20,65,20.9,59.3,22.1c-7.1,1.4-11.4,0.9-15.6,4.2C40.2,29.1,40.2,33.6,42,30.7z"/>
	
		<radialGradient id="SVGID_12_" cx="-355.7244" cy="11.2035" r="6.2048" gradientTransform="matrix(1.0764 2.670000e-02 0.3653 -1.0921 504.088 32.56)" gradientUnits="userSpaceOnUse">
		<stop  offset="0.3258" style="stop-color:#FFFFFF"/>
		<stop  offset="1" style="stop-color:#9D9FA2"/>
	</radialGradient>
	<path class="st11" d="M123.8,13c-0.6,0.8-1.9,3.1,0.2,2.6c2.1-0.5,4.2-1.5,6-2.7c1.9-1.2,3.2-1.3,3.9-0.6s1.2-0.1,0.6-0.7
		c-0.6-0.7-2.9-0.5-5.1,0.8c-2.2,1.3-4,2-3.4,0.4C126.7,11.1,124.6,11.9,123.8,13z"/>
	<g>
		<path class="st12" d="M61.5,52l-9.8,16.2H36.3L27.5,52H24v-6.4h22.7V52h-3.8l4.7,9.3l5.3-9.3H49v-6.4h16V52H61.5z"/>
		<path class="st12" d="M63.6,68.2v-6.4h3.8V52h-3.8v-6.4h18.3v16.2h3.8v6.4H63.6z M70.6,43.9v-5.5h11.3v5.5H70.6z"/>
		<path class="st12" d="M106.8,68.2v-6.4h1.7v-6.3c0-2-0.2-3.8-1.7-3.8c-1.5,0-3,1.4-4,4.3v5.8h1.7v6.4h-20v-6.4h3.8V52h-3.8v-6.4
			h18.3v4.8c1.9-2.7,6-5.3,11.3-5.3c5.1,0,8.8,3.2,8.8,7.4v9.2h3.8v6.4H106.8z"/>
		<path class="st12" d="M157.7,52l-10.6,16.6c-3.9,6.3-7.5,9.3-15.2,9.3c-7.2,0-9.8-2.5-9.8-5c0-2.2,1.7-3.6,5-3.6
			c4.9,0,4.5,4.3,7.3,4.3c1.4,0,2.7-0.9,2.7-2.8c0-1.3-0.6-3-2.1-5.2L126.3,52h-3.5v-6.4h21V52h-3l4,7.5l4.4-7.5h-3v-6.4h15.8V52
			L157.7,52L157.7,52z"/>
		<path class="st12" d="M157.6,68.2v-6.4h3.8V42.5h-3.8v-6.4h18.3v25.7h3.9v6.4H157.6z"/>
	</g>
</g>
</svg>
