<svg id="Layer_1" data-name="Layer 1" xmlns="http://www.w3.org/2000/svg" xmlns:xlink="http://www.w3.org/1999/xlink" viewBox="0 0 174.46 110.48"><defs><style>.cls-1{fill:#fff;}.cls-2{fill:#231f20;}.cls-3{fill:none;stroke:#fff;stroke-width:2.76px;}.cls-4{fill:url(#radial-gradient);}.cls-5{fill:url(#radial-gradient-2);}.cls-6{fill:url(#radial-gradient-3);}.cls-7{fill:url(#radial-gradient-4);}.cls-8{fill:url(#radial-gradient-5);}.cls-9{fill:url(#radial-gradient-6);}.cls-10{fill:url(#radial-gradient-7);}.cls-11{fill:url(#radial-gradient-8);}.cls-12{fill:url(#radial-gradient-9);}.cls-13{fill:url(#radial-gradient-10);}.cls-14{fill:url(#radial-gradient-11);}.cls-15{fill:url(#radial-gradient-12);}.cls-16{fill:#d44329;}</style><radialGradient id="radial-gradient" cx="-434.88" cy="160.31" r="19.64" gradientTransform="matrix(1.08, 0.03, -0.37, 1.09, 554.1, -58.33)" gradientUnits="userSpaceOnUse"><stop offset="0.41" stop-color="#919496"/><stop offset="1" stop-color="#fff"/></radialGradient><radialGradient id="radial-gradient-2" cx="-846.18" cy="777.79" r="4.79" gradientTransform="matrix(2.82, -0.61, 0.17, 3.85, 2291.84, -3443.06)" xlink:href="#radial-gradient"/><radialGradient id="radial-gradient-3" cx="-678.35" cy="527.36" r="3.53" gradientTransform="matrix(1.2, 0.42, -1.1, 2.61, 1463.84, -1033.88)" xlink:href="#radial-gradient"/><radialGradient id="radial-gradient-4" cx="-673.56" cy="1282.3" r="4.04" gradientTransform="matrix(1.82, -1.74, 1.16, 1.27, -244.95, -2697.39)" xlink:href="#radial-gradient"/><radialGradient id="radial-gradient-5" cx="99.89" cy="225.56" r="16.02" gradientTransform="matrix(0.89, -0.2, -0.09, 0.78, -36.88, -83.48)" gradientUnits="userSpaceOnUse"><stop offset="0.33" stop-color="#fff"/><stop offset="1" stop-color="#9d9fa2"/></radialGradient><radialGradient id="radial-gradient-6" cx="237.48" cy="-7.9" r="8.15" gradientTransform="matrix(0.83, -0.11, -0.01, 0.69, -124.53, 91.26)" xlink:href="#radial-gradient-5"/><radialGradient id="radial-gradient-7" cx="-1741.5" cy="-457.58" r="28.53" gradientTransform="matrix(0.04, 0.76, -0.73, 0.35, -237.86, 1587.75)" xlink:href="#radial-gradient-5"/><radialGradient id="radial-gradient-8" cx="314.5" cy="0.08" r="6.66" gradientTransform="matrix(0.83, -0.11, -0.01, 0.69, -124.53, 91.26)" xlink:href="#radial-gradient"/><radialGradient id="radial-gradient-9" cx="391.95" cy="89.54" r="7.92" gradientTransform="matrix(0.84, -0.16, 0.04, 0.67, -193.29, 68.85)" xlink:href="#radial-gradient-5"/><radialGradient id="radial-gradient-10" cx="-290.68" cy="189.52" r="4.12" gradientTransform="matrix(1.2, -0.11, -0.28, 1.09, 554.99, -172.03)" xlink:href="#radial-gradient"/><radialGradient id="radial-gradient-11" cx="-392.37" cy="131.14" r="23.04" xlink:href="#radial-gradient"/><radialGradient id="radial-gradient-12" cx="-344.66" cy="122.84" r="5.96" xlink:href="#radial-gradient"/></defs><polygon class="cls-1" points="172.82 110.48 93.05 110.48 58.81 78.67 172.82 78.67 172.82 110.48"/><path class="cls-2" d="M109.62,150.79h5.64l4.16,7.71,4.15-7.71h5.65v12h-3.58v-8.6h0l-4.82,8.6h-2.74l-4.82-8.6h0v8.6h-3.58Z" transform="translate(-16.57 -54.82)"/><path class="cls-2" d="M131.37,150.79H135v6.92c0,1.52.55,2.12,2.05,2.12h3.64c1.51,0,2.06-.6,2.06-2.12v-6.92h3.67v7.71c0,3-1.54,4.41-4.91,4.41h-5.27c-3.37,0-4.91-1.43-4.91-4.41Z" transform="translate(-16.57 -54.82)"/><path class="cls-2" d="M148.4,158.85h3.67c0,1.27.53,1.37,1.59,1.37h4.5c.78,0,1.57-.08,1.57-1s-.43-1.1-5.16-1.1c-5.53,0-6.16-.67-6.16-3.61,0-2.17.2-3.84,4.84-3.84h5.13c4.23,0,4.63,1.44,4.63,3.54v.38h-3.67c0-.88-.1-1.24-1.79-1.24h-4.07c-.83,0-1.39.28-1.39.93,0,1,.44,1.07,4.38,1.06,5.71,0,7,.33,7,3.82,0,3.23-1.1,3.76-6,3.76h-4.45c-3.34,0-4.68-.63-4.68-3.23Z" transform="translate(-16.57 -54.82)"/><path class="cls-2" d="M165.64,150.79h3.68v12h-3.68Z" transform="translate(-16.57 -54.82)"/><path class="cls-2" d="M171.4,155c0-3.5,2-4.33,5.28-4.33H181c5.23,0,5.91,1.12,5.87,4.52H183.2v-.33c0-.86-.63-1.11-1.72-1.11h-4c-1.93,0-2.3.91-2.3,2.4v1.29c0,1.73.37,2.4,2.11,2.4h3.92c1.65,0,2.15-.17,2.15-1.66H187v1.13c0,2-.72,3.61-4.41,3.61h-5.93c-3.31,0-5.28-.83-5.28-4.34Z" transform="translate(-16.57 -54.82)"/><path class="cls-2" d="M125.88,142.85h3.57v1.05c0,.9.47,1.26,1.61,1.26h1.45c1.21,0,1.92-.15,1.92-1.26V136h3.68v8.17c0,3.3-1.81,3.94-5.13,3.94h-2.4c-3.44,0-4.7-1.06-4.7-3.86Z" transform="translate(-16.57 -54.82)"/><path class="cls-2" d="M140.26,136h3.67v6.91c0,1.53.55,2.12,2.06,2.12h3.64c1.5,0,2.05-.59,2.05-2.12V136h3.67v7.71c0,3-1.54,4.4-4.91,4.4h-5.27c-3.37,0-4.91-1.42-4.91-4.4Z" transform="translate(-16.57 -54.82)"/><path class="cls-2" d="M157.28,144.09H161c0,1.27.53,1.37,1.58,1.37h4.51c.77,0,1.57-.08,1.57-1s-.43-1.11-5.17-1.11c-5.52,0-6.15-.66-6.15-3.61,0-2.16.2-3.84,4.83-3.84h5.13c4.24,0,4.63,1.44,4.63,3.55v.38h-3.67c0-.88-.1-1.24-1.79-1.24h-4.07c-.82,0-1.39.28-1.39.92,0,1,.45,1.08,4.39,1.06,5.71,0,7,.33,7,3.82,0,3.23-1.09,3.76-6,3.76H162c-3.35,0-4.69-.63-4.69-3.23Z" transform="translate(-16.57 -54.82)"/><path class="cls-2" d="M172.39,136h14v3h-5.16v9h-3.68v-9h-5.16Z" transform="translate(-16.57 -54.82)"/><path class="cls-1" d="M117.16,84.32l-4.78.61c.81-2.38.2-4.15-1.23-4-2.18.29-4.14,4.2-4.14,7.24,0,1.52.78,2.34,1.94,2.18,1.35-.17,2.39-1.77,2.85-3.29l4.55-.59a10.1,10.1,0,0,1-8.73,7.61c-4.36.56-6.73-2.29-6.73-5.48,0-4.76,4-10.28,9.47-11,1.85-.25,3.59.47,4,1.58l.62-1.79,4.8-.61Z" transform="translate(-16.57 -54.82)"/><path class="cls-1" d="M124.58,88.13a5,5,0,0,0-.31,1.24c0,.18.06.28.21.26.44-.06.71-.29,1.16-1.67l1.82-.23a5.15,5.15,0,0,1-4.88,4.3c-1.94.25-3.08-.68-3.08-2.21a4.06,4.06,0,0,1,.24-1.39L123,79.05l-2.25.28,1-2.74,7.21-.92Z" transform="translate(-16.57 -54.82)"/><path class="cls-1" d="M138.82,90a2.23,2.23,0,0,1-2.83-2.3c-1,1.8-2.29,3-3.82,3.15-1.86.24-3-.63-3-3.23,0-3.49,3-8,5.82-8.39,1.53-.19,2.36.35,2.53,1.66l.63-1.84,4.94-.62-2.66,7.72c-.26.74-.46,1.55-.07,1.5s.7-.3,1.13-1.68l1.83-.23C142.68,88.19,141.23,89.64,138.82,90Zm-2.44-8.4c-.84.11-2.39,4.32-2.39,5.56,0,.46.26.6.61.56s.8-.56,1.22-1.94l1.25-3.61A.56.56,0,0,0,136.38,81.55Z" transform="translate(-16.57 -54.82)"/><path class="cls-1" d="M153.92,81.2c-.95.13-1.77-.34-1.77-1.3a1.57,1.57,0,0,1,.12-.73c.09-.21-.28-.37-.86-.3-.77.1-1.09.43-1.09,1.19,0,1.22,4.14,1.38,4.14,4.17,0,2.41-2.1,4-5.74,4.46-2.84.36-4.47-.29-4.47-2a2,2,0,0,1,1.68-2,1.47,1.47,0,0,1,1.79,1.37,1.83,1.83,0,0,1-.06.65c-.15.36.43.39.86.33a1.08,1.08,0,0,0,1-1.12c0-1.31-3.92-1.36-3.92-4.12,0-1.92,1.84-4.25,5.41-4.71,2.57-.32,4.45.45,4.45,2.17A1.92,1.92,0,0,1,153.92,81.2Z" transform="translate(-16.57 -54.82)"/><path class="cls-1" d="M166.32,79.61c-1,.12-1.79-.34-1.79-1.3a1.48,1.48,0,0,1,.13-.72c.08-.22-.28-.38-.86-.3-.77.1-1.1.42-1.1,1.18,0,1.22,4.14,1.39,4.14,4.17,0,2.42-2.1,4-5.74,4.46-2.83.37-4.46-.29-4.46-1.95a2,2,0,0,1,1.67-2,1.48,1.48,0,0,1,1.8,1.38,1.77,1.77,0,0,1-.06.64c-.15.36.43.39.85.34a1.1,1.1,0,0,0,1-1.13c0-1.31-3.92-1.35-3.92-4.12,0-1.91,1.84-4.24,5.41-4.7,2.56-.33,4.44.45,4.44,2.16A1.91,1.91,0,0,1,166.32,79.61Z" transform="translate(-16.57 -54.82)"/><path class="cls-1" d="M173.37,85.52c-1.7.22-2.92-.5-2.92-2.26a6.39,6.39,0,0,1,.62-2.51l.72-1.7a4.36,4.36,0,0,0,.4-1.27c0-.16-.06-.23-.19-.22-.44.06-.73.28-1.3,1.67l-1.82.24.38-1c1.14-2.6,2.87-4.06,5-4.34a2.06,2.06,0,0,1,2.51,2.25,6.84,6.84,0,0,1-.66,2.65l-1,2.26a4.78,4.78,0,0,0-.48,1.55c0,.24.14.3.32.28.43,0,.65-.26,1.11-1.65l1.81-.23C177.26,83.89,175.82,85.22,173.37,85.52Zm2.88-12.38a1.9,1.9,0,0,1-2.22-1.9,2.6,2.6,0,0,1,2.22-2.51,1.9,1.9,0,0,1,2.2,1.94A2.56,2.56,0,0,1,176.25,73.14Z" transform="translate(-16.57 -54.82)"/><path class="cls-1" d="M189.17,77.42c-1,.13-1.71-.48-1.71-1.15s.4-.86.4-1.27-.29-.53-.67-.48c-1.53.19-3,4-3,6,0,1,.41,1.52,1.67,1.36a3.87,3.87,0,0,0,2.92-2.77l1.8-.11a6.4,6.4,0,0,1-5.8,5c-3.45.44-5.32-1.41-5.32-3.81a8,8,0,0,1,7-7.67c2.72-.33,4.52.9,4.52,2.61A2.08,2.08,0,0,1,189.17,77.42Z" transform="translate(-16.57 -54.82)"/><path class="cls-3" d="M151.6,63.49c-5.49-1.09-9-2.34-13.33-6.49-1.22-1.18-2.82-.65-3.7,1.25a5.06,5.06,0,0,1-3.93,2.62C121.17,62,79.4,70.62,74.81,71c-4.18.37-6-.86-4.75-3.31.86-1.7,3.14-4.38,9.26-5.8,3.41-.78,3.67-4.82,1.25-5.53-1.9-.58-5.58.24-8.46,2-5.4,3.36-12.79,8.07-17.51,7.82-3.69-.2-2.36-3.35-8.23-3.33-7.57,0-13.7,4.93-18.77,10.61s-8.7,14.63-9.52,22.55,2.12,13.18,10.64,10.24c9.76-3.36,10-8.07,15.51-9.77s7.21.19,14.43-1.33,5.17-5.35,2.39-5.86c-2.23-.4-3.93-2.51.14-5.44,7.09-5.09,64.51-15.22,68.49-15.6s6.16.39,5.74,2c-.95,3.8,4.38.35,6.79-.74,1.62-.74,2.31-1.41,3.52-1.07s.34,2.7,2.28,3.39c1.38.5,3.66.25,5.36-2.32S154.91,64.14,151.6,63.49Z" transform="translate(-16.57 -54.82)"/><path class="cls-2" d="M151.6,63.49c-5.49-1.09-9-2.34-13.33-6.49-1.22-1.18-2.82-.65-3.7,1.25a5.06,5.06,0,0,1-3.93,2.62C121.17,62,79.4,70.62,74.81,71c-4.18.37-6-.86-4.75-3.31.86-1.7,3.14-4.38,9.26-5.8,3.41-.78,3.67-4.82,1.25-5.53-1.9-.58-5.58.24-8.46,2-5.4,3.36-12.79,8.07-17.51,7.82-3.69-.2-2.36-3.35-8.23-3.33-7.57,0-13.7,4.93-18.77,10.61s-8.7,14.63-9.52,22.55,2.12,13.18,10.64,10.24c9.76-3.36,10-8.07,15.51-9.77s7.21.19,14.43-1.33,5.17-5.35,2.39-5.86c-2.23-.4-3.93-2.51.14-5.44,7.09-5.09,64.51-15.22,68.49-15.6s6.16.39,5.74,2c-.95,3.8,4.38.35,6.79-.74,1.62-.74,2.31-1.41,3.52-1.07s.34,2.7,2.28,3.39c1.38.5,3.66.25,5.36-2.32S154.91,64.14,151.6,63.49Z" transform="translate(-16.57 -54.82)"/><path class="cls-4" d="M37.14,99.63c-4.64,5-9.26,4-8.51,2.23,1.28-3,2.88,0,6.62-2.8s10.41-13.37,13.38-8.87c1.89,2.88,4,3.85,7.22,3,3.41-.88,3.67,1.06,0,1.45s-7.13-1.12-10.14-1.19S39.72,96.84,37.14,99.63Z" transform="translate(-16.57 -54.82)"/><path class="cls-5" d="M36.29,67c-2.55,2-3.16,3.69-3,4.54s2.66-.42,4.51-2.19,3.38-3.94,2.27-4.09S37.83,65.79,36.29,67Z" transform="translate(-16.57 -54.82)"/><path class="cls-6" d="M75.93,57.46a4.36,4.36,0,0,0-2.61,2.3c-.21.66,1.15.53,2.43-.16s2.56-1.73,2.18-2.18S76.93,57.07,75.93,57.46Z" transform="translate(-16.57 -54.82)"/><path class="cls-7" d="M19.52,100.07c.2,1.22.28,3.65,1.8,4.57a2.11,2.11,0,0,0,3.16-1.38c.19-3.13-3.7-.56-4.33-3.07-.36-1.39,1.07-3.64.2-3.29S19.31,98.73,19.52,100.07Z" transform="translate(-16.57 -54.82)"/><path class="cls-8" d="M33,70.66c.36.18.09,1-.59,1.74s-1.52,1.27-1.87,1.08-.08-1,.6-1.75S32.66,70.47,33,70.66Z" transform="translate(-16.57 -54.82)"/><path class="cls-9" d="M73.57,58.9c.23.13.12.57-.25,1s-.86.66-1.1.53-.12-.57.26-1S73.34,58.77,73.57,58.9Z" transform="translate(-16.57 -54.82)"/><path class="cls-10" d="M29,104.72a1.35,1.35,0,0,1-1.59.41c-.64-.23-.95-.76-.72-1.22a1.33,1.33,0,0,1,1.59-.4C28.92,103.72,29.25,104.27,29,104.72Z" transform="translate(-16.57 -54.82)"/><path class="cls-11" d="M136.84,57.47c.35.19.17.88-.4,1.53s-1.31,1-1.66.81-.18-.87.39-1.52S136.48,57.28,136.84,57.47Z" transform="translate(-16.57 -54.82)"/><path class="cls-12" d="M138.23,66.62c.27.11.18.59-.21,1.08s-.91.77-1.18.66-.17-.61.21-1.09S138,66.49,138.23,66.62Z" transform="translate(-16.57 -54.82)"/><path class="cls-13" d="M151,69.93c-.95.58-2,.27-2.1,1.07s1,.83,2.13.23,2.32-2.11,1.92-2.47S151.76,69.42,151,69.93Z" transform="translate(-16.57 -54.82)"/><path class="cls-14" d="M58.32,85.7c1.89-3,4.28-4.2,10.39-5.84,5.6-1.51,19.5-4.59,26.72-5.84,11.19-1.94,37.66-6.71,36.94-6.74-4.16-.19-33.64,4.84-40.54,6.57-6.17,1.55-11.45,2.45-17,3.54-6.79,1.35-10.94.89-15,4.07C56.51,84.14,56.55,88.51,58.32,85.7Z" transform="translate(-16.57 -54.82)"/><path class="cls-15" d="M136.84,68.66c-.57.77-1.86,3,.19,2.45a20.73,20.73,0,0,0,5.77-2.55c1.86-1.13,3.08-1.27,3.73-.62s1.18,0,.62-.69-2.74-.47-4.86.75-3.84,1.88-3.27.4S137.56,67.64,136.84,68.66Z" transform="translate(-16.57 -54.82)"/><path class="cls-16" d="M77,106.16l-9.38,15.53H52.8l-8.44-15.53H41V100H62.82v6.16H59.18l4.47,8.91,5.06-8.91H65V100H80.34v6.16Z" transform="translate(-16.57 -54.82)"/><path class="cls-16" d="M79,121.69v-6.17h3.69v-9.36H79V100H96.55v15.52h3.69v6.17Zm6.77-23.33V93.05H96.55v5.31Z" transform="translate(-16.57 -54.82)"/><path class="cls-16" d="M120.52,121.69v-6.17h1.65v-6.08c0-1.89-.16-3.6-1.65-3.6s-2.87,1.34-3.81,4.09v5.59h1.6v6.17H99.13v-6.17h3.64v-9.36H99.13V100h17.58v4.66a13.34,13.34,0,0,1,10.86-5.11c4.91,0,8.48,3.06,8.48,7.15v8.82h3.69v6.17Z" transform="translate(-16.57 -54.82)"/><path class="cls-16" d="M169.39,106.16l-10.13,15.9c-3.75,6.08-7.17,8.9-14.55,8.9-7,0-9.43-2.41-9.43-4.82,0-2.08,1.66-3.48,4.8-3.48,4.73,0,4.3,4.14,7,4.14a2.46,2.46,0,0,0,2.59-2.66,9.26,9.26,0,0,0-2-5l-8.43-13h-3.36V100h20.17v6.16h-2.87l3.81,7.2,4.18-7.2h-2.92V100h15.12v6.16Z" transform="translate(-16.57 -54.82)"/><path class="cls-16" d="M169.23,121.69v-6.17h3.69V97.06h-3.69V90.89h17.58v24.63h3.7v6.17Z" transform="translate(-16.57 -54.82)"/></svg>