<?xml version="1.0" encoding="utf-8"?>
<!-- Generator: Adobe Illustrator 22.1.0, SVG Export Plug-In . SVG Version: 6.00 Build 0)  -->
<svg version="1.1" id="Layer_1" xmlns="http://www.w3.org/2000/svg" xmlns:xlink="http://www.w3.org/1999/xlink" x="0px" y="0px"
	 viewBox="0 0 180.3 107.2" style="enable-background:new 0 0 180.3 107.2;" xml:space="preserve">
<style type="text/css">
	.st0{fill:url(#SVGID_1_);}
	.st1{fill:url(#SVGID_2_);}
	.st2{fill:url(#SVGID_3_);}
	.st3{fill:url(#SVGID_4_);}
	.st4{fill:url(#SVGID_5_);}
	.st5{fill:url(#SVGID_6_);}
	.st6{fill:#00A4E4;}
	.st7{fill:url(#SVGID_7_);}
</style>
<g>
	
		<linearGradient id="SVGID_1_" gradientUnits="userSpaceOnUse" x1="95.9405" y1="52.072" x2="95.9405" y2="7.9523" gradientTransform="matrix(1 0 0 -1 0 107.12)">
		<stop  offset="0" style="stop-color:#00A4E4"/>
		<stop  offset="1" style="stop-color:#004282"/>
	</linearGradient>
	<path class="st0" d="M80.3,62.7V97h6.6v-5.5h9.6l7.6,8.8l7.5-0.1L80.3,62.7z M86.9,87.8v-8.8l6.4,8.8H86.9z"/>
	
		<linearGradient id="SVGID_2_" gradientUnits="userSpaceOnUse" x1="121.5255" y1="52.0791" x2="121.5255" y2="7.9609" gradientTransform="matrix(1 0 0 -1 0 107.12)">
		<stop  offset="0" style="stop-color:#00A4E4"/>
		<stop  offset="1" style="stop-color:#004282"/>
	</linearGradient>
	<polygon class="st1" points="118.6,99.9 118.6,65.9 124.4,71.1 124.4,99.9 	"/>
	
		<linearGradient id="SVGID_3_" gradientUnits="userSpaceOnUse" x1="62.0655" y1="52.0699" x2="62.0655" y2="7.949" gradientTransform="matrix(1 0 0 -1 0 107.12)">
		<stop  offset="0" style="stop-color:#00A4E4"/>
		<stop  offset="1" style="stop-color:#004282"/>
	</linearGradient>
	<polygon class="st2" points="56,78.4 56,91.5 48.9,97.1 48.9,58.4 68,80.1 68,58.1 75.2,58.1 75.2,99.2 	"/>
	
		<linearGradient id="SVGID_4_" gradientUnits="userSpaceOnUse" x1="169.6906" y1="52.0723" x2="169.6906" y2="7.952" gradientTransform="matrix(1 0 0 -1 0 107.12)">
		<stop  offset="0" style="stop-color:#00A4E4"/>
		<stop  offset="1" style="stop-color:#004282"/>
	</linearGradient>
	<polygon class="st3" points="165.4,80.5 165.4,91.8 159.1,97.1 159.1,62.9 174.1,79.5 174.1,65.1 180.3,65.1 180.3,95.9 	"/>
	
		<linearGradient id="SVGID_5_" gradientUnits="userSpaceOnUse" x1="108.4355" y1="52.0781" x2="108.4355" y2="7.9479" gradientTransform="matrix(1 0 0 -1 0 107.12)">
		<stop  offset="0" style="stop-color:#00A4E4"/>
		<stop  offset="1" style="stop-color:#004282"/>
	</linearGradient>
	<polygon class="st4" points="87.8,61.4 104.4,61.4 104.4,84.6 110.6,91.6 110.6,62 129,62 129,55.8 93.2,55.8 	"/>
	
		<linearGradient id="SVGID_6_" gradientUnits="userSpaceOnUse" x1="141.6355" y1="52.079" x2="141.6355" y2="7.9531" gradientTransform="matrix(1 0 0 -1 0 107.12)">
		<stop  offset="0" style="stop-color:#00A4E4"/>
		<stop  offset="1" style="stop-color:#004282"/>
	</linearGradient>
	<path class="st5" d="M141.7,58.2V58l-0.1,0.1l-0.1-0.1v0.2l-14.5,21.4l14.5,19.5v0.2l0.1-0.1l0.1,0.1v-0.2l14.4-19.5L141.7,58.2z
		 M141.7,87.4L141.7,87.4L141.7,87.4L141.7,87.4L141.7,87.4l-6.2-8.3l6.2-9.2v-0.1l0,0l0,0v0.1l6.2,9.2L141.7,87.4z"/>
	<polygon class="st6" points="81.8,32.6 81.7,32.5 81.7,0 74.9,5 74.9,27.7 65,27.7 65,7.7 58.4,12.3 58.4,27.7 48.6,27.7 
		54.9,32.6 58.4,32.6 58.4,43.7 65,43.7 65,32.6 74.9,32.6 74.9,42.4 81.7,34.1 81.7,32.6 	"/>
	<path class="st6" d="M68.5,53.9L76,54l10-11.7h9.6v9.6h6.6V13.5L68.5,53.9z M95.6,38.6h-6.4l6.4-8.8V38.6z"/>
	<polygon class="st6" points="109.8,51.8 109.8,4.4 115.1,9.8 115.1,51.8 	"/>
	<path class="st6" d="M136.8,39.2h9.8l-24.4-25.5V52h6.6V39.2l11.8,13.4h7.1L136.8,39.2z M128.7,35.4l-0.2-7l6.4,7H128.7z"/>
	
		<linearGradient id="SVGID_7_" gradientUnits="userSpaceOnUse" x1="34.7241" y1="80.1412" x2="34.7241" y2="3.1396" gradientTransform="matrix(1 0 0 -1 0 107.12)">
		<stop  offset="0" style="stop-color:#F1A42B"/>
		<stop  offset="0.6517" style="stop-color:#ED1C24"/>
	</linearGradient>
	<path class="st7" d="M68.8,46.4c-0.1,0-1,0.2-2.1,0.4l-0.2-0.7c0.2-0.1,0.4-0.2,0.3-0.4c0-0.2-0.3-0.2-0.5-0.2
		c-0.2,0.1-0.4,0.2-0.4,0.4c0,0.1,0.2,0.2,0.3,0.2l0.2,0.7c-0.4,0.1-0.8,0.2-1.2,0.2l-0.2-0.7c0.2-0.1,0.2-0.2,0.2-0.4
		c-0.1-0.2-0.3-0.3-0.6-0.2c-0.2,0.1-0.4,0.3-0.4,0.5c0,0.2,0.2,0.3,0.5,0.2l0.2,0.7c-0.4,0.1-0.9,0.2-1.4,0.3l-0.2-0.7
		c0.2-0.1,0.4-0.2,0.3-0.3c0-0.1-0.3-0.2-0.5-0.1c-0.3,0.1-0.5,0.2-0.4,0.3c0,0.1,0.2,0.1,0.4,0.1l0.2,0.7c-0.3,0.1-0.6,0.1-0.9,0.2
		L62.4,47c0.1-0.1,0.2-0.2,0.2-0.3c0-0.2-0.3-0.2-0.5-0.2c-0.3,0.1-0.4,0.2-0.4,0.4c0,0.2,0.2,0.2,0.5,0.2l0.2,0.6
		c-0.3,0.1-0.6,0.1-0.8,0.2l-0.2-0.6c0-0.1,0-0.2,0-0.2c-0.1-0.2-0.2-0.4-0.3-0.4c-0.1,0-0.1,0.2-0.1,0.5c0.1,0.2,0.2,0.4,0.3,0.4
		l0.1,0.4c-0.4,0.1-0.9,0.2-1.2,0.2l-0.2-0.7c0.1-0.1,0.2-0.2,0.2-0.3c0-0.1-0.2-0.2-0.4-0.1c-0.2,0-0.4,0.2-0.3,0.3
		c0,0.1,0.2,0.2,0.4,0.2l0.2,0.7c-0.4,0.1-0.7,0.1-0.8,0.1c-0.5,0-0.7,0.5-0.5,0.9c-2,0.4-11.9,3.6-17.1,5.2
		c-0.1-1.8-0.3-3.8-1.1-5.1c-0.8-1.4-5-9.1-6.4-11c-0.8-1.1-1.8-2.2-2.7-3.1c1.2,0.5,2.3,0.9,3.6,1.7c0,0-1.1-0.9-3-1.9
		c1.7,0.6,3.5,1.3,5.9,2.6c0,0-4.3-3.4-10.3-4.4c-0.5-0.2-1.1-0.4-1.6-0.6c-0.9-0.8-1.8-1.6-2.9-2.3c3.7,0.8,6.6,0.6,6.6,0.6
		c-3.5-0.3-6.1-1-8-1.6c0,0,0,0,0,0c2.6,0.3,4.4,0.2,4.4,0.2c-2.1-0.2-3.9-0.5-5.5-0.9c-0.5-0.4-1.1-0.8-1.7-1.1
		C18,27,17.5,26.5,17,26.3c-1.2-0.6-4.6-1.4-5.2-0.9c-0.7,0.5-3.3,1.9-3.4,3.5c0,0.8,0.1,2.2,0.5,3.5c0,1.9-0.2,9.5-1.1,12.5
		c0,0,1.1-3.2,1.3-11.6c0.2,0.7,0.4,1.3,0.7,1.9c0,0.6,0.1,1.3,0.2,2.2c0,4.6-0.1,10.2-0.8,13.1c0,0,0.8-2.6,1.1-8.4
		c0.2,4.4,0.3,9.5-0.2,12.3c0,0,1.2-5,0.3-17c0-0.2,0-0.4,0-0.6c0.6,2.3,1.3,4.5,2,6.6c0.1,3.2,0,6.2-0.4,8.2c0,0,0.3-1.3,0.5-4.2
		c0.1,3.2,0,6.3-0.4,8.2c0,0,0.8-3.1,0.7-10.5c0.1,0.3,0.2,0.6,0.3,0.9c-0.1-0.4-0.2-0.8-0.3-1.2c0-0.8-0.1-1.7-0.1-2.7
		c0.2,0.6,0.5,1.4,0.9,2.4c1.1,4.2,1.7,10.8-2.4,15.6c0,0,3.6-2.6,3.8-9.6c0,1.5,0,3.3-0.2,5.4c0,0,0.8-2.9,0.7-6.8
		c1.1,2.6,2.2,5,2.7,5.8c0.6,1,0.9,2.6-1.5,4.2c0.2-0.3,2.4-1.3,2.5-1.5c0.1-0.8,0.2-2.2-0.2-2.7c-0.2-0.4-1-2.4-1.6-3.9
		c0.9,1.9,2.5,5.2,3,7.1l0.3-0.1c0,0-1.8-4.9-2.3-6.1c0,0,2.5,5.1,2.8,5.7c0,0-2-5-2.4-5.6c-0.4-0.6,1,0.3,1.2,0.8
		c0.2,1,2.1,4,2.2,4.5c0,0,0,0.1,0,0.2c-0.2,0.1-0.4,0.1-0.7,0.2c-1.8,0.6-3.7,1.5-4.8,2.9c-0.9,1.2-1.3,2.5-1.8,3.8
		c-0.6,1.5-1.1,3.4-0.1,4.9c0.1,0.2,0.3,0.4,0.5,0.6c-0.8,1.5-1.6,2.3-2.1,3c-0.6,0.9-3.8,9.4-4.7,10.5c-0.8,1.1-1.7,6.2-2,7
		c0,0.1-0.2,0.3-0.3,0.5c-1,0.8-2.7,2-3.6,2.2c0,0-4,0.9-2.2,4.1l-0.3,0.1l0.8,3.9c0,0,5.6,0.9,6.7-1.1c0,0,0.5-0.9,1.1-1.6l1.3,1.1
		l3.2-0.9l0-3.8c0,0,0,0-1.3-3.6h0c0.1-0.7,0.3-1.5,0.7-2.2c0.2-0.3,0.5-1.1,0.9-1.9l0.6,0.2l1.3-1.6l-1.2-0.3
		c0.3-0.8,0.7-1.6,1-2.4l1.8,0.6l1.3-1.6l-2.4-0.7c0.2-0.5,0.5-1.1,0.7-1.5l0.7-0.7l1.1,0.3l0.6-1.9l-1-0.2c0.6-1,1.1-2,1.4-2.3
		c0.5-0.4,1.6-1.6,2.6-2.8c1-1.2,4-4.9,4-4.9l1-0.2c0,0-2.2,4.3-2,5.2c0.2,0.9,6.2,11.2,6.8,12.7c0.7,1.6,3.2,4.9,3.2,4.9l0.2,0.4
		c0,0,0.8,1.6,1,2.9c0,0.1-1.4,4.1-3.8,4.8c0,0-2.7,2.5-2,4.8l-0.3,0.1l0.7,3.9c0,0,5.6,1.6,7.7-1.7c0,0,1.1-1.9,2.3-3.1
		c0.1-0.1,0.2-0.1,0.3-0.1l1.3,1.3l4.6-2.4v-2.8l0,0v-0.1c0,0-0.7-1.7-1-2.1c-0.3-0.4-1.9-2.5-2.9-4c-1-1.5-2.2-3.4-2.5-3.8
		c-0.1-0.1-0.3-0.9-0.6-1.9l0.7-0.5l-0.5-2L39.8,84c-0.2-0.9-0.5-1.8-0.8-2.6l0.9-0.6l-0.5-2l-1.1,0.8c-0.1-0.1-0.2-0.3-0.2-0.4
		c-0.3-0.5-0.8-1-1.3-1.6l0.8-0.6l-1.2-1.6l-0.9,0.7c-0.8-0.9-1.3-1.7-1.3-2.1c0.1-1,0.6-2.6,0.9-3.3c0.3-0.7,2.2-5.9,3.4-8
		c0.6-1.2,0.9-1.8,1.5-3.3C46.4,56.9,58,52,59,52.8c0.8,0.6,0.9,1.2,2,0.7c0.8-0.4,7-4.7,7.9-5C69.6,48.1,69.7,46.5,68.8,46.4z
		 M11.6,38.6c0.3,0.6,0.5,1.2,0.8,1.8c0,0.3,0,0.7,0.1,1c0,0.3,0,0.6,0,0.9C12.1,41.1,11.8,39.8,11.6,38.6z M21.3,30
		c0.9,0.6,1.7,1.2,2.6,1.9c-0.9-0.4-1.8-0.7-2.1-1.1c-0.1-0.1-0.5-0.5-0.8-0.9C21,29.9,21.1,30,21.3,30z M25.5,53.4
		c0,0-0.7-1.4-1.4-2.6c-0.8-1.2-2.4-3.3-2.4-3.3s2.3-1,2.8-0.4c0.5,0.7,1.3,1.2,1.2,2.4C25.6,50.8,25.5,53.4,25.5,53.4z M13.3,45.9
		c0.3,1.3,0.5,2.3,0.5,2.3C13.7,47.4,13.5,46.6,13.3,45.9z"/>
</g>
</svg>
