<?xml version="1.0" encoding="UTF-8"?><svg id="Layer_1" xmlns="http://www.w3.org/2000/svg" xmlns:xlink="http://www.w3.org/1999/xlink" viewBox="0 0 500 400"><defs><style>.cls-1{clip-path:url(#clippath);}.cls-2{fill:none;}.cls-2,.cls-3,.cls-4,.cls-5,.cls-6,.cls-7,.cls-8,.cls-9,.cls-10,.cls-11,.cls-12,.cls-13{stroke-width:0px;}.cls-14{clip-path:url(#clippath-1);}.cls-3{fill:#454b52;}.cls-4{fill:#844e9f;}.cls-5{fill:#55899c;}.cls-6{fill:#6c9eab;}.cls-7{fill:#371950;}.cls-8{fill:#ca897d;}.cls-9{fill:#de5978;}.cls-10{fill:#c1746d;}.cls-11{fill:#ab95bb;}.cls-12{fill:#96cfdb;}.cls-13{fill:#6698bb;}</style><clipPath id="clippath"><rect class="cls-2" x="5" y="62.3" width="490" height="275.41"/></clipPath><clipPath id="clippath-1"><rect class="cls-2" x="5" y="62.3" width="490" height="275.41"/></clipPath></defs><g class="cls-1"><path class="cls-7" d="m494.86,95.97c-.14,1.76-.19,3.97-.1,6.11.18,4.1-.02,8.19.18,12.29.13,2.75.02,5.52-.09,8.28-.08,1.88-1.25,2.75-3.64,3.3-1.32.3-2.6.04-3.89.08-5.01.14-10.04-.06-15.04.17-2.62.12-5.25.29-7.87.31-2.74.03-5.45.44-8.2.33-.87-.03-1.78.2-2.69.18-.2,0-.45-.09-.57.17-.13.28.05.47.22.67,1.38,1.65,3.07,2.96,4.78,4.23,2.91,2.15,5.64,4.51,8.44,6.79,1.2.98,2.58,1.72,3.72,2.8.76.73,1.04,1.56.92,2.52-.19,1.56-.18,3.1-.03,4.67.08.85.04,1.72.02,2.57-.05,2.36.15,4.72.3,7.07.21,3.17.03,6.32.16,9.48.04.91-.2,1.44-1.23,1.51-.65.04-1.29.17-1.95.14-3.25-.13-6.46.44-9.7.6-.56.03-1.14.06-1.71.04-3.34-.09-6.68.24-10.02.28-2.86.04-5.71-.21-8.57-.05-1.26.07-2.49.28-3.77.02-.92-.18-1.45.3-1.33,1.33.05.4,0,.8.01,1.2,0,1.5.28,1.65,1.8,1.87,3.68.52,7.32-.16,10.97-.3,1.37-.05,2.75-.15,4.12-.14,4.07.01,8.13-.32,12.2-.28,1.44.01,2.35.57,2.97,1.72.58,1.08,1.4,1.89,2.32,2.67,2.48,2.12,4.82,4.4,7.38,6.42,2.13,1.68,4.11,3.53,6.24,5.22,2.52,2,5.04,3.99,7.46,6.12,1.35,1.19,2.85,2.22,4.22,3.4.95.82,1.35,1.85,1.43,3.22.27,4.73-.1,9.46.15,14.18.1,1.95-.18,3.9.14,5.85.36,2.27.11,4.55.11,6.83,0,1.98.16,3.99.09,5.98-.07,1.79-.35,3.58-.64,5.36-.19,1.19-1.5,2.23-2.66,2.36-3.07.35-6.15.72-9.22,1.08-.29.03-.58,0-.87.01-3.11.06-6.22.17-9.34.16-1.42,0-2.87-.13-4.27-.07-2.46.1-4.93-.04-7.39.02-2.21.05-4.47-.04-6.71-.09-3.13-.07-6.27.11-9.4.19-3.29.08-6.59.02-9.88.02-2.39,0-4.79-.15-7.16.05-2.55.21-5.09,0-7.61.2-2.36.2-4.69.33-7.06.22-2.07-.1-4.17-.26-6.2-.14-2.27.13-4.55-.13-6.82.28-1.45.26-2.95.1-4.19-.93-2.47-2.06-4.94-4.13-7.42-6.17-2.54-2.09-5.15-4.09-7.64-6.24-1.5-1.29-3.03-2.56-4.45-3.95-2.3-2.24-4.96-4.11-7.33-6.28-1.53-1.4-2.7-3.08-2.9-5.34-.38-4.54-.58-9.08-.38-13.62.36-8.3,0-16.59.23-24.88.05-1.82.07-3.61-.03-5.42-.21-3.68.34-7.33.4-11,.04-2.71,0-5.43.04-8.14.05-4.15.02-8.29.23-12.43.28-5.43.6-10.85.7-16.29.05-2.93.25-5.9.2-8.82-.07-4.1.16-8.21-.25-12.31-.45-4.49-.24-9.01-.02-13.51.29-5.74.25-11.49.17-17.23-.03-1.88-.18-3.77-.17-5.66,0-1.91.57-2.61,2.42-2.66,4.29-.13,8.58-.31,12.86-.19,3.97.11,7.93.25,11.89.12,5.78-.19,11.56-.24,17.33-.47,5.22-.2,10.44-.62,15.67-.54,2.47.04,4.94.26,7.41.16,2.96-.12,5.92-.16,8.88-.37,2.53-.18,5.08-.05,7.62-.05,3.07,0,6.14-.19,9.2-.39,1.64-.1,3.22.28,4.5,1.48,2.32,2.18,5.11,3.73,7.6,5.69,1.5,1.18,3.13,2.25,4.46,3.59,2.11,2.12,4.74,3.55,6.96,5.5,1.63,1.43,3.27,2.86,5.08,4.06.92.61,1.85,1.22,2.82,1.75,2.25,1.23,3.52,2.97,3.36,5.65-.1,1.67-.02,3.35-.02,5.43h0Z"/></g><path class="cls-7" d="m303.6,180.75c.21,3.57-.29,7.74-.06,11.93.11,1.97.06,3.97.06,5.95,0,3.08-.13,6.16.05,9.23.41,6.83.27,13.67.43,20.5.12,4.78.52,9.55.62,14.34,0,.18,0,.38.06.54.82,2.38-.82,3.62-3.39,3.74-5.88.28-11.75.66-17.63.78-2.8.05-5.63.48-8.41.26-3.18-.25-6.39.23-9.54-.55-1.48-.37-2.48-1.35-3.43-2.33-3.43-3.51-6.89-6.99-10.43-10.39-3.62-3.47-7.18-6.99-11.07-10.16-1.63-1.33-2.45-2.94-2.58-4.98-.42-6.96-.3-13.93-.16-20.89.07-3.19.14-6.38.2-9.57.09-5.08-.06-10.17-.04-15.25,0-2.39-.08-4.79.15-7.18.13-1.42-.18-2.88-.16-4.33.04-3.39.01-6.78.01-10.16v-8.14c0-4.13,0-8.25,0-12.37,0-5.09-.1-10.19-.14-15.28-.03-4.13-.28-8.26-.29-12.4,0-2.06.25-4.11.15-6.18-.15-2.96.05-5.94-.08-8.91-.09-2.16.15-4.34.07-6.51-.2-5.09.53-10.16.2-15.25-.13-2.07.49-2.69,2.69-2.62,2.4.08,4.8-.05,7.21-.04,2.81.01,5.61.06,8.41.13,5.02.13,10.05-.23,15.07.09,2,.13,3.99.08,5.97-.03,5.4-.3,10.8-.04,16.19-.26,2.22-.09,4.43-.17,6.65-.14,2.99.04,5.98.13,8.96.31,6.14.37,12.27.31,18.41.34,1.6,0,2.97.41,4.33,1.56,2.95,2.5,5.86,5.05,8.91,7.44,2.8,2.19,5.52,4.49,8.36,6.64,1.57,1.2,3.27,2.25,4.79,3.51,1.49,1.23,3.21,2.21,4.37,3.83.1.15.23.13.37.16,1.04.24,1.34,1.02,1.34,1.95,0,1.45-.11,2.89-.11,4.34.03,7.15.02,14.3.18,21.44.04,1.68.12,3.38.12,5.06,0,2.1-.57,2.63-2.81,2.81-1.95.16-3.91,0-5.87.18-1.74.16-3.51-.21-5.25-.08-3.82.29-7.64-.05-11.45.33-1.67.16-3.37,0-5.05.04-1.02.02-2.03.13-3.04.23-.31.03-.69.1-.81.43-.14.39.25.57.46.79,1.11,1.16,2.52,1.92,3.75,2.91,2.3,1.86,4.46,3.89,6.83,5.66,1.81,1.35,3.43,2.96,5.48,3.98.88.43,1.4,1.08,1.41,2.1.02,1.42-.03,2.82-.13,4.24-.12,1.84-.06,3.72.17,5.55.23,1.86.09,3.7.17,5.55.1,2.39.02,4.78.12,7.17.04.96.08,1.99-.09,2.98-.1.63-.07,1.29.08,1.95.37,1.57-.17,2.97-2.42,3.31-3.63.54-7.32.26-10.92.99-.04,0-.07,0-.11,0-4.58-.04-9.13.39-13.69.66-2.64.16-5.3.05-7.94.28-1.49.13-2.97.11-4.45.22-.84.06-1.32.32-1.28,1.32.08,1.89.02,3.78.02,6.27h0Z"/><g class="cls-14"><path class="cls-7" d="m157.11,64.95c3.92.17,7.86.06,11.77.29,3.45.2,6.9.15,10.34.27,3.83.14,7.69-.13,11.53-.15.81,0,1.65-.12,2.47-.21,2.21-.24,4.07.39,5.58,2.01,1.47,1.57,3.39,2.57,5.03,3.91,2.6,2.12,5.3,4.11,7.88,6.26,2.21,1.84,4.45,3.67,6.71,5.47.82.65,1.64,1.3,2.4,2.01.78.73.93,1.75.75,2.72-.69,3.65-.42,7.33-.3,10.98.1,3.26.17,6.53.12,9.79-.1,7.47.03,14.94-.27,22.4-.27,6.86-.25,13.72-.43,20.59-.08,2.98-.28,5.95-.1,8.93.12,2.07-.1,4.15.05,6.18.27,3.59.11,7.19.24,10.77.26,7.04.09,14.1.09,21.16,0,3.81-.22,7.62-.26,11.43-.04,3.42-.22,6.83-.15,10.25.02.98.18,1.96.15,2.94-.08,3.19-.39,6.38-.27,9.56.12,3.42,0,6.84.1,10.26.04,1.42-.2,1.7-1.62,1.62-3.61-.21-7.22.09-10.85-.12-4.39-.26-8.81-.05-13.22-.05-1.3,0-2.61-.04-3.91-.02-3.4.06-6.81.14-10.21.21-1.16.02-2.17-.26-3.01-1.17-1.9-2.05-4.17-3.7-6.2-5.6-2.89-2.7-5.72-5.47-8.53-8.25-2.75-2.72-5.65-5.28-8.81-7.53-2.85-2.03-3.63-4.77-3.01-8.07.07-.36.08-.72.08-1.09-.05-3.67.36-7.34.34-11-.02-3.02-.09-6.04-.11-9.06-.02-2.68-.15-5.38.05-8.05.18-2.3-.02-4.56,0-6.84.01-1.77.26-3.56.12-5.33-.16-1.99-.29-3.98-.17-5.97.3-5.22.52-10.44.45-15.68-.04-2.95-.01-5.9,0-8.85,0-.98-.3-1.93-.23-2.92.17-2.55.34-5.1.39-7.66.04-1.83-.14-3.67-.15-5.51-.03-4.24-.03-8.47-.03-12.71,0-6.1-.04-12.2.05-18.31.04-3.06.09-6.13.23-9.19.13-2.83.12-5.65.18-8.48.04-1.78-.32-3.54-.35-5.29-.03-1.77-.58-3.52-.11-5.31.28-1.08.7-1.58,1.81-1.59,1.13-.01,2.26,0,3.39,0h0Z"/><path class="cls-7" d="m15.19,62.32c1.56,0,3.13-.07,4.69.01,4.69.25,9.38.2,14.06.21,2.5,0,5,0,7.5,0,3.82,0,7.63.02,11.45,0,1.34,0,2.64.26,3.94.49.91.16,1.71.78,2.1,1.6.98,2.06,2.83,3.27,4.44,4.69,3.17,2.79,6.58,5.31,9.79,8.06,3.53,3.03,6.93,6.24,10.73,8.96,1.27.91,1.37,2.45,1.54,3.88.14,1.21-.28,2.39-.2,3.57.19,2.88.17,5.76.37,8.64.19,2.61-.08,5.25,0,7.88.08,3.04.37,6.07.47,9.1.07,2.06.05,4.12.09,6.17.03,1.63.12,3.27.2,4.9.25,5.45.15,10.9.16,16.34,0,4.5-.11,9.01.04,13.51.13,3.87.54,7.73.85,11.59.04.5.25.97.23,1.49-.02.5.43.56.78.55,1.88-.06,3.77-.02,5.65-.07,1.75-.04,3.54.04,5.31.08,1.98.05,3.98-.26,5.92-.11,3.88.3,7.76-.13,11.63.3,1.91.21,2.98,1.47,4.07,2.74,1.88,2.18,4.09,3.99,6.24,5.88,1.62,1.43,3.23,2.87,4.78,4.39,1.73,1.69,3.67,3.17,5.55,4.7,1.56,1.27,3.23,2.4,4.65,3.86.82.84,1.91,1.4,2.85,2.12,1.29,1,1.49,2.49,1.51,3.93.04,2.64-.35,5.25-.21,7.91.09,1.79-.17,3.62-.14,5.43.07,3.73.1,7.46.29,11.19.11,2.1.11,4.22.32,6.3.18,1.76.5,3.5.47,5.28-.01.81-.15,1.59-.27,2.37-.18,1.18-1.32,2.14-2.57,2.11-4.42-.1-8.8.59-13.22.49-2.4-.05-4.81.24-7.2.26-1.79.02-3.6-.14-5.4-.08-3.09.1-6.19.18-9.29.2-1.52.01-3.05-.28-4.54-.14-1.67.15-3.34.04-5,.21-1.48.15-2.95.05-4.42.11-4.79.2-9.57.59-14.37.57-4.06-.02-8.12.4-12.18.51-1.95.05-3.91-.19-5.86-.29-.44-.02-.89-.09-1.3,0-1.12.24-2.23.12-3.35.03-1.78-.14-3.56-.21-5.34.02-2.34.31-4.46-.09-6.42-1.53-2.54-1.87-5.17-3.61-7.81-5.35-4.11-2.71-8.16-5.52-12.31-8.15-3.85-2.44-7.48-5.21-11.46-7.45-1.68-.95-3.28-2.06-4.92-3.09-.21-.13-.43-.29-.67-.34-2.38-.47-3.22-2.23-3.7-4.32-.21-.93-.27-1.86-.23-2.81.1-2.22-.28-4.41-.34-6.61-.03-1.17.13-2.34.17-3.51.08-2.75,0-5.49-.06-8.23-.13-6.65-.35-13.31-.15-19.96.09-3.15,0-6.3.16-9.46.25-5.18-.05-10.36.11-15.55.18-5.99.02-11.99.16-17.98.13-5.4.1-10.81.25-16.21.1-3.52.06-7.05.18-10.57.08-2.28.32-4.55.46-6.82.05-.79-.03-1.59-.03-2.39.02-7.53.76-15.04.39-22.57-.11-2.27,0-4.56-.38-6.82-.28-1.67.27-2.25,1.94-2.25h6.88Z"/></g><path class="cls-12" d="m460.34,187.44c0,2.4.21,4.83-.04,7.2-.44,4.15.15,8.27.11,12.41-.01,1.34-.06,2.68-.07,4.01,0,.79-.37,1.23-1.15,1.29-.61.05-1.23.12-1.85.12-3.5.01-7-.09-10.49.05-3.31.13-6.63,0-9.93.21-6.35.41-12.71.29-19.06.45-2.65.06-5.31.06-7.96.28-1.34.11-2.69-.05-4.03-.01-7.63.19-15.27-.06-22.9.18-3.53.11-7.06.06-10.59.15-1.26.03-1.68-.41-1.67-1.67.04-3.64-.13-7.28-.28-10.9-.19-4.55.18-9.06.23-13.59.02-2.07-.04-4.15.07-6.22.19-3.56.2-7.12.2-10.68,0-7.53,0-15.06,0-22.58,0-3.16.48-6.29.42-9.46-.07-2.98-.01-5.97.03-8.95.06-4.23.42-8.45.56-12.68.12-3.44-.07-6.89-.14-10.33-.05-2.36-.3-4.72-.18-7.07.14-2.57,0-5.14.18-7.7.19-2.66-.4-5.3-.17-7.96.31-3.59.12-7.19.17-10.78.01-.82-.23-1.63,0-2.47.2-.74.64-1.1,1.37-1.14,3.51-.16,7,.13,10.5.31,2.03.1,4.08.21,6.1-.09.29-.04.58-.06.87-.07,4.25-.06,8.5-.14,12.75-.16,1.81,0,3.62-.14,5.42-.23,6.12-.29,12.26-.12,18.38-.32,10.13-.33,20.26-.77,30.4-.62,1.86.03,1.89,0,1.85,1.89-.05,2.21-.06,4.42-.15,6.64-.1,2.41.3,4.87.14,7.29-.26,3.84-.01,7.69-.36,11.52-.01.14.03.29.04.43.05,1.4-.28,1.71-1.67,1.98-1.51.3-3.04.13-4.55.24-4.21.31-8.44.01-12.64.23-2.4.12-4.8.05-7.2.18-5.61.29-11.23.24-16.83.52-3.29.17-6.58.32-9.87.36-.64,0-1.32.1-1.92.25-1.01.24-1.12,1.2-1.14,2.09-.04,2.37.05,4.74-.11,7.1-.15,2.21-.1,4.42-.23,6.63-.14,2.39.02,4.79.11,7.18.05,1.32.91,2.08,2.27,2.08,1.85.01,3.7-.03,5.56.01,1.71.03,3.42.26,5.11.19,3.54-.15,7.08-.33,10.61-.16,4.38.22,8.76.15,13.14.12.76,0,1.17.31,1.16,1.19-.02,1.96-.37,3.9-.24,5.87.2,3.08-.4,6.16-.02,9.26.1.85,0,1.74-.1,2.6-.16,1.48-.34,1.67-1.88,1.68-3.16.02-6.31.3-9.49.12-4.74-.26-9.5-.11-14.25.08-2.39.1-4.8,0-7.2.04-1.48.03-2.96.13-4.44.26-.93.08-1.52.55-1.58,1.58-.1,1.77-.3,3.54-.38,5.31-.1,2.18-.38,4.33-.58,6.5-.17,1.79-.35,3.61-.11,5.42.15,1.15-.21,2.24-.2,3.36.02,3.28,0,6.56,0,9.84,0,1.66.62,2.35,2.32,2.23,3.66-.24,7.33-.13,11-.22,4.88-.12,9.76-.21,14.64-.24,2.72-.02,5.46.04,8.18-.36,1.57-.23,3.17.08,4.77.01,3.44-.15,6.86-.7,10.3-.68,2.15.01,4.3-.51,6.45-.02.72.16,1.61-.47,2.16.27.44.61.04,1.41.06,2.13.05,2,.02,4,.02,6h0Z"/><path class="cls-12" d="m242.85,205.5c0-2.95-.19-5.91.04-8.84.35-4.46.38-8.91.39-13.38.01-3.81-.03-7.62.18-11.44.14-2.49-.39-5.01-.26-7.48.13-2.49-.18-4.98.22-7.47.25-1.56.07-3.2.07-4.8,0-3.19.06-6.38-.01-9.57-.08-3.26.31-6.53.04-9.79-.2-2.35.13-4.69,0-7.02-.14-2.37-.27-4.79-.13-7.12.19-3.13-.13-6.23-.02-9.35.13-3.57.3-7.16.09-10.71-.23-3.95.05-7.9-.06-11.85-.09-3.28-.23-6.57.06-9.88.15-1.68.22-3.45-.12-5.17-.11-.55.05-1.15.12-1.73.04-.35.34-.33.59-.33,2.61,0,5.21-.06,7.81-.12,3.93-.08,7.83.49,11.77.24,2.15-.14,4.32.01,6.48.03,2.9.02,5.79-.34,8.67-.31,2.1.02,4.2-.14,6.29-.18,2.6-.05,5.23-.17,7.81-.05,4.01.19,8.03-.23,12.02.29.18.02.36.03.54.02,2.89-.09,5.77.27,8.65.37,4.16.16,8.32.44,12.49.27.91-.04,1.15.18,1.19,1.22.18,4.26.02,8.52.13,12.77.08,2.89,0,5.79-.04,8.69-.03,1.78.34,3.54.24,5.33-.05.88-.28,1.24-1.26,1.33-3.76.32-7.54.26-11.31.45-4.15.21-8.28.09-12.42.07-7.57-.04-15.15-.04-22.72,0-2.68.01-2.75.09-2.79,2.7-.07,4.11-.15,8.23.04,12.33.11,2.45.13,4.9.13,7.35,0,1.39.71,2.07,2.02,1.94,2.5-.26,4.99-.15,7.49-.17,5.85-.05,11.7-.1,17.55-.24,3.14-.08,6.31.27,9.46.48,1.28.08,1.72.58,1.55,1.83-.33,2.44,0,4.88-.05,7.31-.07,3.14-.26,6.27-.36,9.41-.05,1.59-.04,3.19,0,4.79.02.9-.28,1.31-1.23,1.37-3.12.2-6.23.31-9.34.06-.35-.03-.71.1-1.06.14-1.41.14-2.81.08-4.22.05-4.79-.09-9.57.47-14.38.44-2.53-.01-5.06.35-7.61.22-1.49-.08-2.24.66-2.61,2.29-.34,1.52-.17,3.03-.14,4.55.1,3.99.44,7.97.07,11.98-.17,1.79.13,3.62.14,5.43,0,1.66-.24,3.32-.05,4.97.24,2.13-.15,4.24-.15,6.36,0,5.52-.19,11.05.23,16.54.3,4.01.2,7.99.35,11.99.03.91-.3,1.2-1.2,1.21-9.61.05-19.22.13-28.83.2-.07,0-.15,0-.22,0-2.31-.02-2.33-.04-2.33-2.29v-7.76h0Z"/><path class="cls-12" d="m10.25,197.43c0-3.28.18-6.56-.05-9.82-.22-3.08-.28-6.17-.2-9.22.09-3.49.09-7.01.42-10.5.14-1.44.14-2.91.05-4.36-.17-2.72.13-5.44.03-8.16-.18-4.76.08-9.52.3-14.26.2-4.38-.13-8.75.17-13.1.13-1.93,0-3.87.24-5.8.12-.98.04-2.02.06-3.03.07-3.78-.05-7.57.14-11.34.2-4.02.26-8.04.47-12.05.14-2.6.16-5.21.3-7.82.3-5.54.33-11.09.53-16.64.03-.86.19-1.72.2-2.6,0-.64.31-.97,1.02-.97,4.7.02,9.41-.17,14.09.06,5.06.25,10.12.2,15.17.11,2.54-.05,5.08-.08,7.62-.16.86-.03,1.17.27,1.24,1.18.28,3.63.1,7.27.2,10.9.15,5.27.46,10.53.55,15.8.04,2.21-.1,4.43-.09,6.64.02,4.33,0,8.65,0,12.98,0,5.35.04,10.7-.05,16.04-.06,3.2.18,6.38.2,9.57.02,4.54-.18,9.08-.2,13.63-.03,6.39.01,12.78.02,19.16,0,.44-.02.88-.06,1.31-.22,2.13.63,3.09,2.8,3.11,4.69.03,9.39,0,14.08.08,4.7.09,9.4.3,14.1.47,3.73.13,7.45.35,11.17.43,3.81.07,7.62,0,11.44,0,2.28,0,4.55.03,6.83.03.29,0,.58,0,.86-.05,1.17-.22,1.51.05,1.53,1.2.06,3.67.12,7.35.28,11.02.16,3.5.13,7.01.22,10.51.09,3.38.66,6.73.46,10.13-.1,1.63-.2,1.65-1.82,1.91-1.99.31-3.99.21-5.99.35-4.49.32-8.99.55-13.5.45-5.61-.13-11.23-.14-16.83.12-6.15.29-12.25-.36-18.38-.32-3.36.02-6.71-.35-10.08-.09-1.83.14-3.68-.15-5.52-.07-2,.09-3.97-.07-5.95-.21-1.39-.09-2.81.14-4.22.17-4.28.08-8.53-.41-12.8-.49-2.97-.06-5.94-.06-8.91-.13-1.03-.02-1.34-.28-1.51-1.39-.74-4.91-.59-9.84-.63-14.78h0Z"/><path class="cls-12" d="m156.5,208.68c.35-3.2.06-6.4-.03-9.6-.11-4.1-.01-8.2.09-12.29.09-3.82.13-7.64.16-11.46.03-4.52.01-9.04.09-13.55.04-2.68.41-5.36.29-8.03-.11-2.47-.21-4.92-.1-7.39.08-1.8-.16-3.64.03-5.38.31-2.86.06-5.71.24-8.56.15-2.28.21-4.62.15-6.94-.11-4.42-.03-8.84-.03-13.26,0-2.9.07-5.79-.02-8.69-.13-4.53.37-9.04.26-13.57-.05-2.37-.01-4.76.23-7.12.24-2.35-.15-4.68.07-7.04.14-1.52.09-3.19-.26-4.76-.18-.78.11-1.15.86-1.09,2.28.19,4.56-.05,6.85.14,2.33.19,4.68.05,7.02.09,1.77.03,3.54.2,5.31.18,3.26-.05,6.53.26,9.79-.16,1-.13,2.04-.03,3.06-.02.7,0,.96.4.93,1.06-.24,5.31.21,10.61.3,15.92.05,3.19.15,6.39.18,9.58.03,3.78.18,7.58-.07,11.35-.42,6.28-.32,12.56-.28,18.85.04,6,.42,11.99.26,17.99-.2,7.05-.56,14.1-.81,21.16-.09,2.54,0,5.09-.04,7.64-.05,3.2,0,6.39-.14,9.59-.19,4.21-.22,8.45,0,12.66.3,5.57.04,11.13.16,16.69.02.91-.58,1.32-1.39,1.33-4.43.03-8.86.16-13.28-.03-4.8-.21-9.59-.23-14.38-.02-1.48.06-2.98-.08-4.47-.18-.52-.03-.76-.36-.82-.95-.14-1.38-.2-2.76-.2-4.14h0Z"/><path class="cls-8" d="m384.63,218.84c1.35-.11,2.44-.26,3.55-.12,2.53.31,5.08-.1,7.62.25.56.07,1.04.24,1.46.63,1.57,1.46,3.31,2.71,4.95,4.08,1.68,1.4,3.52,2.64,5.03,4.24.66.69,1.56,1,2.3,1.58,1.3,1.01,2.31,2.38,3.78,3.16,2.73,1.46,4.81,3.81,7.47,5.36.42.25.71.73,1.11,1.04.75.58.38.9-.25,1.11-.3.1-.65.08-.97.07-2.47-.01-4.92.31-7.38.36-1.69.03-3.58.3-4.8-1.69-.55-.9-1.85-1.31-2.7-2.11-2.03-1.89-4.1-3.73-6.19-5.54-1.28-1.11-2.65-2.11-3.93-3.21-2.61-2.22-5.17-4.5-7.78-6.71-.99-.84-2.05-1.58-3.27-2.5h0Z"/><path class="cls-5" d="m463.57,85.16c.11-1.88.38-3.36.27-4.85-.03-.47.19-.86.59-1.08.51-.29.68.26.96.49,2.09,1.71,4.19,3.42,6.25,5.17,1.7,1.44,3.36,2.95,5.04,4.42,1.74,1.52,3.49,3.02,5.24,4.53,2.11,1.82,4.2,3.67,6.35,5.44.59.49,1.2.96,1.8,1.44.6.48.79,1.07.64,1.72-.36,1.59-.23,3.17-.05,4.75.15,1.28-.27,2.51-.18,3.78.02.21-.13.45-.37.45-.15,0-.34-.14-.43-.27-1.92-2.73-4.95-4.26-7.23-6.61-1.39-1.44-3.13-2.56-4.55-3.96-2.39-2.33-4.49-4.99-7-7.2-2.17-1.9-4.2-3.92-6.27-5.92-.8-.77-1.24-1.58-1.05-2.3h0Z"/><path class="cls-8" d="m489.82,207.52c-.4,1.5-.02,2.98-.07,4.45-.02.78-.34.97-1.02.59-.85-.47-1.59-1.13-2.32-1.73-2.91-2.39-5.72-4.91-8.56-7.39-2.19-1.91-4.47-3.73-6.55-5.76-2.04-1.98-4.09-3.93-6.35-5.66-.71-.55-.38-1.49-.4-2.21-.04-2.06-.16-4.12.15-6.18.11-.77.37-.79.88-.39,1.34,1.04,2.63,2.14,3.99,3.15,2.47,1.82,4.53,4.12,6.96,6,1.51,1.17,2.8,2.66,4.26,3.92,1.94,1.68,3.94,3.28,5.79,5.05.9.86,1.81,1.72,2.71,2.6.19.18.31.5.33.77.07.94-.08,1.89.21,2.79h0Z"/><path class="cls-4" d="m464.64,206.89c1.78.82,2.77,2.11,3.86,3.32,1,1.11,2.12,2.1,3.16,3.19,1.24,1.3,2.62,2.45,3.95,3.64,1.81,1.6,3.66,3.17,5.35,4.88,1.71,1.75,3.7,3.16,5.33,4.98.85.95,1.97,1.65,2.86,2.62.74.81,1.09,1.6.93,2.63-.17,1.16,0,2.31.01,3.47,0,.43-.07.82-.43,1.05-.42.26-.71-.16-.92-.37-1.78-1.76-3.84-3.19-5.67-4.88-2.12-1.95-4.42-3.71-6.64-5.55-.97-.81-2.03-1.55-2.87-2.48-1.65-1.81-3.79-3.03-5.5-4.76-.81-.82-1.73-1.55-2.65-2.25-1.09-.83-.65-2.02-.71-3.03-.13-2.07-.04-4.16-.04-6.45h0Z"/><path class="cls-8" d="m466.46,149.79c0,.73,0,1.46,0,2.18,0,.41-.04.82-.44,1.01-.37.18-.57-.2-.83-.38-2.4-1.72-4.65-3.64-6.98-5.44-2.25-1.73-4.52-3.46-6.53-5.43-1.92-1.88-4.11-3.34-6.19-4.99-.6-.47-.82-.95-.73-1.83.19-1.87.06-3.78.06-5.67,0-.43-.1-.93.4-1.15.47-.2.83.13,1.17.4,2.01,1.61,3.67,3.61,5.66,5.25,2.07,1.71,4.21,3.32,6.4,4.88,1.85,1.33,3.61,2.84,5.14,4.58.31.35.59.79.99,1.01,1.7.92,1.95,2.46,1.89,4.15-.01.47,0,.95,0,1.42h0Z"/><path class="cls-3" d="m433.62,218.51c.55,0,1.11.09,1.64-.02,2.27-.48,3.49.99,4.83,2.41,1.16,1.23,2.47,2.33,3.68,3.52.91.9,1.81,1.82,2.74,2.67,1.02.93,2.02,1.92,3.15,2.76,1.63,1.21,3.2,2.52,4.81,3.76,1.84,1.42,3.67,2.84,5.5,4.26.11.09.25.16.34.27.27.32.83.53.66,1.04-.2.58-.79.44-1.23.39-1.92-.18-3.84-.05-5.73.07-1.82.12-2.82-.64-3.52-2.14-.21-.42-.51-.78-.86-1.1-2.11-1.91-4.14-3.89-6.48-5.55-2.57-1.83-5-3.88-7.41-5.94-1.14-.97-2.37-1.86-3.51-2.84-1-.87-1.9-1.85-2.83-2.79-.13-.14-.37-.29-.26-.54.13-.3.43-.21.67-.21,1.28-.01,2.55,0,3.82,0h0Z"/><path class="cls-4" d="m432.26,239.8c-.95-.19-2.1.11-3.26.06-1.14-.06-1.77-.77-2.45-1.42-1.87-1.77-3.95-3.27-6.04-4.75-1.7-1.2-3.28-2.56-5-3.73-3.94-2.7-7.48-5.93-11.46-8.57-.59-.39-1.06-.99-1.55-1.52-.51-.55-.3-.99.38-1.03,2.31-.12,4.63-.32,6.95-.24.22,0,.42.04.57.23,1.32,1.59,2.97,2.84,4.52,4.17,1.5,1.29,3.2,2.33,4.52,3.85.36.41.97.47,1.43.83,2.91,2.25,5.58,4.78,8.56,6.94,1.61,1.16,3.23,2.3,4.84,3.45.15.1.33.16.46.28.3.29.83.52.63,1.02-.15.39-.63.42-1.04.43-.62,0-1.23,0-2.06,0h0Z"/><path class="cls-8" d="m490.51,117.67c0,.8.02,1.6,0,2.4-.04.87-.48,1.08-1.2.58-.62-.43-1.23-.9-1.8-1.38-2.39-2.01-4.81-4-7.05-6.17-2.66-2.58-5.63-4.79-8.49-7.13-2.65-2.17-5.32-4.32-7.98-6.48-.3-.24-.56-.64-.5-.93.41-1.97-.47-3.96.12-5.92.08-.27-.03-.63.29-.76.35-.15.5.2.7.39,1.97,1.81,3.97,3.59,5.87,5.45,1.52,1.48,2.97,3.03,4.34,4.65.89,1.04,1.99,1.81,3.03,2.62,1.03.81,1.75,1.89,2.79,2.68,2.46,1.89,4.69,4.06,7.19,5.91.68.5,1.17,1.28,2.23.94.44-.14.47.28.47.64-.02.84,0,1.67,0,2.51h0Z"/><path class="cls-13" d="m420.09,218.51c.54,0,1.11.09,1.64-.01,2.59-.49,4.03.98,5.48,2.83,1.12,1.42,2.73,2.45,3.96,3.8,1.85,2.03,4.14,3.56,6.02,5.56,1.03,1.09,2.38,1.88,3.62,2.78,1.46,1.06,2.97,2.04,4.15,3.45.52.62,1.31,1.01,1.95,1.53.3.24.69.54.55.97-.15.46-.62.4-1.03.4-1.75,0-3.49,0-5.24.01-.42,0-.73-.1-1.04-.42-2.17-2.23-4.59-4.19-6.95-6.21-1.61-1.38-3.34-2.53-5.06-3.72-.65-.44-1.24-.99-1.8-1.55-2.29-2.27-5.01-3.96-7.56-5.89-1.12-.85-2.15-1.83-3.22-2.74-.18-.15-.31-.34-.2-.56.12-.24.38-.14.58-.15,1.38,0,2.76,0,4.15,0v-.06h0Z"/><path class="cls-13" d="m489.6,225.48c-1.94-1.61-3.53-3.32-5.21-4.94-2.45-2.35-4.87-4.75-7.45-6.98-2.18-1.88-4.2-3.95-6.31-5.92-1.57-1.46-3.24-2.81-5.2-3.75-.46-.22-.7-.65-.7-1.15-.02-2.17-.02-4.35,0-6.52,0-.57.15-.8.76-.38.53.36.93.84,1.26,1.31,2.21,3.12,5.14,5.53,7.78,8.22,2.15,2.2,4.66,3.98,6.95,6.03,1.95,1.75,4.23,3.15,6.24,4.87.17.14.33.33.53.37,1.7.41,1.77,1.64,1.54,3.01-.31,1.87-.07,3.76-.19,5.81h0Z"/><path class="cls-9" d="m447.27,218.18c1.41-.23,2.31.72,3.19,1.41.62.49,1.2,1.1,1.81,1.65,2.77,2.5,5.53,5.01,8.38,7.42,2.15,1.82,4.65,3.09,6.78,4.9,1.72,1.46,3.61,2.7,5.49,3.94.44.29.79.75,1.08,1.19.35.53,0,.86-.51.86-2.35.03-4.7.03-7.05,0-.79-.01-1.18-.73-1.52-1.27-1.41-2.28-3.7-3.64-5.57-5.43-2.22-2.11-4.92-3.57-7.29-5.48-2.81-2.27-5.42-4.79-8.42-6.82-.09-.06-.17-.15-.21-.25-.25-.54-1.01-.99-.71-1.59.25-.5,1.01-.25,1.51-.19,1.08.13,2.04-.57,3.04-.36h0Z"/><path class="cls-13" d="m378.5,218.82c.33,0,.67.06.98,0,1.9-.4,2.86.91,3.85,2.13,1.05,1.29,2.29,2.39,3.46,3.56,1.54,1.53,3.39,2.73,4.98,4.19,2.73,2.52,5.62,4.86,8.36,7.37,1.24,1.14,2.59,2.18,3.89,3.25.28.23.69.41.53.84-.15.41-.6.29-.95.31-.94.06-1.89.1-2.81.23-1.02.14-1.83-.24-2.57-.86-2.45-2.07-4.99-4.01-7.37-6.17-1.67-1.52-3.56-2.84-5.33-4.27-2.17-1.76-4.41-3.46-6.46-5.38-1.37-1.27-2.91-2.35-4.38-3.49-.36-.28-.78-.59-.73-.99.06-.42.62-.39,1-.48,1.18-.3,2.37-.2,3.56-.22h0Z"/><path class="cls-4" d="m490.73,93.22c-.15.87.21,1.79-.2,2.67-.21.46-.35.59-.86.3-1.27-.74-2.3-1.76-3.36-2.73-2.04-1.86-4.09-3.71-6.11-5.58-2.97-2.74-6.24-5.09-9.37-7.62-1.87-1.51-3.68-3.21-6.02-4.08-.82-.3-1.22-.98-1.19-1.87.04-.91-.06-1.81.16-2.72.23-.92.54-1.12,1.39-.61.95.57,1.87,1.2,2.76,1.86,2.41,1.81,4.83,3.61,7.19,5.48,1.89,1.5,3.65,3.18,5.58,4.62,2.74,2.05,5.24,4.45,8.26,6.11,1.73.95,2.02,2.4,1.77,4.15h0Z"/><path class="cls-11" d="m457.03,121.72c-2.03.57-3.72-.21-5.47-1.85-3.79-3.56-8.13-6.51-11.9-10.11-1.69-1.61-3.42-3.16-5.33-4.51-.28-.2-.69-.46-.61-.84.08-.4.52-.47.91-.6,1.02-.35,2.04.12,3.07-.14.53-.13,1.12-.18,1.69-.27,1.77-.27,2.98.58,4.09,1.84,2.26,2.57,4.63,5.04,7.31,7.22,1.73,1.4,3.39,2.91,4.96,4.5,1.18,1.19,2.28,2.51,3.79,3.35.29.16.53.37.68.68.29.59.16.9-.54.86-.8-.04-1.6-.08-2.66-.14h0Z"/><path class="cls-8" d="m426.9,103.81c1.63-.41,3.16.36,4.6,2.02,1.6,1.85,3.69,3.27,5.35,5.07,1.67,1.81,3.66,3.25,5.39,4.97,1.98,1.96,4.35,3.44,6.46,5.23.26.22.58.4.45.77-.12.36-.49.32-.82.34-1.16.09-2.16,0-2.9-1.18-.48-.77-1.35-1.2-2.36-1.03-.18.03-.36,0-.55.01-1.48.05-2.74-.08-4.05-1.2-1.65-1.42-3.44-2.71-5.18-4.06-1.96-1.52-3.78-3.21-5.67-4.81-1.28-1.09-2.55-2.22-3.92-3.2-.65-.47-.95-1.27-1.72-1.61-.18-.08-.39-.34-.18-.63.18-.24.37-.37.69-.45,1.29-.29,2.6-.16,4.41-.23h0Z"/><path class="cls-10" d="m453.52,217.85c1.83-.27,3.67,0,5.5-.33.69-.13,1.3-.03,1.39.91.02.28.3.61.56.77,1.92,1.19,3.46,2.84,5.19,4.26,1.83,1.5,3.61,3.06,5.33,4.68,3,2.82,6.2,5.4,9.31,8.08.78.67,1.67,1.21,2.4,1.95.24.24.36.44.3.75-.06.32-.38.36-.58.39-1.07.15-2.16,0-3.24.18-.31.05-.76-.19-1.01-.55-2.65-3.65-6.38-6.06-9.88-8.75-2.62-2.01-5.5-3.65-8.13-5.65-1.61-1.22-3.25-2.39-4.82-3.67-.86-.7-1.87-1.29-2.76-2.02-.21-.17-.6-.31-.47-.64.14-.37.59-.34.92-.37h0Z"/><path class="cls-5" d="m455.35,165.48c-2.4,1.04-4.09-1.06-6.08-2.47-3.84-2.73-7.52-5.65-11.03-8.78-.86-.77-1.72-1.56-2.56-2.36-.21-.21-.44-.48-.36-.75.1-.32.46-.51.79-.48,1.25.09,2.54.09,3.73-.1,2.1-.33,3.22,1.06,4.52,2.1,2.72,2.17,5.7,3.97,8.34,6.25,2.19,1.9,4.52,3.65,6.8,5.45.28.22.51.47.38.82-.11.32-.46.31-.75.31-1.09,0-2.18,0-3.77,0h0Z"/><path class="cls-9" d="m457.22,103.33c.14-.02.26,0,.36-.05,2.43-.89,4.23.15,6.02,1.72,5.05,4.46,10.58,8.35,15.52,12.96.92.86,2.02,1.54,2.78,2.58.16.22.44.43.22.76-.16.24-.41.24-.67.25-1.49.04-2.97-.1-4.46.19-.66.13-1.24-.28-1.72-.74-2.08-2.01-4.1-4.11-6.28-6.01-2.65-2.33-5.37-4.59-8.11-6.82-1.42-1.15-2.76-2.41-4.16-3.6-.3-.26-.66-.57-.5-1,.19-.5.65-.31,1-.22h0Z"/><path class="cls-13" d="m449.02,103.44c1.74-.48,3.07.55,4.35,1.61,2.04,1.69,3.89,3.57,5.9,5.3,2.42,2.08,4.91,4.1,7.26,6.26,1.05.96,2.39,1.64,3.12,2.97.26.47.82.68,1.28.96.26.16.63.31.53.73-.1.39-.47.3-.73.3-1.99-.05-3.98.22-5.97,0-.28-.03-.47-.14-.63-.35-1.3-1.78-3.04-3.09-4.65-4.56-1.19-1.08-2.22-2.31-3.49-3.33-1.92-1.55-3.72-3.23-5.52-4.92-1.31-1.23-2.63-2.44-4.06-3.53-.25-.19-.55-.41-.48-.8.07-.45.51-.56.81-.6.71-.08,1.45-.03,2.29-.03h0Z"/><path class="cls-4" d="m466.67,161.2c-.12.62.36,1.49-.28,1.83-.66.36-1.11-.47-1.58-.85-1.21-1-2.34-2.11-3.56-3.09-2.27-1.83-4.72-3.46-6.85-5.44-2.31-2.14-5.08-3.62-7.46-5.64-.49-.42-1.11-.6-1.57-1.12-.85-.98-.58-2.16-.67-3.21-.07-.85.08-1.8.1-2.7,0-.28.09-.51.35-.6.25-.09.37.11.54.27,1.97,1.92,3.89,3.9,5.96,5.72,1.07.94,2.27,1.74,3.36,2.69,1.86,1.62,3.86,3.07,5.8,4.61,1.37,1.09,2.8,2.09,4.33,2.94.84.47,1.42,1.04,1.33,2.13-.06.82.35,1.63.19,2.47h0Z"/><path class="cls-11" d="m405.69,156.15c0-.16,0-.24,0-.31.1-.65-.33-1.56.43-1.88.71-.3,1.32.43,1.86.84,2.65,2,5.28,4.04,7.89,6.11,2.35,1.86,4.61,3.85,7.01,5.65,1.73,1.3,3.44,2.62,5.1,4.03,1.21,1.03.91,2.37.85,3.64-.03.68-1.9.97-2.56.32-1.58-1.56-3.47-2.72-5.14-4.17-3.43-2.99-7.07-5.75-10.61-8.63-1.46-1.19-2.79-2.53-4.37-3.57-.82-.54-.27-1.42-.47-2.03h0Z"/><path class="cls-10" d="m427.77,150.92c2.52-.92,4.2.8,5.9,2.46,3.87,3.76,8.13,7.06,12.28,10.5.36.29.8.47,1.16.76.24.19.62.39.52.76-.1.42-.57.44-.89.48-.64.08-1.31,0-1.96.05-.86.05-1.74-.18-2.59.16-.29.12-.49-.1-.68-.24-3.78-2.82-7.43-5.82-11.05-8.85-1.31-1.1-2.67-2.2-4.13-3.13-.85-.54-1.45-1.41-2.42-1.79-.27-.1-.46-.44-.44-.71.04-.33.42-.41.69-.42,1.13-.03,2.25-.01,3.6-.01h0Z"/><path class="cls-4" d="m431.32,120.23c-2.15.66-3.91-.73-5.54-2.35-2.88-2.86-6.16-5.26-9.17-7.96-1.75-1.57-3.7-2.97-5.58-4.43-.25-.2-.6-.4-.5-.77.12-.46.55-.2.83-.22,1.64-.17,3.28-.29,4.92-.45.47-.05.82.11,1.15.43,1.57,1.54,3.4,2.8,4.93,4.35,1.21,1.22,2.53,2.32,3.71,3.54,2.43,2.51,5.35,4.42,7.92,6.75.13.12.29.23.41.36.14.16.35.31.27.55-.09.26-.36.2-.56.2-.8,0-1.6,0-2.79,0h0Z"/><path class="cls-4" d="m433.56,165.92c-.69,0-1.38,0-2.07,0-.68,0-1.28-.22-1.8-.62-3.18-2.37-6.4-4.68-9.5-7.15-2.43-1.94-4.89-3.87-7.08-6.1-.23-.24-.56-.45-.38-.81.15-.3.49-.37.82-.41,3.16-.39,5.88.4,8.21,2.67,2.62,2.55,5.63,4.64,8.57,6.82,1.95,1.44,3.75,3.08,5.61,4.64.24.2.59.43.47.78-.12.35-.51.15-.78.16-.69.02-1.38,0-2.07,0h0Z"/><path class="cls-8" d="m405.26,162.52c0-.76,0-1.53,0-2.29,0-.28.05-.53.33-.62.26-.09.51,0,.68.22.34.46.67.93,1,1.4,1.18,1.63,2.79,2.82,4.29,4.12,2.46,2.14,4.9,4.31,7.35,6.46.9.79,1.81,1.56,2.72,2.33.17.15.35.3.27.54-.08.28-.35.18-.55.2-1.34.12-2.67.25-4.01.34-.39.03-.75-.13-1.09-.38-2.21-1.6-4.08-3.61-6.17-5.35-1.4-1.16-2.73-2.39-4.15-3.52-.43-.34-.67-.72-.67-1.27,0-.73,0-1.46,0-2.19h0Z"/><path class="cls-5" d="m418.1,120.23c-1.25.38-2.29-.42-3.34-1.28-2.37-1.94-4.7-3.92-7.27-5.58-.27-.18-.31-.44-.37-.73-.24-.97-.03-1.95-.06-2.93-.02-.76.61-.99,1.26-.49,2.1,1.63,4.13,3.37,6.3,4.91,1.92,1.37,3.4,3.21,5.3,4.58.22.16.38.42.53.67.31.53.29.89-.47.86-.54-.02-1.09,0-1.86,0h0Z"/><path class="cls-13" d="m408.32,175.54c-.76,0-1.52-.03-2.29.01-.83.05-1.21-.31-1.2-1.13,0-1.6-.01-3.2,0-4.79,0-.23-.13-.53.21-.65.3-.1.46.14.64.31,1.54,1.4,3.09,2.79,4.61,4.21.31.29.6.61.98.84.32.18.65.45.51.86-.12.34-.51.35-.84.35-.87,0-1.74,0-2.61,0h0Z"/><path class="cls-11" d="m407.01,118.06c0-.4-.02-.8,0-1.2.02-.3-.19-.74.2-.88.36-.12.66.2.91.45.87.87,1.77,1.72,2.59,2.63.39.43,1.37.58,1.08,1.3-.27.65-1.11.24-1.7.3-.61.05-1.23-.02-1.85.02-.88.05-1.28-.31-1.21-1.21.04-.47,0-.94,0-1.41h-.04Z"/><path class="cls-9" d="m272.44,220.27c1.05,0,2.11,0,3.16,0,.55,0,1.02.1,1.47.51,2.37,2.11,4.68,4.27,6.93,6.51,1.99,1.97,3.65,4.22,5.65,6.19,2.57,2.54,5.02,5.21,7.52,7.83.2.21.48.48.26.74-.22.26-.59.4-.97.38-1.74-.06-3.46.34-5.21.24-.71-.04-1.43-.12-2.15.17-.48.2-1-.04-1.16-.55-.98-3.16-3.53-5.12-5.6-7.45-3.11-3.48-6.62-6.57-9.88-9.91-1.38-1.41-2.89-2.83-4.75-3.7-.19-.09-.34-.22-.28-.39.08-.22.33-.23.55-.26,1.48-.19,2.97-.28,4.46-.29h0Z"/><path class="cls-13" d="m280.66,243.07c-1.53.32-2.94-.14-4.23-1.84-2.34-3.07-5.5-5.39-8.18-8.17-2.14-2.22-4.57-4.22-6.84-6.33-1.85-1.72-3.77-3.35-5.67-5.01-.22-.19-.48-.39-.35-.72.11-.29.43-.23.67-.24,2.11-.07,4.21-.11,6.32-.21,1.98-.09,2.99,1.39,4.01,2.63,1.62,1.97,3.48,3.68,5.23,5.52,1.72,1.81,3.5,3.57,5.26,5.33,2.49,2.49,4.64,5.31,7.37,7.56.31.25.53.61.48.93-.07.46-.6.5-.96.52-.9.06-1.81.02-3.11.02h0Z"/><path class="cls-6" d="m356.06,105.55c0,.43.03.58,0,.72-.16.52.05,1.25-.63,1.49-.68.24-1.02-.32-1.38-.79-.37-.5-.97-.75-1.45-1.14-2.07-1.69-3.99-3.54-5.95-5.35-1.24-1.15-2.68-2.09-3.95-3.21-2.67-2.38-5.39-4.7-8.16-6.97-.14-.12-.31-.16-.46-.24-.95-.57-1.91-1.06-1.67-2.53.19-1.13.03-2.32.05-3.49,0-.33-.22-.78.21-.98.45-.22.83.1,1.17.35,1.07.78,2.09,1.63,3.17,2.38,2.1,1.45,3.92,3.25,5.93,4.83,1.8,1.42,3.63,2.8,5.45,4.18,2.24,1.7,4.5,3.36,6.72,5.08.38.29.74.7.73,1.28-.02,1.56-.01,3.13.2,4.4h0Z"/><path class="cls-8" d="m299.46,220.83c0,.73,0,1.27,0,1.82-.02.85-.42,1.01-1.13.61-1.14-.63-1.84-1.72-2.75-2.58-2.06-1.96-4.12-3.9-6.23-5.81-1.1-.99-2.2-2-3.16-3.13-1.33-1.56-3.11-2.58-4.58-3.97-.86-.81-1.29-1.62-1.36-2.66-.14-2.1-.16-4.22-.24-6.32-.01-.44-.04-.94.44-1.12.46-.16.69.28.95.57,1.94,2.08,3.72,4.35,5.85,6.22,3.43,3.01,6.35,6.54,9.78,9.55.76.67,1.41,1.45,2.1,2.2.32.34.35.77.33,1.22-.06,1.19.2,2.39,0,3.4h0Z"/><path class="cls-13" d="m328.49,166.98c-1.35.08-2.74.15-4.12.26-.75.06-1.46-.09-2.05-.53-1.72-1.24-3.58-2.27-5.24-3.6-2.63-2.11-5.34-4.12-7.99-6.2-.63-.49-1.18-1.08-1.77-1.62-.28-.25-.6-.57-.41-.92.21-.38.69-.46,1.13-.45,2.62.02,5.24.08,7.86-.22.86-.1,1.65-.11,2.35.68,1.23,1.4,2.97,2.21,4.34,3.46,1.91,1.76,4.29,2.86,6.18,4.65.87.83,1.97,1.42,2.97,2.11.18.12.39.21.53.37.38.4,1.09.69.84,1.38-.24.66-.94.38-1.44.43-1.04.09-2.07.36-3.17.19h0Z"/><path class="cls-9" d="m356.07,114.75c0,.66.06,1.21-.01,1.75-.1.69-.53.94-1.14.48-1.95-1.48-3.84-3.05-5.83-4.47-1.49-1.06-2.86-2.31-4.4-3.3-2.1-1.35-3.86-3.14-5.97-4.46-1.67-1.05-3.09-2.45-4.84-3.4-1.06-.58-1.71-1.4-1.55-2.8.19-1.65.11-3.33.13-5,0-.34-.02-.69.34-.83.36-.14.6.15.84.37,3.23,2.94,6.47,5.87,9.69,8.83,3.19,2.93,6.52,5.71,9.84,8.49.77.65,1.47,1.37,2.31,1.94.95.65.47,1.66.59,2.4h0Z"/><path class="cls-11" d="m332.01,119.36c-1.38,0-2.77-.02-4.15.01-.56.01-.86-.33-1.18-.67-2.11-2.24-4.55-4.11-6.82-6.17-1.37-1.24-2.68-2.54-4.04-3.8-.84-.79-1.71-1.55-2.55-2.35-.22-.21-.46-.45-.31-.83.16-.4.54-.58.86-.56,2.09.13,4.15-.34,6.24-.16,1.03.09,1.74.51,2.44,1.18,3.04,2.87,6.07,5.76,9.27,8.46,1.47,1.24,2.89,2.54,4.4,3.73.31.24.58.54.46.91-.16.48-.61.21-.94.21-1.23,0-2.46,0-3.69,0v.04h0Z"/><path class="cls-4" d="m299.9,233.57c0,.62.02,1.24,0,1.85-.01.34.18.78-.25.98-.41.19-.7-.2-.92-.42-.79-.74-1.5-1.56-2.24-2.35-2.05-2.19-4.17-4.32-6.13-6.59-1.72-1.99-3.74-3.67-5.52-5.6-.94-1.02-1.98-2-3.07-2.91-.79-.67-1.2-1.47-1.12-2.57.09-1.19.02-2.4.02-3.6,0-.37-.03-.77.36-.95.36-.16.64.12.84.35,1.81,2.05,4.14,3.54,5.82,5.77,1.08,1.44,2.63,2.56,3.98,3.81,1.4,1.29,2.53,2.86,4.1,3.97.62.44,1.08,1.13,1.74,1.46,2.03,1.04,2.31,2.87,2.36,4.83.02.65,0,1.31,0,1.97h.02Z"/><path class="cls-10" d="m248.24,220.57c1.78-.36,2.93.35,4.05,1.68,1.55,1.84,3.38,3.46,5.16,5.09.49.45.86.97,1.27,1.45,1.51,1.76,3.48,3.04,5.01,4.76,1.72,1.93,3.69,3.58,5.52,5.38,1.1,1.07,2.12,2.27,3.45,3.1.27.16.54.46.42.81-.12.33-.49.25-.77.24-1.37-.05-2.74-.1-4.12-.16-.33-.01-.64-.13-.89-.36-2.98-2.76-6.05-5.44-8.92-8.32-2.04-2.05-3.93-4.25-6-6.28-1.87-1.82-3.84-3.53-5.92-5.11-.52-.39-1.01-.82-1.51-1.25-.22-.19-.51-.39-.37-.72.12-.29.42-.35.73-.34.98.01,1.96,0,2.87,0h0Z"/><path class="cls-3" d="m299.24,207.82c0,.69,0,1.38,0,2.07,0,.44.08.93-.44,1.13-.47.18-.71-.23-.97-.51-2.23-2.47-4.61-4.79-7.08-7.01-2.8-2.51-5.24-5.41-8.27-7.68-.41-.31-.82-.62-1.31-.71-.94-.17-1.22-.7-1.18-1.61.07-1.7-.36-3.38-.21-5.09.03-.34-.16-.76.24-1,.45-.26.74.14,1.06.34,1.9,1.18,3.23,2.99,4.86,4.47,2.61,2.36,4.87,5.06,7.51,7.38,1.81,1.59,3.54,3.26,5.32,4.88.35.32.48.68.47,1.15-.03.73,0,1.46,0,2.18h0Z"/><path class="cls-5" d="m279.79,180.57c-.01-.71-.01-1.69.13-2.67.04-.28-.05-.63.23-.79.31-.18.52.11.76.28,1.63,1.19,2.94,2.76,4.5,4.03,2.64,2.14,5.1,4.47,7.59,6.77,1.68,1.55,3.28,3.19,4.9,4.8.89.89,1.28,1.95,1.15,3.22-.08.79-.02,1.6-.01,2.4,0,.32-.07.59-.38.7-.27.1-.47-.06-.67-.24-1.06-.93-2.08-1.91-3.2-2.75-3.54-2.68-6.37-6.17-9.94-8.81-1.55-1.14-2.92-2.47-4.43-3.65-.43-.33-.66-.74-.63-1.3.03-.58,0-1.17,0-2.02h0Z"/><path class="cls-9" d="m319.79,137.25c.12-.77-.19-1.8.22-2.79.23-.54.52-.65.95-.19,2.32,2.45,4.97,4.52,7.48,6.76,3.42,3.06,7.24,5.62,10.66,8.67.33.29.64.6.71,1.05.22,1.41.12,2.83.06,4.24-.03.63-.6.64-1.06.3-1.82-1.34-3.47-2.91-5.24-4.29-2.14-1.66-4.13-3.5-6.29-5.13-1.52-1.15-3.03-2.33-4.49-3.56-.56-.47-1.23-.76-1.8-1.19-.87-.65-1.41-1.4-1.19-2.55.07-.35.01-.72.01-1.32h0Z"/><path class="cls-8" d="m280.22,171.11c.13-.84-.24-1.68-.2-2.55.04-.91.45-1.1,1.26-.66.52.28.69.83,1.11,1.18,1.53,1.31,3.01,2.69,4.52,4.03.95.84,1.94,1.68,2.85,2.58.79.79,1.68,1.56,2.62,2.2,2.27,1.53,4.12,3.59,6.44,5.07.79.5.47,1.43.37,2.12-.14,1.02-.16,2.03-.16,3.04,0,.36.05.77-.34.96-.41.2-.72-.12-.96-.36-.75-.78-1.39-1.68-2.21-2.37-1.79-1.51-3.42-3.2-5.44-4.46-1.02-.64-1.87-1.6-2.73-2.46-1.94-1.92-4.06-3.59-6.3-5.13-.76-.52-1.23-1.06-.85-2.06.12-.32.02-.72.02-1.13h0Z"/><path class="cls-8" d="m355.86,93.85c-.11.64.38,1.7-.39,2.01-.74.3-1.36-.63-1.92-1.16-1.22-1.14-2.59-2.06-3.91-3.05-2.51-1.88-4.87-3.95-7.35-5.87-2.73-2.11-5.36-4.38-8.34-6.11-1.52-.88-1.46-2.2-1.43-3.52.02-.73-.27-1.81.58-2.16.8-.33,1.29.64,1.84,1.1,2.28,1.88,4.44,3.9,6.76,5.72,1.05.83,2.11,1.67,3.3,2.38,1.04.62,1.94,1.54,2.98,2.27,2.19,1.54,4.34,3.16,6.39,4.88,1.57,1.32,1.49,1.41,1.49,3.51h0Z"/><path class="cls-11" d="m339.95,161.6c0,.71.06,1.26-.01,1.79-.16,1.14-.53,1.26-1.47.51-1.41-1.13-2.73-2.36-4.22-3.38-2.13-1.46-4.23-3-6.27-4.59-2.25-1.75-4.61-3.35-6.88-5.08-1.63-1.24-1.93-2.66-1.67-4.44.04-.25.12-.49.14-.75.12-1.71.19-1.82,1.65-.87,1.92,1.25,3.66,2.78,5.37,4.32,2.62,2.34,5.27,4.65,8.08,6.77,1.66,1.26,3.25,2.62,4.95,3.84.64.46.2,1.36.34,1.88h0Z"/><path class="cls-10" d="m307.26,119.14c-.22,0-.44-.02-.66,0-1.84.24-3.35-.51-4.55-1.78-1.63-1.73-3.71-2.86-5.46-4.44-1.92-1.74-3.94-3.39-5.92-5.07-.91-.77-1.83-1.52-2.77-2.25-.25-.2-.63-.32-.53-.68.1-.32.47-.43.82-.43,1.52,0,3.07.2,4.54-.05,1.73-.3,2.76.46,3.81,1.6,2.14,2.32,4.59,4.32,6.87,6.48,1.88,1.79,3.79,3.53,5.82,5.14.14.11.26.25.39.38.22.23.54.47.37.82-.14.3-.48.27-.78.27-.65,0-1.31,0-1.96,0h0Z"/><path class="cls-4" d="m311.96,167.84c-1.95.9-2.73-1.13-4.08-1.92-.97-.57-1.62-1.53-2.44-2.28-2.58-2.38-5.25-4.64-7.88-6.96-.46-.4-1-.7-1.47-1.1-.2-.17-.45-.43-.28-.75.13-.26.34-.46.67-.49,1.68-.14,3.36-.29,5.04-.44.48-.04.81.2,1.16.48,2,1.61,3.46,3.78,5.52,5.33,2.54,1.91,4.76,4.22,7.44,5.95.03.02.07.03.09.06.39.5,1.31.8,1.12,1.46-.21.77-1.1.43-1.72.49-1.01.1-2,.34-3.19.17h0Z"/><path class="cls-13" d="m320.22,119.36c-1.57-.07-3.15-.15-4.73-.22-.35-.01-.68-.15-.85-.4-1.02-1.47-2.5-2.5-3.65-3.85-.65-.77-1.6-1.32-2.4-2-2.55-2.19-4.99-4.49-7.45-6.77-.63-.58-.49-.86.2-1.11.4-.15.77-.33,1.25-.21.89.23,1.83.27,2.7.12,1.76-.3,2.81.75,3.89,1.81,2.18,2.14,4.34,4.32,6.55,6.43,2.01,1.9,4.01,3.81,6.24,5.46.19.14.32.31.23.55-.1.27-.36.19-.56.2-.47.01-.95,0-1.42,0h0Z"/><path class="cls-4" d="m346.74,118.92c-1.48.02-2.8.04-4.11.22-.51.07-1.07.02-1.41-.38-1.46-1.72-3.28-3.04-4.88-4.6-2.18-2.14-4.59-4.06-6.89-6.09-1.02-.9-2.04-1.79-2.99-2.76-.45-.47.07-.72.47-.78,1.87-.3,3.58-.1,5.25,1.04,2.93,2,5.66,4.26,8.41,6.47,2.12,1.7,4.44,3.1,6.52,4.83.61.51,1.75.9,1.43,1.82-.28.8-1.32-.06-1.81.23h0Z"/><path class="cls-4" d="m299.28,175.59c-.09.68-.15,1.37-.26,2.04-.13.8-.66,1.05-1.2.49-1.46-1.53-3.24-2.68-4.83-4.06-3.74-3.25-7.5-6.49-11.42-9.53-.42-.32-1.25-.13-1.31-.78-.1-1.23-.1-2.47,0-3.7.05-.59.63-.71,1.07-.3,1.87,1.74,3.95,3.24,6.02,4.7,2.67,1.88,5.08,4.07,7.7,6.01,1.21.89,2.37,1.88,3.53,2.85.76.64.64,1.47.68,2.3h0Z"/><path class="cls-9" d="m302.14,168.32c-1.97.47-3.16-1.28-4.67-2.19-.96-.58-1.81-1.39-2.74-2.07-2.84-2.08-5.56-4.33-8.33-6.51-.62-.48-1.27-.92-1.92-1.37-.27-.19-.62-.36-.48-.74.11-.31.46-.38.79-.47.96-.26,1.94-.23,2.91-.25.58-.02,1.14-.03,1.69-.17,1.49-.35,2.27.66,3.04,1.61,1.55,1.91,3.51,3.4,5.29,5.07,1.79,1.67,3.55,3.36,5.33,5.04.16.15.34.29.44.48.25.47,1.19.56.94,1.19-.28.7-1.09.28-1.67.37-.14.02-.29,0-.62,0h0Z"/><path class="cls-4" d="m339.66,143.17c0,.53.02.75,0,.96-.26,1.88-.45,1.99-2.02.8-2-1.52-3.95-3.13-5.87-4.76-2.37-2.02-4.79-3.98-7.27-5.86-1.32-1-2.64-2-3.97-2.99-.32-.24-.47-.58-.49-.93-.05-.93-.03-1.86-.03-2.79,0-.76.26-.96.91-.45,1.61,1.26,3.32,2.41,4.82,3.8,1.36,1.26,2.94,2.21,4.36,3.36,1.31,1.06,2.43,2.33,3.84,3.28,1.13.76,2.26,1.58,3.2,2.55.79.81,2.09,1.09,2.41,2.38.08.32.1.64.1.65h0Z"/><path class="cls-5" d="m293.47,119.14c-.95.23-1.79-.24-2.64-.98-2.42-2.11-4.81-4.26-7.55-5.97-.3-.19-.53-.46-.4-.8.27-.69.11-1.35.04-2.04-.09-.8.33-.87.91-.55,2.21,1.21,4.22,2.72,6.08,4.42,1.44,1.32,2.9,2.61,4.35,3.92.11.1.23.18.33.28.44.41,1.12.79.86,1.47-.22.57-.91.15-1.38.25-.14.03-.29,0-.62,0h0Z"/><path class="cls-3" d="m282.85,117.32c.05-.56-.36-1.5.18-1.75.66-.31,1.06.67,1.58,1.06.75.56,1.53,1.08,2.19,1.75.61.62.25.87-.35.95-.86.12-1.73.16-2.59.21-.65.03-1.03-.26-1.01-.96.01-.4,0-.8,0-1.26h0Z"/><path class="cls-4" d="m22.09,218.61c2.89.15,5.78.32,8.67.46,1.22.06,1.9,1,2.75,1.65,2.7,2.08,5.34,4.23,8.16,6.17,3.29,2.26,6.59,4.51,9.68,7.06,1.92,1.58,3.79,3.25,5.92,4.56.23.14.44.27.43.56,0,.48-.47.37-.65.36-2.02-.14-4.04.36-6.06.08-1.16-.16-1.87-1.14-2.8-1.72-2.76-1.75-5.47-3.57-8.18-5.37-2.93-1.95-5.82-3.96-8.79-5.85-1.79-1.13-3.54-2.33-5.33-3.46-1.82-1.14-3.53-2.48-5.37-3.59-.2-.12-.47-.34-.37-.61.08-.25.39-.3.65-.3.44,0,.87,0,1.31,0h0Z"/><path class="cls-4" d="m80.22,101.39c.1.97-.18,2.14.2,3.28.13.39.03.83-.36,1.06-.38.23-.59-.14-.83-.34-2.38-1.87-4.69-3.83-7.14-5.6-1.39-1-2.7-2.11-4.15-3.04-1.07-.69-2.06-1.55-3.09-2.32-1.92-1.45-4.03-2.6-6.04-3.91-.6-.39-.89-.84-.9-1.58-.04-2.43.19-4.87-.18-7.3-.06-.4.03-.8.44-1.03.5-.28.88.1,1.17.32,1.88,1.44,3.67,2.99,5.57,4.4,3.21,2.39,6.07,5.2,9.17,7.71,1.73,1.41,3.41,2.88,5.26,4.13.62.42.98,1.02.9,1.85-.07.72-.01,1.46-.01,2.36h0Z"/><path class="cls-10" d="m134.49,237.97c-.99.27-1.99-.08-3-.16-1.43-.12-2.32-1.28-3.36-2.06-2.2-1.65-4.41-3.3-6.51-5.06-1.94-1.62-3.87-3.24-5.94-4.65-2.44-1.67-4.79-3.46-7.23-5.11-.49-.33-1.36-.65-1.22-1.19.15-.55,1.04-.21,1.59-.28,2.38-.29,4.8-.09,7.16-.61,1.22-.27,2.14.28,3.03,1.04,4.5,3.89,9.04,7.75,13.54,11.64,1.94,1.68,3.76,3.48,5.35,5.51.43.54.09.77-.34.76-1.02-.02-2,.45-3.07.16h0Z"/><path class="cls-9" d="m120.65,189.42c-.18-1.32.31-3.07-.21-4.79-.06-.2-.08-.47.15-.57.24-.1.51-.03.71.14.58.49,1.15.99,1.74,1.48,4.16,3.45,7.84,7.45,12.15,10.73,1.72,1.31,3.5,2.52,5.03,4.06.4.41.76.86,1.14,1.3.06.07.16.19.14.25-.65,1.96.07,3.95-.14,5.92-.03.29.06.61-.24.78-.3.17-.54-.04-.76-.24-3.23-2.78-6.73-5.2-10.24-7.6-2.84-1.94-5.57-4.08-8.71-5.54-.59-.28-.76-.65-.75-1.26.03-1.42.01-2.83.01-4.66h0Z"/><path class="cls-10" d="m81.64,239.2h-5.39c-.55,0-1.15.06-1.45-.52-.68-1.3-1.99-1.85-3.09-2.63-2.74-1.93-5.33-4.05-8.02-6.03-1.52-1.12-2.95-2.44-4.75-3.16-.23-.09-.43-.28-.62-.44-2.64-2.24-5.63-3.98-8.4-6.04-.28-.21-.6-.34-.5-.72.11-.4.5-.41.82-.34,1.63.33,3.26.1,4.88.03,1.83-.08,3.47.29,4.91,1.53,2,1.72,4.29,3.04,6.44,4.55,4.53,3.2,9.02,6.46,13.55,9.65,1.33.94,2.76,1.74,4.12,2.62.28.18.73.35.62.79-.1.36-.56.33-.84.38-.74.14-1.51.18-2.27.25v.07h0Z"/><path class="cls-13" d="m81.1,123.88c-.18,1.66.02,3.32,0,4.99,0,.37.02.75-.4.92-.4.16-.59-.18-.82-.39-1.37-1.28-3.12-2.07-4.49-3.33-2.64-2.43-5.87-4.06-8.51-6.49-1.04-.95-2.43-1.51-3.57-2.38-1.45-1.11-3.09-1.91-4.71-2.72-.29-.14-.46-.43-.46-.81,0-2.39,0-4.77,0-7.16,0-.36-.02-.77.42-.9.38-.11.66.07.95.35,1.62,1.6,3.64,2.7,5.35,4.17,1.42,1.22,3.01,2.19,4.43,3.39,1.78,1.51,3.7,2.84,5.55,4.26,1.63,1.24,3.33,2.36,5.16,3.28,1.22.61,1.18,1.7,1.1,2.82h0Z"/><path class="cls-3" d="m65.31,219.69c2.78.22,5.58.13,8.36.21.24,0,.5-.05.72.17,2.97,2.99,6.63,5.08,9.98,7.56,1.62,1.2,3.39,2.19,5.04,3.34,2.54,1.77,5.05,3.59,7.57,5.39.5.36,1.01.69,1.51,1.04.23.16.39.35.28.64-.1.26-.34.24-.56.23-.94-.04-1.86.16-2.81.04-1.7-.22-3.39.18-5.09.27-.82.05-1.46-.07-1.89-.9-.37-.72-1.08-1.13-1.74-1.58-3.17-2.18-6.32-4.4-9.47-6.61-2.48-1.73-4.95-3.47-7.43-5.2-1.86-1.29-3.56-2.82-5.66-3.77-.22-.1-.59-.27-.48-.64.1-.33.44-.15.67-.17.32-.03.65,0,.98,0h0Z"/><path class="cls-9" d="m80.86,114.8c.06.74-.03,1.37-.19,2.01-.19.74-.65.74-1.13.4-2.81-2.04-5.67-4.04-8.39-6.2-3.46-2.74-6.91-5.54-10.79-7.6-2-1.07-2.38-2.29-2.24-4.24.11-1.55.15-3.13-.07-4.68-.06-.38.09-.64.37-.82.43-.27.78.01,1.06.28,1.42,1.34,2.95,2.53,4.55,3.63,2.87,1.97,5.47,4.29,8.34,6.28,2.44,1.69,4.7,3.66,7.18,5.31,1.14.75.85,1.94,1.02,2.93.15.91.46,1.84.28,2.7h0Z"/><path class="cls-3" d="m120.95,197.44c3.12,2.68,6.54,4.84,9.76,7.26,3.28,2.46,6.54,4.96,9.82,7.42.7.53.92,1.15.88,2.05-.08,2.11,0,4.22,0,6.33,0,.4.22.94-.35,1.13-.53.18-.61-.37-.87-.64-2.03-2.1-4.32-3.9-6.63-5.69-3.9-3.02-7.89-5.92-12.09-8.52-.33-.2-.35-.47-.4-.81-.42-2.8-.49-5.61-.13-8.54h0Z"/><path class="cls-13" d="m36.89,219.2c1.27.37,2.59.15,3.87.02,2.34-.25,4.16.58,5.92,2.02,4.98,4.05,10.3,7.63,15.53,11.35,2.51,1.79,4.9,3.75,7.51,5.41.34.22.89.52.73.97-.18.52-.77.4-1.24.36-1.96-.17-3.9.26-5.85.26-.89,0-1.65-.26-2.29-.77-2.14-1.7-4.23-3.47-6.36-5.19-3.61-2.93-7.19-5.91-11.03-8.56-2.37-1.63-4.78-3.2-7.17-4.8-.28-.19-.79-.29-.67-.74.15-.55.68-.16,1.05-.33h0Z"/><path class="cls-9" d="m77.25,219.94c3.75-.07,7.19-.5,10.62.12,1.29.24,2.23,1.03,3.12,1.82,2.36,2.08,4.85,3.96,7.41,5.79,1.78,1.27,3.58,2.55,5.26,3.98.79.67,1.66,1.25,2.55,1.79,1.83,1.12,3.38,2.6,5.13,3.82.26.18.62.33.54.72-.1.49-.53.27-.81.27-1.92,0-3.84.06-5.76-.06-1.14-.07-2.02-.89-2.92-1.54-2.34-1.69-4.71-3.33-7-5.09-3.85-2.97-8.1-5.31-12.2-7.89-1.89-1.19-3.61-2.65-5.96-3.74h0Z"/><path class="cls-13" d="m95.81,219.45c1.08.46,2.14.17,3.16.01,2.39-.35,4.03,1.05,5.74,2.31,2.67,1.96,5.03,4.31,7.9,6.05,2.02,1.22,3.78,2.85,5.69,4.26,2.19,1.61,4.41,3.17,6.62,4.75.06.04.13.07.18.12.33.33.99.6.86,1.03-.18.61-.74.04-1.14.05-1.92.05-3.84.02-5.76.04-.66.01-1.29-.02-1.87-.41-1.53-1.03-2.96-2.19-4.46-3.24-2.17-1.52-4.01-3.47-6.4-4.71-1.64-.85-3.01-2.13-4.41-3.31-1.33-1.12-2.85-1.93-4.25-2.93-1.27-.9-2.31-2.09-3.73-2.79-.2-.1-.46-.29-.37-.6.08-.25.35-.23.55-.28.56-.15,1.16-.1,1.67-.37h0Z"/><path class="cls-10" d="m81.53,146.92c0,.73.02,1.46,0,2.18-.03,1-.48,1.29-1.28.76-2.97-1.98-6.08-3.75-8.79-6.12-.74-.64-1.54-1.3-2.49-1.64-.86-.31-1.37-1.06-2.07-1.55-2.6-1.83-5.12-3.8-7.9-5.36-.69-.39-1.09-.85-1.08-1.7.01-1.64-.28-3.28-.03-4.93.12-.8.34-.8.92-.43,1.97,1.26,3.76,2.76,5.63,4.16,1.6,1.19,3.27,2.29,4.9,3.43,1.29.91,2.61,1.86,3.89,2.81,2.16,1.58,4.36,3.13,6.76,4.34,1.23.62,1.83,1.54,1.59,2.96-.06.35,0,.73,0,1.09h-.02Z"/><path class="cls-13" d="m57.93,141.83c0-.8-.01-1.6,0-2.4.02-.97.43-1.25,1.19-.71,1.59,1.12,3.09,2.37,4.69,3.46,2.2,1.49,4.11,3.38,6.44,4.69.81.45,1.44,1.2,2.21,1.72,2.31,1.57,4.52,3.37,7.02,4.54,1.88.88,2.24,2.01,2.06,3.76-.08.79-.02,1.6-.01,2.4.01.86-.37.94-1,.52-1.07-.73-2.1-1.51-3.21-2.18-2.11-1.28-4.23-2.55-6.23-3.98-2.65-1.9-5.54-3.4-8.2-5.28-1.2-.85-2.44-1.72-3.77-2.39-.91-.46-1.27-1.09-1.2-2.06.05-.69,0-1.38,0-2.07h0Z"/><path class="cls-11" d="m57.93,120.67c0-.73-.02-1.46,0-2.18.04-.93.48-1.16,1.24-.6,1.81,1.34,3.59,2.72,5.39,4.07,2.03,1.53,4.01,3.14,6.12,4.53,2.45,1.62,4.58,3.67,7.09,5.2,1.01.61,1.9,1.43,2.92,2.02.64.37.82.82.84,1.48.04,1.08-.14,2.16.15,3.25.1.37-.04.85-.48,1.12-.45.26-.63-.15-.93-.3-2.28-1.17-4.17-2.94-6.32-4.26-3.37-2.07-6.33-4.68-9.65-6.79-1.93-1.23-3.73-2.66-5.58-4.01-.55-.4-.9-.9-.82-1.66.06-.61.01-1.24.01-1.85h0Z"/><path class="cls-4" d="m121.39,209.26c2.12,1.73,4.19,3.47,6.32,5.13,1.79,1.39,3.63,2.72,5.49,4,3.03,2.09,5.63,4.67,8.23,7.25.34.34.31.81.3,1.23-.02,1.74-.24,3.48.11,5.22.06.28.2.71-.15.88-.42.22-.64-.22-.88-.46-2.81-2.73-5.84-5.23-8.65-7.96-2.9-2.82-6.13-5.29-9.01-8.15-1.02-1.02-1.54-2.21-1.75-3.49-.19-1.17-.39-2.41-.02-3.65h0Z"/><path class="cls-3" d="m57.7,152.43c0-.62-.02-1.24,0-1.85.04-1.01.47-1.26,1.29-.76,2.35,1.44,4.65,2.96,6.93,4.51,1.59,1.09,3.31,2,4.88,3.09,1.71,1.19,3.65,2.01,5.21,3.44,1.19,1.08,2.78,1.6,4.16,2.41,1.29.76,1.81,1.67,1.79,3.05,0,.76-.02,1.52.2,2.27.11.36.01.75-.29.99-.35.27-.67.06-.99-.15-2.71-1.75-5.52-3.35-8.17-5.14-2.39-1.62-4.8-3.24-7.21-4.83-1.42-.94-3-1.61-4.3-2.76-.56-.49-1.37-.72-2.09-1.02-1.02-.43-1.74-1-1.43-2.27.08-.31.01-.65.01-.98h0Z"/><path class="cls-10" d="m57.73,75.3c-.08-1.07-.16-2.08-.24-3.08-.03-.36.07-.68.39-.83.31-.14.53.14.74.31,3.11,2.46,6.2,4.94,9.3,7.4,1.79,1.42,3.58,2.89,5.19,4.57,1.4,1.46,3.17,2.58,4.71,3.92.69.6,1.84.92,2.03,1.8.24,1.09.55,2.26.27,3.43-.03.14-.09.28-.11.42-.06.5.22,1.22-.48,1.38-.61.14-.86-.56-1.23-.92-.83-.8-1.59-1.67-2.55-2.33-.32-.22-.6-.53-.82-.86-.84-1.29-2.09-2.18-3.21-3.17-2.41-2.13-4.97-4.08-7.47-6.11-1.57-1.27-3.36-2.22-5.08-3.23-1.18-.69-1.69-1.46-1.46-2.7h0Z"/><path class="cls-5" d="m78.37,173.79c-1.07.02-2.11-.28-3.21-.03-1.61.38-2.79-.69-4-1.51-2.85-1.93-5.84-3.61-8.73-5.47-1.14-.73-2.17-1.65-3.45-2.18-.97-.4-1.49-1.07-1.24-2.21.23-1.04-.09-2.08-.04-3.12.01-.38.03-.77.36-.97.33-.19.58.13.86.31,2.64,1.74,5.14,3.66,7.69,5.52,1.4,1.03,2.94,1.9,4.37,2.9,2.68,1.88,5.52,3.51,8.27,5.26.38.24,1.12.39.9,1.05-.2.59-.84.42-1.34.43-.15,0-.29,0-.44,0h0Z"/><path class="cls-9" d="m62.44,173.35c-1.31.01-2.61,0-3.92-.17-.58-.07-.84-.26-.83-.87.03-1.27,0-2.55.01-3.82.01-.91.39-1.13,1.12-.52,1.11.92,2.39,1.61,3.49,2.52.84.7,1.74,1.25,2.67,1.79.28.16.78.34.68.75-.1.4-.58.32-.94.32-.76,0-1.53,0-2.29,0h0Z"/><path class="cls-4" d="m216.4,177.03c0,1.09,0,2.18,0,3.27,0,.49-.07,1-.5,1.24-.41.23-.69-.23-.99-.46-2.16-1.63-4.1-3.52-6.2-5.22-1.83-1.48-3.57-3.05-5.35-4.57-2.06-1.76-4.17-3.46-6.2-5.25-.46-.41-.55-.9-.56-1.45-.05-2.69.03-5.38.27-8.07.03-.28-.03-.65.28-.78.43-.18.5.28.71.5,1.66,1.72,3.66,3.07,5.35,4.74,2.33,2.29,4.89,4.32,7.29,6.54,1.75,1.62,3.36,3.41,5.32,4.8.47.33.57.88.56,1.45-.02,1.09,0,2.18,0,3.27h0Z"/><path class="cls-9" d="m186.82,219.26c1.7,0,3.4-.13,5.11-.03.72.04,1.25.25,1.73.73,2.09,2.11,4.37,4.08,6.22,6.36,1.68,2.07,3.78,3.68,5.42,5.71,1.71,2.12,3.72,3.94,5.49,6,.28.32.68.68.51,1.11-.18.46-.71.2-1.07.21-1.48.03-2.97,0-4.46,0-.61,0-1.13-.17-1.53-.67-3.29-4.08-7.46-7.28-11.2-10.91-2.69-2.62-5.65-4.97-8.48-7.45-.21-.19-.52-.4-.43-.71.1-.39.51-.34.82-.35.62-.02,1.24,0,1.86,0h0Z"/><path class="cls-13" d="m174.83,218.82c.55,0,1.1.07,1.63-.01,2.06-.34,3.5.52,4.75,2.1,1.62,2.03,3.69,3.62,5.59,5.37,1.31,1.2,2.5,2.52,3.86,3.68,2.79,2.38,5.41,4.97,8.25,7.3.54.44.95,1.07,1.49,1.55.09.08.22.21.12.37-.09.15-.23.13-.38.14-1.98.14-3.97-.08-5.95.16-.49.06-.82-.24-1.1-.58-2.1-2.58-4.91-4.4-7.24-6.75-1.2-1.21-2.5-2.33-3.81-3.41-2.64-2.17-5.31-4.31-7.98-6.44-.99-.79-2.04-1.49-3.04-2.26-.27-.21-.62-.48-.5-.9.14-.49.59-.32.93-.32,1.12-.02,2.25,0,3.37,0h0Z"/><path class="cls-8" d="m195.85,204.44c0-1.27,0-2.55,0-3.82,0-.3-.02-.62.28-.76.27-.13.49.13.66.29.75.73,1.47,1.49,2.21,2.25,2.37,2.44,4.63,4.97,7.17,7.24,1.26,1.12,2.2,2.61,3.6,3.59,2.14,1.5,3.53,3.79,5.72,5.24.43.29.66.73.66,1.29,0,1.6.03,3.2.03,4.8,0,.34.16.8-.27.98-.45.18-.73-.21-1.02-.47-2.13-1.91-4.22-3.87-6.38-5.75-3.92-3.43-7.66-7.09-12.11-9.86-.47-.29-.56-.7-.56-1.19,0-1.28,0-2.55,0-3.82h0Z"/><path class="cls-11" d="m216.8,189.26c-.28,1.09-.21,2.29-.35,3.47-.04.35,0,.79-.42.92-.41.13-.67-.22-.91-.49-1.38-1.49-2.93-2.8-4.46-4.15-2.37-2.1-4.65-4.31-7.05-6.38-1.45-1.25-3.03-2.36-4.62-3.43-.81-.55-1.43-1.35-2.37-1.73-.34-.14-.24-.5-.24-.77-.05-2.29.08-4.59-.12-6.88-.02-.25-.11-.53.2-.66.29-.12.47.11.65.28,2,1.89,3.96,3.82,6,5.67,2.07,1.87,4.25,3.62,6.3,5.51,1.92,1.76,4.08,3.2,6.09,4.84.77.63,1.27,1.35,1.11,2.43-.06.41.1.85.18,1.35h0Z"/><path class="cls-6" d="m196.09,191.43c0-.89.01-1.51,0-2.12,0-.34-.01-.7.34-.83.31-.12.52.19.73.37,1.78,1.5,3.16,3.38,4.79,5.04,3.14,3.18,6.12,6.52,9.3,9.67,1.31,1.3,2.44,2.76,3.98,3.83.49.34.88.92.9,1.55.05,1.56.02,3.12-.01,4.68,0,.31-.12.69-.47.81-.41.13-.69-.17-.92-.45-2.39-2.9-5.39-5.16-8.07-7.75-3.23-3.11-6.36-6.35-9.98-9.04-.58-.43-.85-1-.84-1.77.02-1.42.39-2.81.25-3.97h0Z"/><path class="cls-11" d="m216.71,131.23c-.08,1.11-.16,2.37-.25,3.63-.02.32,0,.7-.36.85-.38.16-.7-.05-.99-.3-1.07-.92-2.12-1.85-3.19-2.76-2.4-2.03-4.87-3.98-7.18-6.1-2.13-1.95-4.5-3.58-6.74-5.37-.93-.74-1.44-1.5-1.31-2.83.18-1.81-.1-3.65.25-5.46.06-.29,0-.62.33-.73.36-.12.62.13.84.38,2.24,2.56,4.77,4.85,7.27,7.14,3.55,3.24,7,6.61,10.88,9.49.73.54.28,1.27.46,2.05h0Z"/><path class="cls-10" d="m160.78,219.06c.52.18,1.27.07,2.01-.02,1.82-.24,3.21.4,4.53,1.73,2.8,2.83,6,5.21,9.08,7.73,2.74,2.24,5.39,4.61,8.08,6.91,1.16.99,2.33,1.96,3.48,2.96.2.17.58.35.41.68-.15.32-.53.37-.87.3-2.09-.44-4.2-.07-6.29-.2-.92-.06-1.4-.73-1.95-1.24-3.05-2.79-6.31-5.35-9.13-8.38-2.53-2.72-5.4-5.07-8.06-7.65-.6-.57-1.26-1.07-1.9-1.61-.32-.27-.9-.45-.71-.95.15-.4.69-.3,1.31-.27h0Z"/><path class="cls-10" d="m217.06,102.19c0,.84.01,1.67,0,2.51,0,.34.14.73-.3.96-.47.24-.8-.08-1.06-.31-1.07-.91-2.07-1.91-3.13-2.84-2.22-1.96-4.54-3.82-6.66-5.87-2.43-2.35-5.25-4.16-7.87-6.24-1-.79-.94-2-.82-3.06.14-1.2.15-2.37-.02-3.55-.05-.32-.24-.78.2-.98.36-.17.71.05.98.28,1.78,1.5,3.6,2.97,5.41,4.43,2.64,2.13,4.87,4.7,7.61,6.71,1.79,1.31,3.43,2.85,5.2,4.21.48.37.48.84.47,1.36-.01.8,0,1.6,0,2.4h0Z"/><path class="cls-3" d="m216.18,154.55c0,1.02,0,2.04,0,3.05,0,.33.03.7-.32.84-.35.15-.61-.13-.84-.36-1.45-1.47-2.85-2.99-4.36-4.39-1.48-1.37-3-2.69-4.54-3.99-1.59-1.36-3.13-2.79-4.72-4.15-1.21-1.03-2.35-2.14-3.68-3.02-.37-.25-.57-.57-.58-1.08-.04-2.18-.14-4.35-.22-6.52,0-.24-.18-.51.15-.66.33-.15.53.08.75.28,2.81,2.72,5.59,5.47,8.45,8.14,1.37,1.29,2.7,2.66,4.45,3.46.55.25.53.87.98,1.23,1.15.92,2.39,1.71,3.65,2.47.7.42,1,.9.9,1.76-.11.97-.03,1.96-.03,2.94h-.04Z"/><path class="cls-6" d="m196.94,74.76c0-.66-.03-1.31,0-1.97.03-.57.26-.74.83-.41,1.57.92,2.82,2.24,4.3,3.27,1.43.99,2.88,1.96,4.24,3.04,1.36,1.06,2.55,2.33,3.94,3.35,1.95,1.43,3.46,3.38,5.59,4.59.98.55,1.2,1.48,1.2,2.49,0,1.27-.02,2.53-.09,3.8-.02.37-.02.85-.45,1.04-.48.2-.77-.16-1.13-.42-1.47-1.05-2.58-2.49-4.09-3.52-1.48-1.01-2.62-2.5-4.04-3.6-2.66-2.05-5.12-4.36-7.79-6.4-.14-.11-.27-.28-.43-.33-2.03-.61-2.12-2.24-2.08-3.94,0-.33,0-.65,0-.98h0Z"/><path class="cls-13" d="m216.19,143.26c0,.84.03,1.68,0,2.51-.03.74-.43.9-.98.44-2.41-2.01-4.92-3.88-7.1-6.18-1.47-1.55-3.33-2.77-4.76-4.39-1.71-1.94-3.75-3.51-5.68-5.2-.28-.24-.57-.5-.6-.87-.13-1.52-.26-3.03-.29-4.56-.01-.62.61-.7,1.2-.18,1.19,1.04,2.37,2.11,3.58,3.14,2.96,2.53,5.95,5.03,8.89,7.59,1.74,1.52,3.4,3.12,5.38,4.34.32.2.4.49.39.83,0,.84,0,1.68,0,2.51h0Z"/><path class="cls-9" d="m196.55,179.34c1.39,1,2.39,2.17,3.42,3.3,1.94,2.14,3.9,4.24,6.11,6.11,1.06.9,1.98,1.96,3,2.92,1.71,1.61,3.3,3.39,5.2,4.73,2.22,1.55,2.38,3.58,2.06,5.86-.08.56.15,1.4-.59,1.62-.66.19-.93-.57-1.31-.96-2.82-2.87-5.6-5.78-8.3-8.77-1.1-1.22-2.52-2.16-3.67-3.34-1.73-1.77-3.58-3.36-5.73-4.59-.22-.12-.45-.22-.45-.54.01-2.06-.07-4.12.26-6.33h0Z"/><path class="cls-4" d="m217.03,112.49c0,.62.07,1.24-.02,1.85-.13.91-.56,1.07-1.33.55-1.07-.73-1.96-1.71-2.96-2.51-1.49-1.19-2.91-2.47-4.33-3.74-3.43-3.06-6.88-6.09-10.33-9.12-.5-.43-.8-.98-.84-1.57-.07-1.18-.02-2.38-.02-3.57,0-.37.18-.67.49-.78.4-.14.67.18.93.44,2.21,2.2,4.56,4.25,6.89,6.31,1.86,1.65,3.83,3.18,5.58,4.94,1.71,1.72,3.49,3.29,5.59,4.5.31.18.4.5.39.84,0,.62,0,1.23,0,1.85h-.04Z"/><path class="cls-10" d="m216.33,165.59c-.04.43-.1,1.01-.14,1.58-.05.88-.63.81-1,.4-1.54-1.71-3.47-2.96-5.11-4.56-2.64-2.58-5.47-4.92-8.39-7.19-1.48-1.15-2.87-2.43-4.37-3.57-.26-.2-.45-.47-.38-.85.3-1.48.13-2.98.21-4.46.01-.27-.14-.64.24-.75.32-.09.5.2.73.39,3.05,2.56,5.89,5.35,8.82,8.04,2.57,2.35,4.99,4.89,7.73,7.01,1.43,1.11,1.56,2.33,1.64,3.94h0Z"/><path class="cls-4" d="m196.34,214.08c.12-.28-.41-1.05.23-1.35.76-.36,1,.54,1.43.9,2.75,2.3,5.25,4.88,7.96,7.22,2.6,2.25,5.11,4.62,7.64,6.96.08.07.13.2.22.24,2.72,1.16,2.26,3.6,2.32,5.81.01.46-.06.93.02,1.4.05.31-.04.6-.31.76-.31.17-.56-.04-.77-.25-.78-.77-1.59-1.51-2.31-2.33-1.58-1.8-3.41-3.35-5.01-5.1-1.39-1.52-2.73-3.08-4.18-4.54-1.88-1.89-3.46-4.05-5.46-5.83-1.06-.95-2.24-1.93-1.8-3.89h0Z"/><path class="cls-9" d="m216.83,121.94c0,.85,0,1.44,0,2.02,0,.36-.22.63-.53.77-.27.12-.45-.14-.64-.31-2.37-2.04-4.57-4.31-7.01-6.25-3.02-2.4-5.61-5.31-8.9-7.36-.36-.22-.72-.48-1.12-.62-1.36-.48-2.01-1.32-1.75-2.82.18-1.02.18-2.08.33-3.11.14-.93.63-1.09,1.31-.46,1.62,1.49,3.18,3.06,4.82,4.53,2.37,2.12,4.64,4.34,7.08,6.39,1.79,1.51,3.61,2.96,5.51,4.32,1.11.79.93,2.02.88,2.91h0Z"/><polygon class="cls-7" points="6.74 284.12 20.8 284.12 24.27 302.34 24.43 302.34 29.68 284.12 39.25 284.12 43.27 302.34 43.42 302.34 46.74 284.12 60.79 284.12 51.53 324.11 37.47 324.11 33.38 307.28 33.23 307.28 29.37 324.11 15.62 324.11 6.74 284.12 6.74 284.12"/><path class="cls-7" d="m61.56,284.12h13.43v40h-13.43v-40h0Zm0-15.6h13.43v12.05h-13.43v-12.05h0Z"/><path class="cls-7" d="m79.4,279.17l13.44-7.72v12.66h4.94v11.58h-4.94v10.96c0,1.29.22,2.28.66,2.97.44.69,1.53,1.04,3.28,1.04.72,0,1.36-.1,1.93-.31h.08l-2.01,13.74c-3.55,0-6.27-.06-8.14-.19-1.88-.13-3.53-.5-4.94-1.12-1.42-.62-2.48-1.62-3.2-3.01-.72-1.39-1.08-3.32-1.08-5.79v-18.3h-2.78v-11.58h2.78v-4.94h0Z"/><path class="cls-7" d="m99.63,268.52h13.43v19.3c1.39-1.49,2.88-2.64,4.48-3.43s3.37-1.2,5.33-1.2c1.49,0,2.92.21,4.29.62,1.36.41,2.6,1.08,3.71,2.01,1.11.93,1.98,2.12,2.63,3.59.64,1.47.96,3.23.96,5.29v29.42h-13.44v-21.93c0-1.65-.27-2.99-.81-4.02-.54-1.03-1.63-1.54-3.28-1.54-1.49,0-2.51.53-3.05,1.58-.54,1.06-.81,2.38-.81,3.98v21.93h-13.43v-55.59h0Z"/><path class="cls-7" d="m178.54,308.82c0,3.3-.45,5.98-1.35,8.07-.9,2.08-2.15,3.64-3.75,4.67-1.6,1.03-3.4,1.71-5.4,2.04-2.01.34-4.38.5-7.1.5h-6.1v-14.67h2.39c2.73,0,4.54-.57,5.44-1.7.9-1.13,1.35-3.14,1.35-6.02v-33.2h14.52v40.3h0Z"/><path class="cls-7" d="m193.82,309.44c1.44,1.44,3.22,2.16,5.33,2.16s3.89-.72,5.33-2.16c1.44-1.44,2.16-3.22,2.16-5.33s-.72-3.89-2.16-5.33c-1.44-1.44-3.22-2.16-5.33-2.16s-3.89.72-5.33,2.16c-1.44,1.44-2.16,3.22-2.16,5.33s.72,3.89,2.16,5.33h0Zm-13.98-13.47c1.08-2.55,2.59-4.77,4.52-6.68,1.93-1.9,4.17-3.4,6.72-4.48,2.55-1.08,5.24-1.62,8.07-1.62s5.6.54,8.15,1.62c2.55,1.08,4.77,2.57,6.68,4.48,1.9,1.91,3.4,4.13,4.48,6.68,1.08,2.55,1.62,5.26,1.62,8.15s-.54,5.52-1.62,8.07c-1.08,2.55-2.58,4.79-4.48,6.72-1.91,1.93-4.13,3.44-6.68,4.52-2.55,1.08-5.26,1.62-8.15,1.62s-5.52-.54-8.07-1.62c-2.55-1.08-4.79-2.59-6.72-4.52-1.93-1.93-3.44-4.17-4.52-6.72-1.08-2.55-1.62-5.24-1.62-8.07s.54-5.6,1.62-8.15h0Z"/><path class="cls-7" d="m219.61,268.52h13.44v19.3c1.39-1.49,2.88-2.64,4.48-3.43,1.59-.8,3.37-1.2,5.33-1.2,1.49,0,2.92.21,4.29.62,1.36.41,2.6,1.08,3.71,2.01,1.11.93,1.98,2.12,2.63,3.59.64,1.47.97,3.23.97,5.29v29.42h-13.43v-21.93c0-1.65-.27-2.99-.81-4.02-.54-1.03-1.63-1.54-3.28-1.54-1.49,0-2.51.53-3.05,1.58-.54,1.06-.81,2.38-.81,3.98v21.93h-13.44v-55.59h0Z"/><path class="cls-7" d="m256.44,284.12h13.44v3.71c1.39-1.49,2.88-2.64,4.48-3.43s3.37-1.2,5.33-1.2c1.49,0,2.92.21,4.29.62,1.36.41,2.6,1.08,3.71,2.01,1.11.93,1.98,2.12,2.62,3.59.64,1.47.97,3.23.97,5.29v29.42h-13.44v-21.93c0-1.65-.27-2.99-.81-4.02-.54-1.03-1.64-1.54-3.28-1.54-1.49,0-2.51.53-3.05,1.58-.54,1.06-.81,2.38-.81,3.98v21.93h-13.44v-40h0Z"/><polygon class="cls-7" points="318.52 268.52 330.1 268.52 339.9 290.14 350.02 268.52 361.6 268.52 369.24 324.11 354.42 324.11 351.18 301.26 351.02 301.26 339.9 324.5 328.79 301.26 328.63 301.26 325.39 324.11 310.56 324.11 318.52 268.52 318.52 268.52"/><path class="cls-7" d="m381.48,307.24c-.8.8-1.2,1.76-1.2,2.89s.4,2.1,1.2,2.89c.8.8,1.76,1.2,2.89,1.2s2.1-.4,2.9-1.2c.8-.8,1.19-1.76,1.19-2.89s-.4-2.1-1.19-2.89c-.8-.8-1.77-1.2-2.9-1.2s-2.1.4-2.89,1.2h0Zm-8.53-22.58c.92-.05,1.62-.1,2.08-.15,3.97-.26,6.92-.39,8.88-.39,5.77,0,9.81.77,12.12,2.32,1.44.93,2.51,2.21,3.2,3.86.69,1.65,1.04,3.78,1.04,6.41v27.41h-11.58v-2.93h-.15c-.41.77-1.38,1.61-2.9,2.51-1.52.9-3.44,1.35-5.75,1.35-3.5,0-6.45-1.26-8.84-3.78-2.39-2.52-3.59-5.94-3.59-10.27,0-3.65,1.23-6.83,3.7-9.54,2.47-2.7,5.84-4.05,10.12-4.05,1.19,0,2.3.1,3.36.31,1.06.21,1.89.46,2.51.77,0-2.06-.48-3.45-1.43-4.17-.95-.72-2.89-1.08-5.83-1.08-1.45,0-2.62.05-3.55.15-.93.1-2.09.28-3.48.54-.88.1-1.39.18-1.54.23l1.62-9.5h0Z"/><polygon class="cls-7" points="396.42 284.12 411.25 284.12 416.96 303.5 417.11 303.5 421.67 284.12 436.19 284.12 420.2 337.7 405.68 337.7 410.32 321.95 396.42 284.12 396.42 284.12"/><path class="cls-7" d="m455.03,296.16c-.36-.46-.99-.81-1.89-1.04-.9-.23-1.74-.35-2.51-.35-1.9,0-3.51.66-4.83,1.97-1.31,1.31-1.97,3.13-1.97,5.44,0,.41.1,1.05.31,1.93v.23l10.89-8.18h0Zm12.58,23.94h-.08c-2.21,1.34-4.63,2.5-7.26,3.47-2.62.98-5.77,1.47-9.42,1.47-1.85,0-3.9-.34-6.14-1-2.24-.67-4.41-1.8-6.52-3.4-2.11-1.6-3.83-3.77-5.17-6.52-1.34-2.75-2.01-6.06-2.01-9.92,0-3.45.63-6.5,1.89-9.15,1.26-2.65,2.93-4.86,5.02-6.64,2.09-1.78,4.35-3.09,6.79-3.94,2.45-.85,4.85-1.27,7.22-1.27,3.09,0,5.7.46,7.84,1.39,2.13.92,3.86,2.12,5.18,3.59,1.31,1.47,2.3,2.92,2.97,4.36.67,1.44,1.26,3.04,1.78,4.79l-20.15,14.28c.36.26,1,.5,1.93.73.93.23,1.83.35,2.7.35,2.16,0,4.44-.58,6.83-1.74,2.39-1.16,4.29-2.48,5.68-3.97l.93,13.13h0Z"/><path class="cls-7" d="m470.08,284.12h13.44v4.02h.15c.82-1.54,1.88-2.6,3.17-3.17,1.29-.56,3.11-.85,5.48-.85v13.44c-3.5,0-5.84.57-7.03,1.7-1.18,1.13-1.77,2.96-1.77,5.48v19.38h-13.44v-40h0Z"/></svg>