<?xml version="1.0" encoding="utf-8"?>
<!-- Generator: Adobe Illustrator 24.0.1, SVG Export Plug-In . SVG Version: 6.00 Build 0)  -->
<svg version="1.1" id="Layer_1" xmlns="http://www.w3.org/2000/svg" xmlns:xlink="http://www.w3.org/1999/xlink" x="0px" y="0px"
	 width="404.5px" height="120px" viewBox="0 0 404.5 120" style="enable-background:new 0 0 404.5 120;" xml:space="preserve">
<style type="text/css">
	.st0{fill:#59AE5C;}
	.st1{fill:#91CD92;}
	.st2{fill:#41BFE9;}
	.st3{fill:#6FC8E5;}
	.st4{fill:#00AEE7;}
	.st5{fill:#81CCE6;}
	.st6{fill-rule:evenodd;clip-rule:evenodd;fill:#81CCE6;}
	.st7{fill:#C2E3F0;}
</style>
<path d="M98.1,118.8L98.1,118.8c-0.1,0-0.2,0-0.2,0H98.1 M184.1,118.8C184.1,118.8,184,118.8,184.1,118.8c-0.1,0-0.2,0-0.2,0H184.1
	 M54.5,117.9L54.5,117.9L54.5,117.9L54.5,117.9 M20.4,115.2C20.4,115.2,20.4,115.3,20.4,115.2L20.4,115.2L20.4,115.2 M127.1,97.4
	L127.1,97.4L127.1,97.4 M281.4,90L281.4,90C281.3,90,281.3,90,281.4,90c-0.1,0.1-0.1,0.1-0.1,0.1L281.4,90 M398.1,78.8
	c-0.1-0.6-0.2-1.2-0.2-1.9l-0.1-0.7l-0.1-0.1c0-0.1,0-0.1,0-0.1c-0.1-0.9-0.4-1.7-1.2-2.3l0.1,0.1c-0.2-0.2-0.4-0.3-0.6-0.5l0,0
	v-0.1v-0.1c0-0.8-0.2-0.9-0.2-1.1l0,0c0-0.8-0.2-1.1-0.5-1.7c-0.5-1-1.5-1.9-2.5-2.5l-0.5-0.1c-0.1,0-0.2-0.1-0.3-0.1l-0.7-0.2
	c-0.3-0.1-0.6-0.3-0.9-0.4H390c-0.4-0.1-0.9-0.2-0.9-0.1h-0.4l-0.4,0.1h-0.6l-0.2,0.1h-0.1c-0.3,0.1-0.7,0.2-1,0.2l-0.6-0.3l-1,0.2
	l0,0h-0.1l-0.6-0.4l-1,0.1l-0.4-0.2h-2c-0.2-0.1-0.4-0.1-0.5-0.2c-1.8,0.1-3.6,0.3-5.4,0.7l-0.3-0.1h-0.9c-0.2,0-0.4-0.1-0.7-0.1
	c-0.8,0-1.5,0.1-2.3,0.2l-0.4,0.4c-0.3-0.1-0.6-0.3-0.9-0.4c-0.6,0-1.3-0.1-1.9-0.1c-0.4-0.1-1-0.2-1.5-0.3l-0.3-0.1
	c-0.6,0.1-1.3,0.2-1.9,0.3h-0.2l-0.3,0.1c-0.3,0-0.6,0-0.8,0.1l0,0h-0.1h-2.2V68l-0.1,0.1l-0.1,0.2c-0.3,0.3-0.6,0.6-0.8,0.8v1.5
	c0.1,0.4,0.2,0.8,0.4,1.2c0.4,0.7,1,1.3,1.5,1.9l1.2,0.8c0.4,0.4,1,0.8,1.4,1.2c0.1,0.6,0.3,1.2,0.4,1.9c0.1,1.1,0.3,2.2,0.6,3.3
	l0,0V81l-0.1,0.2l0,0c-0.1,0.3-0.3,0.5-0.4,0.8c-0.1,0.5-0.2,0.9-0.3,1.4c-0.2,2.3-0.4,4.6-0.4,6.9c0.2,0.5,0.4,1,0.5,1.6
	c-0.1,0.3-0.2,0.6-0.4,0.9c0.1,4.5,0.6,10-0.7,14.4l0,0c-0.3,0.5-0.9,0.9-1.3,1.3l-0.3,0.1l-0.1,0.1c-0.1-0.3-0.3-0.5-0.5-0.7
	c0,0,0,0-0.1-0.1c0.1-0.7,0.1-1.3,0.1-2l-0.4-0.6c-0.2-0.3-0.4-0.6-0.7-0.9c-0.3-0.3-0.8-0.7-2-0.8h-1.2h-0.2h-0.6h-0.1h-0.8
	l-0.8,1.3c-0.3,0.6-0.5,1.2-0.7,1.8c-0.1,0.1-0.2,0.2-0.3,0.4l-0.3,0.7c-0.8,0-1.6,0-2.5,0l0,0h-0.3l-0.1-0.1h-0.7
	c0-1.1-0.1-1.7-0.3-2.2c0,0-0.1-0.2-0.1-0.3c0-0.1,0-0.1,0-0.2c0-1.2,0-2.3,0-3.5v-0.1c0-1.1,0-2.2,0-3.3c0,0-0.2,0-0.3,0l0,0
	c0-0.8,0.1-1.5,0.3-2.2c0-1.2,0-2.4,0.1-3.6v0.1c0-0.5,0.1-0.7,0.2-0.9c0.1-0.3,0.2-0.5,0.3-0.8c0,0,0-0.1,0.1-0.1
	c0.5-0.2,0.9-0.7,1.4-1l0.6-0.9c0.1-0.5,0.1-1,0.1-1.5l-0.2-0.3c-0.2-0.3-0.6-0.6-1.1-0.8v-0.2l-0.2-0.3c-0.2-0.2-0.3-0.4-0.5-0.6
	c0.1-0.7,0.1-1.4,0.1-2.1l-0.4-0.7c-0.3-0.4-0.5-0.6-0.9-0.9c-0.4-0.2-0.8-0.5-1.7-0.5c-0.8-0.1-1.6-0.1-2.4-0.1
	c-1.5,0.4-3.1,0.5-4.6,0.3c-0.6-0.1-1.2,0-1.8,0c-0.1,0-0.2,0-0.3,0h-0.2c-1.4,0-2.4,0.7-2.9,2.1c-0.2,0.6-0.2,1-0.2,1.4
	c-0.1,1.3,0.4,2.3,1.5,3c0.3,0.2,0.6,0.4,0.9,0.5c0.3,1.9,0.1,4,0.2,5.8c-0.1,0.2-0.2,0.5-0.2,0.7v0.3V95c-0.1,1.1,0,2.1,0.1,3.2
	c-0.1,0.6-0.1,1.1-0.1,1.7l-0.1,0.2c-0.1,0.8-0.2,1.5-0.2,2.3c0.2,0.6,0.3,1.3,0.3,1.9l0.1,0.3c0,1.3-0.1,2.6-0.1,3.8
	c-0.1-0.1-0.2-0.2-0.3-0.3c0,0,0,0-0.1,0c0-0.7,0.1-1.4,0-2c-0.3-0.5-0.6-1-1.1-1.5c-0.3-0.3-0.8-0.7-2-0.8h-1.2h-0.2h-0.6h-0.1H330
	l-0.8,1.2c-0.3,0.6-0.5,1.2-0.7,1.8c-0.1,0.1-0.2,0.2-0.3,0.4l-0.3,0.7c-0.8,0-1.6,0-2.5,0l0,0h-0.1l-0.1-0.1h-0.9
	c0-1.1-0.1-1.7-0.3-2.2c0,0-0.1-0.2-0.1-0.3c0-0.1,0-0.1,0-0.2c0-1.2,0-2.3,0-3.5v-0.1c0-1.1,0-2.2,0-3.3c0,0-0.2,0-0.3,0
	c-0.1,0.2,0.5-3.4,0.3-2.3c0-1.2,0-2.4,0.1-3.6v0.1c0-0.5,0.1-0.7,0.2-0.9c0.1-0.3,0.2-0.5,0.3-0.8c0,0,0-0.1,0.1-0.1
	c0.5-0.3,0.9-0.7,1.4-1l0.6-0.9c0.1-0.5,0.1-1,0.1-1.5l-0.2-0.3c-0.2-0.3-0.6-0.6-1.1-0.8v-0.2l-0.2-0.3c-0.2-0.2-0.3-0.4-0.5-0.5
	c0.1-0.7,0.1-1.4,0.1-2.1l-0.4-0.7c-0.3-0.4-0.5-0.6-0.9-0.9c-0.4-0.2-0.8-0.5-1.7-0.5c-0.8-0.1-1.6-0.1-2.4-0.1
	c-1.5,0.4-3.1,0.5-4.6,0.3c-0.6-0.1-1.2,0-1.9,0c-0.1,0-0.2,0-0.3,0h-0.2c-1,0-1.8,0.4-2.5,1.2c-1-1.2-2.3-1.8-4-1.7
	c-0.7,0-1.3,0.1-2,0.1c-0.5,0.2-1,0.2-1.5,0.1l-0.3-0.1c-1.4-0.1-2.8,0-4.2,0.3c-0.4,0.1-0.7,0.3-1.1,0.4l-1.7-0.5H295l0,0
	c-0.7-0.1-1.5-0.2-2.2-0.1c-0.2,0-0.5,0.1-0.7,0.1c-0.6,0-1.3,0-1.9,0l0,0c-0.2-0.1-0.5-0.1-0.7-0.2c-1.4-0.1-2.8,0-4.1,0.2
	c-1.9,0.3-2.9,1.4-3,3.3c0,0.4,0,0.8-0.1,1.2c0.1,0.4,0.2,0.8,0.3,1.2c0.3,0.3,0.7,0.8,1,1s0.6,0.4,0.9,0.5v0.7
	c0,0.3-0.1,0.6-0.2,0.9c-0.3,0.6-0.5,1.2-0.7,1.8c-0.1,0.2-0.2,0.4-0.4,0.7l-0.2,0.5c-0.2,0.2-0.3,0.5-0.4,0.7l-0.1,0.2
	c-0.2,0.3-0.3,0.7-0.4,1l-0.5,0.3V96c-0.1,0.3-0.2,0.6-0.3,0.8c-0.2-0.6-0.4-1.1-0.7-1.6c0,0-0.2-0.3-0.3-0.4c0-0.1-0.1-0.4-0.1-0.4
	s-0.1-0.2-0.2-0.2c0-0.1-0.1-0.4-0.1-0.4l-0.1-0.2c-0.1-0.5-0.3-0.9-0.5-1.4c0,0,0,0,0-0.1c0.2-0.3,0.5-0.6,0.7-0.9
	c0.1-0.1,0.6-0.6,0.6-0.6s0.5-0.7,0.6-0.8c0.2-0.4,0.3-0.8,0.3-1.2c0-0.5,0-0.9,0-1.4l-0.2-1c0,0-0.2-0.1-0.5-0.2
	c-0.1-0.1-0.2-0.1-0.2-0.1l-0.5-0.1v-0.1v-1.2h-0.6c0-0.4,0-0.9,0-1.3V83v-2.4h-2.1c-1.5-0.4-3.2-0.3-4.7-0.2l-1.3,0.3
	c-1.4-0.2-2.7-0.2-4.1-0.3c-2.6,0.1-4.5,1.4-4.5,4c0,0.6,0.3,1.7,0.8,2.2l0.3,0.4c0.4,0.2,0.8,0.5,1.2,0.8l0.8,0.3l0.2,0.3l0.1,0.1
	l0.5,0.8c0.1,0.4,0.3,0.7,0.5,1.1c0.1,0.4,0.2,0.8,0.4,1.2c0,0.2,0.1,0.4,0.1,0.6c0.2,0.6,0.4,1.2,0.7,1.8l0.3,0.5v0.7l0.9,0.7
	c0.1,0.2,0.2,0.4,0.3,0.6l0,0c0.2,0.6,0.4,1.2,0.6,1.7l0.3,0.4c0.1,0.4,0.3,0.7,0.5,1.1c0,0.9,0.2,1.9,0.4,2.8l0.3,0.5
	c0.1,0.2,0.2,0.4,0.2,0.6l0.5,0.7c0,0.1,0.1,0.2,0.1,0.3v0.1c0.1,0.4,0.1,0.8,0.2,1.2c0.2,0.3,0.5,0.7,0.7,1l0.1,0.1
	c0,0.3,0,0.7,0.1,1c0.2,0.7,0.4,1.4,0.6,2.1l0.2,0.3c0.1,0.4,0.2,0.8,0.4,1.2v0.3v0.1v0.5l0.4,0.4c0.1,0.2,0.1,0.4,0.2,0.5l0.2,0.3
	l0.1,0.4c1.6,1,3.1,2.2,4.5,3.6c1.2,3.3,4.4,0.7,5.2-1c0,0,0.1-0.4,0.1-0.5c0.2-0.4,0.3-0.7,0.4-1.1v-0.2c0.1-0.2,0.1-0.5,0.1-0.5
	l-0.1,0.6c0.2-0.4,0.3-0.7,0.5-1.1c0.2-0.9,0.5-1.9,0.8-2.8l0,0c0.1-0.3,0.2-0.5,0.3-0.8c0-0.1,0.1-0.1,0.1-0.2c0,0,0.1-0.5,0.1-0.6
	l0,0c0,0.1,0,0.2,0,0.2l0.1-0.2c0.9-1.5,1.6-3.2,2.2-4.8c0.1-0.7,0.2-1.4,0.5-2c0.7-1.5,1.3-3.1,1.8-4.6c0.3-0.5,0.7-1,1.1-1.5
	c0.1-0.5,0.2-1,0.3-1.5l0.1-0.1l0,0c0,0,0.1-0.2,0.1-0.3c0.2-0.2,0.6-0.6,0.6-0.6c0.3-0.6,0.6-1.1,0.8-1.8c0.1-0.1,0.1-0.2,0.2-0.4
	c0.4-0.3,0.7-0.7,1.1-1l-0.1,0.1c0.1-0.1,0.3-0.2,0.4-0.3l0,0c0,0,0,0,0.1-0.1c0.1,0,0.8-0.3,0.8-0.3l0,0c0,3.8,0,7.6,0,11.4
	c-0.1,2,0.6,5.2-0.1,6.9l-0.1,0.1l-1.2,1.1l-0.1,0.2c-0.3,0.3-0.6,0.6-0.9,0.9c-0.1,0.6-0.1,1.1-0.1,1.7c0.2,2,1.2,3.1,3.2,3.4h0.2
	c1,1,2,1.8,3.1,2.6c0.5,0,1,0,1.4,0.1c0,0,0.3,0,0.4,0s0.3,0,0.3,0h0.7h0.2h0.2c0,0,0.9-0.2,1.1-0.3h0.1c0,0,0.2,0,0.2-0.1h0.4
	c0.5,0.1,1.1,0.2,1.6,0.3c0.5,0,0.9,0,1.4,0s0.9-0.1,1.3-0.2c0.9-0.1,1.6-0.7,2-1.4c1.6,0.9,1.3,1.6,3.4,1.6h0.3c0,0,0.2,0,0.3-0.1
	c0.1,0,0.5,0,0.5,0s0.4-0.1,0.5-0.1c0.4,0,0.7,0,1.1,0c0.8-0.1,1.4-0.2,2.2-0.3c0.2,0,0.7,0,0.8,0c0.2,0,1,0.2,1,0.2
	c1.8,0.1,3.5,0.2,5.3,0.1c0.7-0.1,1.5-0.2,2.2-0.3h0.1c0.1,0,0.4,0.1,0.4,0.1c0.8,0,1.6,0.1,2.4,0c0.9-0.1,1.8-0.2,2.7-0.3
	c0.5-0.1,1.1-0.3,1.4-1.1c1.6,0.9,1.4,1.7,3.5,1.7h0.3c0,0,0.2,0,0.3-0.1c0.1,0,0.5,0,0.5,0s0.4-0.1,0.5-0.1c0.4,0,0.7,0,1.1,0
	c0.8-0.1,1.4-0.2,2.2-0.3c0.1,0,0.7,0,0.8,0c0.2,0,1,0.2,1,0.2c1.8,0.1,3.5,0.2,5.3,0.1c0.7-0.1,1.5-0.2,2.2-0.3h0.1
	c0.1,0,0.4,0.1,0.4,0.1h0.4c0.7,0.1,1.3,0.1,2,0c0.9-0.1,1.8-0.2,2.7-0.3c0.7-0.1,1.4-0.5,1.6-1.6c0,0,0.1,0.1,0.2,0.2l0.1,0.5h0.6
	c0.1,0.3,0.2,0.5,0.2,0.5c0.1,0.1,0.2,0.2,0.4,0.3c0.1,0.2,0.2,0.5,0.2,0.5s1.3,0,1.7,0l0,0c2.5,0.2,5.1,0.2,7.6,0.1
	c0,0,0.1-0.1,0.2-0.2c0.6,0,1.4,0,1.5,0c0.2,0,1.3,0.2,1.3,0.2s2.4,0,2.8,0c0.1,0,0.6,0.3,0.6,0.3c0.3-0.1,0.5-0.1,0.8-0.2
	c1.8,0.1,3.6,0.1,5.4-0.1c0,0,0.4-0.1,0.5-0.1h0.2c0,0,0.2,0,0.3-0.1h2c0.1,0,0.3,0.1,0.3,0.1h0.5c0.4,0.1,0.7,0.1,1.1,0.2
	c0.8,0,1.7,0,2.5-0.1h-0.2c0,0,0.1,0,0.2-0.1c0.1,0,0.3,0,0.3,0c1.1,0,2.4-0.8,2.4-3.1v-3l-0.1-0.3V111c0-0.1,0.1-0.5,0.1-0.5
	c0-0.9,0-1.8,0.1-2.7l-0.3-1.2L396,106l-0.2-0.2l-0.5-0.3h-0.1v-0.1l-0.1-0.1v-0.4l-0.4-0.2c0-0.3,0-0.5,0-0.8
	c-0.1-0.5-0.2-0.9-0.3-1.4v-0.8l-1.9-1.2c-0.7-0.2-1.3-0.3-2-0.5l-0.5,0.4l-0.2-0.1c0-1.5,0-3.1,0.1-4.6c-0.1-0.3-0.1-0.6-0.1-1
	c0,0-0.3-0.5-0.4-0.7v-0.1c0.1-0.1,0.4-0.6,0.4-0.6v-0.4v-0.1c0-0.3,0.1-0.6,0.1-0.9v0.2c0.1-0.6,0.1-1.2,0.1-1.9
	c-0.2-0.6-0.3-1.1-0.4-1.7l-0.8-1c0,0-0.1,0-0.3,0c-0.1-0.1-0.1-0.1-0.1-0.1l0,0v-0.1l-0.2-0.3v-0.8c-0.2-0.7-0.4-1.4-0.5-2.1
	c-0.5-0.6-0.9-1.1-1.4-1.7H386l-0.1-0.1h-2.1c-1.7,0.2-2.8,1-3.5,2.4l-0.2,0.4c-0.2,0.2-0.4,0.4-0.6,0.6h-0.1l-0.3,0.2
	c0-0.2-0.1-0.4-0.3-0.5c0.3-1,0.4-2,0.7-3.1l-0.1-0.4v-0.4c0-0.1,0.1-0.4,0.1-0.4v-0.6c0,0-0.3-1.6-0.3-1.8c0-0.5,0-0.9,0-1.4
	c0.6-0.1,1.3-0.2,1.9-0.3c0.1,0,0.3,0.1,0.3,0.1h-0.2l0.4,0.1c0.2,0,0.4,0,0.5,0.1h0.2h0.1c0.1,0.1,0.2,0.2,0.3,0.2
	c0.1,0.1,0.3,0.4,0.3,0.4l1.7,0.3c0,0,0.6-0.3,0.7-0.4s0.5-0.2,0.6-0.2s0.2,0.1,0.2,0.1c0.3-0.1,0.7-0.2,1-0.3
	c0.2,0.1,0.4,0.2,0.7,0.2l0.1,0.1c0,0,0.6,0.3,0.7,0.4c0.1,0.3,0.3,0.6,0.3,0.6s0.2,0,0.4-0.1c0.2,0.2,0.4,0.5,0.6,0.7
	c0.3,0.3,0.6,0.5,0.8,0.8c0.3,0.2,0.7,0.4,1,0.6c0.3,0.1,0.7,0.2,1,0.2c0,0,0.1,0.1,0.1,0.2c0.2,0.2,0.5,0.4,0.7,0.7
	c0.1,0.1,0.2,0.1,0.3,0.2l0.3,0.4l0.7,0.7l0.4,0.3l-0.3-0.2l1.7,0.7l0.1-0.5l1-0.6l0.6-0.8c0.2-0.9,0.2-1.8,0.2-2.7
	c0,0,0-0.2-0.1-0.3C398.1,79,398.1,78.8,398.1,78.8 M281.1,86.5L281.1,86.5C281,86.4,281.1,86.5,281.1,86.5z M286.1,115L286.1,115
	C286.1,115.1,286.1,115,286.1,115L286.1,115 M286.1,114.9L286.1,114.9c0-0.2,0-0.3,0-0.3S286.1,114.8,286.1,114.9 M312,93.9
	c-0.1,0.2-0.2,0.5-0.2,0.7v0.3v0.2c-0.1,1.1,0,2.2,0.1,3.2c-0.1,0.6-0.1,1.2-0.1,1.7v0.2c-0.1,0.7-0.2,1.5-0.3,2.2l0.3,1.3
	c0,0.2,0,0.4,0,0.6l0.1,0.3c0,1.4-0.1,2.7-0.1,4.1l-0.1,0.4c-0.4,0.4-0.8,0.6-1.2,1l-0.1-0.1c0-0.5,0-1.1,0-1.1
	c-0.1-0.2-0.1-0.4-0.1-0.6c0-0.1,0-1.2,0-1.2V107c0.2-1,0.2-1.9,0.2-2.9c-0.1-0.9-0.1-1.8-0.1-2.7l-0.1-0.4c-0.3-2.9-0.1-6,0.2-8.8
	c0-0.3,0.1-0.6,0.3-0.8c0.4-0.4,0.8-0.8,1.2-1.2C312,91.3,312,92.6,312,93.9 M380.6,98.1c0,0.1,0.1,0.1,0.1,0.2
	C380.7,98.3,380.6,98.2,380.6,98.1l-0.1-0.1L380.6,98.1 M378.7,97.3c0.4,0.2,0.5,0.3,1,0.5h0.1c0.3,0.1,0.6,0.2,0.9,0.5l0,0
	c0,0,0,0,0.1,0c0.3,0.3,0.6,0.5,0.9,0.8h0.1c0.5,0.3,1.1,0.5,1.7,0.6c0.3,0.5,0.7,0.8,1.1,1l0,0c0.4,0.9,1.4,1.5,2.4,1.6l-0.1,0.1
	c-0.2,0.4-0.3,0.7-0.4,1.1l-0.3,0.4l-0.1,0.3c-0.1,0.2-0.2,0.3-0.3,0.5l-0.4,1.1c-0.1,0.1-0.2,0.2-0.3,0.3l-0.1,0.2
	c-0.2,0.2-0.5,0.4-0.7,0.6l-0.2,0.3c-0.1,0.1-0.2,0.1-0.3,0.2l-0.1,0.1H382c-0.4,0.1-0.7,0.1-1.1,0.2c-0.3,0.2-0.6,0.4-0.9,0.7
	l-0.7,0.1c-0.2,0-0.4-0.1-0.5-0.1c0.1-0.6,0.1-1.3,0.1-1.9c0,0-0.2-0.5-0.3-0.7c0-0.7,0-1.4-0.1-2.1c0-0.2,0.1-0.4,0.1-0.6
	c0.1-0.1,0.3-0.6,0.3-0.6c-0.2-0.6-0.1-1.3,0.1-1.8c0,0-0.1-0.6-0.1-0.7s0-0.6,0-0.6c-0.1-0.4-0.2-0.8-0.3-1.1c0,0-0.2-0.5-0.3-0.6
	l0,0C378.4,97.3,378.5,97.3,378.7,97.3 M271.4,114.4l-0.5-0.4c-0.1-0.3-0.3-0.5-0.5-0.7c0-0.2,0.1-0.3,0.1-0.5v-0.4
	c0.1-1-0.6-2.4-1.5-3l-0.8-0.6c0-0.1-0.1-0.1-0.1-0.2c-0.4-1.1-0.8-2.2-1.1-3.4c-0.2-0.3-0.4-0.6-0.6-1c0-0.2-0.3-1-0.3-1
	s-0.5-1-0.6-1.2c-0.1-0.3-0.1-0.5-0.1-0.8c-0.2-0.8-0.5-1.7-0.7-2.5c0-0.1-0.1-0.6-0.1-0.6c-0.3-0.8-0.5-1.7-0.9-2.5
	c0-0.2-0.4-1.7-0.4-1.7s-0.2-0.3-0.3-0.4c-0.2-0.7-0.5-1.4-0.8-2.1l0,0c0-1-0.8-2.4-1.2-3.3c0-0.1,0-0.4,0-0.4s-0.1-0.4-0.2-0.5
	c0-0.2-0.2-1.1-0.2-1.1c-0.1-0.4-0.3-1-1.2-1.3c-0.1-0.3-0.2-0.6-0.3-0.9c0-0.1,0-0.2,0-0.4l-0.2-0.5l-0.2-0.9c-0.1-0.9-1-2-1.8-2.3
	c-0.7-0.3-1.3-0.3-1.8-0.3c-0.4,0-0.8,0-1.3,0.1c-0.8,0.1-2.1,1-2.4,2c-0.3,1.1-0.5,2.2-0.6,3.4l-0.3,1c-0.7,1.8-1.5,3.7-2.4,5.4
	c-0.3,1-0.6,2-1.1,2.9l-0.2,0.3l-0.1,0.5c-0.2,0.4-0.3,0.8-0.5,1.2v0.1c-0.1,0.4-0.2,0.8-0.3,1.2l-0.7,1c-0.3,0.9-0.6,1.8-1.1,2.7
	c-0.1,0.5-0.2,0.9-0.3,1.4v0.5c-0.2,0.2-0.5,0.5-0.7,0.7l-0.3,0.2l-0.2,0.3c-0.4,0.6-0.8,1.3-1.1,1.9v0.1c-0.2,0.4-0.4,0.8-0.7,1.1
	c-0.2,0.2-0.4,0.4-0.6,0.7c-0.3,0.2-0.7,0.4-1,0.6c-1.1,0.5-1.8,1.4-2.2,2.5v-0.1c-0.5-0.3-0.9-0.7-1.4-1.2
	c-0.1-1.3-0.1-2.5-0.1-3.8c0,0,0-0.1-0.1-0.1c0-0.1-0.1-0.6-0.1-0.6v0.1c-0.1-0.4-0.1-0.8-0.1-1.3c0,0-0.1-0.1-0.1-0.2
	c0-0.6,0-1.2,0.1-1.8c0.1-0.7,0.1-1.5,0-2.2c0,0,0-0.1,0-0.3c0-2.9-0.3-6.1,0.1-9l0.1,0.1c0,0,0.1-0.1,0.2-0.2
	c0.3,0.5,0.6,1.1,0.8,1.7c0.7,0.1,1.5,0.3,2.3,0.3c0.2,0.4,0.4,0.8,0.5,1.2L240,94c0.2,0.4,0.4,0.8,0.5,1.2l1.3,0.2l1.5-0.3v-0.2
	l0.4-0.3c0.1-0.5,0.3-1,0.5-1.6c0,0,0-0.2-0.1-0.3c0-0.2,0-0.4,0-0.6c0-0.4,0.1-0.6,0.1-0.7l0.4-0.7v-0.2c0.1-0.1,0.2-0.4,0.2-0.4
	l0.1-0.5c0.1-0.6,0.1-1.2,0.1-1.8c0,0.7-1.7-2.6-2-2.8c0-0.4,0-0.7,0-1.1c-0.2-2.1-1.3-3.1-3.4-3.3h-0.4l-0.5,0.1c-1,0-2,0.1-3,0.2
	c-0.4-0.2-0.7-0.3-1.1-0.4c-1.9-0.1-3.8,0-5.7,0.1l-0.5,0.2l-0.7,0.2c-0.2,0-0.3,0-0.5,0l-0.2-0.1c-0.7-0.1-1.4-0.2-2.1-0.3
	c-0.4-0.1-0.7-0.3-1.1-0.4c-1.3,0.1-2.6,0.2-3.9,0.4h-0.1l-0.4-0.1c-0.2-0.2-0.4-0.3-0.6-0.5c-0.7-0.1-1.3-0.1-2-0.1s-1.4,0.2-2,0.6
	c-0.6,0.2-1,0.6-1.3,1c-0.9-0.8-2.1-1.1-3.4-1.1c-0.7,0-1.3,0.1-2,0.1c-0.5,0.2-1,0.2-1.5,0.1l-0.3-0.1c-1.4-0.1-2.9,0-4.3,0.3
	c-0.7,0.3-1.4,0.6-2.1,0.8v1.9c0,0.5,0.1,1.1,0.4,1.6c0.1,0.2,0.2,0.5,0.5,0.8c0.2,0.2,0.4,0.4,0.6,0.6c0.1,0.2,0.1,0.3,0.2,0.5
	l0.2,0.4c0,1.4,0.3,2.9,0.3,4.3c-0.1-0.3-0.4-0.8-0.4-0.8c-0.3-0.3-0.5-0.6-0.7-0.9c-0.2-0.7-0.3-1.3-0.5-2c-0.4-0.5-0.7-1.1-1-1.7
	c-1.8-2.6-4.3-4.4-7.3-5.2l-1.1-0.1c-1.7-0.5-3.4-0.8-5.1-0.7h-0.1H185l0,0c-0.2,0-0.4,0-0.6,0.1l-1.5,0.2c-1.4-0.3-2.8-0.3-4.1-0.1
	c-0.5,0-1.1,0-1.9,0.4c-0.9,0.4-1.6,1.6-1.6,2.3c-0.1,0.3-0.1,0.5-0.1,0.8c0,1,0.2,1.5,0.5,2.2l0.3,0.7l1.1,0.7l0.1,0.3
	c0.1,0.7,0.1,1.5,0.1,2.2l0.1,0.4c0.1,1.5,0.1,3,0,4.5l0,0c0,0.2,0,0.4,0,0.5v0.1c0,2.3,0.1,4.6,0,6.9c-0.1,0.9-0.2,1.7-0.3,2.6
	c0.1,0.7,0.1,1.5,0.1,2.2c-0.1,0.7-0.2,1.3-0.3,2l0,0L176,110c-0.4-0.4-0.9-0.8-1.5-1.2c0-0.1-0.1-0.1-0.1-0.2
	c-0.3-1.1-0.8-2.2-1.1-3.4c-0.2-0.3-0.4-0.6-0.6-1c0-0.2-0.3-1-0.3-1s-0.5-1-0.6-1.2c-0.1-0.3-0.1-0.5-0.1-0.8
	c-0.2-0.8-0.5-1.7-0.7-2.5c0-0.1-0.1-0.6-0.1-0.6c-0.3-0.8-0.6-1.7-0.9-2.5c0-0.2-0.4-1.7-0.4-1.7s-0.2-0.3-0.3-0.4
	c-0.7-1.8-1.3-3.6-2-5.4c0-0.1,0-0.4,0-0.4s-0.1-0.4-0.2-0.5c0-0.2-0.2-1.1-0.2-1.1c-0.1-0.4-0.3-1-1.2-1.3
	c-0.1-0.3-0.2-0.6-0.3-0.9c0-0.1,0-0.3-0.1-0.4l-0.2-0.5l-0.2-1c-0.1-0.9-1-1.9-1.7-2.2c-0.7-0.3-1.3-0.3-1.8-0.3
	c-0.4,0-0.8,0-1.3,0.1c-0.8,0.1-2.1,1-2.4,2c-0.3,1.1-0.5,2.2-0.5,3.4l-0.3,1.1c-0.7,1.8-1.5,3.6-2.4,5.4c-0.3,1-0.6,2-1.1,2.9
	l-0.2,0.3l-0.1,0.5c-0.2,0.4-0.3,0.8-0.5,1.1v0.2c-0.1,0.4-0.2,0.8-0.3,1.2l-0.7,1c-0.3,0.9-0.7,1.8-1.1,2.6
	c-0.1,0.5-0.2,0.9-0.3,1.4v0.5c-0.2,0.3-0.5,0.5-0.7,0.7l-0.2,0.2c-0.4,0.5-0.8,1-1,1.6c-0.2-0.3-0.5-0.4-0.9-0.5
	c0-0.4-0.2-0.7-0.5-1c0.2-1.9-0.6-4.3-3-4.2h-0.4c-0.1,0-0.2,0-0.3,0H142h-0.1c-1.9,0.1-3.9,0.1-5.8,0.1c-0.6,0.1-1.3,0.2-1.9,0.2
	c-0.5,0.2-1.1,0.5-1.6,0.7l-1.5,2.1l0.4,1.2c0,0.1,0,0.1,0,0.2c0.2,1.1,1.1,2,1.9,2.4c0.5,0.2,0.9,0.3,1.4,0.4v0.2
	c-0.1,0.3-0.1,0.6-0.2,0.9v0.1c-0.4,0-0.8,0-1.1-0.1l-0.5,0.1c-0.7-0.1-1.3-0.2-2-0.2c-1.3-0.1-2.5-0.5-3.6-1
	c-0.1-0.4-0.2-0.8-0.2-1.3c0-0.1,0-0.3,0-0.3s0,0,0-0.1s0.1-0.6,0.1-0.6s-0.1-0.5-0.2-0.6c0-1.1-0.1-2.1-0.1-3.2l-0.2-0.7l0.1,0.4
	l-0.4-0.9c0.1,0.2,0.3,0.8,0.3,0.8s-0.2-0.7-0.3-0.9l0,0c0.1,0.2,0.3,0.5,0.3,0.5c0-0.2-0.1-0.5-0.1-0.7c0.3-0.4,0.5-0.8,0.6-1.2
	c0,0,0-0.4,0-0.5c0.1-0.3,0.3-0.6,0.4-0.9l0.1-1c0-0.2,0.7-1.1,0.9-1.3c0,0,0-0.1,0-0.2l0.1-0.2c0,0,0-0.2,0.1-0.3
	c0.1-0.2,0.1-0.3,0.2-0.5c0.6-0.6,1.3-1.1,2-1.6c0.6-0.3,1.2-0.6,1.8-0.9c0.3,0.1,0.6,0.2,0.9,0.2h0.1h0.1c0,0,0.5,0,0.7,0h0.1
	c1,0.2,2.1,0.3,3.1,0.5l0.1,0.3l0.3,0.4c0.1,0.2,0.2,0.4,0.3,0.6c0.3,0.3,0.6,0.5,1,0.8c0.1,0.1,0.2,0.2,0.2,0.4
	c0.3,0.3,0.6,0.6,0.9,0.8l1.4,0.2l0.4,0.3c0.1,0.1,0.2,0.3,0.3,0.4l0.1,0.1c0,0.1,0.1,0.1,0.1,0.1c0.3,0.2,0.6,0.5,0.9,0.7
	c0.1,0.1,0.3,0.4,0.3,0.4l0.5,0.5l1.1,0.2h0.2c0.9,0,1.9-0.7,1.9-2.2c0-1.8-0.1-3.7-0.2-5.5v0.3v-0.5c0-1-0.5-1.7-1.4-2l0,0
	c-0.1-0.3-0.3-0.6-0.5-0.8c0-0.4-0.1-0.7,0-1.1c0-1.6-0.8-2.6-2.2-3.2c-1.6-0.7-3.3-1.3-4.9-1.9c-1.3-0.6-2.6-0.8-4-0.8
	c-1.9,0-3.8,0.1-5.7,0.2c-0.5,0.1-1,0.3-1.6,0.5l-0.3,0.3c-0.6,0.1-1.1,0.3-1.6,0.4H125l-0.4,0.3c-0.3,0.1-0.5,0.2-0.8,0.4h-0.1
	c-0.5,0.2-0.8,0.3-1.2,0.6c-1.3,1-2.5,2-3.7,3.1c-0.3,0.5-0.7,0.9-1.2,1.4c-0.2,0.3-0.4,0.6-0.6,0.9l-0.2,0.4l-0.2,0.2
	c-0.1,0.1-0.1,0.2-0.1,0.3l0,0c-0.1,0.2-0.2,0.4-0.3,0.5c-0.1,0.2-0.2,0.3-0.3,0.5l0,0c-0.1-0.7-0.3-1.3-0.4-2
	c-0.4-0.5-0.7-1.1-1-1.7c-0.4-0.4-0.7-0.8-1-1.3c-1.7-1.9-3.8-3.3-6.3-3.9l-1.1-0.1c-1.6-0.5-3.4-0.8-5.1-0.7h-0.1H100l0,0
	c-0.2,0-0.4,0-0.6,0.1l-1.5,0.2c-1.4-0.3-2.8-0.3-4.1-0.1c-0.5,0-1.1,0-1.9,0.4c-0.9,0.4-1.6,1.6-1.6,2.3c0,0.3-0.1,0.5-0.1,0.8
	c0,1,0.2,1.5,0.5,2.2l0.3,0.7l1.1,0.7l0.1,0.3c0.1,0.7,0.1,1.5,0.1,2.3l0.1,0.4c0.1,1.5,0.1,3,0,4.5l0,0c0,0.2,0,0.3,0,0.5V96
	c0.2,3.2,0.1,6.3-0.2,9.4c0.2,1.4,0.2,2.9-0.2,4.3l0,0l-0.7,0.4c-0.4-0.4-0.9-0.8-1.5-1.2c0-0.1-0.1-0.1-0.1-0.2
	c-0.3-1.1-0.8-2.2-1.1-3.4c-0.2-0.3-0.4-0.6-0.6-1c0-0.2-0.3-1-0.3-1s-0.5-1-0.6-1.2c-0.1-0.3-0.1-0.5-0.1-0.8
	c-0.2-0.8-0.5-1.6-0.7-2.5c0-0.1-0.1-0.6-0.1-0.6c-0.3-0.8-0.6-1.7-0.9-2.5c0-0.2-0.4-1.7-0.4-1.7s-0.2-0.3-0.3-0.4
	c-0.7-1.8-1.3-3.6-2-5.4c0-0.1-0.1-0.4-0.1-0.4s-0.1-0.4-0.2-0.5c0-0.2-0.2-1.1-0.2-1.1c-0.1-0.4-0.3-1-1.2-1.3
	c-0.1-0.3-0.2-0.6-0.3-0.9c0-0.1,0-0.3-0.1-0.4l-0.2-0.5l-0.2-1c-0.1-0.9-1-1.9-1.7-2.2c-0.7-0.3-1.3-0.3-1.8-0.3
	c-0.4,0-0.8,0-1.3,0.1c-0.8,0.1-2.1,1-2.4,2c-0.3,1.1-0.5,2.2-0.5,3.4l-0.3,1.1c-0.7,1.8-1.5,3.7-2.4,5.4c-0.3,1-0.6,2-1.1,2.9
	l-0.2,0.3l-0.1,0.5c-0.2,0.4-0.3,0.8-0.5,1.2v0.1c-0.1,0.4-0.2,0.8-0.3,1.2l-0.7,1c-0.3,0.9-0.6,1.8-1.1,2.6
	c-0.1,0.5-0.2,0.9-0.3,1.4v0.5c-0.2,0.3-0.5,0.5-0.7,0.7l-0.2,0.2c-0.5,0.7-1,1.4-1.3,2.2v0.2c-0.2,0.4-0.4,0.7-0.7,1.1
	c-0.2,0.2-0.4,0.4-0.6,0.7c-0.3,0.2-0.7,0.4-1,0.6c-0.6,0.4-1,0.7-1.5,1.2l-0.1,0.1c-0.1-0.3-0.3-0.6-0.5-0.9V109
	c-0.3-1.1-0.4-2-0.7-3c0-1.5,0-3.1,0-4.6c0.1-0.2,0.4-0.7,0.4-0.7v-0.1c0-0.1,0.2-0.4,0.2-0.4l0.1-0.9c-0.3-1.6-0.6-3.2-0.7-4.8
	c0-0.8,0-1.5,0.2-2.3c0,0,0-0.4,0-0.5c0.3-1.4,0.1-2.9,0.3-4.4l0.2-0.3c0.1-1.4,0.2-2.8,0.1-4.3L57.3,82c0-1.9,0.2-2.3,0.3-2.4
	c0.1-0.2,0.3-0.3,0.4-0.5c0.1-0.1,0.6-0.5,0.6-0.5s0.2-0.3,0.3-0.4c0.2-0.1,1.1-0.5,1.1-0.5s0-0.3,0.1-0.6c0-0.1,0.1-0.2,0.1-0.2
	S60,77,60,77.1c0,0,0,0,0-0.1c0.3-0.4,0.6-1,0.6-1.6l-0.4,0.9l0.4-1.1c-0.6-1.1-1.3-2.1-2-3.2c0.1-0.5,0.1-0.7,0.1-0.7
	c-0.4-2.6-1.8-4-4.4-4.2h-0.5c-0.2,0.1-0.4,0.1-0.6,0.2l-1-0.3h-1.5l-0.3-0.2c-1.7-0.1-3.4-0.1-5.2,0c-0.5,0.1-0.9,0.2-1.4,0.2
	l-0.3,0.1l-1.2,0.4c-0.6,1.5-1.1,3.1-1.7,4.6c-0.1,0.4-0.2,0.9-0.3,1.3c-0.4,0.9-0.7,1.8-0.9,2.7c-0.1,0.2-0.3,0.3-0.4,0.5l-0.1,0.3
	c-0.1,0.1-0.2,0.3-0.3,0.4l-0.2,0.5c-0.2,0.3-0.4,0.5-0.6,0.8c-0.2,0.4-0.4,0.7-0.5,1.1l-0.1,0.5L36.5,82l-0.1,0.5
	c-0.7,1-1.3,2.1-1.7,3.3c-0.2,1.1-0.4,2.2-0.5,3.3c-0.1,0.2-0.1,0.3-0.2,0.5l-0.1,1.1c-0.1,0.3-0.2,0.5-0.3,0.8l-0.1,0.3l-0.2,0.3
	l-0.2,0.7c-0.2,0.4-0.4,0.8-0.6,1.2c-0.1,0.6-0.3,1.2-0.4,1.8l-0.4,0.7l0,0c0-0.1-0.1-0.4-0.1-0.4c-0.6-1.6-1.7-3.2-2.1-4.8
	c0-0.1,0-0.4,0-0.4l-0.4-1.4l-0.5-0.2l-1-2.1v-0.3c-0.2-0.7-0.4-1.4-0.6-2.1c-0.4-0.2-0.9-0.4-1.3-0.6l-0.3-0.5c0,0-0.2-0.3-0.4-0.6
	c0-0.4,0-0.7,0-1.1l-0.4-0.4V81L24,80.5c-0.2-0.6-0.5-1.2-0.8-1.7c-0.4-0.5-0.8-1.1-1.1-1.7l0,0c0-0.1,0-0.1,0-0.1s0.1-0.5,0.1-0.6
	c0.1-0.2,0.2-0.7,0.2-0.7v-0.9l-0.1-0.7L22,73.2c-0.2-0.2-0.4-0.3-0.6-0.5L21,72.5h-0.1c-0.1-0.3-0.3-0.7-0.4-1V71
	c0-0.3-0.1-0.6-0.1-0.9c-0.3-0.8-0.6-1.6-0.9-2.5h-1l-0.1-0.1c-0.4-0.1-0.9-0.3-1.3-0.4h-1.9l-0.3,0.2c-0.3,0-0.5,0-0.8,0
	c-0.1,0-0.2,0-0.3-0.1h-0.2c-0.2,0-0.3-0.1-0.5-0.1h-2.5l-0.2-0.3H8.1L7.3,67H6.5c-0.5-0.2-1-0.3-1.5-0.4c-0.9,0-1.8,0.1-2.7,0.2
	l-0.5,0.3c-0.2,0.1-0.4,0.2-0.6,0.2c-0.4,0.4-0.8,0.8-1.3,1.3v1.7C0,70.7,0.1,71,0.2,71.4c0.5,0.8,0.9,1.6,1.3,2.4
	c0.7,0.4,1.4,0.9,2.2,1.4h0.2c0.2,0.1,0.3,0.3,0.5,0.4v1.8c0.4,0.6,0.8,1.3,1.3,1.9v0.5L6,80.1c-0.1,0.6-0.2,1.2-0.3,1.7V82
	c-0.1,0.2-0.3,0.5-0.4,0.7c-0.1,0.5-0.1,1-0.2,1.5c0.2,1,0.6,1.9,1,2.8c-0.1,0.6-0.3,1.1-0.6,1.6l0.2,1.2c0,2.4,0.1,4.8,0.3,7.2v0.3
	c0.1,0.3,0,0.6,0,0.9c-0.1,0.2-0.1,0.4-0.2,0.6c-0.2,1.1-0.4,2.1-0.6,3.2v4.6c0,0.2-0.1,0.4-0.1,0.6v0.5C5,107.8,5,107.9,4.9,108
	c-0.1,0.3-0.3,0.7-0.4,1l-0.1,0.1L2.6,110l-1.3,2.3l0.3,2l1.6,1.9h1.6v0.2c0.3,0.4,0.6,0.7,0.9,1.1H6v0.2l0.9,1.1
	c3.1,0.1,6.7,0.6,9.8,0c0.2,0,2,0,2,0c1.2,0,2-0.8,2-2l-0.3-1.4c0,0,0,0-0.1,0v-0.1c0,0,0-0.1-0.1-0.2c0-0.1-0.5-0.8-0.5-0.8
	l0.1,0.1l-0.1-0.2c0,0,0,0,0,0.1c-0.4-0.4-0.7-0.8-1-1.3c0-0.1,0-0.1,0-0.2s0.1-0.8-0.3-1.6l-0.1-0.1v-0.2c-0.3-0.7-0.7-1.3-1.2-1.8
	l0,0c-0.2-4.4-0.2-9.3-1-13.7c0-0.2,0-1.2,0-1.2c0-0.3-0.1-0.6-0.2-0.9c0-0.1,0-0.3,0-0.4c0.5,1.1,0.7,2.3,1.1,3.5v0.1
	c0.4,0.5,0.6,1.1,0.8,1.8H18l0.5,1.1c0.6,0.7,1.2,1.3,1.8,1.8v1.2l1.5,1.8c0.3,0.2,0.6,0.5,0.8,0.7v1.3c0.1,0.5,0.2,0.9,0.3,1.4
	c0.6,1.3,1.2,2.6,1.8,3.9h0.1l0.1,0.2l0.3,0.3l0,0l0.1,0.2l0.4,0.6c0.1,0.2,0.1,0.3,0.2,0.5l0.1,0.2l0.1,0.3l0.3,0.4v0.1
	c0.4,0.7,0.6,0.8,0.6,0.8l1.8,1.6l0.6-0.6c0,0.1,0,0.1,0.1,0.2c0.2,0.4,0.3,0.4,0.4,0.4l0.9,0.8l0,0l0,0l0,0l0,0v0.1c0,0,0,0,0-0.1
	l0.1-0.1l1,2.3c0,0,0.6-1,0.9-1.4l0,0l0.9-0.7c0,0,0.9-2.5,0.9-2.8c0.2-0.3,0.3-0.6,0.5-0.9l0,0c0.2-0.1,0.3-0.3,0.5-0.4l0.4-0.6
	c0,0,0.1-0.2,0.1-0.3c0-0.1,0.1-0.2,0.1-0.2s0.1-0.3,0.2-0.4c0.1-0.1,0.3-0.5,0.3-0.5c0.5-1.8,1.1-3.6,1.9-5.2l0,0
	c0,0,0.1-0.3,0.2-0.5c0.3-0.6,0.6-1.1,0.9-1.7c0,0,0.2-0.6,0.2-0.7c0.1-0.1,0.1-0.2,0.2-0.4c0.1-0.1,0.2-0.2,0.2-0.2
	c0.1-0.2,0.3-0.4,0.4-0.6l0.2-0.4l-0.1,0.2v2.3l0.1,0.6v2.5H39v1.5c-0.1,0.1-0.2,0.2-0.3,0.3l-0.1,0.3c-0.3,0.6-0.2,0.7-0.3,0.9
	c-0.4,2.6,0.3,5.1,3.3,5.5c0,0,0,0,0.1,0c0.2,0.5,0.7,1,1.2,1.1c0.5,1.5,2.1,1.5,3.7,1.5h2.8c1.1-0.2,2.3-0.3,3.4-0.2
	c0,0,0.8-0.5,1-0.6l0,0c0.1,0,0.2-0.1,0.2-0.1s-0.1,0.1-0.2,0.1c1.1-0.1,2.1-0.3,3.2-0.1l1-0.2c0,0,0.1-0.1,0.2-0.2l0.5-0.3h-0.1
	l0.5-1.2l-0.1,0.4l0.2-0.6l0,0c0.1,0,0.3,0.1,0.4,0.1c0.1,0.2,0.3,0.4,0.4,0.5c1.4,0.9,2.9,1.6,4.4,2.3c0.2,0,0.8,0.1,1.1,0.2h-0.1
	c0.4,0,0.8,0.1,1.2,0.1l0,0c1.4-0.2,2.8-0.3,4.2-0.1c1.2,0,1.9-0.7,1.9-1.9v-0.4l-0.1-0.7l-0.1-0.3c0-0.1-0.1-0.3-0.1-0.3l0,0
	c-0.1-0.2-0.2-0.4-0.3-0.6l-0.5-0.7c0,0-0.4-0.3-0.7-0.4c0-0.1-0.1-0.1-0.1-0.2l0,0c0-0.2,0-0.5,0-0.7c0.1-0.5,0.2-1,0.4-1.5
	c0-0.1,0.3-0.3,0.3-0.3c0.2-0.6,0.3-1.3,0.5-1.9c0.1-0.1,0.3-0.4,0.3-0.4l0.4-0.8c0,0,0.4-1.4,0.5-1.8c0,0,0.2-0.1,0.3-0.2
	c0.6,0,1.2-0.1,1.7-0.1c0.3,0.8,0.6,1.5,1.1,2.2c0.1,0.3,0.1,0.6,0.2,0.9c0.2,0.4,0.4,0.9,0.5,1.3c-1.4,0.6-2.2,1.7-2.3,3.2
	c0.2,2,1.3,3,3.2,3.1H78c0.2,0.7,0.6,1.1,1.3,1.2c0.2,0.7,0.8,1.4,1.9,1.4h0.2l0.2-0.1c2.5-0.2,5,0,7.5-0.1c0.4-0.1,0.8-0.1,1.2-0.1
	l0.8-0.3l0.7-0.6c0,0,0-0.1,0.1-0.3C92,117.1,92,117,92,117c0.1,0,0.1,0.1,0.2,0.1s0.1,0,0.2,0c0.1,0.6,0.5,1.1,1.1,1.2h0.1
	c0.9,0.2,1.9,0.3,2.8,0.2h-0.1c0.5,0,0.9-0.1,1.3-0.2c0.1,0,0.2,0,0.2,0s0.1,0,0.2,0c0.8,0,1.6,0,2.4,0.1c1.9-0.2,3.8-0.4,5.7-0.6
	l0.3-1.6l-0.2-0.4c-0.3-0.5-0.6-0.9-0.9-1.1c0,0-0.2-0.1-0.5-0.3c-0.1-0.1-0.1-0.2-0.1-0.3h0.3c0.3,0.3,0.6,0.6,0.9,0.8
	c0.3,0.2,0.6,0.3,0.9,0.5l0,0c0.5,0.3,0.9,0.4,1.2,0.4c0.2,0.2,0.4,0.4,0.6,0.6l0.4,0.2c0.2,0.4,0.5,0.7,0.8,1l0.1,0.1
	c0.3,0.2,0.5,0.3,0.8,0.5h-0.1c2,0.9,3.8,0.2,5.3-2c0,0,0.2-0.4,0.3-0.6c0.1-0.1,0.4-0.6,0.4-0.6l0.4-1.3v-0.3
	c0.1,0.5-2.1-2.6-2.2-2.6l0.2-0.9l-0.1-0.5c-0.2-1.2-0.8-2-1.8-2.5c0-0.4,0-0.5-0.1-0.7c0-0.1,0-0.3,0-0.3v-0.2c0-0.1,0-0.4,0-0.4
	s-0.3-1-0.4-1.2c0-0.1,0-0.3,0-0.3l-0.2-0.8c-0.2-0.3-0.4-0.6-0.7-0.9c0.2-0.1,0.9-0.5,0.9-0.5l0.2-0.1c0.1,0.9,0.3,1.9,0.7,2.5
	l0.1,0.2c0.1,0.4,0.3,0.8,0.4,1.3l0.2,0.2c0.1,0.4,0.2,0.8,0.3,1.1c0.1,0.2,0.2,0.4,0.3,0.6l0.3,0.5l0.1,0.3l0.3,0.4
	c0.1,0.2,0.2,0.5,0.4,0.7l0.4,0.4c0.1,0.2,0.2,0.3,0.3,0.5c0.6,0.6,1.2,1.2,1.9,1.8c1,0.8,2,1.6,3,2.3c0.3,0.1,0.6,0.3,0.9,0.4
	c1,0.8,2,1.6,3,2.3c1.4,0.7,2.8,1.3,4.4,1.7c0.5,0,1.1,0.1,1.6,0.2c0.6,0,1.3,0,1.9-0.1c1.5-0.2,3.1-0.4,4.6-0.6
	c0,0,0.7-0.2,0.8-0.3c2.2-0.3,4.4-0.6,6.5-1.2c0.5-0.1,0.9-0.3,1.1-0.6c1.3,0.7,2.7,1.5,4,2.1c0.2,0,0.8,0.1,1.1,0.2h-0.1
	c0.4,0,0.8,0.1,1.2,0.1l0,0c1.4-0.2,2.8-0.3,4.1-0.1c1.2,0,1.9-0.7,1.9-1.9v-0.4l-0.1-0.7l-0.1-0.3l-0.1-0.3l0,0
	c-0.1-0.2-0.2-0.4-0.3-0.6l-0.5-0.7c0,0-0.4-0.3-0.7-0.4c0-0.1-0.1-0.1-0.1-0.2l0,0c0-0.2,0-0.5,0-0.7c0.1-0.5,0.2-1.1,0.4-1.6
	c0.1-0.1,0.3-0.3,0.3-0.3c0.2-0.6,0.3-1.3,0.5-1.9c0.1-0.1,0.3-0.4,0.3-0.4l0.4-0.8c0,0,0.4-1.4,0.5-1.8c0.1,0,0.2-0.1,0.3-0.2
	c0.6,0,1.2-0.1,1.7-0.1c0.2,0.5,0.4,1,0.6,1.5c0.1,0.2,0.3,0.4,0.4,0.7c0.1,0.3,0.1,0.6,0.2,0.9c0.2,0.4,0.4,0.9,0.5,1.3
	c-1.4,0.6-2.2,1.6-2.3,3.2c0.2,2,1.3,3,3.2,3.1h0.1c0.2,0.7,0.6,1.1,1.3,1.2c0.2,0.7,0.8,1.4,1.9,1.4h0.2l0.2-0.1
	c2.9-0.2,5.8,0,8.7-0.2l0.8-0.3l0.7-0.6c0,0,0-0.1,0.1-0.3c0.1-0.1,0.1-0.2,0.1-0.2c0.1,0,0.1,0.1,0.2,0.1c0.1,0,0.1,0,0.2,0
	c0.1,0.6,0.5,1.1,1.1,1.2h0.1c0.9,0.2,1.9,0.3,2.8,0.2H182c0.5,0,0.9-0.1,1.3-0.2c0.1,0,0.2,0,0.2,0s0.1,0,0.2,0
	c0.8,0,1.6,0,2.4,0.1c1.9-0.2,3.8-0.4,5.7-0.6l0.3-1.6l-0.2-0.4c-0.3-0.5-0.6-0.9-0.9-1.1c0,0-0.2-0.2-0.5-0.3
	c0-0.1-0.1-0.2-0.1-0.3h0.3c0.3,0.3,0.5,0.6,0.9,0.8c0.3,0.2,0.6,0.4,0.9,0.5l0,0c0.5,0.3,0.9,0.4,1.2,0.4c0.2,0.2,0.4,0.4,0.6,0.6
	l0.4,0.2c0.2,0.4,0.5,0.7,0.8,1l0.1,0.1c0.3,0.2,0.5,0.3,0.8,0.5h-0.1c2,0.9,3.8,0.2,5.3-2c0,0,0.1-0.1,0.1-0.3c1,0.9,2,1.7,3,2.4
	c0.5,0,1,0,1.4,0.1c0,0,0.3,0,0.4,0c0.1,0,0.3,0,0.3,0h0.7h0.2h0.2c0,0,0.9-0.2,1.1-0.3h0.1c0,0,0.2,0,0.2-0.1h0.4
	c0.5,0.1,1.1,0.2,1.6,0.3c0.5,0,0.9,0,1.4,0s0.9-0.1,1.3-0.2c1.3-0.2,2.2-1.2,2.2-2.3l-0.2-0.9l-0.1-0.2l-0.5-0.7l0,0l-0.4-0.3
	l-0.3-0.2v-0.1c-0.2-0.2-0.3-0.5-0.5-0.7c0.2-0.8,0.1-1.7-0.3-2.5c-0.2-0.4-0.5-0.7-0.7-1c0-0.5,0-1.1,0-1.1
	c-0.1-0.2-0.1-0.4-0.1-0.6c0-0.1,0-1.2,0-1.2c0.6-1.2,0.2-4.4,0.1-5.7l-0.1-0.4c-0.1-0.7,0-1.3-0.1-2c0-2.3,0.1-4.5,0.3-6.8
	c0-0.1,0-0.2,0.1-0.3l0.1,0.1l1.8,0.4h0.2l0.7,1.1l0.5,0.1l0.8,1.2l1.1,0.2l1.1-0.1c0.3-0.3,0.6-0.7,0.9-1c0.1-0.1,0.2-0.3,0.3-0.4
	c0.2-0.1,0.4-0.2,0.5-0.4c0.1,0.6,0.2,1.1,0.3,1.7c-0.2,4.8-0.3,9.6-0.3,14.4c-0.2,0.1-0.5,0.2-0.7,0.4c-0.8,0.7-1.6,1.5-2.3,2.3
	v1.8c0.5,0.9,1.1,1.7,1.6,2.6l1.8,0.4h0.4c0.2,0.4,0.4,0.7,0.6,1.1l0.6,0.1c0.2,0.4,0.5,0.8,0.7,1.2l1.1,0.2h0.5
	c0,0,0.6-0.2,0.7-0.3h0.4h0.1c0.1,0,0.5,0,0.5,0s0.1-0.1,0.2-0.2c0,0,1.3,0,1.7,0c0.1,0.1,0.1,0.1,0.1,0.1s4,0,4.4,0
	c0.1,0,0.5,0.2,0.5,0.2c0.5,0,1,0.1,1.5,0.2h1.1l1-1v-0.9c0-0.2-0.1-0.4-0.1-0.6l-0.1-0.4v0.1l-0.3-0.6l0.2,0.3l-0.4-0.6l0,0
	c-0.2-0.2-0.4-0.3-0.6-0.5c0,0-0.1,0-0.1-0.1l0,0l-0.1-0.1v-0.2c0.7,0.7,1.7,1.1,2.6,1.3c0.1,0.2,0.3,0.4,0.4,0.5
	c1.4,0.9,2.9,1.6,4.4,2.3c0.2,0,0.8,0.1,1.1,0.2h-0.1c0.4,0,0.8,0.1,1.2,0.1l0,0c1.4-0.2,2.8-0.3,4.1-0.1c1.2,0,1.9-0.7,1.9-1.9
	v-0.4l-0.1-0.7l-0.1-0.3c0-0.1-0.1-0.3-0.1-0.3h-0.1c-0.1-0.2-0.2-0.4-0.3-0.6l-0.5-0.7c0,0-0.4-0.3-0.7-0.4c0-0.1-0.1-0.1-0.1-0.2
	l0,0c0-0.2,0-0.5,0-0.7c0.1-0.5,0.2-1.1,0.4-1.6c0.1-0.1,0.3-0.3,0.3-0.3c0.2-0.6,0.3-1.3,0.5-1.9c0.1-0.1,0.3-0.4,0.3-0.4l0.4-0.8
	c0,0,0.4-1.4,0.5-1.8c0,0,0.2-0.1,0.3-0.2c0.6,0,1.2-0.1,1.7-0.1c0.2,0.5,0.4,1,0.6,1.5c0.1,0.2,0.3,0.4,0.4,0.7
	c0.1,0.3,0.1,0.6,0.2,1l0.2,0.5c0.1,0.3,0.2,0.5,0.2,0.8c-1.4,0.6-2.2,1.7-2.3,3.2c0.2,2,1.3,3,3.2,3.1h0.1c0.2,0.7,0.6,1.1,1.3,1.2
	c0.2,0.7,0.8,1.4,1.9,1.4h0.2l0.2-0.1c2.5-0.2,5,0,7.5-0.1c0.4-0.1,0.8-0.1,1.2-0.1l0.8-0.3l0.7-0.6c0,0,0-0.1,0.1-0.3
	c0.1-0.1,0.1-0.2,0.1-0.2l0.1-0.2l0.1-0.5v-0.3C272.4,115.5,272.1,114.9,271.4,114.4 M60,77L60,77c-0.1,0.1-0.1,0.2-0.1,0.2
	S59.9,77.1,60,77 M61.6,106.8L61.6,106.8L61.6,106.8L61.6,106.8 M104.3,92.7c-0.1,0.2-0.3,0.5-0.3,0.7l-0.1,0.1
	c-0.1,0.1-0.2,0.3-0.3,0.4c-0.1,0-0.1,0-0.2,0c0-0.3,0.1-0.7,0.1-0.8c0-0.1,0.2-0.6,0.2-0.6c0-0.3,0.1-0.6,0.1-0.9
	c0.1-0.2,0.1-0.3,0.2-0.5c0.1-0.1,0.2-0.2,0.3-0.3c0,0.4,0.1,0.7,0.1,1.1l0.2,0.4L104.3,92.7 M123.3,115.1L123.3,115.1L123.3,115.1
	L123.3,115.1 M126,99.6C126,99.6,126,99.7,126,99.6L126,99.6L126,99.6 M190.3,92.6l-0.1,0.2l-0.3,0.6l-0.1,0.1
	c-0.1,0.1-0.2,0.3-0.3,0.4c-0.2,0-0.4,0-0.7,0.1l-0.1,0.1h-0.2c-0.1-0.3-0.2-0.5-0.4-0.8l0.1-0.4l0.2-0.6c0-0.5,0.1-1,0.3-1.5
	l0.2-0.3l0.3-0.3l0.2-0.3c0.1-0.1,0.3-0.1,0.4-0.2h0.1c0.1,0.2,0.2,0.3,0.3,0.5c0.1,0.6,0.1,1.2,0.2,1.8l0.2,0.4L190.3,92.6
	 M202,101.9c-0.1,2,0.6,4.9-0.1,6.7l-0.1,0.1l-0.2,0.2c-0.3-0.7-0.8-1.2-1.5-1.5c0-0.2,0-0.5-0.1-0.7c0-0.1,0-0.3,0-0.3v-0.2
	c0-0.1,0-0.4,0-0.4s-0.3-1-0.4-1.2c0-0.1,0-0.3,0-0.3l-0.2-0.8c-0.2-0.3-0.5-0.6-0.7-0.9c0.2-0.1,0.9-0.5,0.9-0.5l0.6-0.5
	c0.4-0.5,0.7-0.9,1.2-1.3l0.6-1c0,0.8,0,1.6,0.1,2.4v0.2 M236.9,114.1v-0.2c0.1,0.2,0.2,0.3,0.3,0.4L236.9,114.1 M281.2,96
	c0,0.1,0,0.2,0.1,0.2L281.2,96"/>
<g>
	<g>
		<path d="M356.5,68.8c-1-1.4-1.4-1.5-2.8-2s-2.8-0.6-2.8-0.6l0,0c-0.1,0-0.2,0-0.4,0H343c3-2.1,5.5-4.3,7.6-6.7
			c2.8-3.3,4.5-6.7,5-9.9c0.2-1.6,0.1-3.1-0.2-4.5c-0.2-0.9-0.5-1.9-1.1-3c-0.8-1.4-1.5-2.4-3-4c-1.2-1.3-2.1-2.1-2.6-2.5
			c-0.2-0.2-0.4-0.4-0.7-0.5l0,0c-3.8-2.8-8.8-4.1-14.6-4.1c-8.3,0-16.6,2.5-24.7,7.3c-2.9,1.7-5.5,3.7-7.7,5.8
			c1.9-2.7,2.1-3.4,2.2-4c0-0.2,0-0.3,0-0.5c0-0.8-0.3-1.6-0.8-2.2c-0.2-0.3-0.5-0.5-0.8-0.7c0.5-0.2,1.1-0.5,1.8-0.8
			c6-2.8,9.1-5.8,9.6-9.1c0.1-0.5,0.1-0.9,0-1.4c0,0,0-0.1,0-0.2c0-0.2-0.1-0.4-0.1-0.6c0-0.1,0-0.1-0.1-0.2c0-0.1,0-0.2-0.1-0.3
			c-0.1-0.3-0.2-0.7-0.3-1c-0.2-0.7-0.7-1.5-1.2-2.2s-0.9-1.1-1.4-1.6s-1.3-1.2-1.3-1.2l-0.9-0.7l0,0c-1.3-0.8-2.7-1.1-3.7-1
			c-1.2,0-2.5,0.3-3.9,1c0,0-0.1,0-0.1,0.1l0,0c-0.5,0.2-4.3,1.8-4.3,1.8l0,0c-0.8,0.3-1.6,0.7-2.4,1.3c-0.7,0.5-1.6,1.3-1.9,2.7
			c0,0.1,0,0.3,0,0.5c0,1.2,0.6,2,1.1,2.6c0.1,0.1,0.2,0.2,0.3,0.3c-0.2,0.1-0.4,0.2-0.6,0.4c-0.5,0.3-1.1,0.6-1.7,1.1
			s-1.2,1.2-1.4,2.4c0,0.1,0,0.3,0,0.5c0,0.5,0.1,1.1,0.3,1.5c-1.3,0.4-3,0.9-5,1.7c-1,0.4-1.8,0.7-2.6,1c7.4-10.1,14-19.2,14-19.2
			c2.3-3.2,2.5-3.9,2.6-4.6c0-0.2,0-0.4,0-0.6c0-0.5-0.1-0.9-0.3-1.4c-0.2-0.4-0.6-1.2-1-1.8c-0.3-0.5-0.7-1.1-1.3-1.8
			c-0.4-0.4-0.9-0.9-1.3-1.2c-0.2-0.2-0.5-0.4-0.7-0.6c-1.1-0.7-2.5-1-4-1c-1.4,0-3.2,0.3-8.5,1.8c-4.8,1.4-7.7,2.5-9.6,3.5
			c-1,0.5-1.7,1-2.3,1.6c-0.6,0.6-1,1.4-1.1,2.2c0,0.2,0,0.3,0,0.6c0,1.3,0.8,2.5,1.8,3.2c0.4,0.3,0.9,0.5,1.4,0.6
			c0.2,0.3,0.5,0.6,0.9,0.8c0,0,0.1,0.1,0.2,0.1c0,0,0,0,0,0.1c-3.2,4.4-8.2,11.5-10.9,15.2c-2.3-1.2-5.1-1.8-8.2-1.8
			c-4.3,0-9,0.9-13.9,2.6c-7.7,2.6-14.5,6.7-20.4,12c0-0.1,0-0.3,0-0.4c0-2.3-1.1-4.4-3.1-6.1c0,0,0,0-0.1-0.1
			c-0.7-1.6-1.8-3.1-3.4-4.2c-3.8-2.8-9-4-15.4-4c-7,0-13.2,1.4-18.5,4.4c-4.3,2.4-7.2,5.7-8.5,9.6c-3.4,1.6-6.3,3.2-8.5,4.7
			c-4.2,2.8-7.2,6.1-8.5,9.7c-1-0.6-2.1-0.8-3.3-0.8c-0.7,0-1.3,0.1-2.2,0.3c0-0.2,0-0.3,0-0.5c0-2.6-0.1-4.9-0.3-7
			c6.2-1.9,11.2-4,14.8-6.2l0,0c7.3-4.6,11.4-10,12.4-16.1c0.1-0.7,0.2-1.4,0.2-2.1c0-3.6-1.5-7-4.4-10c-2-3.5-5.5-6.5-10.2-9.1
			c-4.6-2.5-10.5-4.4-17.6-5.7c-7-1.3-14.5-2-22.4-2c-8.6,0-17.4,0.8-25.9,2.5C81.7,4.8,71.8,8.6,64.6,14c-4.9,3.6-8,7.7-8.7,12.1
			c-0.1,0.6-0.1,1.1-0.1,1.7c0,3.8,2.2,7.2,5.8,9.5c0.3,0.2,0.7,0.4,1,0.6c0.7,0.7,1.6,1.4,2.6,2.1c5.4,3.4,12.7,5.2,22,5.2
			c2.4,0,4.4-0.1,6-0.3c4.3-0.5,5-3,5.1-3.7c0-0.3,0-0.6,0-0.8c0-0.1,0-0.3,0-0.5c0-0.5-0.4-1.3-0.8-2c-0.6-1-1-1.5-1.4-2
			c-0.7-0.7-1.6-1.2-2-1.5c-0.6-0.4-1.3-0.7-2-0.9s-1.6-0.3-3.3-0.3c-0.4,0-0.8,0-1.2,0h-0.3c-5,0-8.7-0.9-11.4-2.7
			c-0.1,0-0.1-0.1-0.1-0.1c-0.1-0.5,0-0.9,0-1.3c0.3-2.2,1.9-4.5,4.7-6.8c4-3.4,10.1-6,18-7.8c6.8-1.6,13.9-2.4,21.2-2.4
			c1.1,0,2.2,0,3.3,0.1c-1.7,0.6-3.4,1.3-5.1,2c-0.7,0.3-1.6,0.7-2.4,1.3c-0.8,0.6-1.7,1.4-2,2.9c0,0.2,0,0.4,0,0.6
			c0,1.4,0.8,2.7,1.9,3.3c0.4,0.3,0.9,0.5,1.4,0.6c0.2,0.3,0.5,0.6,0.9,0.8c-6.9,9.7-9.9,14.1-15.7,21.6
			c-4.3,5.6-10.8,10.8-15.4,13.5C83.7,60.4,81,62,78,63c-3.4,1.1-5.6,1.9-10.3,2.4c-2.2,0.2-3.7,0.8-4.7,1.7c-1,0.9-1.4,1.9-1.5,2.6
			c0,0.2,0,0.3,0,0.6c0,1.1,0.5,2.2,1.5,3c0.3,0.3,1.1,1.1,1.5,1.4c0.9,0.6,1.2,1,2.4,1.4H67c0.8,0.5,1.7,0.7,2.6,0.7h283.8
			c2.1,0,3.8-1.5,4.1-3.4c0.1-0.3,0.1-0.6,0.2-1.1C357.5,71.5,357.3,69.9,356.5,68.8z M312.7,60.5c0.4-2.6,1.6-5.3,3.6-7.8
			c2-2.6,4.7-4.8,7.8-6.6c2.9-1.7,5.7-2.5,8.6-2.5c1.1,0,2,0.1,2.8,0.3c0.2,0.5,0.3,1,0.3,1.7c0,0.3,0,0.6-0.1,1
			c-0.7,4.4-3.7,8.8-9.4,12.9c-3.5,2.5-6.7,3.6-9.9,3.6c-1.5,0-2.7-0.3-3.7-0.8c0-0.2,0-0.5,0-0.7C312.7,61.2,312.7,60.9,312.7,60.5
			z M299.9,17.6C299.8,17.6,299.8,17.6,299.9,17.6C299.8,17.6,299.8,17.6,299.9,17.6z M299.6,17.7c-0.1,0-0.1,0.1-0.1,0.1
			C299.6,17.7,299.6,17.7,299.6,17.7z M294.2,53.5c-0.6,1.4-1,2.9-1.3,4.4c-0.1,0.6-0.1,1.3-0.1,1.9c0,2.3,0.7,4.5,2.1,6.4h-4
			c-0.1-0.2-0.2-0.4-0.4-0.6c-0.2-0.3-0.6-0.5-0.9-0.7c-0.2-0.4-0.6-0.8-1-1.1c-0.1-0.6-0.3-1.1-0.6-1.5
			C289.4,60.1,291.9,56.7,294.2,53.5z M275.2,44.3c0.2,0.3,0.5,0.5,0.8,0.7c0.4,0.3,0.9,0.5,1.4,0.6c0.1,0.1,0.1,0.2,0.2,0.2
			c-3.3,5-10.2,15.2-11.3,16.9c-0.2-0.3-0.4-0.5-0.7-0.7c-0.2-1-0.7-1.8-1.5-2.4C266.5,56.3,270.7,50.5,275.2,44.3z M226.8,61.5
			c0.3-1.9,1.5-4.5,3.8-7.5c2.8-3.7,6.5-6.7,11-8.9c3.3-1.5,6.2-2.3,8.6-2.3l0,0c0.7,0,1.4,0,1.9,0.1c0,0.1,0,0.2,0.1,0.4
			c0,0.1,0,0.2,0,0.4c-0.1,1-1,2.9-2.6,5.2c-1.9,2.8-4.4,5.4-7.3,7.6c-4.8,3.6-9.2,5.3-13.3,5.3C227.9,61.9,227.2,61.8,226.8,61.5
			C226.8,61.6,226.8,61.6,226.8,61.5z M175.2,56.5c2.5-2.2,5.9-4.1,10.2-5.7c3.6-1.4,6.7-2,9.1-2l0,0c0.7,0,1.3,0,1.8,0.1
			c-0.3,1.1-1.4,2.9-3.4,5c-2.4,2.7-5.8,4.9-10,6.6c-3.3,1.3-6.2,2-8.7,2c-1.3,0-2.4-0.2-3.2-0.5C171.6,60.4,172.9,58.5,175.2,56.5z
			 M142,21.2c2.7-3.6,2.8-4.1,2.9-4.8c0-0.2,0-0.3,0-0.5c0-0.1,0-0.1,0-0.2c2,0.6,3.8,1.3,5.3,2.1c0.5,0.3,1.1,0.6,1.5,0.9
			c2,1.9,2.8,4,2.8,6.3c0,0.5,0,0.9-0.1,1.4c-0.4,3-2.3,6-5.8,9c-1.6,1.4-3.2,2.4-4.6,3.1c-0.7,0.3-1.6,0.7-2.6,1
			c-2.3-2.5-5.7-4-9.6-4.5C135.9,29.5,142,21.2,142,21.2z M118.6,51.8c0,0,0.1-0.1,0.2-0.3c0.7,0.4,2.1,1.3,3.1,1.6
			c1.6,0.4,3.5,0.7,5.9,0.8c-0.2,2.6-0.8,10-0.8,10c0,0.4,0,0.7,0,1c0,0.5,0,0.9,0.1,1.4h-24c2-1.4,3.8-2.9,5.6-4.6
			C112.9,57.6,115.3,56.3,118.6,51.8z"/>
	</g>
</g>
<g>
	<path class="st0" d="M49.9,69.5c0.4,0,0.9,0,1.9,0l1.1,0.4c0.2,0,0.4,0,1-0.1l0.2-0.1c0.8,0,2.2,0.6,1.9,1.8c0,0.3-0.2,0.8-0.3,0.9
		c-0.1,0.3,0-0.1-0.2,0.6l-0.7,0.3c-2.8,2-3,14.5-2.1,22.1c0,0.1-0.1,0.8-0.6,1.5c0,0.1-0.1,0.2-0.1,0.3c-0.3,1.5,0,2.9-0.1,5.2
		c0,1.5,1.2,3.6,0.4,5.8l0.1,0.4h0.1c0,0.1,0.1-0.1,0.5,0.8c0.1,0,0.5,0.6,1.5,1.4l0.3,0.1c-0.1,0,0.9,1,0.3,1.7
		c-0.1,0.1-0.3,0.1-0.3,0.2l-0.5,0.1c-0.8-0.1-1.2-0.1-2.9,0c-0.3,0.1,0,0-0.8,0.1l-0.9,0.5c-1.8-0.1-3,0.3-5.7,0.2h0
		c-2.3,0.1-3-0.5-2.5-2.7c0,0.1,0.4-0.7,0.9-0.7c0.1,0,0.2-0.1,0.3-0.1c0.3-0.2,0.2-0.3,0.9-0.8c0.2-0.5,0.4-0.8,0.8-2.2
		c0-0.1,0-0.1,0-1.2l-0.3-0.9H44c0-0.4-0.2-1.4-0.1-2.6l0.3-1c0.1-1.6,0.7-3.9,0.3-6.2c0.4-1.4,0-3.2,0-5.5l0.1-0.1
		c0.2-3,1.3-6.6,0.7-10.3c-0.1-0.1,0,0-0.3-0.1l-0.2-0.1l-0.5,0.3c-0.1,0.1-1,1.4-1,2.5c0-0.1-0.3,1-0.8,1.7V84l-0.1,0.3
		c0,0.2,0,0,0.1,0.6l-0.1,0.4l-0.3,0.3l-0.5,1.1l-0.3,0.2l-0.1,0.4l-0.6,0.5l-0.1,1.1c-0.2,0.7-0.8,1.3-0.8,2.7
		c-0.6,1.7-1.9,4-2.9,6.3L36.7,98l-0.1,0.2l-0.3,0.3c-0.9,2.5-2.6,5.2-3.4,8.6c-0.5,0.3-0.4,1.5-1.6,2.3c-0.3,0.6-1.1,2.3-1.5,3.6
		l-0.3,0.2h-0.3l-0.1,0.1c-0.1-0.1-0.1-0.1-0.1-0.1c-0.1-0.2-0.1,0.1-0.4-0.7c-0.2-0.2-0.5-0.6-1-1.9l-0.3-0.3l-0.1-0.3v-0.1
		l-0.2-0.1c-0.4-0.8-0.6-1.6-1.4-2.9c0,0,0-0.2-0.2-0.8c0,0.1,0-0.3,0-0.6c0.2-0.2,0.1-0.1,0.5-0.4c0-0.1,0.1,0-0.1-0.7
		c-0.1-0.1,0,0-0.5-0.7c-0.5-0.4-1.2-1-2.1-2.1c-0.1-0.1,0.2-0.5-0.1-1.1c-0.3-0.6-0.5-0.9-0.9-1.2c-0.1-0.2-0.6-0.7-1.1-1.2
		c-0.2-0.4-0.4-1-1.2-2.1c0-0.1,0-0.1-0.1-0.1c-0.4-1.6-0.9-3.6-2.1-5.6l-0.6-0.5c-0.1-0.4-0.6-1-1.1-2.1l-0.2-0.2v-0.2l-0.1-0.2
		c-0.1,0.1,0-0.2-0.2-0.3l-0.1-0.1c0,0,0,0,0-0.2l-0.1-0.2c-0.5-0.5-0.7-0.7-0.9-1.1c-0.1-0.1-0.1-0.1-0.2-0.2
		c0-0.1-0.1-0.3-0.1-0.6l-0.5-1.7c0.1,0-0.2-0.2-0.4-0.7c0,0-0.4-0.5-1-1.1H12V81c-0.2-0.1-0.8,1.1-0.4,2.1l0.1,0.1
		c0,0.2,0.4,0.4,0.3,1.5l0.1,0.1c0.1,1.1,0.2,2.4-0.2,4.1L11.7,89c0.1,4.7,1.1,11.1,1.2,16.1l-0.5,1c-0.1,0.9,0.1,2.1,1.6,2.9
		c0.3,0.8,1.1,1.5,2,2.9c0.1,0.3,0.1,0.5,0.1,0.5c2,2.4-11,1-11.7,1.3l-0.3-0.4L4,112.9l0.5-0.8c0.5-0.3,1.3-0.4,2.1-1.2
		c0.1-0.2,0-0.2,0.4-0.8V110c0.2-0.4,0-0.2,0.7-1.5c0.2-2.8-0.2-6.2,0.8-9.5c0.3-2.9-0.1-6.4-0.3-10c0.1-0.4,0.3-1.2,0.6-2.1
		c-0.3-0.4-0.7-1.8-1-2.9l0.1-0.5l0.5-0.9c-0.2-0.9,0.9-2.4,0.1-3.9c0-0.2,0-0.3-0.1-0.3C8,77.9,7.8,77.6,7,76.5c0-0.3,0-1.1,0-2
		l-0.3-0.7l-0.3-0.3l-0.4,0c0-0.1-0.1,0.1-0.6-0.5l-0.1-0.2c-0.1,0,0.1,0-0.6-0.2H4.5c-0.1,0,0-0.1-0.9-0.6
		c-0.2-0.4-0.3-0.6-0.8-1.6c0,0-0.1-0.2-0.1-0.7l0.1-0.1c0,0,0.1,0,0.5-0.2c0.7-0.1,1.8-0.1,3.4,0.2v0.1l0.8,0.1
		c0.2-0.1,0.4-0.2,1.1-0.4h0.5l0.3,0.4c0.9-0.2,2.4-0.2,4.1,0l0.3,0.1c0.3,0,0.8,0,1.9-0.1l0.2-0.1c-0.1,0.1,0.6-0.2,1.4,0.2
		c0.1,0.1,0,0,0.3,0.3h0.1c0,0,0.4,0.7,0.3,1.6c-0.1,0.1-0.4,1.3-0.7,2.1c0,0.2-0.1,0.1,0.1,0.8c0.1,0.2,0.1,0.3,0.3,1l0.6,0.9h0.1
		l0.2,0.1c0,0,0.4,0.4,0.8,0.8c0.4,1.2,1.8,2.4,2.5,4.5v0.1c0.1,0.1,0.1,0.1,0.2,0.3c0.1,0.3,0.1,0.1,0.4,0.6c0,1.2,0.6,2.8,2.4,3.7
		c0,0.4,0.2,0.1,0.2,1.2c1.3,2.8,5.7,19.3,9.4,9.6C35,96.2,35,95,36,93.2c0.9-4.5,1.9-9.4,5-14.1c0,0,0-0.4,0.6-1l0.1-0.3l0.3-0.3
		l0.3-0.6c0.6-2,1.3-4.5,2.3-7.2l0.2-0.1l0.1-0.1c1.3-0.2,3.1-0.2,4.8-0.1L49.9,69.5z"/>
	<path class="st0" d="M83,102.5c0.5,1.2,0.9,2.4,1.4,4.1c0,0,0,0.1,0,0.3c0.2,0.6,0,0.1,0.6,1.4l0.4,0.4l0,0l0.1,0.2
		c0,0.1,0,0.2,0.2,0.6c0,0.1,0,0.2,0.1,0.2c0.2,1,2.6,1.3,2.4,3.1l-0.1,0.1c0,0.1,0,0.1,0,0.1l-0.3,0.2c-17.5-0.5-3.7,3.5-9.5-10.3
		l-0.3-0.4c0.2-2.9-4.8-4-8.2-2c-0.4,0.8-0.2,1.8-1.2,3.2c-0.1,0.3-0.1,0.9-0.4,1.7c-0.5,0.6-2.1,4.1,0.3,4.8c0,0,0.2,0.3,0.6,0.9
		c0.1,0-0.1,0,0.1,0.4c-0.2,0.5,0.5,0.8-0.6,1.2c-4.5-0.6-14,2.3-4.9-5.3c0-0.1,0.1-0.1,0.1-0.2c0-0.2,0.1,0,0.2-0.7
		c0.3-1,2.8-2.7,2.6-5c0.3-0.6,0.5-1,0.9-2.2c0.5-0.7,0.7-0.4,1.2-2.8c0,0,0-0.1,0-0.2c0.1-0.2,0.1-0.3,0.1-0.4
		c0.1-0.2,0.1-0.1,0.2-0.7l0.2-0.3l0.1-0.4L70,95c1.4-0.8,4.5-19.1,6.8-10.7v0.4c0.7,1.5,1.3,3.3,2.1,5.6l0.3,0.4
		c0.5,1.9,1.3,4.1,2.1,6.7c0,0.4-0.1,0.2,0.1,1.2c0.5,0.7,0.5,1.7,1.5,3.2L83,102.5z M72.1,98.2c1.1,0,2.1,0,3.9-0.1
		c-0.2-2.4-0.4-5.9-1-8.5h-0.1c0,0-0.1,0.1-0.6,0.3l0,0c0,0,0,0.1-0.1,0.2c0-0.1-0.2,0.8-0.5,1.5c0,0,0.1,0.4-0.2,1v0.1
		c0-0.1,0,0.2-0.5,0.7c-0.2,0.4-0.7,2.6-1.1,3.7C71.9,97.6,71.8,97.2,72.1,98.2L72.1,98.2z"/>
	<path class="st0" d="M112.1,89.5l0.2,0.6c0,1.1,0.2,1.7,0,3.4c-0.6,1-1.4,2-2.5,3.4c-0.4,0.3-1.1,0.8-2.3,1.1l-0.4,0.3l0.2,0.5
		c0.5,0.3,0.7,0.2,1.5,1.4c0,0,0.1,0.1,0.1,0.8l0.4,1.1c0,0.5,0,0.8,0,2l0.1,0.3v0.2c0.3,1,0.4,2.4,0.9,3.9c0,0.2,0-0.3,0.5,0.9
		c0.9,0.6,2.4-0.3,2.2,1.6c-0.6,1.1-2.4,3.9-4.8,2.3c-0.3-0.3-0.6-0.6-0.8-1c-0.1-0.1,0.1,0-0.2-0.3l0,0c-1-1.2-2-3.1-2.3-5.5
		l-0.2-0.4c-0.1-1.4,0.3-2.2-0.5-4.5c-0.3-0.5-0.9-1-1.7-2h-0.1c-0.8-0.4-4-0.5-3.5,1.5l0.1,0.2c0,0,0,0.1,0.1,0.2
		c0,0,0,0.1,0.1,0.1c0.3,1,0.8,2.6-0.6,3.7l-0.1,0.3l0.2,0.3c0.1,0,0.3-0.1,0.7,0.1c0.1,0.6-0.1,2.5,0.3,3.7
		c0.2,0.2-0.2,0.6,0.7,1.1c0.5,0.6,1.2,0.4,2.2,1.7l-0.1,0.2c0.5-0.9-12.9,2.4-11-1.2c0.2-0.1,0.4-0.3,1-0.6c-0.1,0,0.4-0.4,0.8-1.2
		c0.9-6,0.5-13.2,0.6-20.2L93.7,90c0-1.1,0.2-2.2-0.5-3.8C93,86,93,86,92.9,86l-1.1-0.7c-0.1-0.3-0.3-0.8-0.3-1.1l0,0
		c0.1-1.9,5.2-0.5,8-1c1.3,0,2.4-0.1,4.3,0.3l0.1,0.1c0.8,0,2.2,0.2,3.6,0.8c0,0,0.1,0.1,0.3,0.1c0.1,0.1,0.2,0.1,0.3,0.1
		c0.4,0.3,1.4,0.7,2.2,1.9c0,0.1,0,0.1,0.1,0.1v0.1c0.5,0.5,0.9,1.2,1.6,2.3L112.1,89.5z M99.4,91.9c-0.7,3.5,1.6,6.8,6.3,3.4
		c0.2-0.1,0.3-0.3,0.3-0.3c0.1-0.1,0.1-0.1,0.1-0.2c0.3-1.1,1.7-1.6,0.7-3.8c0.2-1.6-1.1-4-3.2-5.2c0,0-0.2,0-0.7,0
		c-0.1-0.1-0.1-0.1-0.2-0.1c-0.9-0.1-0.9-0.6-2.6,0.1c0,0.1-0.2,0.2-0.7,0.9c-0.1,1.3-0.6,2.8-0.9,4.5
		C99.2,91.3,99.4,91.4,99.4,91.9z"/>
	<path class="st0" d="M141.2,92.4l-0.3-0.5c-0.1-0.1-0.3-0.2-0.8-0.7l-0.2-0.4l-0.3-0.3c-0.1-0.3-0.3-0.7-0.9-1.4l-0.2-0.5l-0.2-0.2
		l-0.3-0.7l-0.3-0.3c-0.3-0.1-0.4-0.1-1.3-0.2c-0.2,0-0.6-0.6-1.5-0.7c-1.9-0.2-3.9-0.4-6.5-0.5c-1.3,1-3.8,1.5-4.7,3.9v0.2
		l-0.1,0.2l-0.1,0.1l0,0l0,0c-0.5,0.5-0.9,1-0.9,2.5l-0.1,0.2c0,0.1-0.1,0.2-0.2,0.4V94c-0.1,0.1-0.1,0.3-0.6,1.3
		c0.1,1.7,0.2,3.5,0.4,5.9l-0.1,0.5l0,0c0,1.7,0.5,3.3,1.2,5.5c1,2.4,5.1,3.9,9,3.8c0.8-0.3,2.5,0.3,3.8-1.3l0.2-0.2
		c0.1-0.4,0.3-1.2,0.5-2.1c0.7-2.8-2.5-2-3.5-3.9l0.3-0.4l0.5-0.2c2.3,0.8,10.4-2.7,9.4,2.5c-2.1,0.8,0.6,6.1-1.9,6.9
		c-7.2,1.5-15.5,4.2-21.7-2.2c-0.1-0.1-0.3-0.2-0.3-0.3c-0.4-0.4-0.7-0.6-1.7-1.7l-0.3-0.6l-0.3-0.3c-1.6-2.8-3.8-8.7-1.7-12.5
		c0.1-0.7-0.2-0.7,0.3-2.4L117,92l0.2-0.6c0-0.1,0.1-0.1,0.1-0.2c0,0,0.1-0.1,0.1-0.2c0.1-0.1,0.1-0.3,0.2-0.3c0,0,0,0.1,0.2-0.4
		l0.3-0.3c1-2,2.9-3.7,5.4-5.2c0.1,0,0.3-0.1,1.3-0.5c0,0,0,0,0.2,0c0.5-0.4,1.8-0.1,2.7-1c5.8-0.9,18.7-0.4,13.9,9.6L141.2,92.4
		L141.2,92.4z"/>
	<path class="st0" d="M169,102.5c0.5,1.2,0.9,2.4,1.4,4.1c0,0,0,0.1,0,0.3c0.2,0.6,0,0.1,0.6,1.4l0.4,0.4l0,0l0.1,0.2
		c0,0.1,0,0.2,0.2,0.6c0,0.1,0,0.2,0.1,0.2c0.2,1,2.2,1.1,2.4,2.8l-0.1,0.3c0,0,0,0.1,0,0.2l-0.3,0.2c-17.5-0.5-3.7,3.5-9.5-10.3
		l-0.3-0.4c0-4-8.8-4.5-9.4,1.2c-0.1,0.3-0.1,0.9-0.4,1.7c-0.5,0.6-2.1,4.1,0.3,4.8c0,0,0.2,0.3,0.6,0.9c0.1,0-0.1,0,0.1,0.4
		c-0.2,0.5,0.5,0.8-0.6,1.2c-4.6-0.6-14,2.3-4.8-5.3c0-0.1,0.1-0.1,0.1-0.2c0-0.2,0.1,0,0.2-0.7c0.3-1,2.8-2.7,2.6-5
		c0.3-0.6,0.5-1,0.9-2.2c0.5-0.7,0.7-0.4,1.2-2.8c0,0,0-0.1,0-0.2c0.1-0.2,0.1-0.3,0.1-0.4c0.1-0.2,0.1-0.1,0.2-0.7l0.2-0.3l0.1-0.4
		L156,95c3.7-5.6,3.7-23,9-4.7l0.3,0.4c0.5,1.9,1.3,4.1,2.1,6.7c0,0.4-0.1,0.2,0.1,1.2c0.5,0.7,0.5,1.7,1.5,3.2L169,102.5z
		 M158,98.2c1.1,0,2.1,0,3.9-0.1c-0.2-2.4-0.4-5.9-1-8.5h-0.1c0,0-0.1,0.1-0.6,0.3l0,0c0,0,0,0.1-0.1,0.2c0,0.1-0.2,0.1-0.2,0.9
		l-0.1,0.2c0,0-0.1,0.5-0.1,1.1c-0.6,0.7-1,2.9-1.5,4.4c0,0,0,0.1,0,0.3C157.9,97.5,157.9,97.8,158,98.2L158,98.2z"/>
	<path class="st0" d="M198.1,89.5l0.2,0.6c0,1.1,0.2,1.7,0,3.4c-0.6,1-1.4,2-2.5,3.4c-0.4,0.3-1.1,0.8-2.4,1.1l-0.4,0.3l0.2,0.5
		c0.5,0.3,0.7,0.2,1.5,1.4c0,0,0.1,0.1,0.1,0.8l0.4,1.1c0,0,0,0.2,0,0.8l0.1,0.3c0,0.1,0,0,0,0.9l0.1,0.3v0.2c0.3,1,0.4,2.4,0.9,3.9
		c0,0.2,0-0.3,0.5,0.9c0.8,0.6,2.5-0.3,2.2,1.6c-0.6,1.1-2.4,3.9-4.8,2.3c-0.3-0.3-0.6-0.6-0.8-1c-0.1-0.1,0.1,0-0.2-0.3l0,0
		c-1-1.2-2-3.1-2.3-5.5l-0.2-0.4c-0.1-1.4,0.3-2.2-0.5-4.5c-0.3-0.5-0.9-1-1.7-2h-0.1c-0.6-0.4-3.9-0.5-3.4,1.2c0,0.1,0,0.2,0,0.3
		l0.1,0.2c0,0,0,0.1,0.1,0.2v0.1c0.2,1,0.8,2.6-0.5,3.7l-0.1,0.3l0.2,0.3c0.2,0.1,0.1-0.1,0.7,0.1c0.1,0.6,0,2.4,0.2,3.7
		c0.2,0.2-0.2,0.6,0.7,1.1c0.5,0.6,1.2,0.4,2.2,1.7v0.2c0.4-0.9-12.9,2.3-11-1.2c0.2-0.1,0.4-0.3,1-0.6c-0.1,0,0.4-0.4,0.8-1.2
		c0.2-7.5,1.4-16.7-0.4-24.5l-1.1-0.7c-0.1-0.3-0.3-0.8-0.3-1.1l0,0c-0.1-1.6,7.8-1,12.5-0.7l0.1,0.1c0.8,0,2.1,0.2,3.5,0.8
		c0,0,0.1,0.1,0.3,0.1c0.1,0.1,0.2,0.1,0.3,0.1c0.4,0.3,1.4,0.7,2.2,1.9c0,0.1,0,0.1,0.1,0.1v0.1c0.5,0.5,0.9,1.2,1.6,2.3
		L198.1,89.5z M185.4,91.9c-0.8,3.6,1.7,6.8,6.4,3.4c0.2-0.1,0.3-0.3,0.3-0.3c0.1-0.1,0.1-0.1,0.1-0.2c0.3-1.1,1.7-1.6,0.7-3.8
		c0.2-1.6-1.1-4-3.2-5.2c0,0-0.2,0-0.7,0c-0.1-0.1-0.1-0.1-0.2-0.1c-1-0.1-1.1-0.6-2.8,0.1c0,0.1-0.2,0.2-0.7,0.9
		c-0.1,1.2-0.6,2.7-0.9,4.4C185.2,91.3,185.4,91.4,185.4,91.9z"/>
	<path class="st0" d="M209.7,98.1v1.7l0.1,0.3c0,0.1,0,0.1,0,0.9l0,0c0,2.8-0.9,6.5,0.8,9.6l0.5,0.4c-0.1,0.1,0.6,0,1.2,0.7
		c0,0,0.1,0.2,0.2,0.3c1.5,1.6-8.7,2.5-10.7,0.6l0,0v-0.5l0.4-0.4l0.1-0.2l1.3-1.2c1.8-6.1,0.3-16.2,0.6-23.7
		c-0.3-0.4-0.3-0.5-0.8-1.6l-0.8-0.8c0,0,0-0.1-0.1-0.2c-0.1-0.2,0,0-0.1-0.6l0.2-0.1c0.9,0,1.6-0.2,3.2-0.1l0.3,0.1
		c1.6,0.3,5.1-1.1,6.1,1.2l-0.1,0.3c0,0-0.5,0.3-0.9,0.8L211,86c-2.5,2.8-1,7.9-1.4,12.1H209.7z"/>
	<path class="st0" d="M221.5,82.9c0.1,0,0.7,0,1.6,0h0.4c1,0.6,2.5,0.3,4.3,0.7v-0.1c1-0.1,2.7-0.7,4.4-0.5l0.1,0.1c0.1,0,0,0,0.5,0
		l0.1-0.1c0.3,0,0.1,0,1,0c0.1,0,0,0,0.5,0c0.7,0.1,0.6,0.5,2.1,0.5l0.2-0.2l0,0c0.4-0.1,1.1-0.2,2-0.2c1.1-0.1,2.2-0.1,1.9,2.5
		l-0.2,0.4v0.2c-0.2,0.2-0.7,1.1-0.6,2.8l-0.1,0.3v0.1l-0.1,0.3c0,0,0,0-0.2,0.2c-0.2,0.1-0.5,0.1-0.6,0.1c0,0,0,0-0.4,0
		c0,0,0-0.1-0.2-0.5v-0.1c-0.2-0.4-0.4-1.1-0.7-2c0-0.1-0.2-0.4-0.3-0.8c0,0,0,0-0.2,0c-0.8-0.8-1.2-1.1-2-1.1l-0.4,0.2H234
		c-0.1,0-0.4-0.3-1.3-0.4c0,0,0,0-0.3,0l-0.1,0.1h-0.1l-0.1-0.1l-0.2-0.1c-1.8,3.9-0.5,10.4-0.7,15.6c0-0.1,0,0.6,0.1,1.3
		c0,1.9,0,4.2-0.1,6.8c0,0.1,0.1,0.3,0.5,1.3l0.4,0.4l0.1,0.2c0.1,0.1,0,0,0.4,0.4l0.2,0.1l0.2,0.2c-0.1-0.1,0.5,0.2,1,0.5
		c0,0,0.1,0.1,0.5,0.5l0,0c0,0,0,0.1,0.1,0.1c0,0.2,0,0.3,0,0.9l-0.2,0.2c-0.3,0-0.6,0-1.9,0l-0.4-0.2c-0.2,0-3.3,0-4.2,0l-0.1-0.1
		c-0.5,0.1-2-0.3-3.1,0.2c-0.5,0.1-0.2-0.2-1.4,0.2c-0.2,0,0,0-0.5-0.1c0,0-0.2-0.3-0.6-1.1l0,0c0,0,0-0.1,0.1-0.1
		c0-0.1,0-0.1,0.1-0.1c0,0,0.5-0.5,0.9-0.9l0.8-0.4c2.1-6.8,1.1-16.3,0.4-24.2c-0.2-0.2-0.6-0.5-1.4-1.3l-0.7-0.2l-0.3,0.1l-0.1,0.1
		l-0.4,0.2l-0.1,0.1l0,0l-0.1,0.1c0,0-0.1,0-0.2,0c-0.1,0.1-0.2,0.1-0.2,0.1c0.1,0-0.2,0-0.7,0.3c-1.2-0.2-0.9,1.2-2.4,2.3l-0.1,0.2
		c-0.2,0.2-0.2,0.1-0.6,0.7c-0.1-0.1,0.1,0.1-0.8-0.1l-0.3-0.4c0.5-1.6-0.6-4.4,0.1-6.3h0.1c0.3-0.3,0.6-0.4,1.9-0.4
		c0.1,0-0.1,0.1,0.8,0.4h0.3c0.1,0,0,0,0.5,0.2c0.1,0.1,0,0,0.5,0.1c0.4,0,0,0,0.9-0.4C221.1,82.9,221.1,82.9,221.5,82.9z"/>
	<path class="st0" d="M262.6,102.5c0.5,1.2,0.9,2.4,1.4,4.1c0,0,0,0.1,0,0.3c0.2,0.6,0,0.1,0.6,1.4l0.4,0.4l0,0l0.1,0.2
		c0,0.1,0.1,0.4,0.3,0.8c0.2,1,2.7,1.4,2.4,3.3l-0.3,0.2c-17.8-0.6-3.6,3.6-9.5-10.3l-0.3-0.4c0-4-8.8-4.5-9.4,1.2
		c-0.1,0.3-0.1,0.9-0.4,1.7c-0.5,0.6-2.1,4.1,0.3,4.8c0,0,0.2,0.3,0.6,0.9c0.1,0-0.1,0,0.1,0.4c2.2,0.9-17.4,4.6-5.7-4.1
		c0-0.1,0.1-0.1,0.1-0.2c0-0.2,0.1,0,0.2-0.7c0.3-1,2.8-2.7,2.6-5c0.3-0.6,0.5-1,0.9-2.2c0.5-0.7,0.7-0.4,1.2-2.8c0,0,0-0.1,0-0.2
		c0.1-0.2,0.1-0.3,0.1-0.4c0.1-0.2,0.1-0.1,0.2-0.7l0.2-0.3c1.1-0.7,4.9-20,7-11.4v0.4c0.7,1.5,1.3,3.3,2.1,5.6l0.3,0.4
		c0.5,1.9,1.3,4.1,2.1,6.7c0,0.4,0,0,0.2,1.2C260.9,98.9,261.7,100.7,262.6,102.5z M251.6,98.2c1.1,0,2.1,0,3.9-0.1
		c-0.2-2.4-0.4-5.9-1-8.5h-0.1c0,0-0.1,0.1-0.6,0.3l0,0c0,0-0.1,0.1-0.1,0.2c0,0.1-0.2,0.1-0.2,0.9l-0.1,0.2c0,0-0.1,0.5-0.1,1.1
		c-0.6,0.7-1,2.9-1.5,4.4c0,0,0,0.1,0,0.3C251.4,97.5,251.4,97.8,251.6,98.2L251.6,98.2z"/>
	<path class="st0" d="M295.2,83.9l-0.1,0.3c0,0.1,0-0.1-0.7,1c-0.3,0.1-0.3,0.1-1,0.4l-0.1,0.1l-0.2,0.1c-1.5,0.7-1.9,2.4-3.2,4.2
		c0,0.1-0.2,0.3-0.3,0.6c0,0.1-0.1,0.2-0.1,0.2c0,0.1,0.1,0.2-0.2,1.1v0.3l0,0c-2.7,3.5-3,8.5-5.6,12.9c0,0,0,0.2,0,0.4
		c0,0.1,0,0-0.1,0.4c0,0.1-0.1,0.2-0.1,0.4c-0.1,0.2-0.1,0.3-0.2,0.4c-0.4,1-0.4,2.4-1.3,3.9c0,0,0,0.1-0.1,0.2
		c0.1,1.6-2.6,5.9-3.7,0.8l0,0c0-0.1,0-0.1,0-0.4l0,0c0-1.3-1-2.5-1-4.7c-0.1-0.1-0.1-0.3-0.4-0.9c0-0.1-0.1,0.1-0.4-0.5
		c0-0.3,0-0.3-0.1-1c-0.3-0.7-0.6-1.2-1.2-2.3c-0.2-0.7-0.3-1.6-0.3-2.9c-0.1,0-0.3-0.2-0.5-1c0,0,0,0,0-0.1l0,0l-0.4-0.5
		c-0.1-0.1,0.1,0-0.3-0.9c0,0,0-0.1-0.1-0.3V96c0,0,0,0,0-0.1c-0.2-0.4,0,0-0.6-1.2c0,0-0.2-0.2-0.4-0.4l0,0
		c-0.7-0.9-1.2-2.4-1.7-4.3c-0.2-0.4-0.7-1.4-1.2-2.4c-0.2-0.2-0.4-0.4-0.9-0.9c-0.3-0.2-0.9-0.2-1.7-0.8c-1.3-2.6,3.2-2.2,5.8-1.9
		c1.5-0.4,3-0.6,5.3-0.2V84v0c-0.1,0.3,0.3,0.6-0.2,1.5c-0.3,0.7-1.1,1.1-1.9,2.2l-0.1,0.5l0.1,0.6c0.2,0.2,0.5,1.6,1,2.4l0.1,0.4
		c1.1,1.3,1,3.3,2.2,5.4c0,0.2,0,0.2,0.1,0.8h0.1l0.2,0.3c0.1,0.4,0.1,1,0.7,1.9l0.1,0.5l0.3,0.5c0,0.3,0.1,0.7,0.3,1.5
		c0,0.1,0.1,0,0.4,0.7c1.1-0.4,1.4-2,2.6-3.3c0.2-0.9,1-2.4,1.4-4c0.5-1.7,1.5-2.9,2.2-5.3c0-0.1,0-0.2,0.2-0.8c0-0.1,0-0.3,0.1-0.6
		c0.1-1.5,0.3-3-2.2-4l0,0c-0.9-3.2,5.4-1.6,9.8-1.8L295.2,83.9z"/>
	<path class="st0" d="M305.8,98.1c0,0.8,0.1,1.6,0.1,2.9l0,0c-0.1,2.8-0.8,6.4,0.9,9.6l0.5,0.4c-0.1,0.1,0.6,0,1.2,0.7
		c0.1,0,0.1,0.2,0.2,0.3c1.5,1.6-8.7,2.5-10.7,0.6l0,0v-0.5l0.4-0.4l0.1-0.2l1.3-1.2c1.6-6.1,0.3-16.1,0.5-23.7
		c-0.3-0.4-0.3-0.5-0.8-1.6l-0.8-0.8c0,0,0-0.1-0.1-0.2c-0.1-0.2,0,0-0.1-0.6l0.2-0.1c0.9,0,1.6-0.2,3.2-0.1l0.3,0.1
		c1.6,0.3,5.1-1.1,6.1,1.2l-0.1,0.3c-3.8,2.5-2.3,8.5-2.6,13.3H305.8z"/>
	<path class="st0" d="M322,84.8c-0.5,0.5-1,0.5-1.7,1.5c-0.7,1.9-0.4,5.1-0.7,7.8c-0.1,0.1,0,0.1-0.3,0.5c0,0.4,0,0.1,0,0.9l0.7,0.1
		c-0.2,4.4,0.5,7.9,0.5,13.3l0.6,0.6l0.1,0.3c0,0-0.1-0.1,0.4,0.4c1.2,0.6,2.7,0.3,4.5,0.4c1.9,0,4.5,0.4,5.3-2.3
		c0.2-0.4-0.1-0.3,0.5-1.7l0,0c0.2,0,0.1,0,0.8,0c0.3,0.2,0.2-0.4,1.1,0.4c-0.6,2.5,2,7.6-3.2,6.8c-0.7-1.2-26.7,3.2-17-2.9l0.1-0.2
		c0,0,0,0,0-0.2c0.4-1,0.2-1.8,0.4-3.7l0,0h0.1c0-0.4,0-0.1,0.1-0.9l0,0c-0.1-0.8-0.3-1.7-0.5-3.3c0.2-0.7,0.1-2.1,0.3-3.4l0,0
		c0-0.2,0,0,0-0.6l0,0c-0.1-0.7-0.1-1.9-0.1-3.6l0.2-0.6c2.1-7.9-7.1-11.4,0.9-10.9c0.6,0.1,0.4,0.1,2.2,0c1.2-0.2,3-0.8,4.7,0
		C322,83.8,322,83.5,322,84.8z"/>
	<path class="st0" d="M346.8,84.8c-0.5,0.5-1,0.5-1.7,1.5c-0.7,1.9-0.4,5.1-0.7,7.8c-0.1,0.1,0,0.1-0.3,0.5c0,0.4,0,0.1,0,0.9
		l0.7,0.1c-0.2,4.4,0.5,7.9,0.5,13.3l0.6,0.6l0.1,0.3c0,0-0.1-0.1,0.4,0.4c1.2,0.6,2.7,0.3,4.5,0.4c1.9,0,4.5,0.4,5.3-2.3
		c0.2-0.4-0.1-0.3,0.5-1.7l0,0c0.2,0,0.1,0,0.8,0c0.3,0.2,0.2-0.4,1.1,0.4c-0.7,2.5,2.1,7.6-3.2,6.8c-0.9-1.2-26.6,3.2-17-2.9
		l0.1-0.2v-0.1l0.1-0.1c0.4-1,0.2-1.8,0.4-3.7l0,0h0.1c0-0.4,0-0.1,0.1-0.9l0,0c-0.1-1.2-0.8-3.2-0.5-5.2c0.2-0.4,0-0.6,0.2-1.5l0,0
		c0-0.2,0,0,0-0.6l0,0c-0.1-0.7-0.1-1.9-0.1-3.6l0.2-0.6c1.2-4-2-8.1-2.1-10.9c1.1,0.1,1.1-0.3,2.9,0c0.6,0.1,0.4,0.1,2.2,0
		c1.2-0.2,3-0.8,4.7,0C346.7,83.6,346.7,84.1,346.8,84.8z"/>
	<path class="st0" d="M382.4,69.2l0.5,0.2l0.7-0.1c0.3,0.2,0.4,0.2,0.7,0.3c0.1,0,0.3,0.1,0.3,0.1c0.4,0.2,0.2,0.1,0.9,0l0.3,0.2
		c0,0,1.1,0.1,1.7-0.2l0.3,0.1c0.1,0,0,0,0.5-0.2c0.1,0.1,0.5-0.3,1.1,0c0.1,0.1,0.1,0.1,0.5,0.1c0.2,0.2,1.1,0.5,1.8,0.7
		c0.5,0.5,1.5,1.1,1.6,2.6c0.2,0.2,0,0.3,0.2,1c0.1,0.4,0,0.1,0.1,1.5l0.1,0.3c0,0.4,0,0.8-0.1,2c-0.2,0.2-0.3,0.4-1.1,0.8
		c0,0-0.1,0-0.2,0l-0.2-0.1c-0.3-0.3-0.4-0.3-1.2-1.4l-0.2-0.5c-0.2-0.3-0.7-1-1.7-1.7h0l-0.5-0.4h-0.3c-0.1,0,0.1,0-0.6-0.2
		l-0.1-0.3c-0.5-0.2-0.3,0-1-0.5l-0.3,0.1l-0.1-0.1c-0.1,0-0.1-0.1-0.2-0.1c-0.3-0.1-0.4-0.1-0.5-0.3c-0.2-0.2-0.1-0.1-0.5-0.4
		c0.1,0-0.4,0-1-0.3c-0.4,0.1-0.1,0-1.2,0.2l-0.2-0.1v-0.1c-0.3,0.2-0.7,0.2-1.4,0.7l-0.7-0.1l-0.1-0.2c-0.1,0-0.4-0.4-1.2-0.6H379
		c-0.2-0.1-0.4-0.1-0.5-0.1c0-0.2-0.5,0.1-0.6-0.3c-0.1,0,0,0-0.9,0v0.1c-0.6,0.2-1.5-0.2-2.5,1.1c0,1.4,0.5,3.2,0.3,5.2l0.1,0.2
		c-0.2,0.7-0.6,2-0.7,3.5c0.4,0.4,0.3,0.2,0.6,1.2c0.2,1.6-0.6,4.4,0.8,5.5v0.1l0.1,0.1c0.2,0,0.2,0,0.8,0.1l0.1,0.1
		c0.2,0,0.3,0.2,1.1,0.2l0.7-0.3h0.4c0.4-0.3,0.4-0.3,1.3-0.7h0.2c0.6-0.2,1.1-0.7,1.8-1.6c0.3-0.7,0.9-2.1,2.5-1.8l0.1,0.1h0.2
		l0.3,0.3c0.2,0.7,0.5,1.7,0.1,3.3c-0.1,0.2-0.1,0-0.1,0.5c0.1,0-0.2,0.1-0.4,0.8c0,0,0,0.3,0,0.8h0.1l0.3,0.6c0.2,1.3-0.1,3,0,5.2
		l-0.4,0.5h-0.1l-0.7,0.3c-1.5,0.2-1.6-1.3-2.7-2.9c-0.1-0.1,0.1,0.2-0.6-0.3c-0.3-0.1-1.4-0.2-2.2-0.4c-0.1-0.1-0.1-0.1-0.4-0.4
		l-0.7-0.3l-0.1-0.1c-0.2,0-0.9-0.1-1.7-0.6c0,0-0.7,0-1.5,0.1c-0.1,0,0,0-0.5,0.2l-0.3,0.3c0,0,0,0.5,0,1.2h0.1
		c0.2,0.4,0.2,0.5,0.5,1.5c0.1,0.1-0.1-0.2,0.1,1l-0.1,0.2c0,0.3,0,0.2,0,1.4l-0.3,0.5c0,0,0,0.2-0.2,0.9c0,0.5,0.1,1.1,0.1,2.5
		l0.3,0.7c-0.1,1.8-0.4,4.5,0.8,6.7c0.5,0.4,0.2,0.3,1.5,1.1c0.6,0.2,1.3,0.4,2.7,0.7l0.1-0.1l0.9-0.1l0.3,0.1l0.3-0.2l0.4-0.1
		c-0.1,0.1,0.3-0.4,1-0.6h2.2l0.5-0.2c0.1-0.3,0.6-0.3,1.3-1.2c0.1-0.1,0.4-0.2,0.9-0.7l0.1-0.3l0.4-0.4c0.2-0.3,0.1-0.4,0.5-1.4
		l0.4-0.5l0.1-0.3l0.3-0.3c0,0,0.1-0.1,0.3-0.8c0.3-0.3,0.3-0.3,0.5-0.5c0.1-0.1,0.1,0,0.5-0.3l0.2,0.1c0.1-0.1,0.4-0.1,0.9-0.4
		l0.1-0.1c0.1,0.1-0.1-0.2,0.6,0.3v0.1c0.1,0.3,0.1,0,0.3,1c-0.1,1.2-0.2,2.4-0.2,4.6l0.1,0.3c-0.3,1.7,0.9,3.5-1.2,4.6l-0.1-0.1
		l-0.1,0.1c-0.8,0-2,0.5-3.3,0c-0.1,0,0,0-0.4,0l-0.3-0.1c-0.5,0-1.1,0-2.4,0l-0.3,0.1c-1.4,0-3.3,0.4-5.3,0.2l-0.1-0.1
		c0,0-0.5-0.1-1.4,0.2l-0.5-0.2c-1.7,0.1-4.1-0.3-6.5-0.1l-0.2,0.2c-0.9-0.1-5.5,0.2-6.5-0.1l-0.1-0.1h-1.3l-0.1-0.2
		c-0.5,0.1-0.7-1.1-0.2-1.7l0.6-0.3h0.3l0.1-0.2c-0.1,0,0.3-0.1,0.5-0.4c0.1,0,0.1,0,0.1-0.1c4.9-3.4,1.8-12.9,3.4-18
		c0.2-0.8,0.1-1.4-0.4-2.9c0.1-2.3-0.2-5,1-7.8c0.1-0.1,0.1-0.3,0.1-0.5c0.1-0.2,0.1-0.3,0.1-0.4c-0.2-4.1-1.3-7.7-5.5-10.8
		c0,0,0-0.1-0.1-0.6l0.3-0.3l0.1-0.2c0.1-0.1,0.1-0.1,0.2-0.1l0.2-0.1l0.3,0.1v-0.1c0.1,0,0.2-0.1,0.3-0.1c0.2-0.1,0.1-0.1,0.5-0.1
		l0.3-0.1c0,0,0.2,0.1,0.5-0.1c0.3-0.2,0.2,0,0.9-0.2l0.1,0.1c0,0,0.2-0.1,0.5,0.1c0.3,0.1,0.2,0,0.9,0.2v0.1
		c0.3-0.1,1.2,0.1,2.1,0.2c0.1,0.1,0.3,0.1,0.9,0.4c0.3-0.1,1,0.2,2-0.3l0.3-0.3c0.4-0.1,1,0,2,0l0.1,0.1c1.5,0.3,3.8-0.5,5.8-0.7
		l0.5,0.2h1.9V69.2z"/>
</g>
<path class="st1" d="M181.5,83.1c-0.4,0,0.2,0-1.4,0l-0.4,0.1C179.7,83.4,182.7,83.1,181.5,83.1z M159.2,91.8v-0.4l0.2-0.8
	c0-0.5,0-0.1-0.5-0.8c0,0,0,0-0.2,0c-0.6,1.7-1.7,3.5-2.3,5.8l-0.1,0.1l-0.4,1.3c0,0.4,0,0.1,0.1,1.1c0.5,0,1.9,0,2.9,0
	c0,0-0.1,0-0.3,0c0-0.3-0.1-0.1-0.1-1.1c0.2-0.7,0.8-2.1,0.9-3.2l0.1-0.2C159.4,93.2,159.4,93,159.2,91.8z M135.8,83.7
	c4.2,0.9,5.2,1.8,4.7,7.3l0.1,0.3c0.2,0.2,0.2,0.2,0.8,0.7l0.3,0.5l0.1,0.1c1.5,0.7,1.3-2.4,1.1-3.9c1.2-4.6-5.5-5.7-10.1-6
	C133.6,82.8,134.3,83,135.8,83.7z M129.4,110.8c0,0,0.6,0,1.3,0.1c0.2-0.1,1.2-0.1,2-0.1c-2.9,0.1-7.2-0.8-8.5-3.7
	c-0.5-1.4-1.2-3.4-1.2-5.5l0,0l0.1-0.5c-0.2-1.1-0.3-2.9-0.4-4.7l-0.1-0.4c0-0.1,0,0.1,0-0.8c0-0.1,0.1,0,0.4-0.9c0-0.1,0-0.1,0-0.8
	c0.1-0.2,0.2-0.3,0.2-0.4l0.1-0.2c0.1-0.9-0.5-0.9,0.9-2.5l0,0l0,0v-0.1c0.6-1.7,2.3-3.1,4.5-4c-0.4,0-1.1-0.1-2.2-0.1
	c-1.4,1.1-3.5,1.4-4.6,3.7l-0.1,0.2v0.2l-0.1,0.2v0.1l0,0l0,0c-0.5,0.5-0.9,1-0.9,2.5l-0.1,0.2c0,0.1-0.1,0.2-0.2,0.4v0.5
	c-0.1,0.1-0.1,0.3-0.6,1.3c0,0.1,0-0.1,0,0.8l0.1,0.4c0.1,1.3,0.1,2.7,0.3,4.7l-0.1,0.5l0,0c0,1.7,0.5,3.3,1.2,5.5
	c0.9,2,4.2,3.8,8,3.7V110.8z M230.4,83.2h0.3v-0.1h-0.5l0,0l0,0L230.4,83.2z M217,83c0.1,0,0,0,0.5,0.2c0.6,0.1,0.5,0.3,1.4-0.3
	c0.2-0.1,0.2-0.1,0.4-0.1c0,0,0,0-0.7-0.4c-0.3,0.2-0.7-0.4-1.9,0.4h-0.1l0,0l0.1,0.1L217,83z M226.4,83.4c-0.2,0-0.2-0.1-1.3-0.1
	c0,0-0.5-0.1-1.1-0.4h-0.4c-0.3,0-1.2,0-1.9,0l0.4,0.2c0.4,0.1,1.4,0.2,2.5,0.2c0,0,0.3,0.2,1.2,0.2v-0.1L226.4,83.4l0.3-0.1
	L226.4,83.4L226.4,83.4z M136.5,102.8h0.7C137.2,102.8,137,102.8,136.5,102.8z M183.4,91.9c0.1,2.9-0.7,5,3.7,4.6l0.4-0.1
	c-2.6,0.1,0-4.8-2.4-5.2c0.1-0.3-0.2-0.2,0.3-1l0.1-0.3l0.1-0.9c0.1-0.2,0.3-1.2,0.4-2.1c0-0.1,0.2-0.2,0.7-0.9l0,0l-0.2-0.1
	c-0.9,0-0.7-0.5-2.4,0.2c0,0.1-0.2,0.2-0.7,0.9c0,0,0,0.1-0.1,0.6l-0.1,0.2c-0.1,0.4,0.1,0.2-0.3,1.3l-0.1,0.9l-0.1,0.3
	c0,0.1-0.4,0.3-0.3,1.1C183.2,91.3,183.4,91.4,183.4,91.9z M204.7,83.3c0.3-0.1,0.6,0.1,1.6-0.1c-0.2,0-1-0.1-2,0.1
	C204.4,83.3,204.3,83.3,204.7,83.3z M9.7,69.3H9.3c-0.1,0,0.1,0-0.6,0.2H10L9.7,69.3z M5.4,69.2c-0.4,0-0.5,0-1.5,0.1l-0.2,0.1
	c0.2,0.1,0.4,0.1,1,0.2v0.1l0.8,0.1l0.8-0.3l0,0L6,69.3L5.4,69.2z M16.8,112.4c0-0.1-0.1-0.2-0.1-0.5c-0.4-0.8-1.3-1.4-2-2.9
	c-0.7-0.9-1.8-0.9-1.7-3l0.5-1c-0.1-4.5-1-10.1-1.1-15c-0.1-0.3-0.1,0-0.1-1l0.1-0.1c0.2-0.9,0.4-1.8,0.3-3.3
	c-0.1-0.1-0.2-0.2-0.3-0.4c-0.1-0.1-0.1-0.1-0.2-0.2c0-0.1-0.1-0.3-0.1-0.6l-0.5-1.7c0.1,0-0.2-0.2-0.4-0.7c0,0-0.4-0.5-1-1.1h-0.1
	V81c-0.2-0.1-0.8,1.2-0.4,2l0.1,0.1l0.2,0.4c0,0,0,0.6,0,1.2l0.1,0.1c0.1,1.1,0.3,2.5-0.2,4.2l-0.2,0c0.1,4.7,1.1,11.2,1.2,16.1
	l-0.5,1c-0.2,1.1,0.4,2.1,1.7,3.1c0.3,0.8,1.1,1.5,2,2.9c0.1,0.3,0.1,0.5,0.1,0.5c1,1.2-1.5,1.5-2.9,1.3
	C12.2,113.6,17.7,115.3,16.8,112.4z M43.2,79.7c-0.1-0.1,0,0-0.3-0.1l-0.2-0.1l-0.5,0.3c-0.2,0.5-0.5,0.6-0.8,1.9
	c-0.1,0.2-0.1,0-0.1,0.5c0,0.3-0.6,1.3-0.9,2.1c0,0.2,0,0,0.1,0.6l-0.1,0.4l-0.3,0.3l-0.5,1.1l-0.3,0.2l-0.1,0.4l-0.6,0.5l-0.1,1.1
	c-0.2,0.7-0.8,1.3-0.8,2.7c-0.7,1.7-1.6,3.7-2.7,5.9l0.1,0.2c0,0.7,0,1-1.3,1.9c-0.9,2.2-2.3,4.5-3,7.6l-0.3,0.4c0,0,0,0.2-0.4,0.8
	l-0.1,0.3c-0.2,0.3-0.1,0.3-0.8,0.8l-0.1,0.3c0,0-0.1,0.2-0.5,0.8l-0.1,0.4c0.1,0.3,0.1-0.1,0.6,1.2l0.3,0.4l0.1,0.3
	c0,0,0,0.1,0.3,0.4c0,0.1,0,0.1,0.1,0.1l0.1-0.1h0.3l0.3-0.2l0.9-2.5c0.1-0.1,0.1-0.1,0.5-0.8l0.1-0.3c-0.1,0,0.4-0.2,0.8-0.8
	l0.1-0.3c0-0.1,0.1,0.1,0.4-0.8l0.3-0.4c0.5-2.6,2.2-5.5,3.4-8.6l0.3-0.3c0.8-1.5,1.6-3.3,2.4-5.4c0.2-0.3,0.5-0.7,0.8-1.5
	c0-0.7,0.3-1.4,0.8-2.7l0.1-1.1l0.6-0.5l0.1-0.4l0.3-0.2l0.5-1.1l0.3-0.3l0.1-0.3v-0.2l0,0c0,0,0-0.1,0-0.5c0,0,0-0.3,0.3-0.8
	c-0.2-0.8,0.7-2.2,0.1-3.7L43.2,79.7z M97.4,91.9c0.1,2.9-0.7,5,3.7,4.6l0.4-0.1c-2.6,0.1,0-4.8-2.4-5.2c0.1-0.3-0.2-0.2,0.3-1
	l0.1-0.3l0.1-0.9c0.1-0.2,0.3-1.2,0.4-2.1c0-0.1,0.2-0.2,0.7-0.9l0,0l-0.2-0.1c-0.9,0-0.7-0.5-2.4,0.2H98c0,0.1-0.1-0.1-0.5,0.6
	c0,0-0.1,0.8-0.2,1.5L97,88.9l-0.1,0.9l-0.1,0.3c0,0.1-0.4,0.3-0.3,1.1C97.2,91.3,97.4,91.4,97.4,91.9z M95.5,83.1
	c-0.4,0,0.2,0-1.4,0l-0.4,0.1C93.7,83.4,96.7,83.1,95.5,83.1z M73.2,91.8v-0.4l0.2-0.8c0-0.5,0-0.1-0.5-0.8c0,0,0,0-0.2,0
	c-0.4,1.3-1.4,2.6-1.7,4.5c-0.1,0.2-0.3,0.4-0.5,1.4l-0.1,0.1L70,97.1c0,0.4,0,0.1,0.1,1.1c0.5,0,1.9,0,2.9,0c0,0-0.1,0-0.3,0
	c-0.1-0.3,0-0.1-0.1-1.1c0.2-0.7,0.8-2.1,0.9-3.2l0.1-0.2C73.5,93.3,73.7,93.1,73.2,91.8z M11.5,69.7l0.3,0.1c0.3,0,0.8,0,1.9-0.1
	l-0.4-0.1h-2.6C10.7,69.6,10.8,69.7,11.5,69.7z M31.2,99.6c-2.1-0.8-2.4-4.2-3.5-6.7c-0.2-1.4-1.3-3.5-2.1-5.4V87l-0.2-0.7
	c-1.3-0.6-1.4-0.8-2-2C23,83.8,23,83.5,23,82.7c-0.2-0.2-0.3-0.3-0.3-0.4c-0.1-0.1-0.1-0.1-0.1-0.2c-0.1-0.1-0.1-0.1-0.2-0.3v-0.1
	c-0.5-1.5-1.7-2.5-2.6-4.5C19.6,77,19.6,77,19,76.4l-0.2-0.1h-0.1l-0.6-0.9c0.1,0-0.3-0.9-0.3-1.5c0.3-0.7,0.3-0.6,0.7-2.1
	c-0.1-0.1,0.2-0.5-0.3-1.6h-0.1L18,69.9l-0.1-0.1l-0.2-0.1c0,0-0.6-0.2-1.2-0.1l-0.2,0.1c0,0-0.4,0.1-1,0.1c0.1,0.1,0,0,0.3,0.3h0.1
	c0,0.2,0.4,0.3,0.3,1.6c-0.1,0.1-0.4,1.3-0.7,2.1c0,0-0.1,0.1,0.1,0.7c0,0.1,0.1,0.2,0.1,0.3l0.2,0.7l0.6,0.9h0.1l0.2,0.1
	c0,0,0.4,0.4,0.8,0.8c0.4,1.2,1.9,2.6,2.6,4.5v0.1c0.1,0.1,0.1,0.1,0.2,0.3c0.1,0.3,0.1,0.1,0.4,0.6c0,1.2,0.6,2.8,2.4,3.7l0.2,0.7
	v0.5c0.6,1.6,1.6,3.2,2.1,5.4c1.1,2.1,1.1,6.6,4.7,7C30.4,99.9,30.9,99.8,31.2,99.6z M314.3,83.8c0.4,0,0,0,1.4-0.1
	c-0.1,0-0.2,0-0.3-0.1c-0.6,0-0.9,0.1-2,0.1c-0.1,0,0,0-0.2,0C313.4,83.7,313.3,83.8,314.3,83.8z M372.4,82.3L372.4,82.3
	c0,0.1,0,0.1,0.2,0.8c0.2,1.6-0.6,4.4,0.8,5.5v0.1l0.1,0.1c0.2,0,0.2,0,0.8,0.1l0.1,0.1c0.4,0,0,0.2,1.1,0.2l0.7-0.3h0.3l-0.4-0.1
	H376l-0.1-0.1v-0.1c-1.1-0.2-0.8-4.2-0.8-5.5c0-0.1,0,0-0.2-0.7c0-0.3,0.1,0-0.4-0.5v-0.5c0.3-0.8,0.2-1.4,0.7-3l-0.1-0.2v-0.7
	l0.1-0.4c-0.1-1-0.3-2.3-0.4-4c0.2-0.3,0.4-0.8,1.5-0.9c-0.1,0-0.1,0-0.1,0c0-0.2-0.5,0.1-0.6-0.3h-0.9V72c-0.6,0.2-1.5-0.2-2.5,1.1
	c0.1,0.9,0.1,2.3,0.4,3.9l-0.1,0.4v0.7l0.1,0.2c-0.2,0.5-0.3,1.7-0.7,3v0.5C371.9,81.8,372.1,82,372.4,82.3z M372.7,69.7
	c1.1-0.1,3.3-0.4,0-0.2l-0.2,0.2C372.5,69.7,372.5,69.7,372.7,69.7z M348.5,110.6L348.5,110.6c0.3,0,0.7,0,2,0
	c-1-0.1-2.1,0.3-3.5-0.2c-0.2,0-0.2-0.1-0.4-0.2c0,0,0.1,0.1-0.4-0.4l-0.1-0.3l-0.6-0.6c0-0.3-0.2-0.2,0-2.3c0-1.2,0.5-3-0.3-4.6
	c-0.4-1.7,0-4.2-0.1-6.4l-0.7-0.1c0-0.5,0,0.1,0-0.8c0.1-0.1,0.1,0,0.4-0.6c0.7-2.4-0.2-4.9,0.8-7.8c0.1-0.3,1-1,1.7-1.5l0.3-0.5
	c0,0,0-0.1,0-0.6c-0.7-0.5-2-0.4-3.5-0.3c0.1,0.2,0.3-0.4,1,0.3c0,0.2,0,0,0,0.6l-0.3,0.5c-0.5,0.5-1,0.5-1.7,1.5
	c-0.7,1.8-0.6,5.2-0.8,7.8c-0.1,0.1,0,0.1-0.3,0.5c0,0.4,0,0.1,0,0.9l0.7,0.1c0.1,2.1-0.2,3.9,0.1,6.4c0.4,0.5,0.5,2.9,0.3,4.6
	c0,0.1-0.2,0.3,0,2.3l0.6,0.6l0.1,0.3c0,0-0.1-0.1,0.4,0.4c0.2,0.1,0.2,0.1,0.4,0.2C345.5,110.7,347,110.6,348.5,110.6z M369.3,69.9
	c0,0,0.1,0,0.5-0.2h0.1l-0.3-0.1c0,0-0.1,0.1-0.6-0.1c-0.4-0.2-0.5-0.1-1.5-0.1v-0.1l-0.4-0.1c-0.2,0-0.1,0-0.4-0.1
	c-0.2-0.1-0.1-0.1-0.5-0.1l-0.1-0.1c0.1,0-0.4,0-0.9,0.2c-0.2,0-0.1,0.1-0.5,0.1l0,0h0.3v0.1c0.3-0.1,1.2,0.1,2.1,0.2
	c0.1,0.1,0.3,0.1,0.9,0.4C368.2,69.9,368.5,69.9,369.3,69.9z M381,69.4l0.7-0.1c0.3,0.2,0.4,0.2,0.7,0.3c0.1,0,0.3,0.1,0.3,0.1
	c0.3,0.1,0.1,0.1,0.8,0l0.3,0.2c-0.1,0,1.9,0.1,1.1-0.2c-0.3-0.1-0.4-0.1-0.7-0.3l-0.7,0.1l-0.5-0.2L381,69.4l-0.5-0.3
	c-0.5,0-0.4,0-1.6,0.2C379.4,69.4,379.9,69.2,381,69.4z M377.7,110.5l-0.5-0.1c-0.1-0.1,0.2,0.1-1-0.6l-0.5-0.5
	c-0.1-0.1,0-0.1-0.3-0.5c-0.2-0.7-0.4-1.9-0.7-3.2c0-0.7,0.2-1.6,0.2-2.9l-0.3-0.7c0-0.5,0-1.1-0.1-2.5c0.1-0.3,0.1-0.1,0.2-0.9
	l0.3-0.5v-1.4l0.1-0.2c0-0.1-0.1,0-0.1-1.1c-0.1-0.2-0.1-0.7-0.5-1.5h-0.1v-1.3l0.2-0.2l0,0c-0.2-0.1-0.1,0-0.6-0.3
	c0,0-0.7,0-1.5,0.1c-0.1,0,0,0-0.5,0.2l-0.3,0.3V94h0.1c0.2,0.4,0.2,0.5,0.5,1.5c0.1,0.1-0.1-0.2,0.1,1l-0.1,0.2v1.4l-0.3,0.5
	c0,0,0,0.2-0.2,0.9c0,0.5,0.1,1.1,0.1,2.5l0.3,0.7c0.1,0.6-0.2,1.6-0.2,2.9c0.2,0.7,0.3,1.9,0.7,3.2c0,0,0.1,0.1,0.3,0.5l0.5,0.5
	c0.1,0.1-0.2-0.1,1,0.6c0,0,0.6,0.1,1.2,0.4c0,0,0.5,0,1.5,0.3l0.1-0.1l0.9-0.1l0.3,0.1l0.1-0.1h-0.3L377.7,110.5z M380.3,72.5
	c0.1,0.1,0,0,0.4,0.3l0.1,0.2l0.7,0.1c0.2-0.1,0.3-0.2,1-0.5l0,0c0,0-0.4,0-0.9-0.3c-0.4,0.1-0.1,0-1.2,0.2l-0.2-0.1v-0.1
	L380.3,72.5z M385.8,85.2l-0.3-0.3h-0.2l-0.1-0.1c-0.8,0.2-0.6-0.6-2,0.7c0.1,0.2,0.1,0.4,0.3,1c0,0.6,0.1,0.9-0.2,2.1
	c-0.1,0.2,0-0.1-0.1,0.4l-0.3,0.5l-0.1,0.3v0.8h0.1l0.3,0.6c0.2,0.7-0.1,4,0,5.3l-0.1,0.1c0.2,0.3,0.1,0.2,1.5,0.6l0.7-0.3h0.1
	l0.4-0.5c-0.1-1.7,0.2-3.6,0-5.3l-0.3-0.6h-0.1v-0.8l0.1-0.3l0.3-0.5c0-0.2,0-0.1,0.1-0.4c0-0.3,0.3-1.1,0.2-2.1
	C386,86,386,86.3,385.8,85.2z M386,69.7h0.2H386L386,69.7z M268,83.3c-0.4,0-0.7,0-0.9,0.1c0.6,0.1,1,0.1,2.5,0.2l0.8-0.2
	C270.2,83.4,268.7,83.3,268,83.3z M252.8,91.8v-0.4l0.2-0.8c0-0.5,0-0.1-0.5-0.8c0,0,0,0-0.2,0c-0.6,1.7-1.7,3.5-2.3,5.8l-0.1,0.1
	l-0.4,1.3c0,0.4,0,0.1,0.1,1.1c0.5,0,1.9,0,2.9,0c0,0-0.1,0-0.3,0c0-0.3-0.1-0.1-0.1-1.1c0.2-0.7,0.8-2.1,0.9-3.2l0.1-0.2
	C253,93.2,253,93,252.8,91.8z M235.1,83.2l-0.3-0.1c-0.4,0-0.5,0-1.5,0l-0.1,0.1c0,0-0.1,0-0.5,0l-0.1-0.1h-0.4
	c0.7,0.2,0.5,0.5,2,0.5l0.2-0.2l0,0c0.3-0.1,0,0,0.9-0.1L235.1,83.2L235.1,83.2z M280.1,101.9l0.4-0.9l-0.3-0.4l-0.1-0.5
	c-0.2-0.4-0.5-0.8-0.7-1.9l-0.2-0.3l0,0c0-0.1-0.1-0.3-0.1-0.8c-0.3-0.5-0.5-1.5-1.1-2.5c-0.3-0.8,0.1-1.6-1.1-2.9l-0.1-0.4
	l-0.2-0.3c-0.2-0.4-0.3-1.1-0.8-2.1l-0.1-0.6l0.1-0.5c0.2-0.3,0.3-0.2,0.9-1.1c0.7-0.5,1.4-1.3,1.2-3c-0.9-0.1-1.9-0.3-3.4-0.2
	c0.2,0,0.5,0.1,0.9,0.1l0,0c-0.1,0.5,0.3,0.6-0.2,1.9c-0.1,0.2-0.3,0.6-1,1.1c0,0-0.4,0.5-0.9,1.1l-0.1,0.5l0.1,0.6
	c0.3,0.4,0.4,1.1,0.8,2.1l0.2,0.3l0.1,0.4c0.4,0.4,1,1.6,1.1,2.9c0.3,0.5,0.5,1.5,1,2.5c0,0.2,0,0.2,0.1,0.8l0,0l0.2,0.3
	c0.1,0.4,0.1,1,0.7,1.9l0.1,0.5l0.3,0.5v0.3c0,0.2,0.1,0.5,0.3,1.2c0,0.1,0.1,0,0.4,0.7C279.6,102.9,279.8,102.6,280.1,101.9z
	 M339,83.8c0.4,0,0,0,1.4-0.1c-0.1,0-0.3,0-0.4-0.1c-0.6,0-0.9,0.1-2,0.1c-0.1,0,0,0-0.2,0C338,83.7,338,83.8,339,83.8z M240.3,83.1
	c-0.4,0-0.3,0-1.1,0c-0.2,0-0.1,0-0.9,0c0.3,0.4,0.1,1.5,0.1,2.5l-0.2,0.4v0.2c0.1,0-0.7,0.6-0.4,1.3c0.2,0.4,0.3,1,0.7,2l0.1,0.1
	c0,0.1,0,0,0.2,0.5c0,0,0,0,0.4,0c0.1,0,0.4,0,0.6-0.1c0,0,0,0,0.2-0.2l0.1-0.3v-0.1l0.1-0.3c0.2-0.8-0.4-1.2,0.6-3v-0.2
	c0,0,0.1-0.1,0.3-0.6c0-0.1,0.1-1,0.1-1.6C241.1,83.4,240.8,83.1,240.3,83.1z M290.2,83.4c0.2,0,0.5,0,0.6,0c-0.1,0-0.3,0-0.4,0
	l-0.4-0.1c-0.5,0-1.5,0-2.4,0l0,0l0.2,0.1C288.2,83.4,288.7,83.4,290.2,83.4z M323.8,110.6L323.8,110.6c0.2,0,0.7,0,1.8,0
	c-1-0.1-2.1,0.3-3.5-0.2c-0.2,0-0.2-0.1-0.4-0.2c0,0,0.1,0.1-0.4-0.4l-0.1-0.3l-0.6-0.6c-0.4-1.5,0.6-4.9-0.4-6.9
	c-0.1-1-0.2-2.8,0-4.4v-2l-0.7-0.1c0-0.4,0-0.5,0-0.6l0.1-0.2v-0.1c0,0,0.1-0.1,0.3-0.5c0.4-2.4-0.3-4.9,0.7-7.8
	c0.1-0.3,1-1,1.7-1.5l0.3-0.5c0,0,0-0.1,0-0.6c-0.7-0.5-2.1-0.4-3.6-0.3c0.1,0.2,0.3-0.4,1,0.3c0,0.2,0,0,0,0.6l-0.3,0.5
	c-0.5,0.5-1,0.5-1.7,1.5c-0.7,1.7-0.4,5.3-0.7,7.8c-0.1,0.1,0,0.1-0.3,0.5v0.1l-0.1,0.2c0,0.1,0,0.3,0,0.6l0.7,0.1
	c0.1,2.1-0.2,3.9,0.1,6.4c0.8,1.4,0.1,3.6,0.4,6.9l0.6,0.6l0.1,0.3c0,0-0.1-0.1,0.4,0.4c0.2,0.1,0.2,0.1,0.4,0.2
	C320.7,110.7,322.2,110.6,323.8,110.6z M54.7,69.7l-0.2,0.1c-0.2,0-0.3,0.1-1,0.1l-1.1-0.4h-1.9l-0.3-0.2c-0.7,0-1.9-0.1-3.2-0.1
	h0.6l0.3,0.2h1.9l1.1,0.4c0.3,0,0.4,0,1-0.1l0.2-0.1c0.8,0,2.2,0.6,1.9,1.8c0,0.3-0.2,0.8-0.3,0.9c-0.1,0.3-0.1-0.1-0.2,0.7
	l-0.7,0.3c-3.6,3.6-1.6,11.4-2.7,17.3c0.1,1,0.4,3,0.7,4.8c0,0.1-0.1,0.8-0.6,1.5c0,0.1-0.1,0.2-0.1,0.3c-0.2-0.1-0.1,4.5-0.1,5.1
	l0.1,0.3c-0.1,1,0.6,2.5,0.6,4.3c-0.1,0.2,0,0.4-0.3,1.2l0.1,0.4h0.1c0,0.1,0.1-0.1,0.5,0.8l0.5,0.4l0.4,0.5c0,0,0.1,0.1,0.6,0.5
	l0.3,0.1c0,0,0.3,0.3,0.5,1l-0.1,0.4c0,0.1,0,0.1-0.1,0.3c-0.1,0.1-0.3,0.1-0.3,0.2l-0.5,0.1c-0.8-0.1-1.2-0.1-2.9,0
	c-0.3,0.1,0,0-0.8,0.1l-0.9,0.5c-1,0.1-1.6-0.1-3.2,0.2h2.6c0.6-0.2,1.9-0.2,3.2-0.2l0.9-0.5h0.1c0.6-0.1,2.1-0.3,3.6-0.1l0.5-0.1
	c0.1-0.2,0.5,0,0.4-0.7l0.1-0.4c-0.1-0.3,0.1,0-0.5-1l-0.3-0.1c-0.2-0.2,0,0-0.6-0.5l-0.4-0.5l-0.5-0.4c-0.1-0.1,0.2,0.2-0.5-0.8
	h-0.1l-0.1-0.4c0.1-0.3,0.1-0.4,0.3-1.2c0.1-1.2-0.5-2.4-0.6-4.3l-0.1-0.3c0.1-0.3-0.2-4.7,0.1-5.1c0.1-0.1,0.1-0.3,0.1-0.3
	c0.2-0.5,0.4-0.3,0.6-1.5c-0.2-1.3-0.5-2.5-0.7-4.6c0.2-2.3,0.3-4.7,0.6-7.8l0.2-0.3c0.5-3.3-1.1-6.7,2.1-9.4l0.7-0.3
	c0-0.2,0,0,0.2-0.6c0.1-0.1,0.3-0.6,0.3-0.9c0.1-0.1,0.1-0.1,0.1-0.2C56.7,70.4,56.1,69.9,54.7,69.7z M300.7,83.3
	c0.3-0.1,0.6,0.1,1.6-0.1c-0.2,0-1-0.1-2,0.1C300.4,83.3,300.3,83.3,300.7,83.3z M295.6,83.4c-0.3,0-0.1,0-0.6,0l-0.4-0.1
	c-0.1-0.1-0.6,0.1-1.7,0.1l0,0c0.1,0,0,0,0.3,0l0.1,0.4l-0.1,0.3c0,0.1,0-0.1-0.7,1c-0.3,0.1-0.3,0.1-1,0.4l-0.1,0.1l-0.2,0.1
	c-0.5,0.4-1.3,0.9-2,2c-0.2,0.4-0.3,1.3-1.2,2.2c0,0.1-0.2,0.3-0.3,0.6c0,0.1-0.1,0.2-0.1,0.2c0,0.1,0.1,0.2-0.2,1.1v0.3l0,0
	c-0.1,0,0.1,0-0.6,0.7c-0.1,0.4-0.5,1-0.8,1.8l-0.1,0.1c-0.3,0.4-0.3,1-0.8,2l0,0c-0.5,1.2-1,2.7-1.5,4.6c-0.6,1.1-0.9,2.1-1.8,3.7
	v0.1l-0.1,0.3v0.1c0,0.1,0,0-0.1,0.4c0,0.1-0.1,0.2-0.1,0.4c-0.1,0.2-0.1,0.3-0.2,0.4c-0.2,0.7-0.5,1.6-0.9,2.9
	c-0.1,0.3-0.1,0.3-0.5,1c0,0,0,0.1-0.1,0.2c0,0.1,0,0,0,0.3c0,0.1-0.1,0.3-0.4,1.3l-0.2,0.4l-0.1,0.1c0.1,1.3,2.2,1.6,2.8-0.5
	c0-0.1,0.1-0.3,0.4-1.3c0-0.1-0.1-0.2,0.1-0.5c0.1-0.1,0.2-0.4,0.5-1c0.2-0.6,0.5-1.7,0.8-2.9c0-0.1,0.1-0.2,0.2-0.4
	c0-0.2,0-0.1,0.2-0.7c0,0,0,0,0-0.2l0.1-0.3V105c0.5-0.8,1.1-2.3,1.8-3.7c0.2-0.6,0.5-1.8,0.8-3.1c0.8-1.4,1.2-3.1,2.2-5.1
	c0.2-0.3,0.2-0.1,0.8-1l0,0v-0.3c0-0.1,0.2-0.2,0.2-1.1c0,0,0.1-0.1,0.1-0.2c0.3-0.9,1.1-1.2,1.5-2.8c0.5-0.6,0.7-1.1,2-2l0.2-0.1
	l0.1-0.1c0.1-0.1,0.4-0.1,1-0.4c0.1-0.1-0.3,0.2,0.7-1l0.1-0.3L295.6,83.4L295.6,83.4z M301.8,113.3c-0.1,0-0.5,0-1,0l-0.7,0.2
	c0.6,0,1.4,0.3,2.7,0h-0.1L301.8,113.3z M309.1,111.7c-0.1,0,0.1-0.1-0.6-0.5l-0.6-0.2l-0.5-0.4L307,110c-0.1-0.1,0.1,0-0.3-0.7
	c-0.3-0.9-0.2-2.6-0.2-4.3l-0.1-0.4c1.4-6.2-2.6-14.9,2.9-20l0.1-0.3c-0.2-1.1-1.8-1.4-3.8-1.3c0.8,0.2,1.2,0.6,1.3,1.2l-0.1,0.3
	c-4.9,2.6-2.8,9.9-3.2,15.2l0.1,0.3c0,1.1-0.3,3-0.2,4.6l0.1,0.4c0.1,1.2-0.2,2.4,0.2,4.3c0,0,0.1,0,0.3,0.7l0.4,0.6l0.5,0.4
	l0.6,0.2c0,0.1,0.1-0.1,0.6,0.5c0,0,0.1,0.2,0.2,0.3c0.3,0.6-0.1,1.2-1.2,1.4c1-0.2,4,0.7,3.8-1.5
	C309.3,111.9,309.2,111.8,309.1,111.7z M234.9,112.8c-0.1,0,0.1-0.1-0.1-0.3l0,0c-0.1-0.1,0,0-0.5-0.5c-0.2-0.1-0.4-0.2-1-0.5
	l-0.2-0.2l-0.2-0.1l-0.5-0.5l-0.1-0.2l-0.4-0.4c0-0.1-0.1-0.3-0.5-1.3c0-1.4,0.2-2.2,0.1-4.2l-0.1-0.4v-2.1c0-0.4-0.1-0.1-0.1-1.4
	c-0.1-0.4-0.3-0.4-0.1-2.3c0.1-3.8-0.3-8.7,0.2-12.8l-0.3-0.2c-0.1,0,0,0-0.7-0.2H230l-0.1,0.1h-0.1l-0.1-0.1l-0.2-0.1
	c-1.7,1.2-0.6,8.5-0.9,10.7c0.2,0.3,0,0.9,0.1,1.8c0,0.8-0.4,0.7,0,3.1c0-0.1,0,0.6,0.1,1.3c0,2,0,4.2-0.1,6.8
	c0,0.1,0.1,0.3,0.5,1.3l0.4,0.4l0.1,0.2l0.5,0.5l0.2,0.1l0.2,0.2c0.2,0.1,0.4,0.2,1,0.5c0,0,0.1,0.1,0.5,0.5l0,0c0,0,0,0.1,0.1,0.1
	c0,0.2,0,0.2,0,0.8h0.1l0.5,0.2c0.1,0,0.8,0,1.9,0l0.2-0.2C234.9,113.4,234.9,113.2,234.9,112.8z M251.4,100.3
	c-1,0.2-2.2-0.4-3.7,0.4v0.1l-0.6,1.3v0.2c-0.3,0.8-0.1,1.9-1.4,3c0,0,0,0-0.2,0.7c-0.5,0.6-2.1,4.1,0.3,4.8c0,0,0.5,0.7,0.8,1.3
	c-0.1,0.3,0.3,0.6-0.3,1.2c0.5,0,1.3,0,2.3,0c0.2,0.1,0.9-0.6,0.5-1.4c0-0.1,0-0.1,0-0.2c-0.1-0.1,0-0.1-0.6-0.9
	c-1.5-0.6-1.9-2.4-0.3-4.8c0.1-0.3,0.2-0.8,0.4-1.7c1-1.5,0.9-4.6,4.2-4C252.4,100.4,252,100.3,251.4,100.3L251.4,100.3z
	 M326.5,113.4h-0.2l-0.4-0.1c-0.4,0-1.2,0.1-2.2,0.1l-0.4,0.1c1,0,2.4,0,3.9-0.1C327.2,113.4,326.8,113.4,326.5,113.4z M245,113.5
	c-0.6,0-0.8,0-2.2,0c0.7,0,1.5,0.1,2.8-0.1c-0.1,0-0.2,0-0.2,0C245.2,113.5,245.1,113.5,245,113.5z M258.4,113.5
	c0.4,0.1,0.3,0.1,1.7,0.1C259.8,113.6,259.3,113.6,258.4,113.5L258.4,113.5z M268.1,111.5c-0.9-0.8-0.9-0.1-1.9-1.7
	c0,0,0-0.1-0.1-0.2c0,0,0-0.1-0.1-0.3c-0.1-0.1-0.1-0.2-0.1-0.3l-0.1-0.2l0,0l-0.4-0.4c-0.2-0.5,0,0-0.6-1.4c0-0.1,0-0.2,0-0.3
	c-0.3-1-0.7-2.7-1.4-4.1l-0.1-0.6c-0.6-0.6-0.8-2-1.5-3.2c0,0-0.1-0.1-0.1-1c-0.7-2-1.4-4.2-2.2-6.9l-0.3-0.4l-0.1-0.4
	c-0.6-1.3-1.1-3.2-2-5.2v-0.4l-0.2-0.5c0.5-1.3-2.1-2.7-2.7-0.5c0.5,1.9,1.5,4,2.4,6.6l0.1,0.4l0.3,0.4c0.5,1.9,1.3,4.1,2.1,6.7
	c0,0.4-0.1,0.2,0.1,1.2c0.6,0.8,0.6,1.9,1.5,3.2l0.1,0.6c0.5,1.2,0.9,2.4,1.4,4.1c0,0,0,0.1,0,0.3l0.1,0.2c0.1,0.4,0.3,0.7,0.5,1.2
	l0.4,0.4l0,0l0.1,0.2c0,0.1,0.1,0.2,0.1,0.3c0.1,0.2,0,0.1,0.2,0.5c0.2,1,2.7,1.4,2.4,3.3l-0.3,0.2l-0.4,0.1c-0.2,0-1.3,0-2.1,0
	c1.3,0.2,2.7,0,4.7,0l0.4-0.1l0.3-0.2c0-0.2,0-0.1,0-0.7C268.5,112.1,268.4,111.8,268.1,111.5z M316.1,113.3l-0.9,0.2
	c-0.7,0-1.1,0.1-2.6,0.1c0.7,0.2,3.3,0,5.1-0.1l0.3-0.1l-0.9-0.2L316.1,113.3z M392.6,103.3l-0.1-0.2V103l-0.3-0.2l-0.3-0.1
	l-0.1,0.1c-0.1,0.1-0.3,0.1-0.9,0.4l-0.2-0.1c0,0-0.1,0.1-0.5,0.3c-0.1,0.1-0.1,0.1-0.2,0.2l0.1,0.5c-0.1,1-0.2,2.7-0.2,4.5l0.1,0.3
	c-0.3,1.7,0.9,3.5-1.2,4.6l-0.1-0.1l-0.1,0.1c-0.1,0,0,0-0.3,0c0.6,0.1,1.8,0.1,2.9-0.1l0.1-0.1l0.1,0.1c1.3,0.3,1.3-3.2,1.2-4.6
	l-0.1-0.3c0-1.4,0.1-2.3,0.2-4.5C392.7,104,392.6,103.8,392.6,103.3z M377.8,113.8l0.3-0.1h0.1L377.8,113.8L377.8,113.8z
	 M382.1,113.4l-0.3,0.1c-0.4,0.1-1.8,0.1-2.7,0.1v0.1c1.2,0.2,3.6-0.1,5.4-0.2C384.2,113.5,383,113.5,382.1,113.4L382.1,113.4z
	 M394.2,75.3c0-0.6,0-0.2-0.1-1.5c-0.2-0.2,0-0.2-0.2-1c-0.3-0.4,0.2-0.9-0.7-1.8c-0.2-0.2-0.3-0.1-0.9-0.8c-0.1,0-0.6-0.2-1.3-0.4
	l-0.5-0.3c-0.1,0.1-0.5-0.2-1-0.2l-0.4,0.1h-0.2c0,0-0.1,0-0.5,0.2l-0.3-0.1H388l0.3,0.2c0.3,0.1,0.5,0.1,1.3,0.4
	c0,0,0.4,0.4,0.9,0.8c0.3,0.1,0.5,0.9,0.7,1.8c0.2,0.2,0,0.3,0.2,1c0.1,0.4,0,0.1,0.1,1.5l0.1,0.3c-0.1,0.4,0.1,0.3-0.1,1.4
	c0-0.1,0.4,0.8,1,1.3l0.2,0.1c0.1,0,0.1,0,0.1,0h0.1l0.8-0.5l0.3-0.3c0-0.3,0.1-0.9,0.1-2L394.2,75.3z M340.8,113.3l-0.9,0.2
	c-0.6,0-1.1,0.1-2.5,0.1c0.7,0.2,3.3,0,5.2-0.1l0.3-0.1l-0.9-0.2L340.8,113.3z M334.1,108.4c0-0.4,0-0.5,0-1.7
	c-0.1-0.4-1-0.5-1.9-0.4l0,0c-0.1,0.1-0.2,0.6-0.5,1.7l-0.2,0.2l0,0c-0.3,1.8,1.4,5.8-2.8,4.9l0,0
	C332,112.6,334.9,114.9,334.1,108.4z M351.2,113.4H351l-0.4-0.1c-0.4,0-1.2,0.1-2.2,0.1l-0.4,0.1c1,0,2.4,0,3.9-0.1
	C351.9,113.4,351.7,113.4,351.2,113.4z M368.2,113.4l-0.2,0.2h2.6l0.2-0.2l0,0l-0.4-0.1L368.2,113.4z M358.9,108.4
	c0-0.4,0-0.5,0-1.7c-0.1-0.4-1-0.5-1.9-0.4l0,0c-0.1,0.1-0.2,0.6-0.5,1.7l-0.2,0.2l0,0v1l0.1,0.3v1.2c-0.1,1.5-0.1,2.9-2.9,2.4l0,0
	C356.8,112.6,359.7,114.9,358.9,108.4z M199.1,109.7c-0.3,0-0.4,0.1-1.4-0.3l-0.2-0.5l-0.3-0.4c-0.3-1-0.5-2.3-0.9-3.9v-0.2
	l-0.1-0.3c0-0.2,0-1.1,0-2l-0.4-1.1c0-0.2,0.1-0.2-0.1-0.8c0,0-0.1-0.2-0.8-1l-0.7-0.4l-0.2-0.5l0.4-0.3c0.5-0.2,1.3-0.2,2.4-1.1
	c0.6-0.8,1.7-2,2.5-3.4c0.1-0.5,0.1-2.1,0-3.4c0-0.1-0.1,0-0.3-1.1c-0.2-0.3-0.4-0.5-0.8-1.3c-0.2-0.3-0.3-0.1-0.9-1v-0.1
	c-0.4-0.5-0.7-0.8-1.8-1.7l-0.5-0.3c0,0-0.1-0.1-0.3-0.1c-0.1-0.1-0.2-0.1-0.3-0.1c-0.5-0.2-0.9-0.4-2-0.7c-0.2,0-0.6-0.1-1.5-0.1
	l-0.1-0.1h-0.2c-0.1,0,0.1,0-0.8-0.2c-0.8,0-2-0.2-3.5-0.1c-0.1,0,0,0-0.3,0c-0.1,0,0.5,0,1,0c0.1,0-0.1,0,0.8,0.2h0.2l0.1,0.1
	c0.4,0,0.4,0,1.5,0.1c0.4,0.1,1.1,0.3,2.1,0.7c0,0,0.1,0.1,0.3,0.1c0.1,0.1,0.2,0.1,0.3,0.1l0.5,0.3c0.3,0.4,0.9,0.5,1.7,1.6
	c0,0.1,0,0.1,0.1,0.1v0.1c0.5,0.5,0.9,1.2,1.6,2.3c0.1,0.1-0.1,0,0.3,1.1c0,1.1,0.2,1.7,0,3.4c-0.6,1-1.4,2-2.5,3.4
	c-0.4,0.3-1.1,0.8-2.4,1.1l-0.4,0.3l0.2,0.5l0.7,0.4c0.2,0.2,0,0,0.8,1c0,0,0.1,0.1,0.1,0.8l0.4,1.1c0,0.5,0,0.8,0,2l0.1,0.3v0.2
	c0.3,1,0.4,2.4,0.9,3.9l0.3,0.4l0.2,0.5c0.9,0.6,1.2-0.2,2.2,0.8L197,111l-0.4,0.5c-0.3,0.6-0.2,1.1-1.6,1.9
	c1.1,0.9,3.4,0.1,4.1-1.9l0.4-0.5C199.4,110.6,200.3,110.1,199.1,109.7z M102.8,112.2c-0.5-0.2-1.3-0.7-2.2-1.5c0,0,0,0-0.2-0.7
	c0-0.1,0-0.1-0.1-0.3c0-1-0.1-1.9-0.1-3.4c-0.1-0.1-0.2-0.1-0.7-0.1l-0.2-0.3l0.1-0.3c0.9-0.6,1-2,0.5-3.7c0-0.1,0-0.1-0.1-0.3
	l-0.1-0.2c0.1-0.4-0.3-1,0.7-1.6c-0.7-0.3-3.7-0.3-3.2,1.3c0,0.1,0,0.2,0,0.3l0.1,0.2c0,0,0,0.1,0.1,0.2v0.1c0.2,1,0.8,2.6-0.5,3.7
	l-0.1,0.3l0.2,0.3c0.2,0.1,0.1-0.1,0.7,0.1c0,0.7,0.1,2.2,0.1,3.4c0.1,0.2,0.1,0.3,0.1,0.3c0,0.1,0,0,0.2,0.7
	c0.1,0.2,0.2,0.3,0.5,0.4c0.3,0.2,0.7,0.6,1.7,1.1c0.1,0.1,0.3,0.4,0.5,0.6v0.2c-0.9-0.1-2.3,0.1-3.9,0.1c1.8,0.1,4-0.2,6.4-0.2
	v-0.2C103.1,112.6,102.9,112.3,102.8,112.2z M144.3,102.7c-0.4,0-1.3,0-2.5,0c0.3,0.2,0.3,1.7,0.3,2.7c-3.5,4.5,4.1,7.1-8.8,8.3
	c-1.3,0.2-2.5,0.4-4.4,0.5c1.7,0.2,4.5,0,6.9-0.4c7.6-1.9,6.7,1.5,8.8-8.3C144.5,105,145,103.1,144.3,102.7z M113.1,109.7
	c-0.3,0-0.4,0.1-1.4-0.3l-0.2-0.5l-0.3-0.4c-0.3-1-0.5-2.3-0.9-3.9v-0.2l-0.1-0.3c0-0.2,0-1.1,0-2l-0.4-1.1c0-0.2,0.1-0.2-0.1-0.8
	c0,0-0.1-0.2-0.8-1l-0.7-0.4l-0.2-0.5l0.4-0.3c0.5-0.2,1.3-0.2,2.4-1.1c0.6-0.8,1.7-2,2.5-3.4c0.1-0.5,0.1-2.1,0-3.4
	c0-0.1-0.1,0-0.3-1.1c-0.4-0.5-0.8-1.4-1.6-2.3v-0.1c-0.4-0.5-0.7-0.8-1.8-1.7l-0.5-0.3c0,0-0.1-0.1-0.3-0.1
	c-0.1-0.1-0.2-0.1-0.3-0.1c-0.5-0.2-0.9-0.4-2-0.7c-0.2,0-0.6-0.1-1.5-0.1l-0.1-0.1h-0.2c-0.1,0,0.1,0-0.8-0.2c-0.8,0-2-0.2-3.6-0.1
	c-0.1,0,0,0-0.3,0c-0.1,0,0.5,0,1,0c0.1,0-0.1,0,0.8,0.2h0.2l0.1,0.1c0.4,0,0.4,0,1.5,0.1c0.4,0.1,1.1,0.3,2.1,0.7
	c0,0,0.1,0.1,0.3,0.1c0.1,0.1,0.2,0.1,0.3,0.1l0.5,0.3c0.3,0.4,0.9,0.5,1.7,1.6c0,0.1,0,0.1,0.1,0.1c0.5,0.6,0.9,1.2,1.7,2.4
	c0.1,0.1-0.1,0,0.3,1.1c0,1.1,0.2,1.7,0,3.4c-0.6,1-1.4,2-2.5,3.4c-0.4,0.3-1.1,0.8-2.4,1.1l-0.4,0.3l0.2,0.5l0.7,0.4
	c0.2,0.2,0,0,0.8,1c0,0,0.1,0.1,0.1,0.8l0.4,1.1c0,0.5,0,0.8,0,2l0.1,0.3v0.2c0.3,1,0.4,2.4,0.9,3.9l0.3,0.4l0.2,0.5
	c0.9,0.6,1.2-0.2,2.2,0.8L111,111l-0.4,0.5c-0.3,0.6-0.2,1.1-1.6,1.9c1.1,0.9,3.4,0.1,4.1-1.9l0.4-0.5
	C113.4,110.6,114.3,110.1,113.1,109.7z M223.2,113.3l0.2,0.4l0.4,0.1h0.1c0.3-0.1,0.5-0.3,1.4-0.2c0.1-0.1,0.2-0.1,0.3-0.1
	c-0.2,0-1.6,0-2.4,0V113.3z M95.1,113.5c-0.4,0.1-1.6-0.1-2.7,0.1C92.8,113.6,95.4,113.7,95.1,113.5z M71.9,100.3
	c-1,0.2-2.2-0.4-3.7,0.4v0.1l-0.6,1.3v0.2c0,0.1,0-0.1-0.2,0.8c0.1,0.6-0.2,1.3-1.1,2.2c0,0,0,0-0.2,0.7c-0.5,0.6-2.1,4.1,0.3,4.8
	c0,0,0.2,0.3,0.6,0.9c0,0,0,0.1,0,0.2c0,0.3,0.4,0.7-0.2,1.4c0.5,0,1.3,0,2.3,0c0.2,0,0.6-0.2,0.6-1.2c-0.1-0.1-0.1-0.1-0.1-0.4
	c-0.1-0.1,0-0.1-0.6-0.9c-1.5-0.6-1.9-2.4-0.3-4.8c0.1-0.3,0.2-0.8,0.4-1.7c1-1.4,0.7-4.7,4.1-4C72.9,100.4,72.5,100.3,71.9,100.3
	L71.9,100.3z M78.9,113.5c0.4,0.1,0.3,0.1,1.7,0.1C80.3,113.6,79.8,113.6,78.9,113.5L78.9,113.5z M88.5,111.5
	c-0.9-0.8-0.9-0.1-1.9-1.7c0,0,0-0.1-0.1-0.2c0,0,0-0.1-0.1-0.3c0-0.1-0.1-0.2-0.1-0.3l-0.1-0.2l0,0l-0.4-0.4c-0.2-0.5,0,0-0.6-1.4
	c-0.1-0.1-0.1-0.2-0.1-0.3c-0.3-1-0.7-2.7-1.4-4.1l-0.1-0.6c-0.6-0.6-0.8-2-1.5-3.2c0,0.1-0.1-0.5-0.1-1.2c-0.7-2-1.4-4.2-2.2-6.8
	l-0.3-0.4L79.4,90c-0.6-1.3-1.1-3.2-2-5.2v-0.4l-0.2-0.5c0.5-1.3-2.1-2.7-2.7-0.5c0.1,0.1-0.2-0.2,0.3,1v0.4c0.7,1.4,1.2,3.1,2,5.2
	l0.1,0.4l0.3,0.4c0.5,1.9,1.3,4.1,2.1,6.7c0,0.4-0.1,0.2,0.1,1.2c0.6,0.8,0.6,1.9,1.5,3.2l0.1,0.6c0.5,1.2,0.9,2.4,1.4,4.1
	c0,0,0,0.1,0.2,0.5c0.1,0.4,0.3,0.7,0.5,1.2l0.4,0.4l0,0l0.1,0.2c0,0.1,0,0.2,0.2,0.6c0,0.1,0,0.2,0.1,0.2c0.2,1,2.7,1.4,2.4,3.3
	l-0.3,0.2l-0.4,0.1c-0.2,0-1.3,0-2.1,0c1.3,0.2,2.7,0,4.7,0l0.4-0.1l0.3-0.2c0-0.2,0-0.1,0-0.7C89,112.1,88.9,111.8,88.5,111.5z
	 M157.9,100.3c-1,0.2-2.2-0.4-3.7,0.4v0.1l-0.6,1.3v0.2c0,0.1,0-0.1-0.2,0.8c0.1,0.6-0.2,1.3-1.1,2.2c0,0,0,0-0.2,0.7
	c-0.5,0.6-2.1,4.1,0.3,4.8c0,0,0.5,0.7,0.8,1.3c-0.1,0.3,0.3,0.6-0.3,1.2c0.5,0,1.3,0,2.3,0c0.2,0.1,0.9-0.6,0.5-1.4
	c0-0.1,0-0.1,0-0.2c-0.1-0.1,0-0.1-0.6-0.9c-1.5-0.6-1.9-2.4-0.3-4.8c0.1-0.3,0.2-0.8,0.4-1.7c1-1.4,0.7-4.7,4.1-4
	C158.9,100.4,158.4,100.3,157.9,100.3L157.9,100.3z M151.5,113.5c-0.6,0-0.8,0-2.2,0c0.7,0,1.5,0.1,2.8-0.1c-0.1,0-0.2,0-0.2,0
	C151.6,113.5,151.6,113.5,151.5,113.5z M205.8,113.3c-0.1,0-0.5,0-1,0l-0.7,0.2c0.5,0,1.3,0.3,2.6,0h-0.1L205.8,113.3z M164.9,113.5
	c0.4,0.1,0.3,0.1,1.8,0.1C166.4,113.6,165.8,113.6,164.9,113.5L164.9,113.5z M65.5,113.5c-0.6,0-0.8,0-2.2,0c0.7,0,1.5,0.1,2.8-0.1
	c-0.1,0-0.2,0-0.2,0C65.7,113.5,65.6,113.5,65.5,113.5z M220.6,85.2l-0.3,0.1l-0.1,0.1l-0.4,0.2l-0.1,0.1l0,0l-0.1,0.1
	c0,0-0.1,0-0.2,0c-0.1,0.1-0.2,0.1-0.2,0.1c0.1,0-0.2,0-0.7,0.3c-0.6,0-0.8,0-1.4,1.2c0,0.2-0.2,0.4-0.3,0.5l0,0c0,0,0,0.3,0,1.2
	l0.3,0.4l0.4,0.1h0.4c0,0.1,0.2-0.3,0.6-0.7l0.1-0.2v-0.1l0.1-0.1L219,88c0.1-0.1,0.3-0.3,0.3-0.5c0.1-0.4,0.3-1.1,1.4-1.2
	c0.2-0.1,0.1,0,0.7-0.3h0.1C221.2,85.7,221.5,85.8,220.6,85.2z M213.1,111.7c-0.1,0,0.1-0.1-0.6-0.5l-0.6-0.2l-0.5-0.4L211,110
	c-0.1-0.1,0.1,0-0.3-0.7c-0.3-0.9-0.2-2.6-0.2-4.3l-0.1-0.4c0-2.3,0.3-4.4,0.2-7.2l-0.1-0.3c0.6-4-1.7-9.4,2.6-12.6l0.1-0.3
	c-0.2-1.1-1.8-1.4-3.8-1.3c0.8,0.2,1.2,0.6,1.2,1.2l-0.1,0.3c-3.9,2.5-2.7,8.2-2.9,12.8l0.1,0.3c0.1,1.9-0.2,4.7-0.2,7.2l0.1,0.4
	c0.1,1.2-0.2,2.4,0.2,4.3c0,0,0.1,0,0.3,0.7l0.4,0.6l0.5,0.4l0.6,0.2c0,0.1,0.1-0.1,0.6,0.5c0,0,0.1,0.2,0.2,0.3
	c0.3,0.6-0.1,1.2-1.2,1.4c1-0.2,4,0.7,3.9-1.5C213.2,111.9,213.1,111.8,213.1,111.7z M174.5,111.5c-0.9-0.8-0.9-0.1-1.9-1.7
	c0,0,0-0.1-0.1-0.2c0,0,0-0.1-0.1-0.3c0-0.1-0.1-0.2-0.1-0.3l-0.1-0.2l0,0l-0.4-0.4c-0.2-0.5,0,0-0.6-1.4c0-0.1,0-0.2,0-0.3
	c-0.3-1-0.7-2.7-1.4-4.1l-0.1-0.6c-0.6-0.6-0.8-2-1.5-3.2c0,0.1-0.1-0.5-0.1-1.2c-0.6-2-1.3-4.1-2.1-6.7l-0.3-0.4l-0.1-0.4
	c-0.6-1.3-1.1-3.2-2-5.2v-0.4l-0.2-0.5c0.5-1.3-2.1-2.7-2.7-0.5c0.1,0.1-0.2-0.2,0.3,1v0.4c0.7,1.4,1.2,3.1,2,5.2l0.1,0.4l0.3,0.4
	c0.5,1.9,1.4,4.1,2,6.7v0.2c0,0.1,0-0.1,0.2,1c0.6,0.8,0.6,1.9,1.5,3.2l0.1,0.6c0.5,1.2,0.9,2.4,1.4,4.1c0,0,0,0.1,0,0.3l0.1,0.2
	c0.1,0.4,0.3,0.7,0.5,1.2l0.4,0.4l0,0l0.1,0.2c0.1,0.1,0.1,0.2,0.1,0.3c0.1,0.2,0,0.1,0.2,0.5c0.2,1,2.7,1.4,2.4,3.3l-0.3,0.2
	l-0.4,0.1c-0.2,0-1.3,0-2.1,0c1.3,0.2,2.7,0,4.7,0l0.4-0.1l0.3-0.2C174.9,112.4,175.3,112.6,174.5,111.5z M188.7,112.2
	c-0.5-0.2-1.3-0.7-2.2-1.5c0,0,0,0-0.2-0.7c0-0.1,0-0.1-0.1-0.3c0-1-0.1-1.9-0.1-3.4c-0.1-0.1-0.2-0.1-0.7-0.1l-0.2-0.3l0.1-0.3
	c0.9-0.6,1-2,0.5-3.7c0-0.1,0-0.1-0.1-0.3l-0.1-0.2c0.1-0.4-0.3-1,0.7-1.6c-0.9-0.4-3.7-0.3-3.3,1.6l0.1,0.2c0,0,0,0.1,0.1,0.2
	c0,0,0,0.1,0.1,0.1c0.2,1,0.8,2.6-0.5,3.7l-0.1,0.3l0.2,0.3c0.1,0,0.3-0.1,0.7,0.1c0.1,0.8,0,2.5,0.2,3.7c0,0.1,0,0,0.2,0.7
	c0.1,0.2,0.2,0.3,0.5,0.4c0.3,0.2,0.7,0.6,1.7,1.1c0.1,0.1,0.3,0.4,0.5,0.6v0.2c-0.9-0.1-2.3,0.1-3.9,0.1c1.7,0.1,3.9-0.2,6.3-0.2
	C189.1,112.6,189.2,112.8,188.7,112.2z M181.1,113.5c-0.5,0.1-1.6-0.1-2.6,0.1C178.6,113.6,182,113.6,181.1,113.5z"/>
<path class="st2" d="M158,40.7c6.9-4.4,10.9-9.5,11.8-15.2c0.9-6.2-2.7-11.6-10.9-16c-4.4-2.4-10.1-4.2-17-5.5s-14.2-2-22-2
	c-8.5,0-17.1,0.8-25.5,2.4c-12.1,2.3-21.7,6.1-28.6,11.2c-4.7,3.5-7.3,7.1-7.9,10.8c-0.5,3.7,1.1,6.8,4.8,9.2c5.1,3.3,12.3,5,21.3,5
	c2.4,0,4.3-0.1,5.9-0.3c2.7-0.3,3.8-1.6,4-2.6c0.2-1.1-0.7-2-2.2-2.4c-0.6-0.1-1.6-0.2-4.1-0.2c-5.3,0-9.5-0.9-12.7-3
	c-2.8-1.8-4-3.9-3.6-6.5c0.4-2.5,2.1-5.1,5.2-7.6c4.2-3.5,10.4-6.2,18.6-8.1c6.9-1.6,14.1-2.5,21.5-2.5c5.7,0,11.3,0.5,16.7,1.5
	c6,1.1,10.8,2.6,14.4,4.4c6.8,3.5,9.7,7.8,8.9,13.2c-0.5,3.6-2.7,7-6.5,10.2c-1.7,1.5-3.4,2.6-5,3.4c-1.1,0.5-2.5,1.1-4.1,1.5
	c-2.5-3.3-6.8-5.1-12.6-5.1c-1.8,0-3.6,0.2-5.3,0.7L138,17l0,0c2.6-3.5,2.7-3.9,2.7-4.2c0.2-1.6-1.3-2.6-3.8-2.6
	c-1.1,0-2.9,0.2-7.7,1.8c-3.3,1.1-6.8,2.4-10.3,3.8c-1.3,0.5-3,1.4-3.2,2.6c-0.2,1.5,1.2,2.5,3.6,2.5c0.9,0,1.9-0.2,3.1-0.6
	c-0.2,0.2-0.4,0.5-0.4,0.5c-8.9,12.3-16.1,23.4-23.4,31.1c-4.3,4.6-6.3,5.6-10.1,7.7c-2.9,1.6-6.7,3.5-10,4.6
	C76,65,73.8,66,68.1,66.6c-3.9,0.4-4.3,2.4-4.4,2.9c-0.2,1.3,0.9,2.7,4.4,2.7c2.1,0,4.8-0.3,8.3-0.9c3.4-0.6,4.7-1.3,7.3-2
	c7.9-2.3,15-6.3,21.2-11.3c3.2-2.6,6-5.1,9.9-9.7l0.9-1.3c0.8,0.6,1.9,1.1,3.2,1.5c2,0.5,4.6,0.8,8,0.8c0.9,0,2,0,3.2-0.1
	c-0.1,1.2-0.2,2.4-0.4,3.9L128.9,64c-0.3,4.7,1.7,7.1,5.8,7.1c3.3,0,8-1.7,15.1-5.3c1.3-0.7,3.1-1.7,3.3-3.1
	c0.2-1.5-1.2-2.5-3.4-2.5c-1,0-2,0.2-5.2,1.5c-0.7,0.3-1.1,0.4-1.4,0.5c-0.1-0.2-0.3-1-0.3-3c0.2-4.8,0.1-8.9-0.3-12.3
	C149.1,45.1,154.3,43,158,40.7z M214.3,43c0.4-2.6-0.7-4.8-3.1-6.6c-3.3-2.4-8.1-3.7-14.3-3.7c-6.7,0-12.6,1.4-17.5,4.1
	c-4.2,2.4-6.8,5.5-7.8,9.3c-3.7,1.8-6.8,3.4-9,4.9c-4.9,3.3-7.6,6.9-8.2,10.7c-0.4,2.7,0.7,5,3.2,6.7c2.5,1.6,5.9,2.4,10.3,2.4
	c5.4,0,11.5-1.2,18-3.6c-0.1,0.2-0.1,0.5-0.2,0.6c-0.3,1.9,1.4,3.2,4.3,3.2c2.6,0,6.1-0.8,10.6-2.4c2.6-0.9,5.4-2,5.6-3.7
	c0.2-1.4-1.2-2.4-3.6-2.4c-0.4,0-0.8,0-1.2,0.1c0.7-0.9,9-12.2,9-12.2C212.8,47.4,214,45,214.3,43z M260,60.3
	c-0.9,0-1.8,0.2-2.6,0.6c-0.8,0.3-1.4,0.6-2,0.8c0-0.1,0.1-0.1,0.1-0.2l35.8-49.3c2.1-2.9,2.3-3.6,2.4-4c0.3-1.8-1.4-3-4-3
	c-1,0-2.7,0.2-7.9,1.7c-9.4,2.8-11.4,4.2-11.6,5.7c-0.2,1.4,1.1,2.4,3.3,2.4c0.7,0,1.6-0.2,3.9-0.9c-0.2,0.2-0.3,0.5-0.6,0.8
	c0,0-11.6,16.2-14.7,20.6c-2.2-1.6-5.2-2.4-8.8-2.4c-4,0-8.5,0.8-13.3,2.5c-8.4,2.9-15.8,7.5-22,13.6c-4.4,4.4-6.9,8.4-7.5,12
	c-0.3,2.3,0.4,4.4,2.1,6.3c2.1,2.3,5.6,3.5,10.4,3.5c5.3,0,10.8-1.3,16.7-3.8c-0.3,0.6-0.4,0.9-0.5,1.1c-0.3,1.7,1.4,2.9,4.1,2.9
	c3,0,7-1.1,12.6-3.5c6.3-2.6,7.6-3.7,7.8-4.8C263.9,61.3,262.4,60.3,260,60.3z M295.7,41.4c2.6-3.6,2.9-4.3,2.9-4.7
	c0.2-1.4-0.9-2.9-4.6-2.9c-1.3,0-3.4,0.3-9.1,2.5c-7.2,2.7-8.7,3.9-8.8,5.1c-0.2,1.5,1.2,2.6,3.5,2.6c0.5,0,1.1-0.1,1.7-0.2
	c-0.2,0.3-0.3,0.5-0.3,0.5l-13.3,19.8l-0.6,0.9c-1.6,2.3-1.8,2.9-1.9,3.3c-0.1,0.8,0.3,1.6,1.3,2.2c0.8,0.5,2,0.8,3.2,0.8
	c2.1,0,5.2-0.7,9.9-2.4c4.9-1.7,6.7-2.7,6.9-4c0.2-1.5-1.3-2.6-3.7-2.6c-0.6,0-1.4,0.1-2.5,0.5c0.1-0.1,0.1-0.1,0.1-0.2
	C280.6,62.3,295.7,41.4,295.7,41.4z M293,28.8c-0.9,0.5-2,1.2-2.1,2.1c-0.2,1.4,1.2,2.4,3.4,2.4c1.3,0,2.7-0.5,5.3-1.8
	c5.5-2.6,8.5-5.3,8.9-8.1c0.1-0.9,0-1.7-0.4-2.6c-1.1-1.9-2.9-2.3-4.2-2.3c-0.9,0-1.9,0.2-3.2,0.9l-4.4,1.9l0,0
	c-1.4,0.6-2.9,1.4-3.1,2.5c-0.1,1,0.9,1.7,1.8,2.2c0.1,0.1,0.4,0.3,0.4,0.5C295.3,27.2,294.5,28,293,28.8z M346.8,36.7
	c-3.4-2.5-7.9-3.7-13.5-3.7c-7.9,0-15.9,2.4-23.7,7c-4.1,2.4-7.5,5.3-10.1,8.6c-2.6,3.2-4.2,6.5-4.7,9.7c-0.5,3.5,0.7,6.5,3.5,8.9
	c3.2,2.7,7.7,4.1,13.5,4.1c8.1,0,16.2-2.4,24.1-7.2c4.3-2.5,7.8-5.4,10.4-8.5c2.7-3.1,4.3-6.2,4.7-9.3
	C351.6,42.3,350.2,39.1,346.8,36.7z M169.6,63.4c-1.5-0.7-2-1.7-1.8-3c0.3-2.2,1.9-4.5,4.7-6.9c2.6-2.3,6.2-4.3,10.6-5.9
	c3.7-1.4,6.9-2.1,9.6-2.1c2,0,3.5,0.3,4.5,0.8c1.1,0.6,1.5,1.3,1.3,2.3c-0.3,1.7-1.6,4-4,6.6c-2.7,2.9-6.3,5.3-10.7,7.1
	c-3.4,1.4-6.6,2.1-9.5,2.1C172.4,64.4,170.8,64.1,169.6,63.4z M188.1,39.7c2.3-1.1,4.7-1.7,7.3-1.7c2.4,0,4.4,0.4,5.9,1.4
	c1,0.6,1.4,1.3,1.5,2.1c-2.5-0.8-5.1-1.3-7.8-1.3c-3,0-6.1,0.4-9.3,1.1C186.3,40.7,187.1,40.2,188.1,39.7z M224.9,62.8
	c-1.1-0.9-1.6-2-1.4-3.4c0.3-2.2,1.7-4.9,4-8.1c2.9-3.9,6.8-7,11.5-9.3c3.4-1.6,6.5-2.4,9.2-2.4c2,0,3.4,0.3,4.2,0.9
	c1.3,0.9,1.8,2,1.6,3.5s-1.2,3.6-2.9,6.1c-2,3-4.7,5.7-7.8,8.1c-5,3.8-9.9,5.7-14.5,5.7C227.1,63.9,225.9,63.5,224.9,62.8z
	 M310.6,63.4c-2-1.5-2.8-3.6-2.4-6.3c0.4-2.9,1.7-5.7,3.9-8.4c2.1-2.7,4.9-5.1,8.1-7c3.1-1.8,6.1-2.6,9.2-2.6c2.5,0,4.5,0.5,5.9,1.6
	c2,1.5,2.7,3.6,2.4,6.2c-0.8,5.2-4.2,9.9-10.2,14.3c-3.7,2.7-7.3,4-11,4C314.1,65,312.2,64.5,310.6,63.4z"/>
<path class="st3" d="M65.4,71.6c-0.4-0.1-0.7-0.3-1-0.6C64.7,71.2,65,71.4,65.4,71.6z"/>
<path class="st3" d="M66.1,71.7c-0.2,0-0.4,0-0.6-0.1C65.7,71.7,65.9,71.7,66.1,71.7z"/>
<path class="st4" d="M64.4,70.9L64.4,70.9L64.4,70.9z"/>
<path class="st4" d="M65.5,71.6L65.5,71.6C65.5,71.6,65.5,71.6,65.5,71.6z"/>
<path class="st2" d="M352.8,69.3L352.8,69.3c0-0.2-0.1-0.3-0.1-0.4l0,0c-0.1-0.1-0.1-0.2-0.2-0.4c0,0,0,0,0-0.1
	c-0.1-0.1-0.1-0.2-0.2-0.3l-0.1-0.1c-0.1-0.1-0.1-0.1-0.2-0.2c-0.1,0-0.2-0.1-0.2-0.1s-0.1,0-0.1-0.1c-0.1-0.1-0.2-0.1-0.4-0.1l0,0
	c-0.1,0-0.3-0.1-0.4-0.1l0,0h-0.1H66.1c-1.3,0-2.3,1-2.3,2.3c0,0.4,0.1,0.7,0.2,1l0,0c0,0,0,0,0,0.1c0.1,0.2,0.2,0.3,0.3,0.5l0,0
	c0.3,0.3,0.6,0.5,1,0.6h0.1c0.2,0,0.4,0.1,0.6,0.1h284.4c1.3,0,2.3-1,2.3-2.3C352.8,69.6,352.8,69.4,352.8,69.3z"/>
<path class="st5" d="M64.2,70.7h284.4c1.3,0,2.3-1,2.3-2.3c0-0.4-0.1-0.7-0.2-1c0.1,0,0.3,0,0.4,0.1c-0.2,0-0.4-0.1-0.5-0.1H66.1
	c-1.3,0-2.3,1-2.3,2.3c0,0.6,0.2,1.1,0.6,1.5C64.3,71,64.2,70.9,64.2,70.7L64.2,70.7z"/>
<path class="st5" d="M146.8,45.5c4.6-1.6,8.5-3.3,11.4-5.1c3.3-2.1,6-4.4,7.9-6.8c-1.2,1-2.5,2-4,2.9c-3.7,2.3-9,4.5-15.5,6.4
	C146.7,43.8,146.7,44.6,146.8,45.5z M265.3,30.9c0.3,0.2,0.5,0.3,0.8,0.5c3.1-4.3,14.7-20.6,14.7-20.6c0.2-0.3,0.4-0.5,0.5-0.8
	c-2.3,0.7-3.3,0.9-4,0.9c-1.7,0-2.5-0.6-2.8-1.5c-3,1.3-4.2,2.1-4.3,3.1c-0.2,1.4,1.1,2.4,3.3,2.4c0.7,0,1.6-0.2,4-0.9
	c-0.2,0.3-0.3,0.5-0.5,0.8C276.9,14.7,269.9,24.5,265.3,30.9z M116.5,7.3c5.1,0,10.1,0.4,14.9,1.2c0.7,0.1,9.3,1.9,11.6,2.8
	c1.7,0.6,3.3,1.2,4.7,1.9c6.8,3.5,9.7,7.8,8.8,13.2c-0.3,2.3-1.4,4.5-3,6.6c0.2-0.1,0.3-0.2,0.4-0.4c3.8-3.2,5.9-6.6,6.5-10.2
	c0.8-5.4-2.1-9.8-8.8-13.2c-3.6-1.8-8.5-3.3-14.4-4.4c-5.4-1-11-1.5-16.7-1.5c-7.4,0-14.6,0.8-21.5,2.5c-8.2,1.9-14.4,4.6-18.6,8.1
	C79,15,78,16.2,77.1,17.3c4.1-3.2,10.2-5.8,17.9-7.6C101.9,8.1,109.1,7.3,116.5,7.3z M98.5,51.9c-1.1,1.3-1.4,2.5-2.4,3.7
	c2.3-2.1,3.9-4.6,6.3-7.6c6.7-8.4,14.5-18.8,23.4-31.1c0,0,0.2-0.3,0.4-0.5c-1.3,0.4-2.3,0.6-3.1,0.6c-1.9,0-2.2-0.7-2.6-1.7
	c-0.3,0.1-1.2,0.4-1.5,0.5c-1.3,0.5-3.2,1.3-3.4,2.6c-0.2,1.5,1.2,2.5,3.6,2.5c0.9,0,1.9-0.2,3.1-0.6c-0.2,0.2-0.4,0.5-0.4,0.5
	C113,33.1,105.2,43.6,98.5,51.9z M329.6,38.7c2.5,0,4.5,0.5,5.9,1.6c2,1.5,2.7,3.6,2.4,6.2c-0.4,3-1.8,5.8-4,8.6
	c4.6-3.8,7.2-8,7.9-12.4c0.4-2.6-0.4-4.6-2.4-6.2c-1.4-1.1-3.4-1.6-5.9-1.6c-3.1,0-6.1,0.9-9.2,2.6c-3.1,1.8-5.8,4.1-7.9,6.7
	c1.2-1,2.6-1.9,4-2.8C323.5,39.6,326.5,38.7,329.6,38.7z M295.1,25.7c0.1,0,0.1,0.1,0.2,0.2c0.4-0.5,1.1-0.9,1.7-1.2
	c1.5-0.8,2.2-1.6,2.3-2.4c0-0.2-0.2-0.4-0.4-0.5c-0.6-0.3-0.5-0.9-0.9-1.4c-0.6,0.3-1.4,0.6-1.4,0.6l-0.5,0.2
	c-0.5,0.2-2.8,1.5-2.9,2.2C293.2,24.4,294.2,25.2,295.1,25.7z M248.4,39.4c2,0,3.4,0.3,4.2,0.9c1.3,0.9,1.8,2,1.6,3.5
	s-1.2,3.6-2.9,6c-0.7,1-1.4,1.9-2.2,2.8c2.4-2,4.4-4.3,6-6.7c1.7-2.5,2.7-4.5,2.9-6c0.2-1.4-0.3-2.6-1.6-3.5
	c-0.9-0.6-2.2-0.9-4.2-0.9c-2.7,0-5.8,0.8-9.2,2.4c-4.3,2-7.8,4.7-10.6,8.1c2-1.7,4.2-3.1,6.7-4.3C242.6,40.2,245.7,39.4,248.4,39.4
	z M301.6,30.4c3.3-1.8,5.5-3.6,6.5-5.5c-1.2,0.8-2.7,1.6-4.4,2.5c-2.6,1.3-4.1,1.8-5.3,1.8c-1.9,0-3.3-0.7-3.4-1.9
	c-0.4,0.4-1,0.8-1.8,1.3c-0.9,0.5-2,1.2-2.1,2.1c0,0.2,0,0.5,0,0.7c4.2-1.5,5.9-1.7,7.1-1.7C299.7,29.6,300.8,29.9,301.6,30.4z
	 M195.8,53.6c1-0.8,1.9-1.6,2.7-2.5c2.4-2.6,3.8-4.9,4-6.6c0.1-1-0.3-1.7-1.3-2.3s-2.5-0.8-4.5-0.8c-2.7,0-5.9,0.7-9.6,2.1
	c-4.4,1.6-8,3.6-10.6,5.9c-1.2,1.1-2.2,2.1-3,3.2c2.5-2,5.8-3.8,9.7-5.2c3.7-1.4,6.9-2.1,9.6-2.1c2,0,3.5,0.3,4.5,0.8
	c1,0.6,1.5,1.3,1.3,2.3C198.4,49.8,197.4,51.6,195.8,53.6z M204.6,64.6c-4.5,1.6-8,2.4-10.6,2.4c-2.9,0-4.6-1.2-4.3-3.2
	c0-0.1,0.1-0.3,0.2-0.6c-6.6,2.4-12.6,3.6-18,3.6c-4.4,0-7.8-0.8-10.3-2.4c-2.6-1.7-3.6-4-3.2-6.7c0.3-1.9,1.3-3.7,2.6-5.5
	c-1.9,1.5-3.6,3.1-4.6,4.7c-0.7,1.2-1.8,3.4-1.8,4.5c0,0.1,0,0.2,0,0.2c-0.4,2.7,0.7,5,3.2,6.7c2.4,1.6,5.9,2.4,10.3,2.4
	c5.4,0,11.5-1.2,18-3.6c-0.1,0.2-0.2,0.5-0.2,0.6c-0.3,1.9,1.4,3.2,4.3,3.2c2.6,0,6.1-0.8,10.6-2.4c2.6-0.9,5.4-2,5.6-3.7
	c0-0.3-0.3-0.6-0.3-0.9C205.4,64.1,205.2,64.4,204.6,64.6z M260,63.5c-5.6,2.4-9.6,3.5-12.6,3.5c-2.7,0-4.4-1.2-4.1-2.9
	c0-0.2,0.1-0.5,0.5-1.1c-5.8,2.5-11.4,3.8-16.7,3.8c-4.8,0-8.3-1.2-10.4-3.5c-1.7-1.9-2.4-4-2.1-6.4c0.4-3,2.3-6.3,5.5-9.9
	c-0.7,0.6-1.3,1.2-1.9,1.8c-4.4,4.4-6.9,8.4-7.5,12c-0.3,2.3,0.4,4.4,2.1,6.3c2.1,2.3,5.6,3.5,10.4,3.5c5.3,0,10.8-1.3,16.7-3.8
	c-0.3,0.6-0.4,0.9-0.5,1.1c-0.3,1.7,1.4,2.9,4.1,2.9c3,0,7-1.1,12.6-3.5c5.9-2.4,7.5-3.4,7.8-4.8c0-0.3-0.1-0.3-0.2-0.6
	C262.6,62.5,261.5,62.9,260,63.5z M205.3,35.2c-1.5-0.9-3.4-1.4-5.9-1.4c-2.6,0-5,0.6-7.3,1.7c-1,0.5-1.8,1-2.4,1.5
	c3.2-0.7,6.3-1.1,9.3-1.1c2.7,0,5.3,0.5,7.8,1.3C206.7,36.5,206.3,35.8,205.3,35.2z M339.9,59.7c-7.9,4.8-16,7.2-24.1,7.2
	c-5.7,0-10.3-1.4-13.5-4.1c-2.8-2.4-4-5.4-3.5-8.9c0.5-3.2,2.1-6.4,4.7-9.7c0.1-0.2,1.3-1,1.4-1.2c-1.6,1.4-4.1,3.5-5.3,5.1
	c-2.6,3.3-4.2,6.5-4.7,9.7c-0.5,3.5,0.7,6.5,3.5,8.9c3.2,2.7,7.7,4.1,13.5,4.1c8.1,0,16.2-2.4,24.1-7.2c4.3-2.6,7.8-5.4,10.4-8.5
	c0,0,0-0.1,0.1-0.1C344.6,56.7,342.4,58.3,339.9,59.7z M283.8,64.6c-4.8,1.7-7.8,2.4-9.9,2.4c-1.3,0-2.4-0.3-3.2-0.8
	c-1-0.6-1.4-1.4-1.3-2.2c0.1-0.4,0.2-1,1.8-3.3c0,0,0.7-0.9,0.6-0.9c0,0,13.3-19.9,13.3-19.8c0,0,0.2-0.2,0.3-0.5
	c-0.6,0.2-1.2,0.3-1.7,0.3c-1.9,0-2.7-0.7-3-1.8c-3,1.4-4.3,2.3-4.5,3.1c-0.2,1.5,1.2,2.6,3.5,2.6c0.5,0,1.1-0.1,1.7-0.2
	c-0.2,0.3-0.3,0.5-0.3,0.5l-13.3,19.8l-0.6,0.9c-1.6,2.3-1.8,2.9-1.9,3.3c-0.1,0.8,0.3,1.6,1.3,2.2c0.8,0.5,2,0.8,3.2,0.8
	c2.1,0,5.2-0.8,9.9-2.4c4.9-1.7,6.5-2.7,6.7-4c0.1-0.4,0-0.7-0.1-1C285.6,63.8,284.9,64.2,283.8,64.6z M178.5,37.4
	c-2.2,1.6-4.8,4-5.9,6.1c0.9-0.5,1.9-1,3-1.5C176,40.5,177.6,38.6,178.5,37.4z M84,40.4c2.4,0,4.3-0.1,5.9-0.3
	c2.7-0.3,3.7-1.4,3.8-2.4c0.1-0.5,0-0.9-0.3-1.3c-1.5,0.2-3.2,0.1-5.5,0.1c-9,0-16.1-1.7-21.3-5c-3.7-2.4-5.3-5.6-4.8-9.2
	c0.3-2,1.8-4.3,3.3-6.2c-3.9,3.2-6.7,6.7-7.2,10.1c-0.5,3.7,1.1,6.8,4.8,9.2C67.9,38.7,75.1,40.4,84,40.4z M138.7,67
	c-4.1,0-6-2.4-5.8-7.1c0,0,0.8-10.8,0.9-10.9c0.2-1.5,0.3-2.7,0.4-3.9c-1.2,0.1-2.2,0.1-3.2,0.1c-3.4,0-6-0.3-8-0.8
	c-1.4-0.4-2.4-0.9-3.2-1.5l-0.9,1.3c-0.8,1.1-1.5,2.1-2.3,3.1c0.7,0.4,1.6,0.8,2.6,1c2,0.6,4.6,0.8,8,0.8c0.9,0,2,0,3.2-0.1
	c-0.1,1.2-0.2,2.4-0.4,3.9l-0.9,10.9c-0.3,4.7,1.7,7.1,5.8,7.1c3.3,0,8-1.7,15.1-5.3c1.3-0.7,3-1.5,3.2-2.8c0-0.2,0-0.5,0-0.7
	C146.3,65.5,141.8,67,138.7,67z"/>
<path class="st6" d="M108.4,52.1c2.2-1.9,3.1-4.9,4.5-7.2c1.2-2.1,2.1-5.7,4-6.7c3.5-1.8,4.8,0.7,4.3,3.1c-0.2,1.1-2.4,0.9-1.6,3.2
	c0.4,1.1,2.7,1.7,3.7,2c-2.1,0-5.9-0.4-8.2,0.7c-2.2,1-3.4,3.4-5.5,4.5"/>
<path class="st5" d="M78.4,67.4c-3.5,0.6-4.5,0.8-6.6,0.9c-3.3,0.1-3.6-0.6-4.1-1.4c-3.6,0.4-4.1,2.1-4.2,2.6
	c-0.2,1.2,0.9,2.7,4.4,2.7c2.1,0,4.8-0.3,8.3-0.9c3.4-0.6,4.7-1.3,7.3-2c8.4-2.5,15.5-6.5,21.2-12c1.1-1.1,2.2-2.2,3.3-3.3
	c-5.6,5.2-12.5,9.1-20.5,11.5C84.8,66.1,81.7,66.8,78.4,67.4z"/>
<g>
	<path class="st7" d="M124.2,35.3L137.6,17c2.6-3.5,2.6-3.9,2.7-4.2c0.2-1.4-0.9-2.3-2.9-2.6c0.2,0.4,0.3,0.8,0.3,1.3
		c-0.1,0.4-0.1,0.7-2.7,4.2l0,0l-14.9,20.2C121.5,35.6,122.8,35.4,124.2,35.3z"/>
	<path class="st7" d="M89.7,40.2c2.7-0.3,3.8-1.6,4-2.6c0.2-1.1-0.6-2-2.2-2.4c-0.2,0-0.4-0.1-0.7-0.1c0.2,0.4,0.3,0.8,0.3,1.2
		c-0.2,1-1.3,2.3-4,2.6c-1.6,0.2-3.5,0.3-5.9,0.3c-7.1,0-13.3-1.6-18-3.7c5.1,2.9,12.5,5.3,20.9,5.3C86.5,40.9,88.1,40.4,89.7,40.2z
		"/>
	<path class="st7" d="M72.1,30.8c0.8,0.5,1.8,1,2.8,1.4c0,0-0.1-0.1-0.2-0.1c-2.8-1.8-4-3.9-3.6-6.5c0.4-2.5,2.1-5.1,5.2-7.6
		c4.2-3.5,10.4-6.2,18.6-8.1c6.9-1.6,14.1-2.5,21.5-2.5c5.7,0,10.5,0.3,15.9,1.3c0.1,0,2.9,0.5,3.1,0.5c2.5,0.5,8.5,2.1,11,3.2
		c-0.3-0.2-1-0.6-1.3-0.8c-3.6-1.8-8.6-2.9-14.5-4c-5.4-1-11-1.5-16.7-1.5c-7.4,0-14.6,0.8-21.5,2.5c-8.2,1.9-14.4,4.6-18.6,8.1
		c-3.1,2.5-4.8,5.1-5.2,7.6C68.1,26.9,69.3,29,72.1,30.8z"/>
	<path class="st7" d="M155.4,39.3c-3.7,2.3-9,4.5-15.5,6.4c0.3,3.4,0.4,7.5,0.3,12.3c0,2,0.2,2.7,0.3,3c0.3-0.1,0.7-0.2,1.4-0.5
		c0.3-0.1,0.7-0.3,0.9-0.4c0-0.2,0-0.5,0-0.8c0.2-4.8,0.1-8.9-0.3-12.3c6.5-1.9,11.8-4.1,15.5-6.4c7-4.4,10.9-9.5,11.8-15.2
		c0.9-6.2-2.7-11.6-10.9-16c-0.7-0.4-1.5-0.8-2.3-1.1c7.9,4.4,11.5,9.7,10.6,15.8C166.3,29.8,162.3,34.9,155.4,39.3z"/>
	<path class="st7" d="M165.1,59.1c-0.2,1.3,0.4,2.2,1.8,3c0.5,0.2,1,0.4,1.5,0.6c-0.6-0.6-0.9-1.3-0.7-2.2c0.3-2.2,1.9-4.5,4.7-6.9
		c2.7-2.3,6.2-4.3,10.6-5.9c3.7-1.4,6.9-2.1,9.6-2.1c1.1,0,2,0.1,2.9,0.3c-0.2-0.3-0.5-0.5-0.9-0.7c-1-0.6-2.5-0.8-4.5-0.8
		c-2.7,0-5.9,0.7-9.6,2.1c-4.4,1.6-8,3.6-10.6,5.9C167,54.6,165.4,56.9,165.1,59.1z"/>
	<path class="st7" d="M308,61.9c0.8,0.6,1.6,1,2.5,1.2c-2-1.5-2.8-3.6-2.4-6.3c0.4-2.9,1.7-5.7,3.9-8.4c2.1-2.7,4.9-5.1,8.1-6.9
		c3.1-1.8,6.4-2.7,9.4-2.7c1.3,0,2.4,0.1,3.4,0.4c0,0,0,0-0.1-0.1c-1.4-1.1-3.6-1.5-6.1-1.5c-3.1,0-6.1,0.9-9.2,2.6
		c-3.3,1.9-6,4.2-8.2,6.9c-2.2,2.8-3.5,5.6-3.9,8.4C305.1,58.3,305.9,60.4,308,61.9z"/>
	<path class="st7" d="M116.3,47.1c-1.4-0.4-2.4-0.9-3.2-1.5l-0.9,1.3c-3.3,4.4-5.4,5.4-8.8,8.6C97.6,61,89,65.6,80.6,68.1
		c-2.6,0.8-3.9,1.4-7.3,2c-3.5,0.6-5.5,0.9-7.6,0.9c-0.6,0-1.1,0-1.5-0.1c0.5,0.8,1.8,1.4,4.1,1.4c2.1,0,4.1-0.3,7.6-0.9
		c3.4-0.6,4.7-1.3,7.3-2c8.4-2.5,16.8-6.5,22.5-12c4.1-3.9,6.1-5.1,9-9.2l0.9-1.3c0.8,0.6,1.9,1.1,3.2,1.5c2,0.5,4.6,0.8,8,0.8
		c0.2,0,0.3,0,0.5,0c0-0.5,0.1-0.9,0.1-1.4c-1.2,0-2.2,0.1-3.2,0.1C120.8,47.9,118.2,47.6,116.3,47.1z"/>
	<path class="st7" d="M257.2,58.9c7.3-10,34-46.8,34-46.8c2.1-3,2.3-3.6,2.4-4c0.2-1.5-0.9-2.5-2.9-2.8c0.3,0.4,0.4,0.9,0.4,1.5
		c-0.1,0.4-0.3,1.1-2.4,4l-35.8,49.3c0,0.1-0.1,0.1-0.1,0.2c0.6-0.2,1.2-0.5,2-0.8C255.5,59.1,256.4,58.9,257.2,58.9z"/>
	<path class="st7" d="M195.3,37.9c1.5,0,3.9,0.3,5,0.7c-0.2-0.1-1.5-0.5-1.7-0.6c-1.5-0.9-3.4-1.4-5.9-1.4c-2.6,0-5,0.6-7.3,1.7
		c-1.1,0.5-1.9,1-2.4,1.6c2.3-0.5,4.6-0.9,6.9-1C191.7,38.2,193.4,37.9,195.3,37.9z"/>
	<path class="st7" d="M250.5,39.7c-0.2-0.2-0.4-0.4-0.7-0.6c-0.9-0.6-2.2-0.9-4.2-0.9c-2.7,0-5.8,0.8-9.2,2.4
		c-4.7,2.2-8.6,5.3-11.5,9.3c-2.3,3.2-3.7,5.9-4,8.1c-0.2,1.4,0.2,2.5,1.4,3.4c0.6,0.5,1.4,0.8,2.3,1c-0.9-0.8-1.2-1.8-1-3
		c0.3-2.2,1.7-4.9,4-8.1c2.9-3.9,6.8-7,11.5-9.3c3.4-1.6,6.5-2.4,9.2-2.4C249,39.5,249.8,39.6,250.5,39.7z"/>
	<path class="st7" d="M295.6,33.7c0.3,0.5,0.5,1,0.4,1.5s-0.3,1.1-2.9,4.7l-15.2,21c-0.1,0.1-0.1,0.1-0.2,0.2
		c1.2-0.4,1.9-0.5,2.5-0.5c0.5,0,0.9,0,1.3,0.1c3.4-4.7,14.1-19.5,14.1-19.5c2.6-3.6,2.9-4.3,2.9-4.7
		C298.8,35.4,298,34.1,295.6,33.7z"/>
	<path class="st7" d="M260.8,60.2c0.2,0.3,0.3,0.7,0.2,1.2c-0.2,1.1-1.5,2.2-7.8,4.8c-5.6,2.4-9.6,3.5-12.6,3.5
		c-0.4,0-0.3-0.1-0.6-0.2c0.6,0.9,1.4,1.5,3.2,1.5c3,0,7-1.1,12.6-3.5c6.3-2.6,7.6-3.7,7.8-4.8C263.8,61.4,262.7,60.4,260.8,60.2z"
		/>
	<path class="st7" d="M283.7,62c0.2,0.3,0.3,0.8,0.2,1.2c-0.2,1.3-2,2.3-6.9,4c-4.8,1.7-7.2,2.4-9.3,2.4c-0.5,0-1-0.1-1.4-0.1
		c0.2,0.2,0.5,0.5,0.8,0.7c0.8,0.5,2,0.8,3.2,0.8c2.1,0,4.5-0.7,9.3-2.4c4.9-1.7,6.7-2.7,6.9-4C286.7,63.2,285.6,62.2,283.7,62z"/>
	<path class="st7" d="M308.5,23.3c0.1-0.9,0-1.7-0.4-2.6c-0.8-1.5-2.2-2-3.4-2.2c0.3,0.3,0.6,0.5,0.8,0.9c0.4,0.8,0.6,1.7,0.4,2.6
		c-0.4,2.8-3.4,5.5-8.9,8.1c-2.6,1.3-3.5,1.8-4.7,1.8c-0.2,0-0.4,0-0.6,0c0.1,0.2,0.3,0.4,0.4,0.5c1.6,0,2.1,0.3,2.9,0.8
		c1.1-0.1,2.5-0.6,4.7-1.7C305,28.8,308,26,308.5,23.3z"/>
	<path class="st7" d="M346.7,36.5c-1.1-0.8-2.6-1.5-3.9-2.1c0.4,0.2,1,0.5,1.4,0.8c3.4,2.4,4.8,5.6,4.2,9.5c-0.4,3-2,6.1-4.7,9.3
		c-2.6,3.1-6.1,6-10.4,8.5c-7.9,4.8-16,7.2-24.1,7.2c-3.5,0-6.9-1.1-9.5-2.1c3,1.9,7.3,3.4,12.1,3.4c8.1,0,16.2-2.4,24.1-7.2
		c4.3-2.6,7.8-5.4,10.4-8.5c2.7-3.1,4.2-6.2,4.7-9.3C351.5,42.1,350.1,39,346.7,36.5z"/>
	<path class="st7" d="M183,66.5c0-0.1,0.1-0.4,0.2-0.6c-6.6,2.4-12.6,3.6-18,3.6c-3.1,0-5.8-1-7.9-1.8c0,0,0.4,0.4,0.5,0.5
		c2.7,1.6,5.7,2.6,10.1,2.6c4.7,0,9.9-0.9,15.5-2.7C183,67.6,182.9,67.1,183,66.5z"/>
	<path class="st7" d="M220.4,69.5c-2.5,0-4.5-0.6-6.2-1.2c2.1,1.5,5,2.5,8.8,2.5c4.4,0,9-0.9,13.8-2.7c-0.2-0.4-0.3-0.8-0.2-1.3
		c0-0.2,0.1-0.5,0.5-1.1C231.2,68.2,225.6,69.5,220.4,69.5z"/>
	<path class="st7" d="M203.3,62.5c0.2,0.3,0.3,0.7,0.2,1.1c-0.3,1.7-3,2.8-5.6,3.7c-4.5,1.6-7.7,2.1-10.3,2.1
		c-0.5,0-0.7-0.2-1.1-0.2c0.7,0.9,1.6,1.8,3.4,1.8c2.6,0,6.1-0.8,10.6-2.4c2.6-0.9,5.4-2,5.6-3.7C206.3,63.6,205.2,62.7,203.3,62.5z
		"/>
	<path class="st7" d="M211.1,36.3c-1-0.7-2.2-1.4-3.5-1.9c0.3,0.2,0.6,0.4,0.9,0.6c2.4,1.8,3.5,4,3.1,6.6c-0.3,2-1.5,4.4-3.8,7.6
		c0,0-8.4,11.3-9,12.1c0.5-0.1,0.9-0.1,1.2-0.1c0.8,0,1.6,0.1,2.1,0.4c2.2-3,8.3-11.1,8.3-11.1c2.3-3.1,3.6-5.6,3.9-7.6
		C214.6,40.3,213.6,38.1,211.1,36.3z"/>
	<path class="st7" d="M151.8,60.7l-0.6-0.2c0,0-0.7-0.1-1.1-0.2c0.2,0.3,0.4,0.6,0.3,1c-0.2,1.3-2,2.4-3.3,3.1
		c-7,3.6-11.3,5.2-14.6,5.2c-0.6,0-1.1,0-1.6-0.2c1,1,2.4,1.5,4.2,1.5c3.3,0,7.5-1.6,14.6-5.2c0.8-0.4,1.8-1,2.5-1.7
		c0.3-0.2,1-1.5,0.9-2C152.6,60.9,151.8,60.7,151.8,60.7z"/>
</g>
<g>
	<path d="M401.4,111.8c1.8,0,3.2,1.4,3.2,3.2c0,1.8-1.4,3.2-3.2,3.2c-1.8,0-3.2-1.4-3.2-3.2C398.1,113.2,399.6,111.8,401.4,111.8
		L401.4,111.8z M401.3,112.4c-1.3,0-2.4,1.2-2.4,2.6c0,1.5,1.1,2.6,2.4,2.6c1.4,0,2.5-1.1,2.5-2.6
		C403.8,113.6,402.7,112.4,401.3,112.4L401.3,112.4z M400.8,116.9H400v-3.6c0.3-0.1,0.6-0.1,1.1-0.1c0.6,0,1,0.1,1.2,0.3
		c0.2,0.1,0.3,0.4,0.3,0.8s-0.3,0.7-0.7,0.8l0,0c0.3,0.1,0.5,0.3,0.6,0.9s0.1,0.8,0.2,0.9H402c-0.1-0.1-0.1-0.4-0.2-0.9
		c-0.1-0.4-0.3-0.5-0.7-0.5h-0.3V116.9z M400.8,114.8h0.4c0.4,0,0.8-0.1,0.8-0.5c0-0.3-0.2-0.5-0.7-0.5c-0.2,0-0.3,0-0.4,0
		L400.8,114.8L400.8,114.8z"/>
</g>
</svg>
