<?xml version="1.0" encoding="utf-8"?>
<!-- Generator: Adobe Illustrator 22.1.0, SVG Export Plug-In . SVG Version: 6.00 Build 0)  -->
<svg version="1.1" id="Layer_1" xmlns="http://www.w3.org/2000/svg" xmlns:xlink="http://www.w3.org/1999/xlink" x="0px" y="0px"
	 viewBox="0 0 174.8 93.7" style="enable-background:new 0 0 174.8 93.7;" xml:space="preserve">
<style type="text/css">
	.st0{fill:#2E3192;}
	.st1{fill:#ED1F24;}
	.st2{fill:#FFF200;}
</style>
<g>
	<g>
		<path class="st0" d="M173.2,59.1c-1.4-7.7-5.1-9.9-8.7-11.2l1.8-0.1c0,0-1.3-4.6-3.1-10.8l-1-3.4l-3.5,0.8l-0.5,0.1
			c-2.7,0.6-5.7,1.3-8.3,2.6l-4.4,0.2l-9.2,0.5l0.7-1.7l-6.2,0.7l-8.8,1l-3.6,0.4l0.3,3.6c0,0.3,0.1,0.6,0.1,0.9l-0.6-0.2
			c-3-1.1-6.1-1.7-8.9-1.7c-5.2,0-9.5,1.9-12.6,5.4c-0.8,0.9-1.5,2-2.1,3.2c-0.2-0.3-0.4-0.5-0.6-0.8c-3.2-4-7.4-6.1-12.4-6.1l0,0
			c-0.8,0-1.7,0.1-2.5,0.2c-0.7,0.1-1.4,0.2-2,0.4l6.6-4.1L74,36.9l13.6-7.3l-15.9,1.3l8.7-8.1L67.9,26l7.4-18.4L61.7,24L58.1,7.6
			L51.7,23L45.5,7.6l-2.1,14.7L35.8,7.6l-0.3,16.5l-4.9-7.2l-0.1,10.5L18,14.8l4.8,16L9.9,24.3l7.3,10.9L3.6,37l11.6,8.1l-6.9,7.6
			l10.5-0.5L9.3,69l14.1-10.2l-0.8,11.6l10.5-11.2l4.9,6.5l0,0l4.7,22.6l0.8,3.7l3.7-0.8l7.2-1.6l2.4-0.6l1.4,2.1l2.6-0.7l8-2.1
			l4.7-1.2L71.2,83l-2.8-4.9c0.4,0.4,0.8,0.8,1.2,1.1c2.9,2.4,6.8,3.8,10.8,3.8c1.1,0,2.3-0.1,3.4-0.3h0h0c4.6-0.9,8.6-3.4,11.4-7
			c0.7-0.8,1.2-1.7,1.7-2.6c0.6,0.7,1.2,1.3,1.8,1.9c3.1,2.8,7.2,4.4,11.6,4.4c3.8,0,7.6-1.1,11.2-3.2c0,0.1,0,0.1,0,0.2l0,4.1
			l4.1-0.4l9-0.9l3.6-0.4l0-0.6l2.5-0.4l10-1.8l5.6-1l-0.3-0.9c7.9-1.1,12.8-3.3,15.4-6.8C173.1,65,173.8,62.2,173.2,59.1z
			 M46.4,87.6l7.2-1.6l-2.2-12.4l0,0L53.6,86L46.4,87.6z M67.5,69.1c0,0.1,0.1,0.3,0.1,0.4C67.6,69.4,67.6,69.2,67.5,69.1L67.5,69.1
			z M67.9,84.8l-8.4-14.6l0,0L67.9,84.8L67.9,84.8z M76.9,69.1L76.9,69.1C76.9,69.1,76.9,69.1,76.9,69.1
			C76.9,69.1,76.9,69.1,76.9,69.1z M80.3,79.3c-0.1,0-0.2,0-0.4,0C80.1,79.3,80.2,79.3,80.3,79.3C80.4,79.3,80.3,79.3,80.3,79.3z
			 M81.6,46.4c0,0,0.1,0,0.1,0c0.1,0,0.2,0,0.3,0C81.9,46.4,81.7,46.4,81.6,46.4z M90.8,50.5L90.8,50.5
			C90.8,50.5,90.7,50.5,90.8,50.5C90.7,50.5,90.8,50.5,90.8,50.5z M85.5,69.2C85.5,69.1,85.6,69.1,85.5,69.2L85.5,69.2
			C85.6,69.1,85.5,69.1,85.5,69.2z M90.2,75.6c1.9-1.6,3.4-3.8,4.3-6.4l0,0C93.6,71.8,92.1,74,90.2,75.6z M109.3,44.6
			c0.1,0,0.1,0,0.1,0c0,0,0,0,0,0C109.4,44.6,109.3,44.6,109.3,44.6z M110.3,75.6C110.3,75.6,110.3,75.6,110.3,75.6
			C110.3,75.6,110.3,75.6,110.3,75.6C110.4,75.6,110.3,75.6,110.3,75.6z M117,46.1C117,46.1,117,46.1,117,46.1
			C117,46.1,117,46.1,117,46.1l0.7,4.4L117,46.1z M131.6,50.5c-0.2-3.7-0.6-9-0.3-9.9l0,0C130.9,41.6,131.3,46.8,131.6,50.5
			L131.6,50.5z M134.2,75.4l-0.5-7.2l0,0L134.2,75.4L134.2,75.4z M150,72.3l-3.5-4.7L150,72.3L150,72.3z M156.4,49
			c0.6,0.3,1.1,0.6,1.7,0.8C157.5,49.6,156.9,49.3,156.4,49z"/>
		<path class="st1" d="M58.1,7.6L61.7,24L75.4,7.6L67.9,26l12.4-3.2l-8.7,8.1l15.9-1.3L74,36.9l9.8,2.1l-6.6,4.1
			c0.7-0.1,1.3-0.3,2-0.4c0.8-0.1,1.7-0.2,2.5-0.2l0,0c5,0,9.3,2.1,12.4,6.1c0.2,0.3,0.4,0.5,0.6,0.8c0.6-1.1,1.3-2.2,2.1-3.2
			c3.1-3.5,7.4-5.4,12.6-5.4c2.8,0,5.9,0.6,8.9,1.7l0.6,0.2c0-0.3-0.1-0.6-0.1-0.9l-0.3-3.6l3.6-0.4l8.7-1l6.2-0.7l-0.7,1.7l9.2-0.5
			l4.4-0.2c2.6-1.2,5.6-2,8.3-2.6l0.5-0.1l3.5-0.8l1,3.4c1.8,6.2,3.1,10.8,3.1,10.8l-1.8,0.1c3.6,1.2,7.3,3.5,8.7,11.2
			c0.5,3-0.1,5.8-1.8,8.1c-2.6,3.6-7.6,5.7-15.4,6.8l0.3,0.9l-5.6,1l-10,1.8l-2.5,0.4l0,0.6l-3.6,0.4l-9,0.9l-4.1,0.4l0-4.1
			c0-0.1,0-0.1,0-0.2c-3.6,2.1-7.4,3.2-11.2,3.2c-4.4,0-8.5-1.6-11.6-4.4c-0.7-0.6-1.3-1.2-1.8-1.9c-0.5,0.9-1.1,1.8-1.7,2.6
			c-2.8,3.6-6.8,6.1-11.4,7h0h0c-1.1,0.2-2.3,0.3-3.4,0.3c-4,0-7.9-1.4-10.8-3.8c-0.4-0.4-0.8-0.7-1.2-1.1l2.8,4.9l2.4,4.2l-4.7,1.2
			l-8,2.1l-2.6,0.7l-1.4-2.1l-2.4,0.6l-7.2,1.6l-3.7,0.8l-0.8-3.7L38,65.7l0,0l-4.9-6.5L22.6,70.4l0.8-11.6L9.3,69l9.5-16.8
			L8.3,52.7l6.9-7.6L3.6,37l13.6-1.8L9.9,24.3l12.9,6.6l-4.8-16l12.4,12.5l0.1-10.5l4.9,7.2l0.3-16.5l7.6,14.7l2.1-14.7L51.6,23
			L58.1,7.6 M131.6,50.5L131.6,50.5c-0.2-3.7-0.6-9-0.3-9.9l0,0C130.9,41.6,131.3,46.8,131.6,50.5 M109.3,44.6c0.1,0,0.1,0,0.2,0
			l0,0c0,0,0,0,0,0C109.4,44.6,109.3,44.6,109.3,44.6 M117.7,50.5l-0.7-4.4l0,0l0,0L117.7,50.5 M81.6,46.4
			C81.6,46.4,81.6,46.4,81.6,46.4c0.2,0,0.3,0,0.4,0c-0.1,0-0.2,0-0.3,0C81.6,46.4,81.6,46.4,81.6,46.4 M158,49.8
			C158,49.8,158,49.8,158,49.8C158,49.8,158,49.8,158,49.8c-0.6-0.2-1.1-0.5-1.7-0.8C156.9,49.3,157.5,49.6,158,49.8 M90.8,50.5
			L90.8,50.5C90.8,50.5,90.7,50.5,90.8,50.5C90.7,50.5,90.8,50.5,90.8,50.5 M150,72.3L150,72.3l-3.5-4.7L150,72.3 M134.2,75.4
			L134.2,75.4l-0.5-7.2l0,0L134.2,75.4 M85.5,69.2C85.5,69.1,85.6,69.1,85.5,69.2L85.5,69.2C85.6,69.1,85.5,69.1,85.5,69.2 M77,69.1
			C76.9,69.1,76.9,69.1,77,69.1L77,69.1C76.9,69.1,76.9,69.1,77,69.1 M67.7,69.5c0-0.1-0.1-0.3-0.1-0.4l0,0
			C67.6,69.2,67.6,69.4,67.7,69.5 M90.2,75.6c1.9-1.6,3.4-3.8,4.3-6.4l0,0C93.6,71.8,92.1,74,90.2,75.6 M67.9,84.8L67.9,84.8
			l-8.4-14.6l0,0L67.9,84.8 M46.4,87.6l7.2-1.6l-2.2-12.4l0,0L53.6,86L46.4,87.6 M110.2,75.6C110.2,75.6,110.2,75.6,110.2,75.6
			S110.3,75.6,110.2,75.6c0.1,0,0.1,0,0.1,0C110.3,75.6,110.3,75.6,110.2,75.6 M80.3,79.3C80.3,79.3,80.4,79.3,80.3,79.3
			C80.4,79.3,80.4,79.3,80.3,79.3c-0.1,0-0.2,0-0.4,0C80.1,79.3,80.2,79.3,80.3,79.3 M79.9,0l-5.6,6.7L62.4,21l-3-13.7l-0.9-4.2
			l-1.7,4l-5.2,12.4l-5-12.4l-1.9-4.7l-0.7,5.1l-1.5,10.5L37,6.9l-2.5-4.7l-0.1,5.3l-0.2,12.3l-2.5-3.7l-2.4-3.6l0,4.3l-0.1,7.2
			L18.9,13.9L15.1,10l1.6,5.2l3.9,12.9L10.5,23l-4.7-2.4L8.8,25l6.1,9.1L3.5,35.6L0,36.1l2.9,2l10.3,7.2l-5.9,6.5l-2.2,2.4L8.4,54
			l8.1-0.4L8.2,68.3l-3,5.4l5-3.6l11.7-8.5l-0.6,8.7L21,74.1l2.6-2.8l9.4-10l3.8,5l4.6,22.3l0.8,3.7l0.3,1.4l1.3-0.3l3.7-0.8
			l7.2-1.6l1.5-0.3l0.9,1.3l0.5,0.8l1-0.2l2.6-0.7l8-2.1l4.7-1.2l1.7-0.4l-0.9-1.5l-2.2-3.8c2.4,1.1,5,1.7,7.8,1.7
			c1.2,0,2.5-0.1,3.7-0.3l0,0l0,0c4.9-0.9,9.2-3.6,12.2-7.5c0.3-0.4,0.6-0.8,0.8-1.2c0.2,0.2,0.4,0.4,0.7,0.6
			c3.3,3,7.8,4.7,12.5,4.7c3.3,0,6.6-0.8,9.8-2.3v2v1.5l1.5-0.1l4.1-0.4l9-0.9l3.6-0.4l1.3-0.1l-0.1-0.7l1.3-0.2l10-1.8l5.6-1
			l1.5-0.3l-0.3-0.9c7.3-1.2,12-3.5,14.7-7.1c2-2.6,2.7-5.8,2.1-9.2c-1.1-6.3-3.9-9.3-6.8-10.9l-0.1-0.4c0,0-1.3-4.6-3.1-10.8
			l-1-3.4l-0.4-1.2l-1.3,0.3l-3.5,0.8l-0.5,0.1c-2.6,0.6-5.6,1.3-8.3,2.6l-4.1,0.2l-7,0.4l0.7-1.8l-2.3,0.2l-6.2,0.7l-8.8,1
			l-3.6,0.4l-1.3,0.1l0.1,1.3l0.2,2.4c-2.7-0.8-5.4-1.3-8-1.3c-5.6,0-10.3,2-13.6,5.9c-0.4,0.5-0.9,1.1-1.2,1.6
			c-3.1-3.5-7.2-5.5-11.8-5.8l1.8-1.1l2.8-1.8l-3.3-0.7l-6.2-1.3l10.3-5.6l5.7-3.1l-6.5,0.5l-12,1l5.8-5.4l3.9-3.6L80,21.4L70.2,24
			L76.6,8L79.9,0L79.9,0z"/>
	</g>
	<g>
		<g>
			<path class="st2" d="M39.6,53.5c1-1.2,23.7-8.8,25.8,6.4c0.6,4.5-1.8,9-5.6,10.4l8.4,14.6l-8,2.1l-8.5-13.3L53.9,86l-7.2,1.6
				L39.6,53.5z M50.2,65.4c2.6,0,8.8-0.7,8.5-4.7c-0.8-4.3-7.2-3.9-10.2-2.9L50.2,65.4z"/>
		</g>
		<g>
			<path class="st2" d="M80,46.5c9.6-1.3,14.5,6.6,15.5,14.9c1.2,10-5.1,16.3-12.1,17.6c-6.9,1.3-14.5-2.2-15.9-11.9
				C65.9,56.7,68.8,48,80,46.5z M82.4,70.8c8.3-1.1,6.8-16.2-1.9-16.1c-4,0.5-5.8,4.8-5.3,9.8C75.8,68.9,78.7,71.3,82.4,70.8z"/>
		</g>
		<g>
			<path class="st2" d="M96.7,62.4c-0.6-4.2,0.2-10.2,3.2-13.6c4.4-5.1,11.5-4.9,17.4-2.7l1.2,7.9c-3.4-1.4-10.7-3.4-12.9,4.1
				c-1.1,3.7,1.1,10.2,6.2,9.6c2.9-0.4,5.7-3.1,7.6-4.5l4.4,6.9C113,79.9,98.6,76.4,96.7,62.4z"/>
		</g>
		<g>
			<path class="st2" d="M125.5,76.3c0-1.9-0.2-6.6-2.6-34.7l8.8-1c-0.5,1.2,0.3,9.4,0.4,12.5l0.1,0.2l3.9-11.7l10-0.6l-6.4,16.9
				l10.6,14.2l-10,1.8c-2.2-4-4.1-8.2-6.8-12l1,13.4L125.5,76.3z"/>
		</g>
		<g>
			<path class="st2" d="M152.4,64c3.2-0.1,8,0.4,9-3.3c2-7.2-12.5-1.8-14.3-11.3c-1.5-8.2,6.4-9.8,12.8-11.3c1.7,5.9,1.7,6,1.7,6
				c-4-0.2-8.9,2.1-5,4.9c6,3.3,11.4,1.1,13.2,10.8c1.4,7.6-8.1,10-15.9,10.8L152.4,64z"/>
		</g>
	</g>
	<g>
		<path class="st2" d="M40.8,33.9c1,4.8-0.7,8.2-4.8,10.1c-1.5,0.6-2.5,1.1-3,1.2c0.4,2.3,1,5.1,1.8,8.2c-2.2,1.2-4.4,2.2-6.6,2.9
			c-1.5-8-2.6-14.5-3.4-19.6c-0.5-2.8-0.8-4.5-0.8-4.9c2.1-1.7,5.8-3.4,10.1-3.4C37.5,28.4,39.7,30.3,40.8,33.9z M31.9,40.4
			c2.8-1.1,4.2-2.4,4.1-3.9c-0.2-1.1-0.7-1.8-1.4-2.1C33.2,34,32,34.2,30.9,35C31.2,36.8,31.5,38.6,31.9,40.4z"/>
		<path class="st2" d="M48.7,25.5c1.7-0.3,3.1,0.4,4.1,2.1c0.6,0.9,0.9,1.9,1.2,3.1c0.2,1.1,0.3,2.4,0.2,3.7
			c-0.2,2.3-0.8,4.6-1.9,6.8c-1.3,2.7-3,4.2-4.9,4.6c-1.7,0.3-3.1-0.4-4.2-2.1c-0.5-0.9-0.9-1.9-1.1-3c-0.2-1.1-0.3-2.4-0.2-3.8
			c0.2-2.4,0.8-4.6,1.8-6.8C45.1,27.4,46.7,25.9,48.7,25.5z M49,31.6c-0.9,0.2-1.6,1.1-2.3,2.7c-0.5,1.3-0.8,2.5-0.9,3.6
			c0,0.6,0,1.1,0.1,1.6c0.1,0.7,0.4,1.2,0.8,1.5c0.5,0.4,1,0.5,1.7,0.4c0.9-0.2,1.6-0.8,2.1-1.9c0.4-0.9,0.7-1.8,0.7-2.9
			c0.1-1.3-0.1-2.4-0.5-3.6C50.4,31.9,49.8,31.4,49,31.6z"/>
		<path class="st2" d="M55.9,29.5c2.3-1.2,4.2-1.9,5.7-2.2c2.2-0.4,3.4,0.1,3.6,1.6c0.5,3-1.4,6.7-5.8,10.8c0,2,0.1,3.9,0.3,5.6
			L56.1,47C56.1,46.7,55.9,29.5,55.9,29.5z M59.3,32.5c0,0.7-0.1,1.3-0.1,2l0,1.9c1.9-1.4,3-2.8,3.4-4c0.1-0.2,0.1-0.3,0.1-0.5
			c-0.1-0.4-0.4-0.5-0.9-0.4C61.2,31.6,60.4,31.9,59.3,32.5z"/>
	</g>
</g>
</svg>
